<?xml version="1.0" encoding="utf-8"?>
<!-- Generator: Adobe Illustrator 19.1.0, SVG Export Plug-In . SVG Version: 6.00 Build 0)  -->
<svg version="1.1" id="Layer_1" xmlns="http://www.w3.org/2000/svg" xmlns:xlink="http://www.w3.org/1999/xlink" x="0px" y="0px"
	 viewBox="0 0 95 95" style="enable-background:new 0 0 95 95;" xml:space="preserve">
<style type="text/css">
	.st0{fill:#FFFFFF;}
	.st1{fill:none;}
</style>
<g>
	<circle class="st0" cx="47.5" cy="47.5" r="45.5"/>
	<path d="M47.5,95C21.3,95,0,73.7,0,47.5C0,21.3,21.3,0,47.5,0S95,21.3,95,47.5C95,73.7,73.7,95,47.5,95z M47.5,4
		C23.5,4,4,23.5,4,47.5S23.5,91,47.5,91C71.5,91,91,71.5,91,47.5S71.5,4,47.5,4z"/>
</g>
<g>
	<g>
		<path d="M42.8,48.2c-0.2-4.5-0.5-9.9-0.5-14h-0.1c-1.1,3.8-2.4,7.8-4.1,12.3l-5.7,15.7h-3.2L24,46.8c-1.5-4.6-2.8-8.7-3.7-12.6
			h-0.1c-0.1,4-0.3,9.5-0.6,14.3l-0.9,13.9h-4L16.9,30h5.3l5.5,15.6c1.3,4,2.4,7.5,3.3,10.9h0.1c0.8-3.3,2-6.8,3.4-10.9L40.3,30h5.3
			l2,32.4h-4.1L42.8,48.2z"/>
	</g>
	<g>
		<path d="M78.7,60.9c-1.9,0.7-5.6,1.8-9.9,1.8c-4.9,0-8.9-1.2-12.1-4.3c-2.8-2.7-4.5-7-4.5-12c0-9.6,6.7-16.7,17.5-16.7
			c3.7,0,6.7,0.8,8.1,1.5l-1,3.4c-1.7-0.8-3.9-1.4-7.2-1.4c-7.9,0-13,4.9-13,13c0,8.2,4.9,13.1,12.5,13.1c2.7,0,4.6-0.4,5.6-0.9
			v-9.6h-6.6v-3.4h10.7V60.9z"/>
	</g>
</g>
<rect id="_x3C_Slice_x3E_" x="11.2" y="11.3" class="st1" width="73" height="73"/>
</svg>
