<?xml version="1.0" encoding="utf-8"?>
<!-- Generator: Adobe Illustrator 19.1.0, SVG Export Plug-In . SVG Version: 6.00 Build 0)  -->
<svg version="1.1" id="Layer_1" xmlns="http://www.w3.org/2000/svg" xmlns:xlink="http://www.w3.org/1999/xlink" x="0px" y="0px"
	 viewBox="0 0 100 100" style="enable-background:new 0 0 100 100;" xml:space="preserve">
<style type="text/css">
	.st0{fill:none;}
</style>
<g>
	<path d="M49.9,98.8C23.1,98.8,1.3,77,1.3,50.2c0-26.8,21.8-48.6,48.6-48.6s48.6,21.8,48.6,48.6C98.6,77,76.7,98.8,49.9,98.8z
		 M49.9,2.5C23.6,2.5,2.3,23.9,2.3,50.2c0,26.3,21.4,47.6,47.6,47.6c26.3,0,47.6-21.4,47.6-47.6C97.6,23.9,76.2,2.5,49.9,2.5z"/>
</g>
<g>
	<path d="M45.6,50.9c-0.2-4.5-0.5-9.9-0.5-14H45c-1.1,3.8-2.4,7.8-4.1,12.3l-5.7,15.7H32l-5.2-15.4c-1.5-4.6-2.8-8.7-3.7-12.6h-0.1
		c-0.1,4-0.3,9.5-0.6,14.3l-0.9,13.9h-4l2.3-32.4H25l5.5,15.6c1.3,4,2.4,7.5,3.3,10.9H34c0.8-3.3,2-6.8,3.4-10.9l5.8-15.6h5.3
		l2,32.4h-4.1L45.6,50.9z"/>
	<path d="M81.5,63.6c-1.9,0.7-5.6,1.8-9.9,1.8c-4.9,0-8.9-1.2-12.1-4.3c-2.8-2.7-4.5-7-4.5-12c0-9.6,6.7-16.7,17.5-16.7
		c3.7,0,6.7,0.8,8.1,1.5l-1,3.4c-1.7-0.8-3.9-1.4-7.2-1.4c-7.9,0-13,4.9-13,13c0,8.2,4.9,13.1,12.5,13.1c2.7,0,4.6-0.4,5.6-0.9v-9.6
		h-6.6v-3.4h10.7V63.6z"/>
</g>
<rect id="_x3C_Slice_x3E_" x="14" y="14" class="st0" width="73" height="73"/>
</svg>
