<?xml version="1.0" standalone="no"?>
<!DOCTYPE svg PUBLIC "-//W3C//DTD SVG 20010904//EN"
 "http://www.w3.org/TR/2001/REC-SVG-20010904/DTD/svg10.dtd">
<svg version="1.0" xmlns="http://www.w3.org/2000/svg"
 width="260.000000pt" height="260.000000pt" viewBox="0 0 260.000000 260.000000"
 preserveAspectRatio="xMidYMid meet">
<metadata>
Created by potrace 1.11, written by Peter Selinger 2001-2013
</metadata>
<g transform="translate(0.000000,260.000000) scale(0.100000,-0.100000)"
fill="#000000" stroke="none">
<path d="M1390 2594 c-188 -29 -286 -56 -390 -109 -234 -118 -417 -345 -515
-638 -62 -187 -80 -311 -80 -552 0 -214 11 -313 51 -464 44 -165 103 -296 191
-428 89 -132 172 -207 317 -288 54 -30 213 -83 276 -91 25 -3 49 -8 53 -11 18
-11 298 -13 368 -3 125 17 144 20 167 25 12 3 31 7 42 10 115 25 324 97 335
116 5 7 -154 332 -170 347 -2 2 -50 -12 -107 -31 -166 -56 -254 -71 -418 -71
-125 0 -154 3 -210 22 -75 27 -139 69 -193 126 -69 75 -152 271 -183 431 -4
22 -9 47 -10 55 -9 43 -17 188 -16 279 4 341 94 604 259 750 108 97 220 131
408 126 132 -3 171 -10 353 -62 68 -19 125 -33 127 -31 4 4 145 329 145 334 0
9 -104 55 -190 82 -96 32 -202 55 -320 71 -58 8 -251 11 -290 5z"/>
<path d="M1465 1922 c-119 -24 -242 -101 -310 -193 -93 -126 -134 -281 -129
-484 8 -324 158 -547 405 -599 125 -27 336 -5 461 48 l37 16 -44 88 -45 89
-53 -18 c-29 -10 -66 -21 -82 -24 -60 -13 -178 -14 -222 -2 -130 34 -212 204
-211 435 1 215 64 362 183 425 60 32 184 33 300 2 49 -13 90 -23 91 -22 7 9
64 152 64 162 0 16 -93 51 -185 70 -64 13 -212 17 -260 7z"/>
<path d="M1637 1339 c-27 -16 -39 -55 -25 -84 24 -54 108 -46 122 11 14 54
-50 101 -97 73z"/>
</g>
</svg>
