<?xml version="1.0" standalone="no"?><!-- Generator: Gravit.io --><svg xmlns="http://www.w3.org/2000/svg" xmlns:xlink="http://www.w3.org/1999/xlink" style="isolation:isolate" viewBox="0 0 260 260" width="260" height="260"><defs><clipPath id="_clipPath_8QiDzQY65xivjACSBEfDiqFCqdEZsNMG"><rect width="260" height="260"/></clipPath></defs><g clip-path="url(#_clipPath_8QiDzQY65xivjACSBEfDiqFCqdEZsNMG)"><path d=" M 243.66 109.569 L 240.352 119.46 C 229.856 150.849 204.1 196.951 182.873 222.345 L 169.408 238.454 C 148.181 263.849 113.17 264.317 91.272 239.498 L 84.049 231.311 C 62.151 206.492 35.099 161.122 23.677 130.058 L 16.246 109.849 C 4.823 78.785 21.901 48.309 54.359 41.835 L 64.658 39.781 C 97.117 33.308 149.929 32.736 182.52 38.506 L 203.628 42.242 C 236.219 48.012 254.157 78.18 243.66 109.569 Z " fill="rgb(208,161,40)"/><path d=" M 120.032 83.038 L 255 97.917 C 265.333 88 239.333 55.333 229.013 49.365 Q 195.333 33 176 28 Q 157.358 23.179 127.254 3 Q 104.571 14.407 93 21.819 Q 78.667 31 44.383 40 C 22.8 45.835 -6 79.333 6.653 97.917 L 120.032 83.038 Z " fill="rgb(119,86,2)"/><path d=" M 13 92.977 L 44.383 49 L 63 78 L 82 37 L 97 78 Q 116.032 21.333 112 25 Q 107.968 28.667 123.469 64 L 139 23 L 156.913 73 L 172 45 L 190 88.038 L 195 54.365 L 221.333 88.038 L 221.333 58.565 L 248 88.038" fill="none" vector-effect="non-scaling-stroke" stroke-width="1" stroke="rgb(72,35,11)" stroke-linejoin="miter" stroke-linecap="square" stroke-miterlimit="3"/><path d=" M 235 74.038 L 209 45 L 201 83.038 L 183 40.365 L 172 64 L 150 23 L 135 53 L 127.254 9 L 115 69.038 L 97 23 L 82 62 L 63 35 L 44.373 74.038 L 25.33 53" fill="none" vector-effect="non-scaling-stroke" stroke-width="1" stroke="rgb(72,35,11)" stroke-linejoin="miter" stroke-linecap="square" stroke-miterlimit="3"/></g></svg>