<svg xmlns="http://www.w3.org/2000/svg" style="isolation:isolate" width="260" height="260"><defs><clipPath id="a"><path d="M0 0h260v260H0z"/></clipPath></defs><g clip-path="url(#a)"><clipPath id="b"><path fill="#FFF" d="M0 0h260v260H0z"/></clipPath><g clip-path="url(#b)"><path d="M246.266 109.685l-3.365 9.809c-10.676 31.129-36.875 76.849-58.467 102.032l-13.696 15.975c-33.349 24.94-44.835 21.494-76.892 1.036l-9.934-8.119c-22.274-24.614-49.791-69.607-61.41-100.414l-7.558-20.041c-11.62-30.806 5.752-61.03 38.768-67.45l10.476-2.037c33.017-6.419 86.736-6.987 119.887-1.264l21.471 3.705c33.151 5.722 51.398 35.64 40.72 66.768z" fill="#D0A128"/><path d="M117.226 98.13h135.932c10.495-9.835-10.687-42.231-21.169-48.15q-34.207-16.229-53.843-21.187Q141.984 16.635 128.637 4q-16.067 11.312-27.819 18.663-21.529 9.105-56.35 18.03C22.547 46.48-6.704 79.7 6.147 98.13h111.079z" fill="#775602"/><path d="M221.391 81.341L197.69 52.543l-7.293 37.723-16.409-42.319-10.027 23.439-20.055-40.66-13.674 29.751-7.061-43.635-11.17 59.54-16.409-45.656-13.673 38.676-17.32-26.776-16.981 38.715-30.341-4.959" fill="none" vector-effect="non-scaling-stroke" stroke-width=".951" stroke="#48230B" stroke-opacity="100" stroke-linecap="square" stroke-miterlimit="3"/></g></g></svg>