<?xml version="1.0" standalone="no"?>
<!DOCTYPE svg PUBLIC "-//W3C//DTD SVG 20010904//EN"
 "http://www.w3.org/TR/2001/REC-SVG-20010904/DTD/svg10.dtd">
<svg version="1.0" xmlns="http://www.w3.org/2000/svg"
 width="260.000000pt" height="260.000000pt" viewBox="0 0 260.000000 260.000000"
 preserveAspectRatio="xMidYMid meet">
<metadata>
Created by potrace 1.11, written by Peter Selinger 2001-2013
</metadata>
<g transform="translate(0.000000,260.000000) scale(0.100000,-0.100000)"
fill="#000000" stroke="none">
<path d="M1155 2469 c-167 -114 -314 -172 -656 -263 -137 -36 -210 -78 -310
-179 -96 -97 -159 -217 -159 -304 0 -18 7 -50 15 -71 13 -31 20 -38 42 -37 22
0 29 -6 36 -30 67 -218 211 -551 304 -697 12 -21 23 -40 23 -43 0 -12 182
-288 250 -380 131 -175 232 -261 415 -352 151 -76 252 -81 381 -19 79 37 179
102 218 141 107 107 310 380 424 570 73 122 242 455 242 477 0 8 4 18 9 24 12
12 87 230 95 277 6 31 11 37 31 37 20 0 27 8 36 40 10 34 9 51 -5 103 -29 105
-110 237 -191 309 -50 46 -355 174 -570 241 -174 54 -335 128 -440 202 l-60
42 -130 -88z"/>
</g>
</svg>
