<svg xmlns="http://www.w3.org/2000/svg" style="isolation:isolate" width="400" height="400"><defs><clipPath id="a"><path d="M0 0h400v400H0z"/></clipPath></defs><g clip-path="url(#a)" fill="#F90"><path d="M50 200c0-82.787 67.213-150 150-150s150 67.213 150 150-67.213 150-150 150S50 282.787 50 200zM112.776 335.275l-52.498 16.552 11.914-53.741zM333.143 112.975l-35.511-42.059 54.18-9.723zM358.985 191.181l-12.091-53.701 52.552 16.38zM336.927 286.12l19.124-51.617 35.14 42.37zM262.945 350.639l45.387-31.145 4.279 54.879zM53.314 262.668L.792 246.193l40.529-37.248zM100.813 70.275l5.567-54.763 44.643 32.203zM209.437 39.24L248.257.214l14.388 53.132zM46.981 152.536l-28.909-46.844 55.022-1.613zM174.771 402.034l-24.668-49.208 54.95 3.241z"/></g></svg>