<svg xmlns="http://www.w3.org/2000/svg" style="isolation:isolate" width="243" height="131"><defs><clipPath id="a"><path d="M0 0h243v131H0z"/></clipPath></defs><g clip-path="url(#a)"><path d="M205.736 60.553c.177-1.501.264-3.02.264-4.553 0-30.907-35.399-56-79-56-41.641 0-75.8 22.887-78.79 51.868C44.016 50.661 39.375 50 34.5 50 15.459 50 0 60.082 0 72.5S15.459 95 34.5 95c.51 0 1.017-.007 1.523-.019-.998 2.247-1.523 4.598-1.523 7.019 0 16.006 22.964 29 51.25 29 22.223 0 41.162-8.021 48.251-19.224 14.991-.933 28.785-4.84 40.194-10.889C180.497 102.238 187.552 103 195 103c26.492 0 48-9.634 48-21.5 0-10.212-15.929-18.77-37.264-20.947z" fill="#1A6C1A"/><path d="M195.797 65.451c.152-1.078.228-2.168.228-3.268 0-22.178-30.592-40.183-68.272-40.183-35.986 0-65.506 16.423-68.09 37.218-3.625-.866-7.635-1.34-11.848-1.34C31.36 57.878 18 65.112 18 74.023s13.36 16.145 29.815 16.145c.441 0 .879-.005 1.316-.014-.862 1.612-1.316 3.3-1.316 5.037 0 11.485 19.846 20.809 44.29 20.809 19.205 0 35.572-5.756 41.698-13.794 12.955-.67 24.877-3.473 34.736-7.814 5.446.97 11.543 1.516 17.98 1.516 22.894 0 41.481-6.912 41.481-15.427 0-7.328-13.765-13.469-32.203-15.03z" fill="#FFF" fill-opacity=".24"/></g></svg>