<?xml version="1.0" encoding="utf-8"?>
<!-- Generator: Adobe Illustrator 19.1.0, SVG Export Plug-In . SVG Version: 6.00 Build 0)  -->
<svg version="1.1" id="Layer_1" xmlns="http://www.w3.org/2000/svg" xmlns:xlink="http://www.w3.org/1999/xlink" x="0px" y="0px"
	 viewBox="0 0 600 300" style="enable-background:new 0 0 600 300;" xml:space="preserve">
<style type="text/css">
	.st0{opacity:0.65;}
	.st1{fill:#00A651;}
	.st2{fill:#1C75BC;}
	.st3{fill:#BE1E2D;}
	.st4{fill:#FFDE17;}
</style>
<g class="st0">
	<path class="st1" d="M299.7,166.7c4.9,6.1,10.1,11.9,15.5,17.6c5.4,5.6,11,11,16.9,16.2l-1.1,0.6l-6-33.2l-0.2-1.2l1.3,0
		c17.3-0.2,34.6-0.5,51.9-1.5c17.2-1.1,34.4-3.1,51.1-7c8.3-2,16.6-4.4,24.6-7.4c4-1.5,7.9-3.2,11.7-5.1c1.9-0.9,3.8-2,5.6-3
		l2.7-1.6l0.7-0.4c0.2-0.1,0.4-0.3,0.7-0.4l1.4-0.9c7-4.7,13.4-10.3,19.3-16.5c1.5-1.5,2.9-3.1,4.3-4.7l2.1-2.4
		c0.7-0.8,1.4-1.7,2.1-2.5c2.7-3.3,5.2-6.7,7.3-10.2c2.1-3.5,3.8-7.3,4.7-11.1c0.5-1.9,0.6-3.9,0.6-5.8l-0.1-1.4c0,0,0-0.3,0,0
		l0-0.2l-0.1-0.4l-0.1-0.8c-0.1-1.2-0.4-2-0.6-2.8c-0.1-0.4-0.3-0.9-0.4-1.4l-0.5-1.4c-0.4-0.9-0.8-1.8-1.3-2.7
		c-0.5-0.9-1-1.8-1.5-2.6l-0.8-1.3c-0.3-0.4-0.6-0.8-0.9-1.2c-2.5-3.2-5.4-6.2-8.6-9c-3.2-2.8-6.5-5.3-10-7.7
		c-0.9-0.6-1.8-1.2-2.6-1.8c-0.4-0.3-0.9-0.6-1.3-0.8l-1.4-0.9c-1.8-1.1-3.7-2.3-5.5-3.4c-7.3-4.3-15-8.1-22.8-11.5
		c-7.8-3.4-15.9-6.4-24-9c-8.2-2.6-16.5-4.8-24.8-6.6c-8.4-1.9-16.8-3.3-25.3-4.4c-8.5-1.1-17.1-1.9-25.6-2.3
		c-17.1-0.8-34.4-0.3-51.4,1.5c-17.1,1.8-34.1,4.8-50.6,9.3c-16.5,4.5-32.6,10.7-47.4,19.2c-1.9,1-3.7,2.2-5.5,3.3
		c-0.4,0.3-1,0.6-1.3,0.8l-1.3,0.9l-2.7,1.8c-0.9,0.6-1.7,1.2-2.6,1.9l-2.5,1.9c-1.7,1.3-3.3,2.7-4.9,4
		c-6.4,5.5-12.2,11.8-16.9,18.8c-2.4,3.5-4.3,7.2-6.1,11c-1.6,3.9-3,7.8-3.7,11.9c-0.5,2-0.6,4.1-0.9,6.2c-0.1,0.5-0.1,1-0.1,1.6
		l0,1.6c0,1-0.1,2.1,0,3.1l0.3,3.1l0.1,0.7l0.1,0.8c0.1,0.5,0.2,1.1,0.3,1.6c0.4,2,0.9,4,1.6,6c2.7,7.8,8.2,14.6,15.3,19l0.6,0.4
		l0.7,0.4c0.5,0.3,0.9,0.6,1.4,0.8c0.9,0.5,1.8,1,2.8,1.4c1.9,0.9,3.9,1.7,5.9,2.4c4,1.5,8.1,2.7,12.3,3.8
		c16.7,4.3,33.7,8,50.7,11.2c8.5,1.6,17,3.1,25.6,4.5c4.3,0.7,8.6,1.4,12.8,2l6.4,0.9c0.5,0.1,1.1,0.2,1.6,0.4
		c0.5,0.2,1.1,0.4,1.3,1c0.1,0.1,0.1,0.3,0,0.4c-0.1,0.2-0.2,0.3-0.3,0.3c-0.3,0.1-0.5,0.2-0.8,0.2c-0.3,0-0.5,0-0.8-0.1
		c-0.1,0-0.3-0.1-0.3-0.2c-0.1-0.1,0.1-0.3,0.2-0.3c-0.1,0.1-0.2,0.2-0.1,0.3c0.1,0.1,0.2,0.2,0.3,0.2c0.3,0.1,0.5,0.1,0.8,0.1
		c0.3,0,0.5-0.1,0.8-0.2c0.1-0.1,0.2-0.2,0.3-0.3c0-0.1,0-0.2-0.1-0.4c-0.2-0.5-0.8-0.7-1.3-0.8c-0.5-0.2-1-0.3-1.6-0.3l-6.5-0.7
		c-4.3-0.5-8.6-1-12.9-1.6c-8.6-1.1-17.2-2.4-25.7-3.8c-17.1-2.8-34.1-6.1-51.1-10c-4.2-1-8.5-2.1-12.6-3.6
		c-2.1-0.7-4.1-1.5-6.2-2.4c-1-0.5-2-0.9-3-1.5c-0.5-0.3-1-0.5-1.5-0.8l-0.7-0.4l-0.7-0.5c-3.8-2.3-7.3-5.3-10.2-8.8
		c-1.4-1.7-2.8-3.6-3.9-5.6c-1.1-2-2.1-4-2.9-6.1c-0.8-2.1-1.4-4.3-1.9-6.5c-0.1-0.6-0.2-1.1-0.3-1.6l-0.1-0.8l-0.1-0.9l-0.3-3.4
		c-0.2-1.1-0.1-2.2-0.1-3.4l0-1.7c0-0.6,0-1.1,0.1-1.7c0.2-2.2,0.3-4.5,0.8-6.7c0.7-4.4,2.2-8.7,3.8-12.9l1.4-3l0.7-1.5l0.8-1.5
		l1.6-2.9c0.5-1,1.2-1.9,1.8-2.8c4.9-7.5,10.8-14.1,17.4-20c1.7-1.4,3.3-2.9,5.1-4.3c1.8-1.3,3.5-2.8,5.3-4l2.7-1.8l1.3-0.9
		c0.5-0.4,1-0.6,1.4-0.9c1.9-1.1,3.7-2.4,5.6-3.5c15.2-8.8,31.7-15.3,48.5-20c8.4-2.4,16.9-4.4,25.5-6c4.3-0.8,8.6-1.5,12.9-2.2
		l6.5-0.9l6.5-0.7c17.4-1.9,34.9-2.4,52.3-1.6c8.7,0.4,17.4,1.2,26.1,2.3c8.7,1.1,17.3,2.6,25.8,4.5c8.5,1.9,17,4.2,25.3,6.8
		c8.3,2.7,16.5,5.8,24.6,9.3c8.1,3.5,15.9,7.4,23.5,11.9c1.9,1.1,3.7,2.3,5.6,3.4l1.4,0.9c0.6,0.3,0.9,0.6,1.4,0.9
		c0.9,0.6,1.8,1.2,2.7,1.9c3.6,2.5,7.2,5.2,10.5,8.2c3.3,3,6.5,6.2,9.3,9.9c0.3,0.5,0.7,0.9,1,1.4l0.9,1.4c0.7,0.9,1.2,2,1.8,3
		c0.6,1,1,2.1,1.5,3.2l0.6,1.7c0.2,0.6,0.4,1.1,0.5,1.7c0.3,1.2,0.6,2.5,0.7,3.5l0.1,0.8l0.1,0.4l0,0.2c0,0.4,0,0.2,0,0.4l0.1,1.8
		c0,2.4-0.2,4.8-0.8,7.1c-1.1,4.6-3.1,8.8-5.5,12.6c-2.3,3.9-5,7.4-7.9,10.8c-0.7,0.9-1.4,1.7-2.1,2.5l-2.2,2.5
		c-1.5,1.6-3,3.2-4.5,4.8c-6.1,6.3-12.9,12.1-20.4,17l-1.4,0.9l-0.7,0.4l-0.7,0.4l-2.9,1.7c-2,1-3.9,2.1-5.9,3
		c-4,1.9-8,3.6-12.1,5.2c-8.2,3.1-16.7,5.4-25.2,7.3c-17.1,3.7-34.5,5.4-51.8,6.2c-17.4,0.8-34.7,0.6-52,0.4l1.1-1.2l5.2,33.3
		l0.3,1.9l-1.4-1.3c-5.7-5.3-11.3-10.9-16.5-16.7C309.4,179,304.4,173,299.7,166.7z"/>
</g>
<g class="st0">
	<path d="M182.1,97.3c0,0,0,0.2,0.1,0.5c0,0.4,0.1,0.9,0.2,1.5c0.2,1.3,0.6,3.1,1.3,5.1c0.3,1,0.7,2,1.2,3.1c0.5,1,1.1,2.2,1.7,3.2
		l0.3,0.4c0.1,0.1,0.2,0.2,0.2,0.3c0.1,0.2,0.3,0.4,0.5,0.6c0.4,0.4,0.8,0.8,1.2,1.1c0.9,0.7,1.8,1,2.3,0.9c0.5,0,1-0.3,1.6-1.1
		c0.3-0.4,0.5-0.9,0.7-1.4l0.1-0.4l0-0.1l0,0c0-0.1,0,0.1,0,0l0,0l0-0.1l0.1-0.3c0.1-0.3,0.2-0.7,0.2-0.9c0.3-1.1,0.5-2.4,0.5-3.5
		c0.1-1.2,0.1-2.3,0-3.3c-0.1-1-0.2-2-0.4-2.9c-0.2-0.9-0.3-1.6-0.5-2.2c-0.2-0.6-0.3-1.1-0.4-1.4c-0.1-0.3-0.2-0.5-0.2-0.5
		s0.1,0.1,0.4,0.4c0.3,0.2,0.6,0.6,1.1,1.1c0.4,0.5,0.9,1.2,1.4,2c0.5,0.8,1,1.8,1.4,2.9c0.4,1.1,0.7,2.4,0.9,3.8
		c0.2,1.4,0.2,2.8,0.1,4.5c0,0.4-0.1,0.8-0.1,1.1l0,0.3l0,0.2l0,0.2l-0.1,0.6c-0.2,0.8-0.5,1.7-1,2.5c-0.5,0.8-1.1,1.7-2.1,2.4
		c-0.1,0.1-0.3,0.2-0.4,0.3l-0.2,0.1l-0.1,0.1l-0.1,0.1l-0.1,0l-0.1,0.1l-0.1,0l-0.4,0.2c-0.3,0.1-0.6,0.2-0.9,0.3
		c-0.3,0.1-0.6,0.1-0.9,0.1c-1.2,0.1-2.4-0.2-3.3-0.6c-1-0.4-1.7-1-2.4-1.6c-0.7-0.6-1.3-1.3-1.8-1.9c-0.3-0.4-0.5-0.7-0.7-1.1
		c-0.1-0.2-0.2-0.4-0.3-0.6l-0.2-0.5c-0.7-1.5-1.1-2.8-1.4-4.2c-0.3-1.3-0.5-2.6-0.5-3.8c-0.1-1.2,0-2.3,0.1-3.2
		c0.1-0.9,0.3-1.7,0.4-2.4c0.2-0.7,0.3-1.2,0.5-1.5C182,97.4,182.1,97.3,182.1,97.3z"/>
</g>
<g class="st0">
	<path d="M209.3,109.6c0,0-0.3-0.8-0.9-2.1c-0.5-1.4-1.2-3.3-1.8-5.8c-0.3-1.2-0.5-2.6-0.7-4.1c-0.1-0.8-0.1-1.5,0-2.4l0-0.6l0-0.2
		l0-0.1l0,0l0,0c0,0.1,0-0.2,0-0.2l0-0.3c0-0.2,0.1-0.4,0.1-0.6c0.1-0.3,0.2-0.6,0.3-0.9c0.5-1.1,1.4-2.1,2.5-2.8
		c1.1-0.6,2.3-0.9,3.4-0.9c2.2,0,4.2,0.6,6,1.9l0.3,0.2l0.2,0.2L219,91l0.1,0.1l0.5,0.4c0.3,0.3,0.6,0.5,1,1c0.4,0.4,0.7,0.8,1,1.2
		l0.7,1.2c0.9,1.7,1.5,3.5,1.7,5.1c0.5,3.3,0.3,6.2,0.3,8.7c-0.1,1.2-0.1,2.3-0.1,3.3c0,1,0,1.8,0.1,2.5c0,0.7,0.1,1.3,0.2,1.7
		c0,0.4,0.1,0.6,0.1,0.6s-0.1-0.2-0.3-0.5c-0.2-0.3-0.6-0.8-0.9-1.5c-0.3-0.7-0.7-1.5-1-2.5c-0.1-0.5-0.3-1-0.5-1.6
		c-0.1-0.6-0.3-1.1-0.4-1.8c-0.3-1.2-0.5-2.5-0.8-3.9c-0.2-1.4-0.6-2.7-0.9-4.1c-0.4-1.3-0.9-2.6-1.6-3.7l-0.5-0.8
		c-0.2-0.2-0.4-0.4-0.5-0.6c-0.1-0.2-0.5-0.5-0.8-0.8l-0.5-0.4l-0.1-0.1l-0.1-0.1l0,0l0,0c-0.1-0.1,0.2,0.1,0.1,0.1l-0.2-0.1
		c-0.9-0.6-2.1-1.1-3.1-1.1c-0.5,0-0.9,0-1.2,0.2c-0.3,0.1-0.5,0.3-0.7,0.5c0,0-0.1,0.1-0.1,0.1c-0.1,0.1-0.1,0.4-0.2,0.5l-0.1,0.3
		c0,0,0.1-0.3,0-0.1l0,0l0,0l0,0.1l0,0.1l-0.1,0.5c-0.1,0.6-0.2,1.3-0.3,1.9c-0.1,1.3-0.2,2.6-0.2,3.8c0,2.5,0,4.5-0.1,5.9
		C209.4,108.8,209.3,109.6,209.3,109.6z"/>
</g>
<g class="st0">
	<path d="M202.2,94.5c0,0,0.3,0.2,0.7,0.5c0.4,0.3,1,0.8,1.6,1.3c0.6,0.6,1.2,1.3,1.8,2.1c0.3,0.4,0.5,0.8,0.8,1.3
		c0.3,0.4,0.5,0.9,0.7,1.4c0.2,0.5,0.4,1,0.5,1.4c0.2,0.5,0.3,1,0.4,1.5c0.2,1,0.3,1.9,0.3,2.7c0,0.8,0,1.6-0.1,2.1
		c-0.1,0.5-0.2,0.9-0.2,0.9s-0.3-0.2-0.7-0.5c-0.4-0.3-1-0.8-1.6-1.3c-0.6-0.6-1.2-1.3-1.8-2.1c-0.3-0.4-0.5-0.8-0.8-1.3
		c-0.3-0.4-0.5-0.9-0.7-1.4c-0.2-0.5-0.4-1-0.5-1.5c-0.2-0.5-0.3-1-0.4-1.5c-0.2-1-0.3-1.9-0.3-2.7c0-0.8,0-1.6,0.1-2.1
		C202.1,94.8,202.2,94.5,202.2,94.5z"/>
</g>
<g class="st0">
	<path d="M242.9,94.4c0,0,0-0.1-0.1-0.2c-0.1-0.2-0.2-0.4-0.3-0.7c-0.3-0.5-1.1-1.2-2.2-1.5c-0.5-0.2-1.2-0.2-1.8-0.1
		c-0.2,0-0.3,0-0.5,0.1c-0.1,0-0.2,0-0.2,0.1l-0.3,0.1c-0.2,0.1-0.3,0.1-0.5,0.2c-0.1,0.1-0.3,0.2-0.5,0.3c-1.2,0.8-2.2,2.2-3,4
		l-0.1,0.3l-0.1,0.3c-0.1,0.2-0.2,0.5-0.3,0.8c-0.2,0.5-0.3,1-0.5,1.5c-0.3,1-0.6,2.1-0.8,3.2c-0.5,2.2-0.7,4.6-0.3,6.8
		c0.2,1.1,0.5,2.1,1,2.9l0.1,0.2l0,0.1l0,0c-0.2-0.3,0-0.1-0.1-0.1l0,0.1l0.3,0.4l0.3,0.4l0.2,0.1c0.1,0,0.1,0.1,0.2,0.2l0.3,0.2
		l0.2,0.2l0.3,0.1c0.7,0.3,1.6,0.3,2.6,0.1c1-0.2,2-0.8,2.9-1.4c0.9-0.7,1.6-1.5,2.2-2.4c0.4-0.7,0.6-1.1,0.9-1.6
		c0.3-0.6,0.5-1.1,0.7-1.7c0.8-2.3,1.1-4.8,1.2-7.3c0-2.5-0.2-4.9-0.6-7.2c-0.4-2.2-0.9-4.5-1.5-6.4c-1.2-4-2.5-7.3-3.4-9.6
		c-0.9-2.3-1.4-3.6-1.4-3.6s0.2,0.3,0.6,0.8c0.4,0.5,1,1.3,1.7,2.4c0.7,1,1.6,2.3,2.4,3.8c0.9,1.5,1.9,3.2,2.8,5.2
		c0.9,2,1.8,4.2,2.5,6.7c0.7,2.4,1.2,5.1,1.3,7.9c0.1,2.8-0.1,5.8-1,8.8c-0.2,0.7-0.5,1.5-0.8,2.2c-0.3,0.7-0.7,1.6-1.1,2.1
		c-0.9,1.5-2.1,2.9-3.4,3.9c-1.4,1-2.9,1.8-4.7,2.3c-1.7,0.4-3.8,0.4-5.7-0.4l-0.7-0.3c-0.2-0.1-0.4-0.3-0.6-0.4
		c-0.2-0.1-0.4-0.3-0.6-0.4c-0.2-0.2-0.4-0.4-0.6-0.6c-0.2-0.2-0.4-0.4-0.5-0.6L229,116l-0.3-0.4l0-0.1l-0.1-0.2l0,0l-0.1-0.1
		l-0.2-0.3c-0.8-1.5-1.2-3.2-1.4-4.7c-0.2-3.1,0.3-5.8,1.1-8.3c0.4-1.2,0.8-2.4,1.4-3.5c0.2-0.5,0.5-1.1,0.8-1.6
		c0.1-0.3,0.3-0.5,0.4-0.7l0.2-0.4l0.2-0.4c1.2-1.9,2.8-3.6,4.7-4.4c1.9-0.8,3.8-0.4,4.9,0.3c1.2,0.6,1.8,1.6,2,2.3
		C242.9,94,242.9,94.4,242.9,94.4z"/>
</g>
<g class="st0">
	<path d="M255.8,100c0,0,0.3,0,0.8-0.1c0.5-0.1,1.2-0.2,2.1-0.4c0.9-0.2,2-0.4,3.1-0.8c1.1-0.4,2.4-1,3.3-1.8c1-0.8,1.8-2,2.2-3.3
		c0.2-0.7,0.2-1.3,0.1-1.9c0-0.3-0.1-0.6-0.3-0.8c0-0.1-0.1-0.2-0.2-0.4l0,0c-0.1-0.1,0.1,0.1,0.1,0.1l0,0l-0.1-0.1l-0.1-0.1
		c-0.1-0.1-0.2-0.2-0.2-0.3c-0.1,0-0.3-0.3-0.6-0.4c-0.2-0.2-0.5-0.3-0.8-0.4c-0.6-0.2-1.3-0.2-2-0.1c-0.7,0.1-1.3,0.3-1.8,0.7
		l-0.1,0.1l0,0c-0.1,0.1,0.1-0.1,0.1-0.1l0,0l-0.1,0.1l-0.3,0.2c-0.2,0.2-0.2,0.2-0.3,0.3c-0.2,0.3-0.5,0.5-0.7,0.8
		c-0.8,1.2-1.3,2.9-1.3,4.5c0,1.6,0.4,3.3,1,4.8c0.7,1.5,1.6,2.9,2.7,4c0.5,0.5,1.2,1,1.7,1.4l0.5,0.3l0.4,0.3
		c0.3,0.2,0.6,0.3,0.9,0.5c1.3,0.6,2.6,0.9,3.8,1.1c1.2,0.2,2.3,0.2,3.1,0.1c0.9-0.1,1.6-0.2,2.1-0.3c0.5-0.1,0.7-0.2,0.7-0.2
		s-0.2,0.2-0.6,0.4c-0.4,0.3-1.1,0.7-2,1c-0.9,0.3-2,0.7-3.4,0.8c-1.4,0.2-2.9,0.1-4.6-0.3c-0.4-0.1-0.8-0.2-1.3-0.4
		c-0.2-0.1-0.5-0.2-0.7-0.2c-0.2-0.1-0.4-0.2-0.6-0.2c-0.9-0.4-1.7-0.9-2.6-1.5c-1.6-1.2-3.1-2.9-4.3-4.8c-1.1-2-1.8-4.3-1.9-6.8
		c-0.1-2.5,0.5-5.1,2-7.3c0.4-0.6,0.8-1.1,1.3-1.6c0.3-0.2,0.6-0.6,0.8-0.7l0.3-0.2l0.1-0.1l0.1-0.1l0.1,0l0.2-0.1
		c1.2-0.8,2.6-1.2,4-1.3c1.4-0.1,2.8,0.1,4.1,0.6c0.6,0.3,1.3,0.6,1.8,1c0.6,0.4,1.1,0.9,1.6,1.6c0.1,0.2,0.1,0.2,0.2,0.4l0.3,0.5
		c0.1,0.3,0.3,0.6,0.4,1c0.2,0.7,0.3,1.3,0.3,2c0,1.3-0.3,2.5-0.7,3.5c-0.9,2-2.5,3.5-4.1,4.4c-1.7,0.9-3.2,1.2-4.6,1.3
		c-1.4,0.1-2.5,0-3.4-0.1c-0.9-0.1-1.7-0.3-2.1-0.3C256.1,100.1,255.8,100,255.8,100z"/>
</g>
<g class="st0">
	<path d="M311.6,89.3c0,0,0-0.3-0.1-0.7c-0.1-0.4-0.5-1-1.1-1.5c-0.6-0.5-1.5-0.8-2.6-0.9c-0.5,0-1,0.1-1.5,0.3
		c-0.2,0.1-0.4,0.2-0.7,0.4c-0.4,0.2-0.5,0.3-0.7,0.6c-0.9,0.8-1.5,2-2.1,3.5c-0.2,0.7-0.5,1.5-0.7,2.3c-0.1,0.4-0.1,0.7-0.1,0.8
		c0,0.1,0,0,0,0l0-0.1l0,0l-0.1-0.1l0,0l0,0.1c0,0,0,0.1,0,0.1c0,0,0-0.1,0-0.1c0,0,0-0.1-0.1-0.1l0,0c-0.1-0.1,0-0.1,0.2,0
		c0.2,0,0.5,0.1,1,0.1c0.9,0,1.8,0,2.8,0c1.9-0.1,4.1-0.1,6.4,0.2c2.4,0.4,4.7,1.4,6.6,3.2c0.9,0.9,1.8,2,2.2,3.3l0.2,0.5l0,0.1
		l0.1,0.2l0,0l0,0.1l0,0.2c0,0.3,0.1,0.4,0.1,0.8c0,0.4,0.1,0.8,0.1,1.2c0,0.4-0.1,0.7-0.1,1c-0.2,1.3-0.7,2.4-1.4,3.4
		c-0.7,0.9-1.4,1.7-2.3,2.3c-1.6,1.2-3.4,1.9-5.1,2.3c-0.9,0.2-1.6,0.2-2.5,0.2c-0.2,0-0.3,0-0.5,0c-0.2,0-0.4,0-0.6-0.1
		c-0.4-0.1-0.7-0.1-1-0.2c-1.3-0.3-2.4-0.9-3.1-1.5c-0.8-0.6-1.2-1.3-1.4-1.7c-0.1-0.2-0.2-0.4-0.2-0.5c0-0.1-0.1-0.2-0.1-0.2
		s0,0,0.1,0.1c0.1,0.1,0.2,0.2,0.4,0.4c0.3,0.3,0.9,0.7,1.7,1c0.8,0.3,1.8,0.4,2.9,0.4c0.3,0,0.6,0,0.9-0.1c0.1,0,0.3,0,0.4-0.1
		c0.2,0,0.3-0.1,0.5-0.1c0.2-0.1,0.6-0.1,0.9-0.2c0.3-0.1,0.6-0.2,0.9-0.3c1.2-0.5,2.4-1.3,3.4-2.3c1-1,1.7-2.3,1.7-3.5
		c0-0.1,0-0.3,0-0.4c0-0.1,0-0.2,0-0.3c0,0,0-0.2-0.1-0.3l-0.1-0.3l0-0.2l0-0.1l0,0c0.1,0.4,0,0.1,0,0.2l0,0l-0.1-0.2
		c-0.2-0.5-0.6-1-1.1-1.5c-1-0.9-2.6-1.5-4.2-1.8c-1.7-0.3-3.6-0.3-5.6-0.3c-1,0-2.1-0.1-3.1-0.2c-0.5,0-1.2-0.1-1.9-0.3
		c-0.7-0.2-1.5-0.6-2.3-1.4l-0.1-0.2l-0.2-0.2l-0.1-0.2l0-0.1l0-0.1l-0.1-0.2l0-0.1c-0.1-0.1-0.1-0.3-0.1-0.4
		c-0.1-0.5-0.2-1-0.1-1.4c0.1-0.8,0.3-1.4,0.5-1.9c0.3-0.9,0.7-1.8,1.2-2.7c0.9-1.7,2.2-3.3,3.8-4.2c0.4-0.2,0.9-0.5,1.2-0.6
		c0.4-0.2,0.9-0.3,1.3-0.3c0.9-0.1,1.7,0,2.4,0.2c1.4,0.4,2.4,1.2,3,2.1c0.6,0.8,0.7,1.6,0.6,2.1C311.7,89.1,311.6,89.3,311.6,89.3z
		"/>
</g>
<g class="st0">
	<path d="M323.6,75.3c0,0,0.3,0.5,0.7,1.3c0.4,0.9,1,2.1,1.6,3.5c0.6,1.5,1.3,3.2,1.9,5c0.3,0.9,0.6,1.9,0.9,2.9c0.3,1,0.6,2,0.8,3
		c0.3,1,0.5,2,0.7,3c0.2,1,0.4,2,0.6,2.9c0.4,1.9,0.6,3.7,0.8,5.3c0.2,1.6,0.3,2.9,0.3,3.9c0,1,0,1.5,0,1.5s-1.5-1.7-3-4.5
		c-0.8-1.4-1.6-3.1-2.3-5c-0.4-0.9-0.7-1.9-1-2.9c-0.3-1-0.6-2-0.9-3c-0.2-1-0.5-2.1-0.7-3.1c-0.2-1-0.4-2-0.5-3
		c-0.3-2-0.4-3.8-0.4-5.5c0-1.6,0.1-3,0.2-3.9C323.4,75.9,323.6,75.3,323.6,75.3z"/>
</g>
<g class="st0">
	<path d="M318.9,85.9c0,0,0.3-0.2,0.8-0.4c0.5-0.2,1.2-0.5,2-0.8c0.8-0.3,1.7-0.5,2.7-0.6c1-0.2,2-0.2,3.1-0.2
		c2.1,0,4.2,0.3,5.8,0.8c0.8,0.3,1.5,0.5,2,0.8c0.5,0.2,0.8,0.4,0.8,0.4s-0.2,0.2-0.7,0.6c-0.4,0.3-1.1,0.8-1.9,1.1
		c-0.8,0.4-1.7,0.7-2.8,0.9c-0.5,0.1-1,0.2-1.6,0.3c-0.5,0.1-1.1,0.1-1.6,0.1c-0.6,0-1.1,0-1.6-0.1c-0.5,0-1.1-0.1-1.6-0.3
		c-1-0.2-2-0.5-2.8-0.9c-0.8-0.4-1.5-0.8-1.9-1.1C319.1,86.2,318.9,85.9,318.9,85.9z"/>
</g>
<g class="st0">
	<path d="M408.4,87.6c0,0-0.3-0.2-0.9-0.6c-0.6-0.4-1.5-0.9-2.6-1.4c-1.1-0.5-2.6-1-4.2-1c-1.6-0.1-3.2,0.6-4.1,2
		c-1,1.4-1.3,3.5-1.3,5.8c0,2.4,0.3,4.8,0.9,7.3l0.1,0.4c0,0.2,0.1,0.4,0.1,0.5c0.1,0.3,0.2,0.6,0.3,0.8c0.2,0.5,0.4,1,0.7,1.5
		c0.3,0.4,0.6,0.7,0.8,1c0.1,0.1,0.3,0.2,0.4,0.3l0.1,0l0.1,0l0,0c-0.2-0.1,0,0-0.1,0l0.1,0c0.2,0,0.4,0.1,0.4,0.1c0,0,0,0,0,0
		l0.1,0c0.1,0,0.2,0,0.3,0c0.2,0,0.4,0,0.6-0.1c0.4-0.1,0.9-0.3,1.4-0.6c0.5-0.3,0.9-0.6,1.4-1l0.7-0.7c0.3-0.3,0.5-0.5,0.7-0.7
		c0.4-0.4,0.8-0.9,1.2-1.4c0.4-0.5,0.7-1,1-1.6c0.6-1.1,1.2-2.3,1.7-3.5c0.9-2.4,1.4-5,1.6-7.5c0.1-1.3,0.1-2.5,0-3.7
		c-0.1-1.4-0.2-2.4-0.4-3.7c-0.3-2.4-0.9-4.6-1.4-6.7c-1.2-4.1-2.4-7.5-3.3-10c-0.2-0.6-0.4-1.1-0.6-1.6c-0.2-0.4-0.4-0.7-0.7-0.6
		c-0.1,0-0.1,0.1-0.1,0.2c0,0.1,0.1,0.2,0.2,0.2c0.1,0.1,0.2-0.1,0.2-0.1c0,0,0,0,0,0.1c0,0-0.1,0.1-0.2,0.1c-0.1,0-0.2-0.1-0.3-0.2
		c0-0.1-0.1-0.1-0.1-0.2c0-0.1,0.1-0.3,0.2-0.3c0.2-0.1,0.5-0.1,0.7,0c0.2,0.1,0.4,0.3,0.6,0.5c0.3,0.5,0.6,0.9,1,1.5
		c0.7,1.1,1.5,2.4,2.4,4c0.9,1.6,1.8,3.4,2.7,5.4c0.9,2.1,1.8,4.3,2.4,6.9c0.3,1.2,0.6,2.7,0.8,3.9c0.2,1.4,0.3,2.8,0.3,4.3
		c0,1.5-0.1,3-0.4,4.5c-0.2,1.5-0.6,3-1.1,4.5c-0.5,1.5-1.1,3-2,4.4c-0.8,1.4-1.7,2.7-2.9,4c-0.3,0.3-0.6,0.7-0.9,0.9l-0.9,0.8
		c-0.7,0.6-1.4,1.1-2.2,1.5c-0.8,0.4-1.7,0.8-2.7,1c-0.5,0.1-1,0.2-1.6,0.2c-0.3,0-0.5,0-0.8,0l-0.4,0c-0.2,0-0.3-0.1-0.5-0.1
		c-0.4-0.1-0.5-0.1-0.7-0.2l-0.1,0l-0.2-0.1l0,0l-0.2-0.1l-0.4-0.2c-0.5-0.3-1-0.6-1.4-0.9c-0.8-0.7-1.4-1.5-1.8-2.3
		c-0.4-0.8-0.7-1.6-1-2.4c-0.1-0.4-0.2-0.8-0.3-1.2l-0.1-0.5l-0.1-0.6c-0.5-2.9-0.5-5.7-0.3-8.3c0.3-2.7,1-5.4,2.8-7.5
		c0.2-0.2,0.5-0.5,0.8-0.7c0.3-0.3,0.4-0.3,0.8-0.5c0.3-0.1,0.6-0.3,0.8-0.4c0.3-0.1,0.6-0.2,0.9-0.3c1.2-0.3,2.3-0.3,3.3-0.1
		c2,0.4,3.4,1.3,4.4,2.1c1.1,0.8,1.8,1.5,2.3,2C408.2,87.3,408.4,87.6,408.4,87.6z"/>
</g>
<g class="st0">
	<path d="M423.1,84.6c0,0,0.2,0.3,0.5,0.8c0.3,0.5,0.6,1.1,0.9,1.9c0.3,0.8,0.6,1.7,0.8,2.6c0.1,0.5,0.2,1,0.3,1.5
		c0.1,0.5,0.2,1,0.2,1.5c0.1,0.5,0.1,1,0.1,1.5c0,0.5,0.1,1,0,1.5c0,1-0.1,1.9-0.2,2.8c-0.1,0.8-0.3,1.6-0.4,2.1
		c-0.1,0.5-0.3,0.9-0.3,0.9s-1.1-0.8-2.1-2.2c-0.5-0.7-1-1.6-1.4-2.6c-0.2-0.5-0.4-1-0.5-1.6c-0.1-0.5-0.2-1.1-0.3-1.7
		c0-0.6-0.1-1.1-0.1-1.7c0-0.6,0-1.1,0.1-1.6c0.1-1.1,0.4-2.1,0.7-2.9c0.3-0.8,0.7-1.5,1-2C422.9,84.8,423.1,84.6,423.1,84.6z"/>
</g>
<g class="st0">
	<path d="M421.5,69.9c0,0,0-0.2,0-0.5c0-0.3,0.1-0.6,0.1-0.9c0.1-0.6,0.2-1.1,0.3-1.1l0,0l0,0c0-4.5,0,6.1,0,5l0,0l0,0l0,0l0,0
		c0,0,0,0,0,0c0,0,0,0,0-0.1c0,0-0.1-0.1-0.1-0.2c-0.1-0.2-0.1-0.5-0.2-0.8c0-0.3-0.1-0.7-0.1-1C421.5,70.1,421.5,69.9,421.5,69.9
		s0-0.2,0-0.5c0-0.3,0.1-0.6,0.1-1c0-0.3,0.1-0.6,0.2-0.8c0-0.1,0.1-0.2,0.1-0.2c0,0,0,0,0-0.1c0,0,0,0,0,0l0,0l0,0l0,0l0,0
		c0-1.1,0,9.5,0,5l0,0l0,0c-0.1,0-0.2-0.4-0.3-1.1c0-0.3-0.1-0.7-0.1-0.9C421.5,70.1,421.5,69.9,421.5,69.9z"/>
</g>
<g class="st0">
	<path d="M430.7,89.2c0.6,1.2,1.2,2.4,1.8,3.6c0.5,1.2,1.1,2.4,1.6,3.7c1,2.4,1.9,4.9,2.8,7.4l-4,1c-0.5-1.6-0.9-3.4-1.2-5.2
		c-0.2-1.8-0.3-3.9,0.3-5.9c0.1-0.3,0.1-0.5,0.2-0.8l0.1-0.2l0-0.1l0,0l0.1-0.2l0.1-0.3l0.1-0.3l0.2-0.4c0.2-0.3,0.3-0.6,0.5-0.8
		c0.6-0.9,1.4-1.7,2.3-2.4c0.9-0.7,1.9-1.2,3-1.6c1.1-0.4,2.4-0.5,3.6-0.3c0.6,0.1,1.2,0.3,1.8,0.6l0.4,0.2l0.1,0.1l0.1,0l0.1,0.1
		l0,0l0.1,0.1l0.3,0.2l0.4,0.3c0.9,0.8,1.6,1.8,2,2.7c0.9,1.9,1.1,3.7,1.4,5.3c0.3,1.7,0.5,3.4,0.7,5.1c0.2,1.7,0.4,3.4,0.5,5.1
		c-0.8-1.5-1.6-3.1-2.3-4.6c-0.7-1.6-1.4-3.1-2-4.7c-0.6-1.6-1.2-3.1-1.9-4.2c-0.4-0.5-0.8-1-1.2-1.2l-0.3-0.2l-0.1-0.1l0,0l0,0
		c-0.1,0,0.1,0.1,0.1,0.1l0,0l0,0l-0.2-0.1c-0.2-0.1-0.4-0.1-0.6-0.1c-0.4,0-0.9,0.1-1.4,0.2c-0.5,0.2-1,0.5-1.4,0.9
		c-0.5,0.4-0.9,0.8-1.2,1.3c-0.1,0.1-0.1,0.2-0.2,0.3c0,0-0.1,0.1-0.1,0.1l-0.1,0.3l-0.1,0.3l0,0l0,0c0.1-0.2,0-0.1,0-0.1l0,0l0,0.1
		l0,0.1c-0.1,0.1-0.1,0.3-0.1,0.5c-0.4,1.2-0.5,2.6-0.4,4.1c0.1,1.5,0.3,3.1,0.6,4.8l-4,1c-0.5-2.6-0.9-5.2-1.3-7.8
		c-0.2-1.3-0.3-2.6-0.5-3.9C430.8,91.9,430.7,90.6,430.7,89.2z"/>
</g>
<g class="st0">
	<path d="M464.1,91.4c0.9,1.5,1.7,3.1,2.5,4.6c0.7,1.6,1.5,3.1,2.2,4.7c1.4,3.2,2.7,6.4,3.9,9.7c1.2,3.3,2.3,6.6,3.4,9.9
		c1,3.3,2,6.7,2.9,10l1.2,4.7l-4.5-1.8l-1.6-0.6l-1.6-0.6l-1.7-0.5l-1.7-0.4l-1.7-0.3l-1.7-0.2l-1.8-0.1l-1.8,0l-1.8,0.1l-1.8,0.2
		l-1.8,0.3l-1.8,0.4l-1.8,0.5c-0.6,0.2-1.2,0.4-1.8,0.6c-0.6,0.2-1.2,0.5-1.8,0.7c-0.6,0.2-1.1,0.5-1.7,0.7c0.5-0.4,0.9-0.9,1.4-1.3
		c0.5-0.4,1-0.8,1.5-1.2c0.5-0.3,1.1-0.7,1.6-1.1l1.7-0.9l1.8-0.8l1.9-0.7l1.9-0.5l1.9-0.4l2-0.3l2-0.1l2,0l2,0.1l2,0.3l2,0.4l2,0.5
		l1.9,0.7l-3.3,2.9c-1-3.3-1.9-6.6-2.9-9.9l-1.4-5c-0.5-1.7-0.9-3.3-1.3-5l-1.3-5c-0.4-1.7-0.8-3.4-1.2-5.1
		c-0.4-1.7-0.7-3.4-1.1-5.1C464.7,94.9,464.4,93.2,464.1,91.4z"/>
</g>
<g class="st0">
	<path d="M460.4,86.3c0,0.8-0.1,1.7-0.2,2.5l-0.2,2.4c-0.2,1.5-0.3,3-0.3,4.5c0,0.7,0,1.4,0,2.1l0.1,1c0,0.3,0.1,0.7,0.1,1
		c0.1,0.7,0.2,1.3,0.4,2c0.2,0.7,0.4,1.3,0.6,1.9l-2.3-1.6c0.8,0,1.5,0,2.3,0.1l-2.2,1.3l0.8-1.4c0.2-0.5,0.5-1,0.7-1.5
		c0.5-1,0.9-2,1.3-3c0.4-1,0.7-2.1,1-3.2l0.4-1.7c0.1-0.6,0.2-1.2,0.4-1.8c0.3,0.6,0.6,1.1,0.8,1.7c0.2,0.6,0.4,1.2,0.5,1.8
		c0.3,1.2,0.3,2.5,0.3,3.8c-0.1,2.6-0.8,5.1-1.8,7.5l-0.6,1.3l-1.6,0.1c-0.8,0-1.5,0.1-2.3,0.1l-1.8,0l-0.6-1.6l-0.4-1.3l-0.3-1.3
		c-0.1-0.4-0.2-0.9-0.2-1.3l-0.1-1.3c0-0.9,0-1.8,0.1-2.7c0.1-0.9,0.2-1.7,0.5-2.6c0.2-0.8,0.5-1.6,0.8-2.4c0.3-0.8,0.7-1.5,1.1-2.3
		c0.4-0.7,0.8-1.4,1.3-2.1l0.8-1C459.8,86.9,460.1,86.6,460.4,86.3z"/>
</g>
<g class="st0">
	<path d="M286.1,107.6c-0.6-0.6-1.1-1.2-1.6-1.9c-0.5-0.7-1-1.3-1.4-2c-0.4-0.7-0.8-1.4-1.2-2.1c-0.4-0.7-0.7-1.5-1.1-2.2
		c-0.7-1.5-1.2-3-1.7-4.6c-0.5-1.6-0.8-3.2-1.1-4.8l4.9-0.9c0.2,0.8,0.3,1.6,0.4,2.4l-4.4-0.8c0.2-0.3,0.5-0.7,0.7-1
		c0.3-0.3,0.5-0.6,0.8-0.8c0.3-0.3,0.6-0.5,0.9-0.7c0.3-0.2,0.6-0.4,1-0.6c0.6-0.4,1.3-0.7,2-0.9c0.3-0.1,0.7-0.2,1.1-0.3
		c0.4-0.1,0.7-0.1,1.1-0.2c0.7-0.1,1.4-0.1,2.1,0c0.4,0.1,0.7,0.1,1,0.2c0.3,0.1,0.7,0.2,1,0.3c0.3,0.1,0.6,0.2,0.9,0.4
		c0.3,0.2,0.6,0.3,0.9,0.5l0.4,0.3l0,0c0,0,0,0,0,0l0,0c0,0,0.1,0.1,0.1,0.1c0.1,0.1,0.1,0.2,0.2,0.3c0.1,0.2,0.2,0.4,0.2,0.6
		c0,0.2-0.2,0.4-0.3,0.4c0.1-0.1,0.1-0.2,0-0.3c-0.1-0.1-0.2-0.2-0.3-0.2c-0.1,0-0.1,0-0.2-0.1c0,0,0,0-0.1,0l-0.1,0c0,0,0,0,0,0
		l0,0l-0.4,0c-0.3,0-0.6,0-0.9,0c-0.3,0-0.6,0-0.8,0c-0.6,0.1-1.1,0.2-1.6,0.3c-0.5,0.2-1,0.3-1.5,0.5c-0.2,0.1-0.5,0.2-0.7,0.3
		c-0.2,0.1-0.4,0.2-0.6,0.4c-0.2,0.1-0.4,0.3-0.6,0.4c-0.2,0.1-0.4,0.3-0.6,0.5c-0.2,0.1-0.3,0.3-0.5,0.5c-0.2,0.2-0.3,0.3-0.5,0.5
		c-0.3,0.4-0.5,0.7-0.7,1.1l-3,5l-1.5-5.8c-0.2-0.8-0.4-1.6-0.5-2.4l4.9-0.9l0.9,4.5l0.4,2.3l0.4,2.3l0.4,2.3l0.4,2.3
		C285.7,104.3,285.9,105.9,286.1,107.6z"/>
</g>
<g class="st0">
	<path d="M352.5,92.3c0.1,0.1,0.2,0,0.3-0.1c0-0.1,0-0.2-0.1-0.3c-0.2-0.2-0.4-0.3-0.6-0.5l-1.3-1c-0.9-0.6-1.7-1.3-2.6-1.9
		c-0.9-0.5-1.8-1-2.5-1.1c-0.8-0.1-1.3,0.1-1.8,0.6c-0.3,0.2-0.5,0.5-0.7,0.8c-0.1,0.2-0.3,0.6-0.4,1c-0.2,0.7-0.3,1.6-0.3,2.4
		c0,0.9,0.2,1.7,0.5,2.7c0.2,0.9,0.6,1.8,1,2.6c0.4,0.9,0.9,1.7,1.4,2.4c0.1,0.2,0.3,0.4,0.4,0.6l0.2,0.3c0.1,0.1,0.2,0.2,0.2,0.3
		c0.2,0.3,0.6,0.6,0.8,0.8c0.6,0.5,1.1,0.6,1.3,0.6c0,0,0,0,0.1,0l0,0l0,0l0,0l0,0c-0.2,0-0.1,0-0.1,0c0.1,0,0.3-0.1,0.3-0.1
		c0,0,0.1,0,0.2-0.1c0.2-0.1,0.4-0.3,0.7-0.5c0.2-0.2,0.5-0.5,0.7-0.9c0,0,0.1-0.1,0.1-0.1l0.1-0.2c0.1-0.1,0.1-0.3,0.2-0.3
		c0.1-0.2,0.2-0.3,0.3-0.5c0.4-0.8,0.6-1.7,0.8-2.6c0.2-0.9,0.3-1.9,0.4-2.9l0.1-1.3c0-0.1,0-0.2,0-0.1c0,0,0.1,0.1,0.3,0.2
		c0.1,0.1,0.3,0.1,0.5,0.1l1.7-2.1c0.1,0.5,0.2,0.9,0.3,1.4c0.1,0.5,0.3,1,0.4,1.5l1,3.1c0.2,0.5,0.3,1.1,0.5,1.6
		c0.1,0.5,0.3,1.1,0.4,1.7c0.1,0.6,0.2,1.1,0.2,1.7l0,0.8l-0.1,0.8l-0.2-0.8l-0.3-0.8c-0.2-0.5-0.4-1-0.6-1.4
		c-0.5-0.9-1-1.8-1.6-2.7c-0.6-0.9-1.2-1.8-1.8-2.8c-0.6-1-1.1-2-1.5-3.2l-0.8-2.2l2.5,0c0.4,0,0.9,0.1,1.3,0.4
		c0.4,0.2,0.6,0.5,0.8,0.8c0.4,0.5,0.5,1,0.6,1.4l0.1,0.3l0,0.3l0.1,0.5c0,0.3,0.1,0.6,0.1,0.9c0.1,1.2,0.1,2.4,0,3.6
		c-0.1,1.2-0.3,2.5-0.8,3.7c-0.1,0.3-0.2,0.6-0.4,1l-0.2,0.4l-0.1,0.2l-0.1,0.3c-0.3,0.6-0.7,1.2-1.2,1.8c-0.5,0.6-1.1,1.1-1.9,1.5
		c-0.4,0.2-0.7,0.4-1.3,0.5c-0.3,0.1-0.4,0.1-0.5,0.1l-0.1,0l0,0l-0.1,0l-0.2,0c-0.1,0-0.2,0-0.4,0c-0.9,0-1.9-0.2-2.6-0.5
		c-0.8-0.3-1.4-0.7-2-1.2c-0.6-0.5-1-0.9-1.5-1.5L342,104l-0.3-0.4c-0.2-0.2-0.4-0.5-0.5-0.8c-0.7-1-1.3-2.1-1.8-3.3
		c-0.5-1.1-0.8-2.3-1.1-3.6c-0.2-1.2-0.4-2.5-0.3-3.8c0.1-1.3,0.4-2.7,1-3.9c0.3-0.7,0.7-1.2,1.3-1.8c0.4-0.5,1-1,1.7-1.3
		c0.7-0.4,1.4-0.6,2.2-0.7c0.8-0.1,1.6,0.1,2.2,0.3c1.4,0.5,2.3,1.4,3.1,2.2c0.8,0.8,1.5,1.7,2.1,2.6c0.3,0.5,0.6,0.9,0.9,1.4
		c0.1,0.2,0.3,0.5,0.4,0.7c0.1,0.1,0.1,0.3,0,0.5C352.8,92.4,352.5,92.5,352.5,92.3z"/>
</g>
<g class="st0">
	<path d="M360.9,89.4c0.7,1,1.4,2,2,3.1c0.6,1,1.1,2.1,1.7,3.2c1,2.2,1.9,4.5,2.6,6.8l-3.9,0c0.1-1.2-0.2-2.5-0.5-4.1
		c-0.2-0.8-0.4-1.6-0.6-2.5c-0.2-0.9-0.3-1.9-0.2-3c0-1.1,0.3-2.2,0.8-3.3c0.1-0.1,0.1-0.3,0.2-0.4l0.1-0.2l0.1-0.1l0-0.1l0.1-0.1
		l0.2-0.3l0.3-0.4c0.4-0.5,0.9-0.9,1.3-1.3c1-0.7,2.1-1.2,3.2-1.4c0.3-0.1,0.6-0.1,0.9-0.1l0.5,0l0.3,0c0.7,0,1.2,0.1,1.8,0.2
		c1.1,0.3,2.1,0.7,3,1.3c0.4,0.3,0.9,0.6,1.3,1l0.1,0.1l0,0l0,0l0.1,0.1l0.1,0.1l0.2,0.2l0.6,0.7c1.3,1.6,1.9,3.4,2.4,5.1
		c0.5,1.7,0.8,3.3,1.1,4.9c0.2,0.8,0.4,1.6,0.6,2.4c0.2,0.8,0.4,1.6,0.7,2.4l0.1,0.3l-0.1,0.1c-0.4,0.6-0.9,1.1-1.4,1.7
		c0.2-0.7,0.4-1.4,0.6-2.1l0,0.4c-0.5-0.7-1-1.4-1.5-2.1c-0.5-0.7-0.9-1.5-1.3-2.2c-0.8-1.5-1.5-3.1-2.2-4.5
		c-0.7-1.4-1.5-2.7-2.3-3.6l-0.3-0.3l-0.2-0.2l-0.1-0.1l-0.1,0l0,0l0,0l0,0c0,0-0.1-0.1,0.1,0c-0.2-0.2-0.5-0.3-0.7-0.5
		c-0.5-0.3-1-0.4-1.6-0.5c-0.2,0-0.6-0.1-0.7-0.1l-0.3,0c0.1,0-0.1,0-0.1,0c-0.1,0-0.2,0-0.3,0.1c-0.5,0.1-0.9,0.3-1.3,0.6
		c-0.2,0.1-0.3,0.3-0.5,0.4c0,0,0,0,0,0.1l-0.2,0.2l0,0l0,0c0,0.1,0.1-0.1,0-0.1l0,0l0,0l0,0.1c0,0-0.1,0.1-0.1,0.1
		c-0.2,0.4-0.3,0.9-0.4,1.5c-0.1,0.6,0,1.3,0.1,2c0.1,0.7,0.2,1.5,0.3,2.3c0.1,0.8,0.2,1.8,0.3,2.7c0,1-0.1,2-0.4,3l-2.6,9.5
		l-1.3-9.5c-0.3-2.3-0.7-4.6-1.1-6.9l-0.3-1.7c-0.1-0.6-0.2-1.2-0.3-1.7C361.4,91.8,361.2,90.6,360.9,89.4z"/>
</g>
<g class="st0">
	<path class="st2" d="M133.2,270.4c-1.1-0.8-2.2-1.7-3.2-2.6c-1-0.9-2.1-1.8-3.1-2.7c-1-0.9-2-1.9-3-2.9c-1-1-1.9-2-2.8-3
		c-0.9-1-1.8-2.1-2.7-3.2c-0.9-1.1-1.7-2.2-2.6-3.3c-0.8-1.1-1.6-2.2-2.4-3.4c-0.8-1.2-1.5-2.3-2.2-3.5l-0.4-0.6l0.6-0.5
		c5.4-4.8,9.8-10.6,12.9-17.1c3.1-6.4,4.8-13.5,4.4-20.6c-0.3-7-2.6-13.9-6.5-19.6c-2-2.8-4.4-5.4-7.1-7.4c-0.7-0.5-1.4-1-2.1-1.5
		l-0.1-0.1c0,0,0.1,0.1,0,0l-0.1,0l-0.3-0.2L112,178l-1.2-0.7c-0.4-0.2-0.8-0.5-1.2-0.6l-1.2-0.5l-1.1-0.5c-0.2-0.1-0.4-0.2-0.6-0.2
		l-0.6-0.2c-6.6-2.1-13.7-2-20.6-0.7l-2.6,0.6l-2.6,0.7c-0.9,0.2-1.7,0.5-2.5,0.8c-0.8,0.3-1.7,0.5-2.5,0.8
		c-3.3,1.2-6.6,2.7-9.8,4.2c-6.4,3.2-12.5,7.1-18.4,11.3c-5.9,4.2-11.6,8.6-17,13.4c-5.4,4.8-10.3,9.9-12.5,16.3
		c-2.2,6.3-2,13.5,0.2,20c1.1,3.3,2.6,6.4,4.6,9.2c2,2.8,4.4,5.4,7,7.7c5.3,4.6,11.6,8.1,18.3,10.6c6.5,2.5,13.8,2.3,20.9,1.3
		c7.2-0.9,14.3-2.7,21.6-3.9c7.3-1.2,14.6-2.1,22.1-1.7c3.7,0.2,7.4,0.7,11,1.7c3.6,1,7,2.4,10.2,4.2c-6.6-3.3-13.9-4.7-21.1-4.6
		c-7.3,0-14.5,1.2-21.6,2.7c-7.1,1.5-14.2,3.4-21.5,4.7c-3.7,0.6-7.4,1-11.2,1c-1,0-1.9-0.1-2.9-0.1c-1-0.1-1.9-0.2-2.9-0.3
		c-1-0.2-2-0.4-2.9-0.6l-1.3-0.4l-0.7-0.2l-0.7-0.2c-7.1-2.4-14-5.9-19.8-10.8c-5.8-4.9-10.7-11.3-13.2-18.7
		c-1.3-3.7-2.1-7.5-2.1-11.5c-0.1-3.9,0.4-7.9,1.7-11.7l0.5-1.5l0.6-1.3l0.3-0.6l0.1-0.2l0.1-0.2l0.2-0.3c0.2-0.4,0.5-0.9,0.7-1.3
		c1-1.7,2.1-3.3,3.3-4.8c2.4-3,5.2-5.7,7.9-8.1c5.5-5,11.3-9.6,17.4-13.9c6.1-4.2,12.4-8.2,19.1-11.5c6.7-3.3,13.8-6,21.3-7.4
		c7.5-1.4,15.4-1.4,22.8,1.1c0.9,0.2,1.9,0.7,2.8,1.1l1.4,0.6c0.5,0.2,0.8,0.4,1.2,0.7l1.2,0.7l0.6,0.3l0.3,0.2l0.3,0.1l0.2,0.1
		c0.8,0.6,1.6,1.1,2.4,1.7c3.1,2.4,5.7,5.3,7.8,8.6c4.3,6.5,6.5,14.1,6.7,21.7c0.1,7.6-1.9,15.2-5.5,21.8
		c-3.5,6.7-8.4,12.5-14.2,17.2l0.2-1.1c0.7,1.2,1.4,2.4,2.1,3.5c0.7,1.2,1.4,2.3,2.2,3.5c0.8,1.1,1.5,2.3,2.4,3.4
		c0.8,1.1,1.6,2.2,2.5,3.3c0.9,1.1,1.7,2.1,2.6,3.1c0.9,1,1.8,2,2.8,3c0.9,1,1.9,2,2.9,2.9C131.2,268.6,132.2,269.5,133.2,270.4z"/>
</g>
<g class="st0">
	<path class="st3" d="M488.4,229.2c-2.9,3-6.2,5.7-9.7,8.1c-3.5,2.3-7.3,4.3-11.2,5.9l-0.2-1.4c3.8,0.1,7.6,0.7,11.2,1.9
		c3.6,1.2,7,2.9,10.2,5.1c3.2,2.2,5.9,4.9,8.3,7.9c2.4,3,4.1,6.5,5.8,9.8c1.7,3.3,3.3,6.6,5.3,9.4c0.5,0.7,1.1,1.4,1.6,2l1,1
		l0.9,0.8c1.3,1.1,2.7,2.1,4.2,3c6.1,3.4,13.3,4.8,20.5,5.7c7.2,0.8,14.4,0.7,21.2-1.2c0.4-0.1,0.8-0.2,1.2-0.4l0.6-0.2l0.2-0.1
		l0.1,0c0.1,0-0.1,0,0,0l0.3-0.1l2.6-1c1.5-0.8,3-1.5,4.5-2.5c2.9-1.9,5.7-4.1,8-6.7c2.4-2.6,4.4-5.5,6.2-8.5c1.8-3,3.2-6.3,4.3-9.7
		c0.6-1.7,1-3.4,1.4-5.1c0.3-1.7,0.7-3.5,0.9-5.2l0.2-1.2l0.1-1.4c0.1-0.9,0.2-1.9,0.2-2.7c0-0.9,0-1.7,0-2.6l-0.1-2.7
		c-0.4-7.1-1.8-14.2-4.1-21.1c-1.1-3.4-2.4-6.8-3.9-10.1c-1.5-3.3-3.1-6.6-4.8-9.8c-3.4-6.4-7.3-12.5-13.2-16.2
		c-2.8-1.8-6.1-3.1-9.6-3.9c-3.4-0.8-7-1.2-10.6-1.4c-7.1-0.2-14.4,0.7-21.3,2.9c-6.9,2.2-13.3,5.7-18.7,10.5
		c-5.4,4.8-9.5,11.1-12,17.9c-2.5,6.9-3.2,14.4-1.5,21.7c-1.1-3.5-1.6-7.3-1.5-11c0.1-3.7,0.7-7.5,1.8-11.1
		c2.2-7.2,6.2-13.9,11.6-19.2c5.4-5.3,12.1-9.3,19.3-11.8c7.2-2.6,14.8-3.7,22.4-3.6c3.8,0,7.6,0.4,11.4,1.2c3.8,0.8,7.5,2.1,11,4.3
		c0.5,0.3,0.8,0.5,1.2,0.8c0.5,0.3,0.8,0.6,1.2,0.9c0.8,0.6,1.5,1.3,2.3,1.9c1.4,1.4,2.8,2.8,4,4.3c2.4,3.1,4.4,6.3,6.2,9.6
		c3.6,6.6,6.9,13.4,9.3,20.6c2.4,7.2,4,14.7,4.5,22.3l0.1,2.9c0,1,0,2,0,2.9c0,1-0.1,1.9-0.1,2.8l-0.1,1.4l-0.2,1.5
		c-0.2,1.9-0.6,3.8-1,5.7c-0.5,1.9-0.9,3.7-1.6,5.6c-1.3,3.7-2.8,7.2-4.8,10.6c-2,3.3-4.3,6.5-6.9,9.3c-2.6,2.9-5.7,5.4-9,7.4
		c-1.6,1.1-3.5,2-5.3,2.8l-2.6,1l-0.3,0.1l-0.2,0.1l-0.1,0l-0.2,0.1l-0.7,0.2c-0.5,0.2-0.9,0.3-1.4,0.4c-7.6,2.1-15.4,2-22.9,1.1
		c-3.7-0.5-7.5-1.1-11.2-2.2c-3.7-1-7.3-2.5-10.7-4.5c-1.7-1-3.3-2.2-4.8-3.5l-1.1-1.1l-0.9-1c-0.7-0.8-1.3-1.5-1.9-2.3
		c-2.3-3.2-3.8-6.7-5.4-10.1c-1.5-3.4-3.1-6.6-5.2-9.5c-2.1-2.9-4.6-5.5-7.5-7.6c-2.9-2.2-6-4-9.4-5.2c-3.4-1.3-6.9-2-10.6-2.3
		l-3.6-0.3l3.4-1.2c3.9-1.3,7.7-3.1,11.3-5.2c0.9-0.5,1.8-1.1,2.7-1.6c0.9-0.6,1.7-1.2,2.6-1.8C485.2,231.9,486.9,230.6,488.4,229.2
		z"/>
</g>
<g class="st0">
	<path d="M514.6,229.1c0,0,0-0.1,0-0.2c0-0.1,0-0.3-0.1-0.4c-0.1-0.3-0.4-0.8-0.9-1.2c-0.5-0.4-1.2-0.7-2-0.8c-0.4,0-0.8,0-1.2,0.2
		c-0.2,0.1-0.4,0.2-0.5,0.2c-0.1,0.1-0.3,0.2-0.3,0.2c-0.1,0.1-0.1,0.1-0.2,0.2c-0.7,0.6-1.2,1.5-1.5,2.6c-0.1,0.5-0.3,1.1-0.3,1.7
		c0,0.3,0,0.7,0,1l0,0.3l0,0.2l0,0.4c0.1,1.2,0.5,2.6,1,3.8c0.6,1.2,1.3,2.4,2.2,3.4c0.9,1,2,1.9,3.1,2.6l0.9,0.4l0.5,0.2l0.2,0.1
		l0.1,0l0.1,0l0,0c0.1,0-0.1,0-0.1,0l0,0c0.4,0.1,0.8,0.2,1.1,0.3c0.3,0,0.6,0.1,0.8,0.2c2.6,0.4,5.2-0.1,7.2-0.9c1-0.4,2-1,2.8-1.5
		c0.4-0.3,0.7-0.5,1.1-0.8c0.3-0.3,0.6-0.5,0.9-0.8c0.2-0.3,0.5-0.5,0.7-0.7c0.2-0.2,0.3-0.4,0.5-0.5c0.3-0.3,0.4-0.5,0.4-0.5
		s0,0.2-0.1,0.6c-0.1,0.4-0.3,1-0.6,1.7c-0.2,0.4-0.4,0.7-0.6,1.1c-0.2,0.4-0.5,0.8-0.9,1.3c-0.7,0.9-1.5,1.8-2.7,2.6
		c-2.2,1.6-5.4,3-9.1,2.8c-0.5,0-1-0.1-1.5-0.1c-0.4-0.1-0.8-0.1-1.2-0.2l-0.2,0l0,0l-0.1,0l-0.2-0.1l-0.3-0.1l-0.7-0.2
		c-0.4-0.2-0.9-0.4-1.3-0.6c-1.8-0.9-3.3-2.1-4.6-3.5c-1.3-1.5-2.3-3.2-3-4.9c-0.7-1.8-1-3.7-0.9-5.5l0-0.7l0-0.4l0-0.3l0.1-0.6
		l0-0.3l0-0.1l0-0.1l0,0l0,0l0-0.2c0.2-0.9,0.5-1.7,0.9-2.5c0.8-1.5,1.9-2.9,3.4-3.6c0.2-0.1,0.4-0.2,0.6-0.3
		c0.2-0.1,0.3-0.1,0.5-0.1c0.4-0.1,0.8-0.2,1.2-0.2c0.8,0,1.4,0.2,2,0.4c1.1,0.5,1.9,1.3,2.3,2c0.4,0.7,0.4,1.4,0.4,1.8
		C514.7,228.9,514.6,229.1,514.6,229.1z"/>
</g>
<g class="st0">
	<path d="M537,222.6c-0.9-0.3-1.7-0.3-2.4,0c-0.7,0.2-1.3,0.7-1.9,1.2c-1.1,1.1-1.8,2.5-2.3,3.9c-0.1,0.3-0.2,0.7-0.2,1
		c-0.1,0.5-0.1,0.7-0.2,1.1c-0.1,0.7-0.1,1.5,0,2.1c0.1,0.7,0.3,1.2,0.5,1.7c0.3,0.4,0.6,0.7,1,1c0.2,0.2,0.2,0.1,0.3,0.1
		c0,0,0.1,0,0.2,0.1c0.2,0,0.4,0.1,0.6,0.1c0.5,0,1-0.1,1.5-0.4c0.5-0.2,1-0.5,1.5-0.9c0.4-0.4,0.8-0.8,1-1.3
		c0.3-0.5,0.3-0.5,0.4-0.9c0.1-0.3,0.2-0.6,0.3-0.9c0.2-0.7,0.3-1.4,0.4-2.1c0.2-1.5,0.2-3.1,0.2-4.8l4.3-0.5c0.1,0.7,0.2,1.4,0.3,2
		l0.4,2c0.1,0.7,0.3,1.4,0.5,2c0.2,0.7,0.4,1.3,0.6,2c0.4,1.3,0.8,2.7,1.4,4c0.3,0.7,0.5,1.4,0.8,2l0.8,2c-1.1-1-2.1-2.1-3-3.3
		c-0.5-0.6-0.9-1.2-1.3-1.8c-0.4-0.6-0.8-1.3-1.2-1.9c-1.5-2.6-2.7-5.5-3.4-8.4l4.3-0.5c0.2,1.7,0.3,3.5,0.2,5.4
		c-0.1,1-0.2,1.9-0.4,2.9c-0.1,0.5-0.3,1-0.5,1.5c-0.2,0.5-0.5,1.2-0.7,1.4c-0.5,1-1.3,2-2.2,2.7c-0.9,0.7-1.8,1.3-2.9,1.7
		c-1.1,0.4-2.3,0.6-3.5,0.6c-0.6,0-1.3-0.1-1.9-0.4c-0.3-0.1-0.6-0.2-1-0.4c-0.3-0.2-0.7-0.4-0.8-0.5c-1-0.7-1.8-1.8-2.3-2.9
		c-0.5-1.1-0.6-2.2-0.6-3.3c0-1.1,0.2-2.1,0.4-3c0.1-0.4,0.3-1,0.5-1.4c0.2-0.5,0.4-0.9,0.7-1.4c1-1.7,2.4-3.1,4.1-4.1
		c0.8-0.5,1.8-0.8,2.8-0.7C535.5,221.6,536.4,222,537,222.6z"/>
</g>
<g class="st0">
	<path d="M546.8,223.3c0.4,0.6,0.8,1.2,1.2,1.8c0.4,0.6,0.8,1.2,1.1,1.8c0.7,1.2,1.4,2.4,2.1,3.6c0.7,1.2,1.3,2.4,2,3.6l1.9,3.6
		l-4.2,2.1l-0.8-1.4l-0.7-1.5l-0.6-1.5c-0.2-0.5-0.3-1-0.5-1.5l-0.4-1.6c-0.1-0.5-0.2-1.1-0.2-1.6l-0.1-1.6l0-1.6
		c0-0.5,0-1.1,0.1-1.6l0.2-1.6l0.3-1.6c0.1-0.5,0.3-1,0.4-1.5c0.2-0.5,0.3-1,0.5-1.5l0.6-1.4l0.7-1.4c0.3-0.4,0.6-0.9,0.8-1.3
		l0.5-0.8l0.6,0.3c0.8,0.3,1.4,0.9,1.7,1.5c0.4,0.6,0.6,1.4,0.5,2c-0.2-0.3-0.4-0.6-0.6-0.8c-0.2-0.2-0.5-0.4-0.7-0.6
		c-0.5-0.3-1-0.4-1.5-0.5l1.1-0.5l-0.3,1.4l-0.2,1.4l-0.2,1.4c0,0.5-0.1,0.9-0.1,1.4c0,0.5,0,0.9-0.1,1.4l0,1.3l0,1.3
		c0,0.4,0.1,0.9,0.1,1.3c0.1,0.9,0.2,1.8,0.4,2.6c0.1,0.4,0.2,0.9,0.3,1.3l0.3,1.3c0.1,0.4,0.2,0.8,0.4,1.3l0.4,1.2l0.5,1.2
		c0.2,0.4,0.4,0.8,0.5,1.2l-4.2,2.1c-0.5-1.3-1-2.6-1.5-4c-0.4-1.3-0.9-2.7-1.2-4.1c-0.4-1.4-0.7-2.8-0.9-4.2
		c-0.1-0.7-0.2-1.4-0.3-2.1C546.9,224.8,546.8,224.1,546.8,223.3z"/>
</g>
<g class="st0">
	<path d="M561.1,230.2c0,0,0.8-0.6,2.2-1.5c0.7-0.5,1.5-1.1,2.3-1.8c0.8-0.8,1.6-1.7,2.1-2.8c0.1-0.1,0.1-0.3,0.2-0.4l0.1-0.2l0-0.1
		l0,0c0,0,0-0.1,0,0.1l0,0l0-0.1c0-0.2,0.1-0.4,0.1-0.5c0-0.1,0-0.2,0-0.3c0-0.5-0.1-1.1-0.4-1.6c-0.2-0.5-0.6-1-1-1.4
		c-0.4-0.3-0.8-0.5-1-0.5c-0.1,0-0.1,0-0.2,0c0,0-0.1,0-0.1,0c0,0,0,0,0,0l0,0l0,0c0,0,0.2-0.1,0.1,0l0,0l-0.3,0.1c0,0,0,0,0,0
		c0,0-0.1,0.1-0.2,0.2c-0.3,0.3-0.6,0.8-0.9,1.5c-0.3,0.7-0.5,1.5-0.8,2.4c-0.3,0.9-0.5,1.8-0.7,2.6c-0.4,1.7-0.5,3.2-0.1,4.4l0,0.1
		l0,0.1c0,0.1-0.1-0.1,0-0.1l0,0l0,0l0.1,0.3l0.1,0.3l0.1,0.1c0,0.1,0.1,0.2,0.2,0.3c0.1,0.1,0.2,0.3,0.3,0.4c0.4,0.5,0.9,1,1.5,1.4
		c1.2,0.8,2.6,1.3,4,1.5c0.7,0.1,1.3,0.1,2.1,0.1c0.4,0,0.7,0,1-0.1c0.3,0,0.7-0.1,1-0.1c1.3-0.2,2.6-0.6,3.6-0.9
		c1.1-0.4,2.1-0.7,2.8-1c1.6-0.6,2.5-0.9,2.5-0.9s-0.7,0.7-2,1.8c-0.7,0.5-1.5,1.2-2.5,1.9c-1,0.7-2.2,1.4-3.7,2
		c-0.4,0.2-0.7,0.3-1.1,0.4c-0.4,0.1-0.9,0.3-1.2,0.3c-0.8,0.2-1.8,0.3-2.7,0.3c-1.9,0-4-0.4-6-1.4c-1-0.5-1.9-1.2-2.8-2.1
		c-0.2-0.2-0.4-0.5-0.6-0.7c-0.2-0.2-0.4-0.5-0.6-0.8l-0.3-0.5l-0.2-0.3l-0.2-0.3l0,0l-0.1-0.2l0-0.1l-0.1-0.2
		c-0.9-2.4-0.6-4.9-0.2-7c0.2-1,0.5-2,0.8-3c0.3-0.9,0.7-2,1.2-3c0.5-1,1.2-2.1,2.4-3c0.3-0.2,0.6-0.4,1-0.6
		c0.2-0.1,0.4-0.2,0.6-0.3l0.3-0.1l0,0l0.1,0l0,0l0.1,0l0.3-0.1l0.6-0.1c0.4,0,0.8,0,1.2,0.1c1.6,0.3,2.8,1.2,3.5,2.1
		c0.8,1,1.2,2,1.5,3c0.2,1.1,0.3,2.1,0.1,3.1c-0.1,0.3-0.1,0.6-0.2,0.9c-0.1,0.2-0.2,0.4-0.2,0.6l-0.1,0.1l0,0
		c-0.1,0.2,0,0.1-0.1,0.1l0,0l0,0.1l-0.2,0.3c-0.1,0.2-0.2,0.4-0.4,0.5c-1,1.4-2.3,2.2-3.4,2.8c-1.1,0.6-2.1,0.9-3,1.2
		c-0.8,0.3-1.5,0.4-1.9,0.5C561.4,230.1,561.1,230.2,561.1,230.2z"/>
</g>
<g class="st0">
	<path d="M68.7,231.5c0,0,0.3-0.5,0.9-1.5c0.3-0.5,0.6-1,0.8-1.6c0.1-0.3,0.2-0.7,0.3-1c0.1-0.2,0.1-0.3,0.1-0.5c0-0.2,0-0.3,0-0.5
		c0-0.7-0.3-1.3-0.6-1.5c0,0,0,0-0.1,0l0,0l0,0c0,0,0.2,0.2,0.1,0.1l0,0l0,0l-0.2-0.1c-0.1-0.1,0,0,0,0c0,0.1-0.1,0-0.2,0
		c-0.2,0-0.4,0-0.4,0.1c0,0,0,0.1,0,0c0,0,0.1-0.1,0.2-0.1c0.1-0.1,0,0.1,0.1,0.6c0.1,0.7,0.4,1.6,0.9,2.5c0.2,0.5,0.5,1,0.7,1.4
		c0.3,0.4,0.5,0.9,0.8,1.2c0.3,0.3,0.5,0.6,0.7,0.8c0.2,0.2,0.4,0.3,0.6,0.4c0.2,0.1,0.5,0.1,0.9,0.1c0.2,0,0.5-0.1,0.6-0.1
		c0.2-0.1,0.5-0.1,0.7-0.2c0.8-0.2,1.7-0.5,2.4-0.9c1.5-0.7,2.6-1.6,3.3-2.4c0.2-0.2,0.3-0.4,0.5-0.5c0.1-0.1,0.1-0.1,0.2-0.2
		c0,0,0.1-0.1,0.1-0.2c0-0.1,0-0.2,0-0.2c-0.1,0-0.1,0-0.1,0c0,0,0,0,0.1-0.1c0.1,0,0.2,0.1,0.3,0.3c0,0.1,0.1,0.2,0.1,0.3
		c0,0.1,0,0.2,0,0.3c0,0.2-0.1,0.5-0.1,0.8c-0.1,0.6-0.3,1.3-0.7,2c-0.4,0.7-1,1.5-1.7,2.3c-0.7,0.7-1.6,1.4-2.7,2
		c-0.3,0.2-0.5,0.3-0.8,0.4c-0.4,0.2-0.6,0.3-1,0.4c-0.7,0.2-1.5,0.4-2.4,0.4c-0.9-0.1-1.9-0.4-2.6-0.8c-0.8-0.5-1.4-1-1.9-1.6
		c-0.5-0.6-0.9-1.2-1.3-1.8c-0.4-0.6-0.7-1.2-1-1.8c-0.6-1.3-1.1-2.7-1.2-4.4c0-0.7,0-1.8,0.6-2.9c0.3-0.5,0.8-1.1,1.3-1.5
		c0.5-0.4,1.1-0.6,1.6-0.7c1.1-0.2,2-0.1,2.9,0.3c0.5,0.2,0.8,0.4,1.3,0.8c0.1,0.1,0.3,0.2,0.3,0.3l0.1,0.2l0,0l0.1,0.1l0,0.1
		l0.1,0.1c0.1,0.1,0.1,0.2,0.2,0.3c0.9,1.5,0.7,3,0.4,4.2c-0.4,1.1-1,2-1.6,2.6c-0.6,0.6-1.2,1-1.7,1.2c-0.5,0.3-0.9,0.5-1.2,0.6
		C68.8,231.4,68.7,231.5,68.7,231.5z"/>
</g>
<g class="st0">
	<path d="M73.6,203.2c0,0,0.4,0.2,1.2,0.7c0.7,0.5,1.7,1.1,2.8,2c1.1,0.9,2.3,1.9,3.5,3.1c1.2,1.2,2.4,2.5,3.6,3.9
		c2.3,2.7,4.4,5.7,5.7,8.1c0.7,1.2,1.2,2.3,1.5,3.1c0.3,0.8,0.5,1.2,0.5,1.2s-0.5-0.2-1.2-0.6c-0.8-0.4-1.8-1-2.9-1.8
		c-1.1-0.8-2.4-1.8-3.7-3c-0.6-0.6-1.3-1.2-1.9-1.9c-0.6-0.6-1.2-1.3-1.8-2c-0.6-0.7-1.2-1.4-1.7-2.1c-0.5-0.7-1-1.4-1.5-2.2
		c-0.9-1.4-1.7-2.9-2.3-4.1c-0.6-1.3-1-2.4-1.3-3.2C73.7,203.7,73.6,203.2,73.6,203.2z"/>
</g>
<g class="st0">
	<path d="M109.1,226.3c0.6,0.4,1.1,0.9,1.6,1.3l-0.6,0.5c-1-0.7-1.9-1.4-2.8-2.1c-0.9-0.7-1.8-1.5-2.7-2.3c-0.9-0.8-1.7-1.6-2.6-2.4
		c-0.8-0.8-1.7-1.7-2.5-2.6c-0.8-0.9-1.6-1.8-2.4-2.7c-0.8-0.9-1.5-1.8-2.2-2.8c-1.4-1.9-2.8-3.8-4.1-5.8l-0.5-0.7l0.1-0.9
		c0.1-1,0.6-2.2,1.3-3.1c0.7-0.9,1.4-1.3,2-1.8l0.4-0.3l0.5-0.3c0.1-0.1,0.4-0.2,0.6-0.3c0.2-0.1,0.4-0.2,0.6-0.3
		c0.8-0.4,1.5-0.6,2.3-0.8c0.8-0.2,1.6-0.3,2.3-0.4c0.4,0,0.7-0.1,1.2-0.1c0.4,0,0.8,0,1.2,0.1c0.8,0.1,1.7,0.3,2.6,0.7
		c0.4,0.2,0.9,0.5,1.3,0.8l0.1,0.1l0.1,0.1l0,0l0,0l0.2,0.2c0.2,0.2,0.4,0.4,0.5,0.6c0.6,0.8,1,1.7,1.1,2.6c0.2,0.9,0.2,1.7,0.1,2.6
		c-0.1,0.4-0.2,0.9-0.3,1.2c-0.1,0.4-0.3,0.8-0.4,1.1c-0.3,0.7-0.7,1.4-1.1,1.9c-0.4,0.6-0.9,1.1-1.3,1.7c-0.5,0.5-0.9,1-1.4,1.5
		c-1,1-2,1.9-3.1,2.7c0.7-1.2,1.4-2.3,2-3.5c0.6-1.2,1.2-2.4,1.7-3.5c0.2-0.6,0.4-1.1,0.5-1.7c0.1-0.3,0.1-0.6,0.1-0.8
		c0-0.3,0-0.5,0-0.8c0-1-0.5-1.9-1-2.4c-0.1-0.1-0.1-0.1-0.1-0.1l-0.2-0.1l-0.1,0l0,0c0,0-0.1-0.1,0.1,0.1l0,0l0,0l-0.1,0
		c-0.1-0.1-0.3-0.1-0.5-0.2c-0.4-0.1-0.8-0.2-1.3-0.2c-0.2,0-0.5,0-0.8,0c-0.2,0-0.5,0.1-0.8,0.1c-0.6,0.1-1.1,0.2-1.6,0.4
		c-0.5,0.2-1,0.4-1.4,0.6c-0.1,0.1-0.2,0.1-0.3,0.2l-0.3,0.2l-0.8,0.5c-0.5,0.4-0.9,0.7-1,0.8c-0.1,0.2-0.2,0.2-0.2,0.6l-0.4-1.6
		l1.8,2.9l1.9,2.9l1.9,2.9l2,2.8l4,5.7l4.1,5.7l-0.6,0.5C109.8,227.5,109.5,226.9,109.1,226.3z"/>
</g>
<g class="st0">
	<path d="M35.8,226.1c2,1.9,3.8,3.9,5.6,6c0.9,1,1.8,2,2.7,3.1c0.9,1,1.8,2.1,2.7,3.1c1.7,2.1,3.5,4.2,5.2,6.3
		c1.7,2.1,3.3,4.3,5,6.4l-3.8,3c-2.5-2.9-4.8-6-6.9-9.1l-1.5-2.4c-0.5-0.9-1.1-1.9-1.4-3.3c-0.1-0.7-0.2-1.6,0.1-2.4
		c0.2-0.9,0.7-1.7,1.3-2.2c0.3-0.3,0.5-0.5,0.8-0.7c0.1-0.1,0.3-0.2,0.4-0.3l0.2-0.1l0.1-0.1l0.1-0.1l0,0l0.7-0.3
		c0.3-0.1,0.6-0.3,0.9-0.4c2.3-0.7,4.6-0.6,6.7,0c1,0.3,2,0.7,2.9,1.2c0.5,0.3,0.9,0.5,1.4,0.8l0.6,0.4l0.6,0.5
		c1.6,1.3,2.8,2.8,3.9,4.4c1.1,1.6,2.1,3.2,3,4.9c-1.4-1.3-2.8-2.6-4.2-3.8c-1.4-1.2-2.8-2.3-4.3-3.2l-0.5-0.3l-0.6-0.3
		c-0.3-0.2-0.7-0.3-1.1-0.5c-0.8-0.3-1.6-0.5-2.4-0.6c-1.6-0.2-3.1-0.1-4.4,0.5l-0.4,0.2c-0.2,0.1-0.4,0.2-0.6,0.3l0,0l0,0
		c0.2-0.1,0,0,0.1,0l0,0l0,0l-0.1,0.1l-0.2,0.1c-0.1,0.1-0.2,0.2-0.2,0.2c-0.1,0.2-0.1,0.2-0.1,0.2c0,0,0,0.1,0.1,0.3
		c0.1,0.4,0.5,1,0.9,1.7l1.5,2.2c2.1,3,4.3,5.9,6.6,8.8l-3.8,3c-1.6-2.2-3.1-4.5-4.6-6.7c-1.5-2.3-3-4.5-4.4-6.8
		c-0.7-1.1-1.4-2.3-2.1-3.5c-0.7-1.2-1.4-2.3-2.1-3.5C38.3,231,37,228.6,35.8,226.1z"/>
</g>
<g class="st0">
	<path class="st4" d="M286.4,263.6c0,0-0.2-0.1-0.4-0.3c-0.3-0.2-0.7-0.5-1.3-0.8c-1.2-0.7-3-1.5-5.5-1.9c-2.4-0.5-5.5-0.5-8.7,0.5
		c-3.2,1-6.4,3.3-10.1,5.8c-0.9,0.6-1.9,1.2-3,1.8c-0.5,0.3-1,0.6-1.6,0.8l-0.8,0.4l-0.9,0.4c-2.4,0.9-5,1.4-7.7,1.6
		c-2.7,0.1-5.5-0.1-8.3-0.9c-2.7-0.8-5.5-2-7.9-4c-0.6-0.5-1.2-1.1-1.7-1.7l-0.2-0.2l-0.1-0.1l0-0.1c0,0.1-0.1-0.2-0.1-0.2l-0.3-0.4
		c-0.2-0.3-0.4-0.5-0.6-1c-0.5-0.8-0.8-1.6-1.1-2.3c-0.1-0.4-0.3-0.8-0.4-1.2l-0.3-1.2c-0.6-3.2-0.2-6.4,0.6-9.5
		c0.4-1.5,0.9-3,1.5-4.4l0.1-0.3l0-0.1l0.1-0.1l0.1-0.1l0.2-0.5l0.5-1l0.5-1c0.2-0.3,0.4-0.7,0.6-1l1.2-2l1.3-1.9
		c0.4-0.6,0.9-1.2,1.4-1.9c0.5-0.6,0.9-1.2,1.4-1.8c2-2.3,4.3-4.4,6.6-6.4c2.4-1.9,5-3.6,7.6-5c2.7-1.4,5.4-2.6,8.3-3.4
		c0.7-0.2,1.4-0.4,2.1-0.6c0.7-0.2,1.4-0.4,2.1-0.5c1.4-0.2,2.9-0.6,4.3-0.7c1.4-0.2,2.8-0.3,4.3-0.3c1.5,0,3,0.2,4.4,0.6
		c0.7,0.2,1.5,0.5,2.2,0.8c0.2,0.1,0.4,0.2,0.5,0.3l0.1,0.1l0.2,0.1l0.1,0l0.2,0.1l0.8,0.5c1.4,1,2.3,2.1,3.2,3.4
		c1.6,2.5,2.2,5.2,2.5,7.7c0.2,2.5,0.1,4.9-0.2,7.2c-0.7,4.5-1.9,8.3-2.3,11.7c-0.5,3.4-0.4,6.5,0.4,8.8c0.8,2.3,1.5,4.4,1.1,5.9
		c-0.2,0.7-0.6,1.1-0.9,1.3c-0.1,0.1-0.3,0.2-0.4,0.2c-0.1,0-0.1,0.1-0.1,0.1s0,0,0.1-0.1c0.1-0.1,0.2-0.1,0.3-0.2
		c0.3-0.2,0.6-0.7,0.6-1.3c0.1-0.7-0.1-1.5-0.4-2.4c-0.3-0.9-0.8-1.9-1.4-3.1c-0.5-1.2-0.9-2.6-1.2-4.2c-0.2-1.6-0.3-3.3-0.2-5.1
		c0.2-3.6,1-7.7,1.4-11.9c0.1-2.1,0.1-4.3-0.2-6.4c-0.2-1.1-0.4-2.1-0.8-3.2c-0.4-1-0.8-2-1.5-2.8c-0.6-0.8-1.4-1.6-2.1-2.1
		l-0.8-0.5l-0.2-0.1l-0.1,0c-0.1-0.1,0.1,0.1,0.1,0l-0.1,0c-0.1-0.1-0.2-0.1-0.4-0.2c-0.5-0.2-1-0.3-1.5-0.5
		c-2.1-0.4-4.7-0.3-7.3,0.1c-5.2,0.6-10.3,2.5-15.1,5.1c-2.4,1.3-4.7,2.9-6.8,4.6c-2.1,1.8-4.1,3.7-5.9,5.8
		c-0.5,0.5-0.9,1.1-1.3,1.6c-0.4,0.5-0.9,1.1-1.2,1.6l-1.2,1.7l-1,1.7c-0.2,0.3-0.3,0.6-0.5,0.9l-0.5,1l-0.5,1l-0.2,0.5l-0.1,0.1
		c0,0,0.1-0.1,0,0l0,0.1l-0.1,0.2c-0.5,1.2-1,2.5-1.4,3.7c-0.7,2.5-1,5.1-0.7,7.4l0.2,0.9c0.1,0.3,0.2,0.6,0.2,0.8
		c0.2,0.5,0.4,1.1,0.6,1.5c0.1,0.2,0.3,0.5,0.5,0.8l0.3,0.4c0,0-0.1-0.1,0,0l0,0l0.1,0.1l0.1,0.2c0.3,0.4,0.7,0.9,1.1,1.2
		c1.7,1.6,3.9,2.6,6.2,3.4c2.3,0.7,4.7,1.1,7,1.1c2.3,0,4.6-0.4,6.7-1l0.8-0.2l0.8-0.3c0.5-0.2,1-0.4,1.5-0.6c1-0.5,1.9-1,2.9-1.5
		c1.9-1.1,3.7-2.2,5.5-3.1c0.9-0.5,1.8-0.9,2.8-1.2c0.5-0.2,0.9-0.3,1.4-0.5l0.3-0.1l0.4-0.1c0.2-0.1,0.5-0.1,0.7-0.2
		c3.7-0.8,7-0.3,9.5,0.4c2.5,0.8,4.3,1.9,5.4,2.7c0.6,0.4,1,0.7,1.2,1C286.2,263.5,286.4,263.6,286.4,263.6z"/>
</g>
</svg>
