<?xml version="1.0" encoding="utf-8"?>
<!-- Generator: Adobe Illustrator 19.1.0, SVG Export Plug-In . SVG Version: 6.00 Build 0)  -->
<svg version="1.1" id="Layer_1" xmlns="http://www.w3.org/2000/svg" xmlns:xlink="http://www.w3.org/1999/xlink" x="0px" y="0px"
	 viewBox="0 0 600 600" style="enable-background:new 0 0 600 600;" xml:space="preserve">
<style type="text/css">
	.st0{fill:#00A651;}
	.st1{fill:#1C75BC;}
	.st2{fill:#BE1E2D;}
	.st3{fill:#FFDE17;}
</style>
<g>
	<path class="st0" d="M281.9,328.6c6.3,7.9,13,15.6,20,22.9c3.5,3.7,7.1,7.2,10.7,10.8c3.6,3.5,7.3,7,11.1,10.3l-0.9,0.5l-7.6-43.1
		l-0.2-1l1.1,0c22.5-0.2,44.9-0.4,67.3-1.7c22.4-1.3,44.7-3.8,66.5-8.9c10.9-2.5,21.6-5.6,32-9.7c2.6-1,5.2-2.1,7.7-3.2
		c2.5-1.2,5.1-2.3,7.5-3.5c2.5-1.2,4.9-2.6,7.3-3.9l3.6-2.1l0.9-0.5c0.3-0.2,0.6-0.4,0.9-0.6l1.8-1.1c9.2-6.1,17.6-13.4,25.3-21.5
		c3.8-4,7.5-8.2,11.1-12.5c3.5-4.3,6.8-8.7,9.6-13.4c0.7-1.2,1.3-2.4,2-3.6l0.9-1.8c0.3-0.6,0.6-1.2,0.8-1.8c1.1-2.5,1.9-5,2.6-7.6
		c0.6-2.6,0.9-5.2,0.9-7.8l-0.1-2c0,0,0-0.3,0-0.1l0-0.3l-0.1-0.5l-0.2-1c-0.1-1.5-0.5-2.6-0.8-3.8c-0.1-0.6-0.4-1.2-0.6-1.9
		l-0.7-1.9l-0.8-1.8c-0.3-0.6-0.5-1.2-0.9-1.8c-0.7-1.2-1.3-2.3-2.1-3.5l-1.1-1.7c-0.4-0.6-0.8-1.1-1.2-1.6
		c-3.3-4.3-7.1-8.2-11.3-11.8c-4.1-3.6-8.6-7-13.1-10.1c-1.1-0.8-2.3-1.6-3.5-2.3c-0.6-0.4-1.2-0.8-1.7-1.1l-1.8-1.1l-3.6-2.2
		c-1.2-0.7-2.4-1.5-3.6-2.1c-9.5-5.6-19.6-10.6-29.8-15c-10.2-4.4-20.7-8.3-31.3-11.8c-10.6-3.4-21.4-6.2-32.3-8.7
		c-10.9-2.5-21.9-4.3-33-5.8c-5.5-0.8-11.1-1.3-16.6-1.9c-5.6-0.5-11.1-0.9-16.7-1.1c-22.3-1.1-44.7-0.4-66.9,1.9
		c-22.3,2.3-44.3,6.3-65.8,12.2c-21.5,6-42.5,14-61.8,25.1c-4.8,2.8-9.6,5.7-14.1,8.9c-4.5,3.2-8.9,6.6-13.1,10.2
		c-8.4,7.3-15.9,15.5-22.1,24.7c-3.1,4.6-5.7,9.4-7.9,14.5c-2.2,5.1-3.9,10.3-4.9,15.7c-1,5.4-1.5,10.9-1.1,16.4l0.1,2.1l0.2,2
		l0.1,1l0.2,1c0.1,0.7,0.2,1.4,0.4,2.1c0.5,2.6,1.3,5.3,2.2,7.9c0.9,2.6,2.1,5.1,3.4,7.4c1.3,2.4,2.9,4.6,4.6,6.8
		c1.7,2.1,3.7,4.1,5.7,5.9c1.1,0.9,2.1,1.8,3.2,2.6c0.6,0.4,1.1,0.8,1.7,1.2l1.7,1.1l0.8,0.5l0.9,0.5c0.6,0.4,1.2,0.7,1.8,1
		c1.2,0.7,2.4,1.3,3.7,1.8c2.5,1.2,5.1,2.2,7.7,3.1c5.2,1.9,10.6,3.5,16,4.9c21.8,5.5,43.7,10.1,65.8,14.2c11,2,22.1,3.9,33.2,5.6
		c5.5,0.9,11.1,1.7,16.7,2.5l8.3,1.2c0.7,0.1,1.4,0.3,2.1,0.5c0.6,0.2,1.4,0.5,1.7,1.2c0.1,0.2,0.1,0.4,0.1,0.5
		c-0.1,0.2-0.2,0.3-0.4,0.4c-0.3,0.2-0.7,0.2-1,0.2c-0.4,0-0.7,0-1-0.1c-0.2,0-0.3-0.1-0.4-0.3c-0.1-0.2,0.1-0.3,0.2-0.4
		c-0.1,0.1-0.3,0.3-0.2,0.4c0.1,0.1,0.3,0.2,0.4,0.3c0.3,0.1,0.7,0.1,1,0.1c0.3,0,0.7-0.1,1-0.2c0.2-0.1,0.3-0.2,0.3-0.3
		c0-0.2,0-0.3-0.1-0.5c-0.3-0.6-1-0.9-1.7-1.1c-0.7-0.2-1.4-0.3-2-0.4l-8.4-1c-5.6-0.7-11.2-1.4-16.7-2.2
		c-11.1-1.5-22.2-3.2-33.3-5.1c-22.2-3.8-44.2-8.1-66.2-13.3c-5.5-1.3-10.9-2.8-16.3-4.7c-2.7-0.9-5.3-2-7.9-3.2
		c-1.3-0.6-2.6-1.2-3.9-1.9c-0.7-0.3-1.3-0.7-1.9-1l-0.9-0.5l-0.9-0.6l-1.8-1.2c-0.6-0.4-1.2-0.8-1.8-1.2c-1.2-0.8-2.3-1.8-3.4-2.7
		c-2.2-1.9-4.3-3.9-6.1-6.2c-1.8-2.2-3.5-4.6-4.9-7.1c-1.4-2.5-2.7-5.1-3.7-7.8c-1-2.7-1.8-5.5-2.4-8.3c-0.2-0.7-0.3-1.4-0.4-2.1
		l-0.2-1l-0.1-1.1l-0.3-2.1l-0.2-2.2c-0.4-5.7,0-11.5,1-17.2c1.1-5.6,2.8-11.2,5-16.4c2.3-5.3,5-10.3,8.1-15.1
		c12.6-19.1,30.6-34.1,50.2-45.4c19.7-11.4,40.9-19.7,62.7-25.8c10.9-3.1,21.9-5.6,33-7.7c5.6-1.1,11.1-2,16.7-2.8l8.4-1.1l8.4-1
		c22.5-2.4,45.1-3.1,67.7-2.1c5.6,0.3,11.3,0.6,16.9,1.1c5.6,0.6,11.3,1.1,16.9,1.9c11.2,1.5,22.4,3.3,33.4,5.9
		c11,2.5,22,5.4,32.8,8.8c10.8,3.5,21.4,7.5,31.8,12c10.4,4.5,20.5,9.6,30.3,15.4c1.3,0.7,2.4,1.4,3.6,2.2l3.6,2.2l1.8,1.1
		c0.7,0.4,1.2,0.8,1.8,1.2c1.2,0.8,2.4,1.6,3.5,2.4c4.7,3.2,9.2,6.7,13.5,10.5c4.3,3.8,8.3,7.9,11.9,12.6c0.4,0.6,0.9,1.2,1.3,1.8
		l1.2,1.8c0.8,1.2,1.5,2.5,2.2,3.8c0.4,0.6,0.7,1.3,1,2l0.9,2l0.8,2.1c0.2,0.7,0.5,1.4,0.7,2.2c0.4,1.5,0.8,3,0.9,4.4l0.1,1l0.1,0.5
		l0,0.3c0,0.3,0,0.3,0,0.4l0.1,2.3c0,3-0.3,6-1,8.9c-0.7,2.9-1.6,5.7-2.9,8.3c-0.3,0.7-0.6,1.3-0.9,2l-1,2c-0.7,1.3-1.4,2.6-2.2,3.8
		c-3,4.9-6.4,9.5-10.1,13.9c-3.6,4.3-7.4,8.6-11.3,12.7c-7.9,8.2-16.6,15.6-26.2,21.9l-1.8,1.1c-0.3,0.2-0.6,0.4-0.9,0.6l-0.9,0.5
		l-3.7,2.2c-2.5,1.3-5,2.7-7.6,3.9c-2.5,1.3-5.2,2.4-7.7,3.6c-2.6,1.1-5.2,2.2-7.9,3.1c-10.6,4-21.5,7-32.6,9.5
		c-22.1,4.9-44.6,7.2-67.1,8.3c-22.5,1.2-45,0.9-67.5,0.8l0.9-1l7,43.2l0.3,1.6l-1.2-1.1c-7.5-6.9-14.7-14-21.5-21.5
		C294.6,344.4,288.1,336.7,281.9,328.6z"/>
</g>
<g>
	<path d="M129.3,238.4c0,0,0,0.2,0.1,0.7c0,0.5,0.1,1.1,0.2,1.9c0.2,1.7,0.6,4,1.4,6.6c0.4,1.3,0.9,2.7,1.5,4.1
		c0.6,1.4,1.4,2.9,2.2,4.2l0.4,0.6c0.1,0.2,0.2,0.3,0.3,0.4c0.2,0.3,0.5,0.6,0.7,0.9c0.5,0.6,1.1,1.1,1.7,1.6
		c1.2,0.9,2.5,1.5,3.5,1.4c1-0.1,1.9-0.6,2.6-1.8c0.4-0.6,0.7-1.3,0.9-2l0.2-0.6l0-0.1l0,0c0-0.1,0,0.1,0,0l0,0l0-0.1l0.1-0.3
		c0.1-0.4,0.2-0.9,0.3-1.3c0.3-1.5,0.5-3.2,0.6-4.7c0.1-1.5,0-3-0.1-4.4c-0.2-1.4-0.3-2.6-0.6-3.7c-0.3-1.1-0.5-2.1-0.8-2.9
		c-0.3-0.8-0.5-1.4-0.7-1.8c-0.2-0.4-0.3-0.7-0.3-0.7s0.2,0.2,0.5,0.5c0.3,0.3,0.8,0.8,1.3,1.5c0.3,0.4,0.5,0.7,0.8,1.2
		c0.3,0.4,0.6,0.9,0.9,1.5c0.6,1.1,1.2,2.3,1.7,3.8c0.5,1.4,0.9,3.1,1.1,4.8c0.2,1.8,0.2,3.6,0,5.6c-0.1,0.5-0.1,1-0.2,1.4l-0.1,0.3
		l0,0.2l0,0.2l-0.2,0.8c-0.3,1-0.6,2.1-1.2,3.1c-0.6,1-1.4,2.1-2.5,2.9c-0.1,0.1-0.3,0.2-0.5,0.3l-0.3,0.2l-0.2,0.1l-0.2,0.1l-0.1,0
		l-0.1,0.1l0,0l-0.1,0l-0.5,0.2c-0.3,0.1-0.7,0.2-1,0.3c-0.3,0.1-0.7,0.2-1.1,0.2c-1.4,0.1-2.8-0.2-4-0.7c-1.2-0.5-2.1-1.2-3-1.9
		c-0.9-0.7-1.6-1.5-2.2-2.4c-0.3-0.4-0.6-0.8-0.9-1.3c-0.1-0.2-0.3-0.5-0.4-0.7l-0.3-0.6c-0.9-1.8-1.5-3.5-1.9-5.2
		c-0.4-1.7-0.7-3.3-0.8-4.8c-0.1-1.5-0.1-2.9,0-4.1c0.1-1.2,0.3-2.3,0.4-3.1c0.2-0.8,0.4-1.5,0.5-1.9
		C129.3,238.7,129.3,238.4,129.3,238.4z"/>
</g>
<g>
	<path d="M164.6,254.5c0,0-0.4-1-1-2.8c-0.6-1.8-1.4-4.3-2.1-7.5c-0.3-1.6-0.6-3.4-0.7-5.3c-0.1-1-0.1-2,0-3l0.1-0.8l0-0.2l0-0.1
		l0,0l0,0c0,0.1,0-0.2,0-0.2l0.1-0.4c0.1-0.2,0.1-0.5,0.1-0.7c0.1-0.4,0.3-0.7,0.4-1.1c0.6-1.3,1.6-2.5,3-3.3c1.3-0.7,2.7-1,4.1-1.1
		c2.7,0,5.2,0.8,7.4,2.3l0.4,0.3l0.2,0.2l0.1,0.1l0.1,0.1l0.6,0.5c0.4,0.4,0.8,0.7,1.2,1.2c0.4,0.5,0.9,1,1.2,1.5
		c0.3,0.5,0.6,1,0.9,1.6c0.3,0.5,0.5,1.1,0.8,1.6c0.2,0.5,0.5,1.1,0.6,1.6c0.2,0.5,0.3,1.1,0.5,1.6c0.1,0.5,0.2,1.1,0.3,1.6
		c0.4,2.1,0.5,4.1,0.5,6c0,1.9,0,3.6,0,5.2c0,1.6,0,3,0,4.3c0.1,1.3,0.1,2.4,0.3,3.3c0.1,0.9,0.2,1.6,0.3,2.1
		c0.1,0.5,0.1,0.8,0.1,0.8s-0.1-0.2-0.4-0.7c-0.2-0.4-0.7-1.1-1-2c-0.4-0.9-0.8-2-1.2-3.2c-0.2-0.6-0.3-1.3-0.5-2.1
		c-0.2-0.7-0.3-1.5-0.5-2.3c-0.3-1.6-0.6-3.3-0.9-5.1c-0.3-1.8-0.6-3.6-1.1-5.4c-0.5-1.8-1.2-3.5-2.1-5l-0.7-1.1
		c-0.3-0.3-0.5-0.6-0.8-0.9c-0.2-0.3-0.7-0.7-1-1l-0.6-0.5l-0.1-0.1l-0.1-0.1l0,0l0,0c-0.1-0.1,0.2,0.1,0.1,0.1l-0.2-0.2
		c-1.3-0.9-3-1.5-4.5-1.6c-0.7,0-1.4,0.1-1.9,0.3c-0.5,0.2-0.9,0.6-1.2,1c0,0.1-0.1,0.2-0.2,0.3c-0.1,0.2-0.1,0.5-0.2,0.7l-0.1,0.4
		c0,0,0.1-0.3,0-0.1l0,0l0,0l0,0.1l0,0.2l-0.1,0.6c-0.2,0.9-0.3,1.7-0.3,2.6c-0.1,1.7-0.2,3.4-0.2,4.9c0,3.1,0.2,5.8,0.2,7.7
		C164.6,253.4,164.6,254.5,164.6,254.5z"/>
</g>
<g>
	<path d="M155.4,234.8c0,0,0.3,0.2,0.8,0.7c0.5,0.4,1.2,1.1,1.8,1.9c0.7,0.8,1.4,1.8,2.1,2.9c0.3,0.5,0.7,1.1,1,1.7
		c0.3,0.6,0.6,1.2,0.9,1.8c0.3,0.6,0.5,1.2,0.7,1.9c0.2,0.6,0.4,1.3,0.6,1.9c0.3,1.2,0.5,2.4,0.7,3.5c0.1,1,0.1,2,0.1,2.6
		c0,0.7-0.1,1-0.1,1s-0.3-0.2-0.8-0.7c-0.5-0.4-1.2-1.1-1.8-1.9c-0.7-0.8-1.4-1.8-2.1-2.9c-0.3-0.5-0.7-1.1-1-1.7
		c-0.3-0.6-0.6-1.2-0.9-1.8c-0.3-0.6-0.5-1.2-0.7-1.9c-0.2-0.6-0.4-1.3-0.6-1.9c-0.3-1.2-0.5-2.4-0.7-3.5c-0.1-1-0.1-2-0.1-2.6
		C155.4,235.2,155.4,234.8,155.4,234.8z"/>
</g>
<g>
	<path d="M208.2,234.7c0,0,0-0.1-0.1-0.3c-0.1-0.2-0.2-0.5-0.4-0.9c-0.4-0.7-1.3-1.6-2.8-2c-0.7-0.2-1.5-0.3-2.4-0.3
		c-0.2,0-0.4,0-0.6,0.1c-0.1,0-0.2,0-0.3,0.1l-0.4,0.1c-0.3,0.1-0.4,0.2-0.6,0.2c-0.2,0.1-0.4,0.2-0.6,0.3c-1.7,1-3.1,2.9-4.2,5.3
		l-0.2,0.4l-0.2,0.5c-0.1,0.3-0.3,0.7-0.4,1c-0.2,0.6-0.5,1.3-0.7,2c-0.4,1.4-0.9,2.8-1.2,4.2c-0.6,2.9-0.9,6.1-0.5,9.1
		c0.2,1.5,0.7,2.9,1.4,4.1l0.1,0.2l0.1,0.1l0,0c-0.2-0.3,0-0.1-0.1-0.1l0.1,0.1l0.4,0.5l0.4,0.5l0.3,0.2c0.1,0.1,0.2,0.2,0.3,0.3
		c0.1,0.1,0.3,0.2,0.4,0.2l0.4,0.2l0.4,0.2c1.1,0.5,2.4,0.5,3.8,0.1c1.4-0.3,2.8-1.1,4-2c1.2-0.9,2.3-2,3-3.3
		c0.5-0.8,0.8-1.5,1.2-2.2c0.3-0.7,0.6-1.5,0.9-2.3c1-3.1,1.5-6.5,1.5-9.7c0-3.3-0.3-6.4-0.8-9.5c-0.6-2.9-1.3-5.8-2.1-8.4
		c-1.7-5.2-3.4-9.4-4.7-12.3c-1.3-3-2-4.7-2-4.7s0.3,0.4,0.8,1.1c0.5,0.7,1.2,1.7,2.1,3.1c0.9,1.4,1.9,3,3,5c1.1,2,2.3,4.2,3.4,6.8
		c1.1,2.6,2.2,5.4,3.1,8.6c0.9,3.1,1.5,6.6,1.6,10.2c0.1,3.6-0.2,7.5-1.3,11.2c-0.3,0.9-0.6,1.9-1,2.8c-0.4,0.9-0.9,2-1.4,2.7
		c-1.1,1.9-2.6,3.5-4.3,4.8c-1.7,1.3-3.7,2.3-5.8,2.8c-2.2,0.5-4.7,0.5-6.9-0.5l-0.8-0.4c-0.3-0.2-0.5-0.3-0.8-0.5
		c-0.2-0.2-0.5-0.3-0.7-0.5c-0.2-0.2-0.5-0.4-0.7-0.7c-0.2-0.2-0.5-0.5-0.7-0.7l-0.4-0.5l-0.4-0.5l0-0.1l-0.1-0.2l0,0l-0.1-0.2
		l-0.2-0.4c-1-1.9-1.6-3.9-1.7-5.9c-0.3-3.9,0.4-7.4,1.3-10.6c0.5-1.6,1-3.1,1.7-4.5c0.3-0.7,0.7-1.4,1-2.1c0.2-0.3,0.3-0.6,0.5-0.9
		l0.3-0.5l0.3-0.5c1.5-2.5,3.5-4.6,5.8-5.6c2.4-1,4.7-0.6,6.2,0.2c1.6,0.8,2.4,2,2.7,2.8C208.2,234.3,208.2,234.7,208.2,234.7z"/>
</g>
<g>
	<path d="M225,242c0,0,0.3,0,1-0.1c0.6-0.1,1.6-0.2,2.7-0.4c1.2-0.2,2.6-0.4,4.1-0.9c1.5-0.5,3.1-1.2,4.5-2.2
		c1.4-1.1,2.5-2.7,3.1-4.5c0.3-0.9,0.4-1.8,0.2-2.7c0-0.4-0.2-0.8-0.3-1.2c-0.1-0.2-0.2-0.4-0.3-0.6l0,0c-0.1-0.1,0.1,0.1,0.1,0.1
		l0,0l-0.1-0.1l-0.1-0.2c-0.1-0.1-0.2-0.3-0.3-0.3c-0.2-0.2-0.5-0.5-0.9-0.7c-0.3-0.2-0.8-0.4-1.2-0.6c-0.9-0.3-1.9-0.4-2.9-0.2
		c-1,0.1-1.9,0.5-2.7,1l-0.1,0.1l0,0c-0.1,0.1,0.1-0.1,0.1,0l0,0l-0.1,0.1l-0.4,0.3c-0.2,0.2-0.3,0.3-0.5,0.5
		c-0.3,0.4-0.7,0.8-1,1.2c-1.2,1.7-1.7,4-1.8,6.3c0,2.3,0.5,4.5,1.5,6.6c0.9,2,2.3,3.8,3.8,5.3c0.7,0.7,1.6,1.3,2.4,1.9
		c0.2,0.1,0.5,0.3,0.7,0.4c0.2,0.1,0.4,0.2,0.6,0.3c0.4,0.2,0.9,0.4,1.3,0.6c1.7,0.7,3.5,1.1,5,1.3c1.6,0.2,3,0.1,4.1,0
		c1.2-0.1,2.1-0.3,2.7-0.5c0.6-0.2,0.9-0.3,0.9-0.3s-0.3,0.2-0.8,0.5c-0.6,0.3-1.4,0.8-2.6,1.2c-1.2,0.4-2.6,0.8-4.4,0.9
		c-1.7,0.2-3.8,0.1-5.9-0.5c-0.5-0.1-1.1-0.3-1.6-0.5c-0.3-0.1-0.6-0.2-0.9-0.3c-0.2-0.1-0.5-0.2-0.8-0.3c-1.2-0.5-2.2-1.2-3.2-1.9
		c-2-1.6-3.9-3.6-5.3-6.1c-1.4-2.5-2.3-5.4-2.4-8.5c-0.1-3.1,0.6-6.3,2.5-9.1c0.4-0.7,1-1.3,1.6-2c0.3-0.3,0.7-0.7,1-0.9l0.4-0.3
		l0.1-0.1l0.1-0.1l0.1,0l0.3-0.2c1.5-1,3.2-1.5,4.9-1.6c3.3-0.3,6.8,0.8,9.1,3.9c0.2,0.2,0.2,0.3,0.3,0.4l0.3,0.5
		c0.2,0.4,0.4,0.8,0.5,1.2c0.3,0.8,0.4,1.6,0.4,2.4c0.1,1.6-0.3,3.1-0.8,4.3c-1.1,2.6-3,4.4-5,5.5c-2.1,1.1-4,1.6-5.8,1.7
		c-1.7,0.2-3.2,0.1-4.4,0c-1.2-0.1-2.1-0.3-2.8-0.3C225.4,242.1,225,242,225,242z"/>
</g>
<g>
	<path d="M297.4,228.1c0,0,0-0.1,0-0.2c0-0.2,0-0.4-0.1-0.7c-0.1-0.6-0.5-1.4-1.3-2c-0.4-0.3-0.9-0.6-1.5-0.9
		c-0.6-0.2-1.2-0.4-1.9-0.4c-0.7,0-1.4,0-2.1,0.3c-0.2,0.1-0.3,0.1-0.5,0.2l-0.2,0.1l-0.2,0.1c-0.5,0.3-0.7,0.4-1,0.7
		c-1.2,1.1-2.2,2.7-2.9,4.6c-0.4,1-0.7,2-0.9,3.1c-0.1,0.5-0.2,1-0.2,1.2c0,0.1,0,0.2,0,0.2c0,0,0,0,0,0l0,0l-0.1-0.1l0,0l0.1,0.1
		c0,0,0,0.1,0,0.1c0,0,0,0,0-0.1s0,0,0-0.1l0,0c0,0,0.2,0.1,0.5,0.2c0.4,0.1,0.8,0.1,1.4,0.1c1.2,0,2.4,0,3.7,0
		c2.5-0.1,5.3-0.1,8.2,0.3c3,0.5,5.9,1.7,8.2,3.9c1.2,1.1,2.1,2.5,2.7,4l0.2,0.6l0,0.1l0.1,0.2l0,0l0,0.1l0,0.2l0.1,0.5
		c0,0.2,0.1,0.3,0.1,0.5c0,0.5,0.1,0.9,0.1,1.4c0,0.4-0.1,0.8-0.1,1.2c-0.3,1.6-0.9,3-1.7,4.1c-0.8,1.1-1.8,2.1-2.8,2.9
		c-2,1.6-4.2,2.5-6.4,2.9c-0.5,0.1-1.1,0.2-1.6,0.3c-0.5,0-1,0.1-1.5,0.1c-0.2,0-0.4,0-0.7,0c-0.2,0-0.5,0-0.7-0.1
		c-0.5-0.1-0.9-0.1-1.3-0.2c-1.7-0.3-3.1-1-4-1.8c-1-0.7-1.5-1.5-1.8-2.1c-0.2-0.3-0.2-0.5-0.3-0.7c-0.1-0.1-0.1-0.2-0.1-0.2
		s0.1,0.1,0.2,0.2c0.1,0.1,0.2,0.3,0.5,0.5c0.4,0.4,1.1,1,2.1,1.4c1,0.4,2.3,0.7,3.8,0.7c0.4,0,0.8,0,1.1,0c0.2,0,0.4,0,0.6-0.1
		c0.2,0,0.4-0.1,0.7-0.1c0.3-0.1,0.8-0.2,1.2-0.3c0.4-0.1,0.8-0.2,1.2-0.4c1.6-0.7,3.3-1.7,4.7-3c0.7-0.7,1.3-1.5,1.8-2.3
		c0.5-0.8,0.7-1.7,0.8-2.6c0-0.2,0-0.4,0-0.6c0-0.2,0-0.3,0-0.5c0,0-0.1-0.3-0.1-0.4l-0.1-0.5L305,245l0-0.1l0,0
		c0.1,0.4,0,0.1,0,0.2l0,0l-0.1-0.3c-0.3-0.8-0.9-1.5-1.6-2.2c-1.5-1.3-3.6-2.2-5.8-2.5c-2.3-0.4-4.8-0.4-7.4-0.4
		c-1.3,0-2.7-0.1-4-0.2c-0.7-0.1-1.5-0.2-2.3-0.4c-0.8-0.3-1.8-0.7-2.6-1.7l-0.1-0.2l-0.2-0.2l-0.2-0.2l-0.1-0.1l-0.1-0.1l0,0
		c-0.1-0.2,0-0.1-0.1-0.2l0-0.1c-0.1-0.1-0.1-0.3-0.1-0.4c-0.2-0.6-0.2-1.1-0.2-1.6c0.1-1,0.3-1.7,0.5-2.2c0.4-1.2,0.9-2.3,1.5-3.4
		c1.1-2.2,2.7-4.1,4.6-5.4c0.5-0.3,1.1-0.6,1.5-0.8c0.5-0.2,1.1-0.4,1.6-0.5c1.1-0.1,2.1,0,2.9,0.2c0.9,0.3,1.6,0.6,2.3,1
		c0.6,0.5,1.1,0.9,1.5,1.5c0.8,1,0.9,2,0.9,2.7C297.5,227.8,297.3,228.1,297.4,228.1z"/>
</g>
<g>
	<path d="M312.9,210c0,0,0.3,0.6,0.8,1.8c0.5,1.1,1.2,2.7,1.9,4.6c0.7,1.9,1.5,4.2,2.2,6.6c0.4,1.2,0.7,2.5,1.1,3.7
		c0.4,1.3,0.7,2.6,1.1,3.9c0.7,2.6,1.3,5.2,1.8,7.7c0.5,2.5,1,4.8,1.3,6.8c0.3,2,0.5,3.7,0.6,5c0.1,1.2,0.1,1.9,0.1,1.9
		s-1.7-2.3-3.5-6c-0.9-1.9-1.9-4.1-2.8-6.5c-0.4-1.2-0.9-2.5-1.3-3.8c-0.4-1.3-0.8-2.6-1.1-3.9c-0.3-1.3-0.7-2.7-0.9-4
		c-0.3-1.3-0.5-2.6-0.7-3.9c-0.4-2.5-0.6-4.9-0.7-7C312.5,212.8,312.9,210,312.9,210z"/>
</g>
<g>
	<path d="M306.8,223.7c0,0,0.4-0.2,1-0.4c0.6-0.2,1.5-0.5,2.6-0.7c1-0.2,2.3-0.4,3.5-0.6c1.3-0.1,2.6-0.2,4-0.2c0.7,0,1.4,0,2,0
		c0.7,0,1.3,0.1,2,0.1c1.3,0.1,2.5,0.3,3.5,0.6c1.1,0.2,1.9,0.5,2.6,0.7c0.6,0.2,1,0.4,1,0.4s-1.3,1-3.4,1.8c-1,0.4-2.3,0.7-3.6,1
		c-0.7,0.1-1.3,0.2-2,0.3c-0.7,0.1-1.4,0.1-2.1,0.1c-0.7,0-1.4,0-2.1-0.1c-0.7-0.1-1.4-0.2-2.1-0.3c-1.3-0.2-2.6-0.6-3.6-1
		c-1-0.4-1.9-0.8-2.5-1.2C307.2,224,306.8,223.7,306.8,223.7z"/>
</g>
<g>
	<path d="M423,226c0,0-0.4-0.3-1.1-0.8c-0.7-0.5-1.8-1.2-3.3-1.9c-1.5-0.7-3.3-1.4-5.4-1.5c-2.1-0.1-4.4,0.7-5.7,2.6
		c-1.4,1.9-1.9,4.7-1.9,7.8c0,3.1,0.3,6.4,1.1,9.7l0.1,0.6c0.1,0.2,0.1,0.5,0.2,0.6c0.1,0.4,0.2,0.8,0.3,1.1c0.3,0.7,0.6,1.4,0.9,2
		c0.4,0.6,0.8,1.1,1.2,1.5c0.2,0.2,0.5,0.3,0.7,0.4l0.2,0.1l0.1,0l0,0c-0.2-0.1,0,0-0.1,0l0.1,0c0.2,0.1,0.5,0.2,0.5,0.1l0.1,0
		l0.2,0c0.1,0,0.3,0,0.4,0c0.3,0,0.6-0.1,0.9-0.1c0.6-0.2,1.3-0.4,2-0.8c0.7-0.4,1.3-0.8,1.9-1.4l1-0.9c0.4-0.3,0.6-0.6,0.9-0.9
		c0.5-0.6,1.1-1.3,1.6-1.9c0.5-0.7,1-1.4,1.4-2.1c0.9-1.5,1.6-3,2.2-4.7c1.2-3.2,1.8-6.6,2-10c0.1-1.7,0.1-3.3,0-4.9
		c-0.1-1.8-0.3-3.2-0.5-4.8c-0.5-3.1-1.2-6-2-8.7c-1.6-5.3-3.4-9.7-4.5-12.8c-0.3-0.8-0.6-1.4-0.8-2c-0.2-0.5-0.6-0.9-1-0.8
		c-0.1,0-0.1,0.2-0.1,0.3c0,0.1,0.1,0.3,0.2,0.3c0.1,0.1,0.2,0,0.2-0.1c0-0.1,0-0.1,0-0.1s0,0,0,0.1c0,0.1-0.1,0.2-0.2,0.1
		c-0.1,0-0.2-0.1-0.3-0.3c0-0.1-0.1-0.2-0.1-0.3c0-0.1,0.1-0.3,0.2-0.4c0.2-0.1,0.6-0.1,0.9,0c0.3,0.2,0.5,0.4,0.7,0.7
		c0.4,0.6,0.7,1.2,1.2,1.9c0.8,1.4,1.9,3.2,3,5.2c1.1,2.1,2.3,4.4,3.4,7.1c1.1,2.7,2.2,5.6,3,8.9c0.4,1.6,0.7,3.4,1,5.1
		c0.2,1.8,0.4,3.6,0.3,5.5c0,1.9-0.2,3.8-0.5,5.7c-0.3,1.9-0.8,3.8-1.4,5.7c-0.6,1.9-1.5,3.8-2.5,5.5c-0.5,0.9-1.1,1.7-1.7,2.6
		c-0.6,0.8-1.2,1.6-2,2.4c-0.4,0.4-0.8,0.8-1.1,1.1l-1.1,1c-0.8,0.7-1.7,1.3-2.7,1.9c-1,0.6-2.1,1-3.3,1.3c-1.2,0.3-2.5,0.4-3.9,0
		c-0.4-0.1-0.6-0.2-0.8-0.2l-0.1,0l-0.2-0.1l-0.1,0l-0.2-0.1l-0.5-0.2c-0.6-0.3-1.1-0.7-1.6-1.1c-1-0.8-1.7-1.8-2.2-2.8
		c-0.5-1-0.9-2-1.2-2.9c-0.2-0.5-0.3-1-0.4-1.5l-0.1-0.7l-0.1-0.7c-0.6-3.7-0.7-7.3-0.4-10.7c0.2-1.7,0.4-3.4,1-5
		c0.5-1.6,1.4-3.1,2.5-4.4c0.3-0.3,0.6-0.6,0.9-0.9c0.4-0.3,0.6-0.4,1-0.7c0.4-0.2,0.7-0.4,1-0.5c0.4-0.1,0.7-0.3,1.1-0.4
		c1.5-0.4,2.9-0.4,4.1-0.1c2.5,0.5,4.3,1.6,5.7,2.5c1.4,1,2.4,1.9,3,2.5C422.7,225.6,423,226,423,226z"/>
</g>
<g>
	<path d="M442,222c0,0,0.2,0.4,0.4,1c0.3,0.6,0.6,1.5,0.9,2.5c0.3,1,0.6,2.2,0.8,3.5c0.1,0.6,0.2,1.3,0.3,1.9c0.1,0.7,0.2,1.3,0.3,2
		c0.2,1.3,0.3,2.7,0.3,3.9c0.1,1.3,0.1,2.5,0,3.6c-0.1,1.1-0.1,2-0.2,2.7c-0.1,0.7-0.2,1.1-0.2,1.1s-1.2-1.1-2.4-3
		c-0.6-1-1.1-2.1-1.6-3.4c-0.2-0.7-0.4-1.3-0.6-2c-0.2-0.7-0.3-1.4-0.4-2.1c-0.1-0.7-0.1-1.4-0.1-2.2c0-0.7,0-1.4,0.1-2.1
		c0.1-1.4,0.4-2.6,0.7-3.7c0.3-1.1,0.7-2,1-2.5C441.8,222.3,442,222,442,222z"/>
</g>
<g>
	<path d="M440,203c0,0,0-0.2,0.1-0.5c0-0.3,0.1-0.6,0.1-0.9c0.1-0.6,0.3-1.1,0.4-1.1l0,0l0,0c0-4.5,0,6.1,0,5l0,0l0,0l0,0l0,0
		c0,0,0,0,0,0c0,0,0,0-0.1-0.1c0,0-0.1-0.1-0.1-0.2c-0.1-0.2-0.1-0.5-0.2-0.8c-0.1-0.3-0.1-0.7-0.1-1C440,203.2,440,203,440,203
		s0-0.2,0.1-0.5c0-0.3,0.1-0.6,0.1-1c0.1-0.3,0.1-0.6,0.2-0.8c0-0.1,0.1-0.2,0.1-0.2c0,0,0,0,0.1-0.1c0,0,0,0,0,0l0,0l0,0l0,0l0,0
		c0-1.1,0,9.5,0,5l0,0l0,0c-0.2,0-0.3-0.4-0.4-1.1c-0.1-0.3-0.1-0.7-0.1-0.9C440,203.2,440,203,440,203z"/>
</g>
<g>
	<path d="M451.9,228c0.7,1.6,1.4,3.1,2.1,4.7c0.6,1.6,1.3,3.2,1.9,4.8c1.2,3.2,2.3,6.4,3.4,9.7l-4,1c-0.6-2.1-1.1-4.3-1.4-6.7
		c-0.3-2.3-0.3-4.9,0.4-7.4c0.1-0.3,0.2-0.6,0.3-0.9l0.1-0.2l0-0.1l0-0.1l0.1-0.2l0.2-0.4l0.2-0.4l0.3-0.5c0.2-0.3,0.4-0.7,0.6-1
		c0.8-1.1,1.7-2.1,2.8-3c1.1-0.8,2.3-1.5,3.6-1.9c1.3-0.4,2.8-0.6,4.3-0.3c0.4,0.1,0.7,0.1,1.1,0.3c0.4,0.1,0.7,0.2,1.1,0.4l0.5,0.3
		l0.1,0.1l0.1,0l0.1,0.1l0,0l0.2,0.1c0.1,0.1,0.2,0.1,0.4,0.3l0.5,0.4c1.1,1,1.9,2.1,2.5,3.3c1.1,2.3,1.5,4.6,1.9,6.7
		c0.4,2.2,0.8,4.3,1.1,6.5c0.4,2.2,0.6,4.4,0.9,6.6c-1-2-1.8-4-2.7-6.1c-0.8-2-1.6-4.1-2.4-6.2c-0.8-2.1-1.4-4.1-2.4-5.6
		c-0.5-0.8-1.1-1.4-1.6-1.8c-0.1,0-0.1-0.1-0.2-0.1c-0.1,0-0.2-0.1-0.3-0.2l-0.2-0.1l0,0l0,0c-0.1-0.1,0.1,0.1,0.1,0l0,0l-0.1,0
		l-0.2-0.1c-0.1-0.1-0.3-0.1-0.5-0.1c-0.2-0.1-0.3-0.1-0.5-0.1c-0.7-0.1-1.4,0.1-2.1,0.3c-0.7,0.3-1.4,0.7-2.1,1.2
		c-0.7,0.5-1.2,1.2-1.7,1.8c-0.1,0.2-0.2,0.3-0.3,0.5c0,0.1-0.1,0.1-0.1,0.2l-0.2,0.4l-0.2,0.4l0,0l0,0c0.1-0.2,0-0.1,0-0.1l0,0
		l0,0.1l-0.1,0.2c-0.1,0.2-0.2,0.4-0.2,0.6c-0.5,1.7-0.6,3.6-0.5,5.6c0.1,2,0.5,4.1,0.8,6.2l-4,1c-0.7-3.3-1.3-6.7-1.9-10.1
		c-0.3-1.7-0.5-3.4-0.8-5.1C452.2,231.5,452,229.8,451.9,228z"/>
</g>
<g>
	<path d="M495.2,230.9c1.1,2,2,4.1,3,6.1c0.9,2.1,1.9,4.1,2.7,6.2c0.9,2.1,1.7,4.2,2.5,6.3c0.8,2.1,1.6,4.2,2.4,6.3
		c1.5,4.2,2.9,8.5,4.3,12.8c1.3,4.3,2.6,8.6,3.7,13l1.2,4.7l-4.5-1.8l-2.1-0.8l-2.2-0.7l-2.2-0.6l-2.3-0.5l-2.3-0.3l-2.3-0.2
		l-2.3-0.1l-2.3,0c-0.8,0.1-1.6,0.1-2.3,0.2l-2.3,0.3l-2.3,0.4l-2.3,0.5l-2.3,0.7c-0.7,0.3-1.5,0.5-2.3,0.8
		c-0.7,0.3-1.5,0.6-2.2,0.9l-2.2,1.1c0.6-0.5,1.2-1.1,1.9-1.6c0.7-0.5,1.3-1,2-1.4c0.7-0.4,1.4-0.9,2.1-1.3l2.2-1.1l2.3-1l2.4-0.8
		l2.5-0.7c0.8-0.2,1.7-0.3,2.5-0.5l2.5-0.3l2.6-0.2l2.6,0l2.6,0.2l2.6,0.4l2.5,0.5l2.5,0.7l2.4,0.9l-3.3,2.9l-3.7-12.9l-1.8-6.5
		l-1.8-6.5l-1.7-6.5c-0.6-2.2-1.1-4.4-1.7-6.5c-0.6-2.2-1.1-4.4-1.6-6.6C496.2,235.3,495.7,233.1,495.2,230.9z"/>
</g>
<g>
	<path d="M490.4,224.2c-0.1,1.1-0.3,2.1-0.5,3.1c-0.1,0.5-0.2,1-0.3,1.5l-0.2,1.5c-0.1,1-0.3,2-0.4,3c-0.1,1-0.2,1.9-0.2,2.9l0,1.4
		l0,1.4l0.1,1.4c0.1,0.5,0.1,0.9,0.1,1.4l0.2,1.4c0.1,0.4,0.2,0.9,0.3,1.3l0.4,1.3l0.4,1.3l-2.3-1.6c1,0,2,0,3,0.1l-2.2,1.3
		c0.3-0.6,0.7-1.3,1-1.9c0.3-0.6,0.6-1.3,0.9-2c0.6-1.3,1.1-2.7,1.5-4.1c0.5-1.4,0.8-2.8,1.1-4.3c0.1-0.7,0.3-1.5,0.4-2.2l0.3-2.3
		c0.3,0.7,0.6,1.5,0.8,2.3c0.2,0.8,0.4,1.6,0.5,2.4c0.1,0.8,0.2,1.6,0.2,2.4c0,0.4,0,0.8,0,1.2c0,0.4,0,0.8,0,1.2
		c-0.2,3.3-1.1,6.5-2.5,9.5l-0.6,1.3l-1.6,0.1c-1,0-2,0.1-3,0.1l-1.8,0l-0.6-1.6l-0.6-1.6l-0.4-1.7c-0.1-0.6-0.2-1.1-0.3-1.7
		l-0.2-1.7c0-0.6,0-1.1,0-1.7l0.1-1.7c0.1-1.1,0.3-2.2,0.5-3.3c0.2-1.1,0.6-2.1,0.9-3.1c0.4-1,0.8-2,1.3-3c0.5-0.9,1-1.9,1.6-2.8
		l0.9-1.3C489.8,225,490.1,224.6,490.4,224.2z"/>
</g>
<g>
	<path d="M264.2,251.9c-0.4-0.4-0.7-0.8-1-1.3l-0.9-1.3c-0.6-0.9-1.1-1.8-1.7-2.7c-0.5-0.9-1-1.9-1.5-2.8c-0.5-1-0.9-1.9-1.3-2.9
		c-0.4-1-0.8-2-1.1-3c-0.3-1-0.7-2-1-3c-0.3-1-0.6-2-0.8-3.1c-0.2-1-0.5-2.1-0.6-3.1l4.9-0.9c0.2,1,0.4,2.1,0.6,3.1l-4.4-0.8
		c0.3-0.4,0.6-0.8,0.9-1.2c0.3-0.4,0.6-0.7,1-1c0.4-0.3,0.7-0.7,1.1-0.9c0.4-0.3,0.8-0.6,1.2-0.8c0.4-0.2,0.8-0.5,1.2-0.7
		c0.4-0.2,0.8-0.4,1.3-0.5c0.4-0.2,0.9-0.3,1.3-0.4c0.4-0.1,0.9-0.2,1.3-0.3c0.4-0.1,0.9-0.1,1.3-0.1c0.4,0,0.9,0,1.3,0
		c0.4,0.1,0.9,0.1,1.3,0.2c0.4,0.1,0.9,0.2,1.3,0.3c0.4,0.2,0.8,0.3,1.2,0.5c0.4,0.2,0.8,0.4,1.1,0.6l0.5,0.3l0,0c0.1,0,0,0,0.1,0
		l0.1,0c0,0,0.1,0.1,0.2,0.1c0.1,0.1,0.2,0.2,0.2,0.3c0.1,0.2,0.2,0.4,0.2,0.7c0,0.1,0,0.3-0.1,0.4c-0.1,0.1-0.2,0.1-0.3,0.2
		c0.2-0.1,0.2-0.3,0.1-0.4c-0.1-0.1-0.2-0.3-0.4-0.3c-0.1,0-0.1-0.1-0.2-0.1l-0.1,0l-0.1,0c0,0,0,0,0,0l0,0l-0.6-0.1
		c-0.4-0.1-0.8-0.1-1.1-0.1c-0.4,0-0.7,0-1.1,0c-0.4,0-0.7,0.1-1.1,0.1c-0.4,0-0.7,0.1-1.1,0.2l-1,0.3c-0.3,0.1-0.7,0.2-1,0.3
		c-0.3,0.1-0.6,0.2-0.9,0.4c-0.3,0.2-0.6,0.3-0.9,0.5c-0.3,0.2-0.6,0.3-0.8,0.5c-0.3,0.2-0.5,0.4-0.8,0.6c-0.3,0.2-0.5,0.4-0.7,0.7
		c-0.2,0.2-0.4,0.5-0.7,0.7c-0.4,0.5-0.7,1-1.1,1.5l-3.1,5l-1.4-5.8c-0.2-1-0.5-2-0.7-3.1l4.9-0.9l1.2,5.9l1.3,5.9l1.3,6l0.3,1.5
		c0.1,0.5,0.2,1,0.3,1.5C263.9,249.8,264.1,250.8,264.2,251.9z"/>
</g>
<g>
	<path d="M350.4,232c0.1,0.1,0.3,0,0.4-0.1c0-0.1,0-0.3-0.1-0.4c-0.2-0.2-0.5-0.5-0.8-0.7l-1.6-1.4c-1.1-0.9-2.2-1.7-3.3-2.5
		c-1.1-0.8-2.3-1.4-3.3-1.6c-1.1-0.2-1.9,0.1-2.8,0.7c-0.4,0.3-0.7,0.7-1.1,1.2c-0.2,0.3-0.5,0.9-0.7,1.4c-0.4,1-0.5,2.2-0.5,3.4
		c0,1.2,0.2,2.4,0.6,3.6c0.3,1.2,0.8,2.4,1.3,3.5c0.5,1.1,1.2,2.2,1.9,3.3c0.2,0.3,0.4,0.5,0.6,0.8l0.3,0.3c0.1,0.1,0.2,0.3,0.3,0.4
		c0.3,0.4,0.8,0.8,1.2,1.1c0.8,0.7,1.6,1,2.2,1c0,0,0.1,0,0.1,0l0.1,0l0,0l0,0l0,0c-0.2,0,0,0-0.1,0c0.2,0,0.4-0.1,0.4-0.1
		c0,0,0.3-0.1,0.4-0.2c0.3-0.2,0.7-0.4,1-0.8c0.3-0.4,0.7-0.8,1-1.3c0,0,0.1-0.2,0.1-0.1l0.1-0.2c0.1-0.1,0.2-0.3,0.2-0.4
		c0.1-0.2,0.2-0.5,0.4-0.8c0.5-1.1,0.8-2.3,1.1-3.6c0.2-1.3,0.4-2.6,0.4-3.9l0-1l0-0.5l0-0.1l0-0.2c0-0.2-0.1-0.4,0-0.4
		c0,0,0.1,0,0.2,0.1c0.1,0.1,0.3,0.1,0.4,0.1l1.7-2.1c0.1,0.6,0.3,1.3,0.4,1.9c0.2,0.6,0.4,1.3,0.6,1.9l1.5,3.9
		c0.2,0.7,0.5,1.3,0.7,2c0.2,0.7,0.4,1.4,0.5,2.1c0.1,0.7,0.2,1.4,0.3,2.1l0,1.1l-0.1,1.1l-0.2-1l-0.3-1c-0.2-0.7-0.5-1.3-0.8-1.9
		c-0.6-1.2-1.3-2.4-2-3.6c-0.7-1.2-1.5-2.4-2.2-3.6c-0.3-0.6-0.7-1.3-1-2c-0.3-0.7-0.6-1.4-0.9-2.1l-0.8-2.2l2.5,0
		c0.5,0,1,0.2,1.4,0.4c0.4,0.3,0.7,0.6,0.9,0.9c0.4,0.6,0.6,1.1,0.7,1.6c0,0.1,0.1,0.2,0.1,0.4l0.1,0.4l0.1,0.6
		c0,0.4,0.1,0.7,0.1,1.1c0.1,1.5,0.1,3-0.1,4.5c-0.2,1.5-0.5,3.1-1,4.6c-0.1,0.4-0.3,0.8-0.5,1.2c-0.1,0.2-0.2,0.3-0.2,0.5l-0.1,0.2
		l-0.2,0.3c-0.4,0.8-0.9,1.5-1.5,2.2c-0.6,0.7-1.3,1.3-2.3,1.8c-0.5,0.3-0.9,0.5-1.5,0.6c-0.4,0.1-0.5,0.1-0.7,0.2l-0.1,0l-0.1,0
		l-0.1,0l-0.2,0c-0.1,0-0.3,0-0.4,0c-1.1,0-2.2-0.2-3.1-0.6c-0.9-0.4-1.7-0.9-2.4-1.4c-0.7-0.6-1.3-1.1-1.8-1.8l-0.4-0.4l-0.4-0.5
		c-0.2-0.3-0.5-0.6-0.7-1c-0.9-1.3-1.6-2.7-2.2-4.1c-0.6-1.4-1.1-2.9-1.4-4.5c-0.3-1.5-0.5-3.1-0.4-4.7c0.1-1.6,0.4-3.3,1.2-4.9
		c0.4-0.8,0.8-1.5,1.5-2.2c0.5-0.6,1.2-1.2,2-1.6c0.8-0.4,1.7-0.7,2.6-0.8c0.9-0.1,1.9,0.1,2.7,0.4c1.7,0.6,2.8,1.7,3.9,2.7
		c1,1,2,2.1,2.8,3.3c0.4,0.6,0.9,1.1,1.3,1.7c0.2,0.3,0.4,0.6,0.6,0.9c0.1,0.2,0.2,0.4,0,0.6C350.8,232.1,350.5,232.2,350.4,232z"/>
</g>
<g>
	<path d="M361.4,228.3c0.9,1.3,1.6,2.7,2.4,4c0.7,1.4,1.4,2.8,2,4.2c1.2,2.9,2.3,5.8,3.1,8.9l-3.9,0c0.2-1.7-0.1-3.5-0.6-5.5
		c-0.2-1-0.5-2.1-0.7-3.3c-0.2-1.2-0.3-2.4-0.3-3.7c0-1.3,0.3-2.7,0.9-4c0.1-0.2,0.2-0.3,0.2-0.5l0.1-0.2l0.1-0.1l0-0.1l0.1-0.1
		l0.2-0.3l0.4-0.5c0.5-0.6,1-1.1,1.6-1.5c1.2-0.9,2.5-1.4,3.9-1.7c0.3-0.1,0.7-0.1,1.1-0.1l0.6,0l0.4,0c0.8,0,1.4,0.1,2.1,0.3
		c1.3,0.3,2.6,0.9,3.7,1.6c0.6,0.4,1.1,0.8,1.6,1.2l0.6,0.6l0.7,0.8c1.6,2,2.5,4.3,3.1,6.4c0.7,2.2,1.1,4.2,1.6,6.3
		c0.3,1,0.6,2,0.9,3.1c0.3,1,0.6,2,1,3.1l0.1,0.3l-0.1,0.1c-0.5,0.7-1.1,1.5-1.7,2.2c0.3-0.9,0.6-1.8,0.9-2.6l0,0.4
		c-0.6-0.9-1.2-1.8-1.8-2.7c-0.6-0.9-1.1-1.9-1.6-2.9c-1-2-1.8-4-2.7-5.9c-0.9-1.9-1.8-3.6-3.1-4.8l-0.4-0.4l-0.5-0.5
		c-0.3-0.2-0.7-0.5-1-0.7c-0.7-0.4-1.5-0.7-2.2-0.8c-0.4-0.1-0.8-0.1-1.1-0.1l-0.4,0c0,0-0.1,0-0.2,0c-0.2,0-0.4,0.1-0.5,0.1
		c-0.7,0.2-1.4,0.5-1.9,0.9c-0.3,0.2-0.5,0.4-0.7,0.7c0,0-0.1,0.1-0.1,0.1l-0.2,0.3l0,0l0,0c0,0.1,0.1-0.1,0-0.1l0,0l0,0.1l-0.1,0.1
		c0,0.1-0.1,0.1-0.1,0.2c-0.3,0.6-0.5,1.4-0.5,2.2c-0.1,0.8,0,1.8,0.1,2.7c0.1,0.9,0.3,2,0.5,3.1c0.2,1.1,0.3,2.2,0.4,3.5
		c0.1,1.2-0.1,2.5-0.4,3.8l-2.4,9.2l-1.4-9.2c-0.2-1.5-0.5-3-0.8-4.5c-0.3-1.5-0.6-3-0.9-4.5l-0.5-2.2l-0.5-2.2L361.4,228.3z"/>
</g>
<g>
	<path class="st1" d="M186.6,474.8c-1.4-1.1-2.8-2.2-4.1-3.4c-1.3-1.2-2.7-2.4-4-3.6c-1.3-1.2-2.6-2.5-3.8-3.8
		c-1.2-1.3-2.4-2.6-3.6-4c-1.2-1.4-2.3-2.7-3.5-4.1c-1.1-1.4-2.2-2.8-3.3-4.3c-1.1-1.5-2.1-2.9-3.1-4.4c-1-1.5-2-3-2.9-4.5l-0.4-0.6
		l0.6-0.5c7-6.2,12.8-13.8,16.9-22.2c4.1-8.4,6.3-17.6,5.9-26.9c-0.2-4.5-1-9.1-2.4-13.5c-1.4-4.4-3.5-8.5-6.1-12.3
		c-2.6-3.7-5.7-7.1-9.3-9.8c-0.9-0.7-1.9-1.3-2.8-1.9l-0.2-0.1c0,0,0.1,0.1,0,0l-0.1-0.1l-0.4-0.2l-0.8-0.4l-1.6-0.8
		c-0.5-0.3-1.1-0.6-1.6-0.8l-1.5-0.6l-1.5-0.6c-0.3-0.1-0.5-0.2-0.8-0.3l-0.8-0.2c-8.6-2.8-18.1-2.7-27.1-0.9l-3.4,0.7l-3.4,0.9
		c-1.1,0.3-2.2,0.6-3.3,1c-1.1,0.4-2.2,0.7-3.3,1.1c-4.4,1.6-8.6,3.5-12.8,5.5c-8.3,4.2-16.3,9.3-24,14.6
		c-7.7,5.4-15.1,11.2-22.1,17.5c-3.5,3.1-6.9,6.3-9.7,9.9c-1.4,1.8-2.7,3.6-3.9,5.5c-0.3,0.5-0.6,1-0.8,1.5l-0.2,0.4l-0.1,0.2
		c0,0-0.1,0.1,0,0l0,0.1l-0.4,0.8l-0.7,1.6l-0.5,1.5c-1.5,4.1-2.1,8.7-2,13.1c0,4.5,0.9,9,2.3,13.3c1.4,4.3,3.5,8.4,6.1,12.1
		c2.6,3.7,5.7,7.1,9.2,10.1c6.9,6,15.2,10.6,24,13.7l0.8,0.3l0.8,0.2l1.7,0.5c1.1,0.3,2.2,0.5,3.3,0.7c1.1,0.2,2.3,0.3,3.4,0.5
		c1.1,0.1,2.3,0.2,3.4,0.2c4.6,0.2,9.3-0.2,13.9-0.8c9.3-1.3,18.6-3.6,28-5.1c9.4-1.6,19-2.8,28.6-2.4c4.8,0.2,9.6,0.8,14.2,2.1
		c4.6,1.2,9.1,3,13.2,5.4c-8.5-4.4-18-6.2-27.4-6.2c-9.5,0-18.8,1.5-28.1,3.4c-9.3,1.9-18.5,4.4-28,6c-4.7,0.8-9.6,1.3-14.5,1.2
		c-1.2,0-2.5-0.1-3.7-0.2c-1.2-0.1-2.4-0.3-3.7-0.4c-1.2-0.3-2.5-0.5-3.7-0.8l-1.7-0.5l-0.9-0.3l-0.9-0.3c-9.2-3.1-18-7.7-25.5-14
		c-7.5-6.3-13.7-14.5-16.9-24c-1.6-4.7-2.6-9.6-2.7-14.7c-0.1-5,0.5-10.1,2.2-14.9l0.7-1.8l0.7-1.6l0.4-0.8l0.1-0.3l0.1-0.2l0.2-0.4
		c0.3-0.6,0.6-1.1,0.9-1.7c1.3-2.2,2.7-4.2,4.3-6.2c3.1-3.9,6.7-7.3,10.2-10.5c7.2-6.4,14.7-12.4,22.6-17.9
		c7.9-5.5,16-10.6,24.7-14.9c4.4-2.1,8.8-4.1,13.4-5.7c4.6-1.6,9.3-3,14.1-3.8c9.6-1.8,19.8-1.8,29.3,1.4l0.9,0.3
		c0.3,0.1,0.6,0.2,0.9,0.4l1.8,0.7l1.8,0.7c0.6,0.2,1.1,0.6,1.6,0.8l1.6,0.9l0.8,0.4l0.4,0.2l0.3,0.2l0.2,0.1c1,0.7,2.1,1.4,3.1,2.2
		c3.9,3.1,7.3,6.8,10.1,10.9c5.5,8.3,8.4,18,8.6,27.9c0.2,9.8-2.4,19.6-6.9,28.1c-4.5,8.6-10.8,16.1-18.2,22.3l0.2-1.1
		c0.9,1.5,1.8,3.1,2.7,4.6c0.9,1.5,1.9,3,2.9,4.5c1,1.5,2,2.9,3.1,4.3c1.1,1.4,2.2,2.8,3.3,4.2c1.1,1.4,2.3,2.7,3.5,4.1
		c1.2,1.3,2.4,2.6,3.6,3.9c1.2,1.3,2.5,2.5,3.8,3.8C183.9,472.4,185.3,473.6,186.6,474.8z"/>
</g>
<g>
	<path class="st2" d="M415.2,429.1c-1,1-1.9,1.9-2.9,2.8c-1,0.9-2,1.8-3.1,2.7c-1.1,0.9-2.1,1.7-3.2,2.5c-1.1,0.8-2.2,1.6-3.4,2.3
		c-1.1,0.7-2.3,1.5-3.5,2.1c-1.2,0.7-2.4,1.3-3.6,2c-1.2,0.6-2.5,1.2-3.7,1.8c-1.3,0.6-2.5,1.1-3.8,1.6l-0.2-1.3
		c4.9,0.1,9.7,1,14.4,2.5c4.6,1.5,9.1,3.8,13.1,6.6c4.1,2.8,7.6,6.3,10.7,10.2c3.1,3.9,5.3,8.4,7.4,12.7c2.1,4.3,4.2,8.6,6.9,12.3
		c0.7,0.9,1.4,1.8,2.1,2.6l1.2,1.3l1.2,1.1c1.7,1.5,3.6,2.8,5.6,3.9c4,2.3,8.4,3.9,12.9,5c2.3,0.6,4.6,1.1,6.9,1.5
		c1.2,0.2,2.3,0.4,3.5,0.5c1.2,0.2,2.4,0.3,3.5,0.4c9.3,1.1,18.9,0.9,27.7-1.6c0.6-0.1,1.1-0.3,1.6-0.5l0.8-0.3l0.2-0.1l0.1,0
		c0.1,0-0.1,0,0,0l0.4-0.2l3.3-1.4c2-1,4-2,5.9-3.3c3.9-2.5,7.4-5.4,10.6-8.8c3.1-3.4,5.8-7.2,8.2-11.2c2.3-4,4.2-8.3,5.7-12.7
		c0.3-1.1,0.8-2.2,1-3.3l0.9-3.4l0.7-3.4c0.3-1.1,0.3-2.3,0.5-3.4l0.2-1.7l0.1-1.8c0.1-1.2,0.2-2.4,0.2-3.5c0-1.1,0.1-2.3,0.1-3.4
		l-0.1-3.5c-0.5-9.3-2.4-18.6-5.4-27.5c-1.5-4.5-3.2-8.9-5.1-13.2c-1.9-4.3-4-8.6-6.3-12.8c-2.3-4.2-4.6-8.2-7.5-11.9
		c-2.8-3.7-6-6.9-9.9-9.3c-3.8-2.4-8.1-4.1-12.6-5.1c-4.5-1.1-9.2-1.6-13.9-1.7c-9.3-0.3-18.8,0.9-27.8,3.8
		c-8.9,2.9-17.4,7.5-24.3,13.9c-7,6.3-12.3,14.5-15.5,23.4c-3.1,8.9-4,18.8-1.7,28.2c-1.4-4.6-2-9.5-1.8-14.3
		c0.1-4.8,1-9.7,2.4-14.3c2.9-9.3,8.1-17.9,15.1-24.7c7-6.9,15.7-11.9,24.9-15.1c9.3-3.3,19.1-4.7,28.9-4.6
		c4.9,0.1,9.8,0.5,14.7,1.6c4.9,1.1,9.6,2.7,14,5.5c0.6,0.3,1,0.7,1.5,1c0.6,0.4,1,0.8,1.6,1.1c0.5,0.4,1,0.8,1.5,1.2
		c0.5,0.4,1,0.8,1.4,1.3c1.8,1.7,3.5,3.6,5.1,5.6c3.1,3.9,5.6,8.2,8,12.4c4.7,8.5,8.9,17.4,11.9,26.6c3.1,9.3,5.2,19,5.8,28.8
		l0.1,3.7c0,1.2,0,2.5,0,3.8c0,1.3-0.1,2.4-0.2,3.6l-0.1,1.8l-0.2,1.9c-0.3,2.5-0.8,4.9-1.3,7.3l-0.9,3.6c-0.3,1.2-0.7,2.4-1.1,3.6
		c-1.6,4.7-3.6,9.3-6.1,13.6c-2.5,4.3-5.5,8.3-8.9,12c-3.4,3.7-7.3,6.9-11.6,9.5c-2.1,1.4-4.5,2.5-6.7,3.6l-3.4,1.3l-0.4,0.2
		l-0.2,0.1l-0.1,0l-0.2,0.1l-0.9,0.3c-0.6,0.2-1.2,0.4-1.8,0.5c-9.7,2.6-19.8,2.6-29.5,1.4c-4.8-0.6-9.7-1.4-14.4-2.8
		c-4.8-1.3-9.4-3.1-13.8-5.7c-2.2-1.3-4.2-2.8-6.1-4.5l-1.4-1.3l-1.2-1.3c-0.9-1-1.6-2-2.4-3c-2.9-4.1-4.9-8.6-6.9-13
		c-2-4.4-4-8.6-6.8-12.3c-2.8-3.7-6.1-7.1-9.8-9.9c-3.7-2.8-7.9-5.1-12.3-6.8c-4.4-1.6-9.1-2.6-13.8-2.9l-3.4-0.2l3.2-1.1
		c1.3-0.4,2.5-0.9,3.8-1.4c1.2-0.5,2.5-1.1,3.7-1.6c1.2-0.6,2.4-1.2,3.6-1.8c1.2-0.6,2.4-1.3,3.5-2c1.2-0.7,2.3-1.4,3.4-2.2
		c1.1-0.8,2.2-1.5,3.3-2.3c1.1-0.8,2.2-1.6,3.2-2.5C413.2,430.9,414.2,430,415.2,429.1z"/>
</g>
<g>
	<path d="M449.2,428.9c0,0,0-0.1,0-0.2c0-0.1,0-0.3-0.1-0.6c-0.1-0.5-0.4-1.1-1-1.7c-0.6-0.6-1.6-1-2.7-1.2c-0.5-0.1-1.1,0-1.7,0.1
		c-0.3,0.1-0.5,0.2-0.7,0.3c-0.2,0.1-0.4,0.2-0.5,0.3c-0.1,0.1-0.2,0.1-0.3,0.3c-1,0.8-1.7,2-2.2,3.5c-0.2,0.7-0.4,1.5-0.5,2.4
		c0,0.4,0,0.9-0.1,1.3l0,0.4l0,0.3l0,0.6c0.1,1.7,0.6,3.5,1.3,5.2c0.7,1.7,1.7,3.3,3,4.7c1.2,1.4,2.7,2.6,4.3,3.5
		c0.4,0.2,0.8,0.4,1.2,0.6l0.6,0.2l0.3,0.1l0.2,0.1l0.1,0l0,0c0.1,0-0.1,0-0.1,0l0,0c0.5,0.1,1,0.3,1.5,0.4c0.4,0.1,0.8,0.1,1.2,0.2
		c3.5,0.5,6.9-0.3,9.7-1.5c1.4-0.6,2.6-1.3,3.6-2.1c0.5-0.4,0.9-0.8,1.4-1.1c0.4-0.4,0.8-0.7,1.1-1.1c0.3-0.3,0.6-0.7,0.8-0.9
		c0.2-0.3,0.4-0.5,0.6-0.7c0.3-0.4,0.5-0.6,0.5-0.6s-0.1,0.3-0.2,0.8c-0.1,0.5-0.4,1.2-0.8,2.1c-0.2,0.4-0.5,0.9-0.8,1.4
		c-0.3,0.5-0.7,1-1.1,1.6c-0.9,1.1-2,2.2-3.5,3.2c-1.4,1-3.1,1.9-5.1,2.5c-1.9,0.6-4.1,1-6.4,0.9c-0.6-0.1-1.2-0.1-1.8-0.2
		c-0.5-0.1-1-0.2-1.5-0.3l-0.2,0l-0.1,0l-0.1,0l-0.2-0.1l-0.4-0.1l-0.9-0.3c-0.6-0.2-1.1-0.5-1.7-0.7c-2.2-1.1-4.1-2.6-5.8-4.5
		c-1.6-1.8-2.9-3.9-3.7-6.2c-0.9-2.3-1.3-4.6-1.2-6.9l0-0.9l0-0.4l0.1-0.4l0.1-0.7l0.1-0.4l0-0.1l0-0.1l0,0l0-0.1l0-0.2
		c0.3-1.1,0.6-2.1,1.1-3.1c0.9-1.9,2.4-3.6,4.1-4.5c0.2-0.1,0.5-0.2,0.7-0.3c0.3-0.1,0.4-0.1,0.6-0.2c0.5-0.2,1-0.2,1.5-0.3
		c0.9,0,1.8,0.2,2.5,0.4c1.4,0.6,2.4,1.5,2.9,2.4c0.6,0.9,0.6,1.8,0.5,2.3C449.3,428.7,449.1,428.9,449.2,428.9z"/>
</g>
<g>
	<path d="M478.3,420.5c-1.1-0.4-2.1-0.4-3.1-0.2c-1,0.3-1.8,0.9-2.6,1.5c-0.8,0.7-1.4,1.5-1.9,2.3c-0.6,0.8-1,1.8-1.3,2.7
		c-0.2,0.5-0.3,0.9-0.4,1.4c-0.1,0.6-0.2,1-0.2,1.5c-0.1,1-0.1,2,0,2.9c0.1,0.9,0.4,1.7,0.7,2.4c0.4,0.7,0.8,1.1,1.5,1.6
		c0.3,0.2,0.3,0.2,0.4,0.2c0.1,0,0.3,0.1,0.4,0.1c0.3,0.1,0.7,0.1,1,0.1c0.7,0,1.5-0.2,2.3-0.5c0.8-0.3,1.5-0.8,2.1-1.3
		c0.6-0.6,1.1-1.2,1.5-1.9c0.3-0.6,0.4-0.8,0.6-1.2c0.2-0.4,0.3-0.9,0.4-1.3c0.3-0.9,0.4-1.9,0.5-2.9c0.2-2,0.2-4.1,0.2-6.3l4.3-0.5
		c0.1,0.9,0.3,1.8,0.5,2.7c0.2,0.9,0.4,1.8,0.6,2.7c0.2,0.9,0.5,1.8,0.7,2.6c0.2,0.9,0.5,1.8,0.8,2.6l0.9,2.6c0.3,0.9,0.7,1.7,1,2.6
		c0.4,0.9,0.7,1.7,1.1,2.6c0.2,0.4,0.4,0.9,0.6,1.3l0.6,1.3c-0.7-0.7-1.3-1.4-2-2.1c-0.6-0.7-1.2-1.5-1.8-2.3
		c-0.6-0.8-1.1-1.6-1.6-2.4c-0.5-0.8-1-1.6-1.5-2.5c-0.5-0.9-0.9-1.7-1.3-2.6c-0.4-0.9-0.8-1.8-1.1-2.7c-0.4-0.9-0.7-1.8-1-2.8
		c-0.3-0.9-0.6-1.9-0.8-2.8l4.3-0.5c0.2,2.2,0.4,4.5,0.2,7c-0.1,1.2-0.3,2.5-0.6,3.7c-0.1,0.6-0.3,1.2-0.6,1.9
		c-0.2,0.6-0.6,1.4-0.8,1.8c-0.7,1.2-1.6,2.4-2.6,3.3c-1.1,0.9-2.2,1.6-3.6,2.1c-1.3,0.5-2.7,0.8-4.2,0.7c-0.8,0-1.5-0.2-2.3-0.4
		c-0.4-0.1-0.7-0.2-1.1-0.5c-0.4-0.2-0.9-0.5-1-0.6c-1.2-0.8-2.2-2.1-2.8-3.5c-0.6-1.3-0.8-2.7-0.8-4c0-1.3,0.2-2.6,0.5-3.8
		c0.1-0.6,0.4-1.3,0.5-1.8c0.2-0.6,0.5-1.2,0.8-1.7c1.2-2.2,2.9-4,5-5.3c1.1-0.6,2.3-1,3.5-1C476.2,419.3,477.5,419.8,478.3,420.5z"
		/>
</g>
<g>
	<path d="M491,421.5c0.5,0.8,1,1.6,1.4,2.4c0.5,0.8,0.9,1.6,1.3,2.4c0.4,0.8,0.9,1.6,1.3,2.4l1.3,2.4l2.5,4.8l2.4,4.8l-4.2,2.1
		l-1-1.8l-0.8-1.9l-0.7-1.9l-0.6-2l-0.4-2c-0.1-0.7-0.2-1.3-0.3-2l-0.2-2l0-2l0.1-2l0.2-2l0.3-2c0.1-0.7,0.3-1.3,0.5-1.9l0.6-1.9
		l0.7-1.8c0.3-0.6,0.6-1.2,0.9-1.8l1-1.7l0.5-0.8l0.6,0.3c1,0.4,1.7,1.1,2.2,1.8c0.5,0.8,0.8,1.7,0.8,2.5c-0.2-0.4-0.4-0.7-0.7-1
		c-0.3-0.3-0.6-0.6-0.9-0.8c-0.6-0.4-1.3-0.7-2-0.8l1.1-0.5l-0.5,1.8c-0.1,0.6-0.3,1.2-0.4,1.8l-0.3,1.8l-0.2,1.8
		c0,0.6-0.1,1.2-0.1,1.8l-0.1,1.8l0,1.8l0.1,1.8l0.2,1.8l0.3,1.7c0.1,0.6,0.2,1.1,0.3,1.7l0.4,1.7c0.2,0.6,0.3,1.1,0.5,1.7l0.6,1.6
		l0.6,1.6l0.7,1.6l-4.2,2.1c-0.7-1.7-1.4-3.4-2-5.1c-0.6-1.7-1.2-3.5-1.7-5.2c-0.5-1.8-1-3.5-1.3-5.3c-0.2-0.9-0.4-1.8-0.5-2.7
		C491.2,423.3,491.1,422.4,491,421.5z"/>
</g>
<g>
	<path d="M509.6,430.4c0,0,1.1-0.7,2.9-1.8c0.9-0.6,2-1.4,3.1-2.3c1.1-1,2.2-2.2,2.9-3.6c0.1-0.2,0.2-0.4,0.2-0.6l0.1-0.3l0-0.1l0,0
		c0,0,0-0.1,0,0.1l0,0l0-0.2c0.1-0.2,0.2-0.5,0.2-0.7c0-0.2,0-0.3,0-0.5c0-0.8-0.1-1.6-0.4-2.3c-0.3-0.8-0.8-1.5-1.3-2
		c-0.6-0.5-1.2-0.8-1.7-0.8c-0.1,0-0.3,0-0.4,0c-0.1,0-0.1,0.1-0.2,0.1l-0.1,0l-0.1,0l0,0c0,0,0.2-0.1,0.1,0l-0.1,0l-0.4,0.2
		c-0.1,0-0.1,0.1-0.1,0.1c-0.1,0.1-0.3,0.2-0.4,0.3c-0.5,0.4-1,1.2-1.4,2.1c-0.4,0.9-0.7,2-1.1,3.2c-0.4,1.2-0.7,2.3-0.9,3.4
		c-0.5,2.2-0.6,4.3-0.1,6.1l0,0.2l0,0.1c0,0.1-0.1-0.1,0-0.1l0,0l0,0.1l0.2,0.4l0.2,0.4l0.1,0.2c0.1,0.2,0.2,0.3,0.3,0.5
		c0.1,0.2,0.2,0.4,0.4,0.6c0.6,0.7,1.3,1.3,2.1,1.9c1.6,1,3.6,1.7,5.4,1.9c1,0.1,1.8,0.1,2.8,0.1c0.5,0,0.9-0.1,1.4-0.1
		c0.4-0.1,0.9-0.1,1.3-0.2c1.7-0.4,3.3-0.9,4.7-1.4c1.4-0.5,2.6-1,3.6-1.5c2-0.9,3.2-1.4,3.2-1.4s-0.9,0.9-2.7,2.2
		c-0.9,0.7-2,1.5-3.3,2.3c-1.3,0.8-2.9,1.7-4.8,2.4c-1.9,0.7-4,1.3-6.5,1.3c-2.4,0-5-0.5-7.5-1.8c-1.2-0.6-2.4-1.5-3.4-2.6
		c-0.3-0.3-0.5-0.6-0.7-0.9c-0.2-0.3-0.5-0.6-0.7-1l-0.3-0.6l-0.2-0.4l-0.2-0.4l0-0.1l-0.1-0.2l0-0.1l-0.1-0.3
		c-1.1-3-0.8-6.1-0.2-8.7c0.3-1.3,0.7-2.6,1.1-3.8c0.4-1.2,0.8-2.5,1.5-3.8c0.6-1.3,1.5-2.6,2.9-3.7c0.3-0.3,0.7-0.5,1.1-0.7
		c0.2-0.1,0.5-0.2,0.7-0.3l0.4-0.1l0.1,0c-0.1,0,0.2-0.1,0.2-0.1l0,0l0.2,0l0.3-0.1l0.7-0.1c0.5,0,0.9,0,1.4,0.1
		c1.8,0.3,3.3,1.3,4.2,2.5c0.9,1.2,1.5,2.4,1.9,3.7c0.3,1.3,0.4,2.6,0.1,3.9c-0.1,0.3-0.2,0.7-0.3,1c-0.1,0.3-0.2,0.5-0.3,0.7
		l-0.1,0.2l0,0c-0.1,0.2,0,0.1-0.1,0.1l0,0l-0.1,0.1l-0.2,0.4c-0.1,0.2-0.3,0.5-0.4,0.7c-1.2,1.8-2.8,2.9-4.2,3.7
		c-1.4,0.8-2.7,1.3-3.8,1.6c-1.1,0.4-1.9,0.6-2.5,0.7C509.9,430.3,509.6,430.4,509.6,430.4z"/>
</g>
<g>
	<path d="M102.8,424.3c0,0,0.5-0.7,1.3-1.8c0.4-0.6,0.8-1.3,1.2-2.1c0.2-0.4,0.4-0.9,0.5-1.3c0.1-0.3,0.1-0.4,0.1-0.7
		c0-0.2,0-0.5,0-0.7c0-0.9-0.3-1.9-0.8-2.4c0,0-0.1-0.1-0.1-0.1l-0.1,0l0,0c0,0,0.2,0.2,0.1,0.1l0,0l0,0l-0.2-0.2
		c-0.1-0.1-0.1,0-0.1,0c0,0-0.1,0-0.1,0c-0.1,0-0.1,0-0.2-0.1c-0.3-0.1-0.7,0-0.9,0.1c-0.1,0.1-0.2,0.1-0.2,0.2c0,0,0,0,0,0.1
		c0,0.1-0.1,0.4,0,1.1c0.1,1,0.5,2.3,1.2,3.6c0.3,0.6,0.7,1.3,1,1.9c0.3,0.6,0.7,1.2,1.1,1.6c0.4,0.5,0.8,0.9,1.1,1.2
		c0.4,0.3,0.7,0.4,1.1,0.5c0.4,0.1,0.8,0.1,1.4,0c0.3,0,0.6-0.1,0.8-0.2c0.3-0.1,0.6-0.2,0.9-0.3c1.1-0.3,2.2-0.8,3.2-1.3
		c1.9-1,3.3-2.3,4.1-3.4c0.2-0.3,0.4-0.5,0.5-0.7c0.1-0.1,0.2-0.2,0.2-0.3c0,0,0.1-0.2,0.1-0.2c0-0.2,0-0.3-0.1-0.3
		c-0.1,0-0.1,0-0.1,0c0,0,0-0.1,0.1-0.1c0.1,0,0.3,0.1,0.4,0.3c0,0.1,0.1,0.2,0.1,0.4c0,0.2,0,0.3-0.1,0.4c0,0.3-0.1,0.6-0.2,1
		c-0.2,0.7-0.5,1.6-1.1,2.5c-0.5,0.9-1.3,1.9-2.2,2.8c-1,0.9-2.1,1.8-3.5,2.5c-0.4,0.2-0.7,0.3-1,0.5c-0.4,0.2-0.8,0.3-1.2,0.5
		c-0.8,0.3-1.8,0.5-2.9,0.4c-1.1-0.1-2.2-0.5-3.1-1c-0.9-0.5-1.7-1.2-2.3-2c-0.6-0.7-1.2-1.5-1.6-2.2c-0.5-0.8-0.8-1.5-1.2-2.3
		c-0.7-1.6-1.4-3.4-1.5-5.5c0-0.9,0-2.1,0.6-3.4c0.3-0.6,0.8-1.2,1.4-1.7c0.6-0.4,1.2-0.7,1.8-0.8c1.2-0.2,2.4-0.1,3.4,0.3
		c0.5,0.2,1,0.5,1.5,0.9c0.1,0.1,0.3,0.3,0.3,0.3l0.2,0.2l0.1,0.1l0.1,0.1l0.1,0.2c0.1,0.1,0.1,0.2,0.2,0.3c1,1.8,1,3.6,0.6,5
		c-0.4,1.4-1.2,2.5-1.9,3.3c-0.7,0.8-1.5,1.3-2.1,1.7c-0.6,0.4-1.1,0.6-1.4,0.8C103,424.2,102.8,424.3,102.8,424.3z"/>
</g>
<g>
	<path d="M109.3,387.6c0,0,0.5,0.3,1.4,1c0.9,0.6,2,1.6,3.4,2.8c1.3,1.2,2.8,2.6,4.3,4.2c1.5,1.6,3.1,3.3,4.6,5.1
		c3,3.6,5.8,7.3,7.7,10.3c0.9,1.5,1.7,2.8,2.2,3.8c0.5,0.9,0.7,1.5,0.7,1.5s-0.6-0.3-1.5-0.8c-0.9-0.6-2.2-1.4-3.6-2.5
		c-1.4-1.1-3-2.5-4.6-4c-0.8-0.8-1.6-1.6-2.4-2.4c-0.8-0.8-1.6-1.7-2.3-2.6c-0.7-0.9-1.5-1.8-2.2-2.8c-0.7-0.9-1.4-1.9-2-2.8
		c-1.3-1.8-2.3-3.6-3.2-5.2c-0.9-1.6-1.5-3-1.9-3.9C109.5,388.2,109.3,387.6,109.3,387.6z"/>
</g>
<g>
	<path d="M155.3,417.5c0.7,0.6,1.3,1.2,2,1.8l-0.6,0.5c-1.2-0.9-2.4-1.9-3.6-2.9c-1.2-1-2.3-2-3.4-3.1c-1.1-1.1-2.2-2.1-3.3-3.2
		c-1.1-1.1-2.1-2.2-3.1-3.4c-1-1.1-2-2.3-3-3.5c-1-1.2-1.9-2.4-2.9-3.6c-0.9-1.2-1.8-2.5-2.7-3.7c-0.9-1.3-1.7-2.5-2.6-3.8l-0.5-0.7
		l0.1-0.9c0.1-1.2,0.6-2.6,1.5-3.6c0.8-1,1.7-1.6,2.5-2.1l0.5-0.4l0.3-0.2l0.3-0.2c0.2-0.1,0.5-0.3,0.7-0.4c0.2-0.1,0.5-0.3,0.7-0.4
		c0.9-0.5,1.9-0.8,2.9-1.1c1-0.3,1.9-0.4,2.9-0.5c0.5,0,0.9-0.1,1.5-0.1c0.5,0,1,0,1.5,0.1c1,0.1,2.1,0.3,3.2,0.8
		c0.5,0.2,1,0.6,1.5,0.9l0.2,0.1l0.1,0.1l0,0l0.1,0.1l0.2,0.2c0.2,0.2,0.5,0.5,0.7,0.7c0.7,0.9,1.2,2,1.4,3.1
		c0.2,1.1,0.3,2.1,0.2,3.2c-0.1,0.5-0.2,1.1-0.3,1.5c-0.1,0.5-0.3,1-0.5,1.4c-0.4,0.9-0.9,1.7-1.4,2.5c-0.5,0.8-1.1,1.5-1.6,2.2
		c-0.6,0.7-1.1,1.4-1.8,2c-1.2,1.3-2.5,2.5-3.9,3.6c0.9-1.5,1.9-2.9,2.7-4.4c0.8-1.5,1.7-3,2.3-4.5c0.3-0.7,0.6-1.5,0.8-2.2
		c0.1-0.4,0.2-0.8,0.2-1.1c0-0.4,0.1-0.7,0-1.1c0-1.4-0.5-2.7-1.3-3.5c-0.1-0.1-0.2-0.1-0.2-0.2l-0.2-0.2l-0.1,0l0,0
		c0,0-0.1-0.1,0.1,0.1l0,0l0,0l-0.1-0.1c-0.2-0.1-0.5-0.3-0.7-0.3c-0.5-0.2-1.2-0.3-1.9-0.3c-0.3,0-0.7,0-1.1,0
		c-0.3,0-0.7,0.1-1.1,0.1c-0.8,0.1-1.5,0.3-2.2,0.5c-0.7,0.2-1.4,0.5-2,0.8c-0.2,0.1-0.3,0.2-0.4,0.3c-0.2,0.1-0.2,0.1-0.4,0.3
		l-1,0.7c-0.7,0.5-1.2,0.9-1.5,1.2c-0.3,0.3-0.4,0.6-0.4,1.1l-0.4-1.6l2.4,3.8l2.5,3.7l2.5,3.7l2.6,3.7l2.7,3.6
		c0.9,1.2,1.8,2.4,2.7,3.6l2.7,3.6l2.8,3.6l-0.6,0.5C156.2,419,155.8,418.3,155.3,417.5z"/>
</g>
<g>
	<path d="M60.1,417.3c2.4,2.6,4.8,5.2,7.1,7.9c1.2,1.3,2.3,2.7,3.4,4c1.1,1.4,2.3,2.7,3.4,4.1c2.2,2.8,4.4,5.5,6.6,8.3
		c2.2,2.8,4.3,5.6,6.4,8.4l-3.8,3c-3.2-3.7-6.2-7.7-8.9-11.8c-0.7-1-1.3-2.1-2-3.1c-0.7-1.1-1.4-2.4-1.8-4.1
		c-0.2-0.8-0.2-1.8,0.1-2.8c0.2-1,0.8-1.9,1.5-2.6c0.3-0.3,0.6-0.6,1-0.8c0.2-0.1,0.3-0.2,0.5-0.3l0.2-0.2l0.1-0.1l0.1-0.1l0.1,0
		c0.3-0.1,0.5-0.3,0.8-0.4c0.4-0.2,0.7-0.3,1.1-0.4c1.4-0.5,2.8-0.7,4.2-0.7c1.4,0,2.8,0.2,4.1,0.5c1.3,0.3,2.6,0.8,3.7,1.5
		c0.6,0.3,1.1,0.6,1.7,1l0.7,0.5l0.8,0.6c2,1.6,3.6,3.6,5.1,5.5c1.5,2,2.8,4,4,6.1c-1.8-1.7-3.5-3.5-5.2-5.1
		c-1.7-1.7-3.6-3.1-5.5-4.4l-0.7-0.4l-0.8-0.4c-0.5-0.2-1-0.5-1.5-0.7c-1-0.4-2.1-0.7-3.2-0.9c-2.1-0.4-4.3-0.2-6,0.6
		c-0.2,0.1-0.4,0.2-0.6,0.3c-0.2,0.1-0.5,0.3-0.8,0.4l0,0l0,0c0.2-0.1,0,0,0.1,0l0,0l-0.1,0l-0.1,0.1l-0.2,0.2
		c-0.2,0.1-0.3,0.3-0.4,0.4c-0.2,0.3-0.3,0.4-0.3,0.6c0,0.2,0,0.4,0.1,0.8c0.2,0.7,0.7,1.5,1.3,2.5c0.6,1,1.3,2,2,2.9
		c2.7,3.9,5.6,7.7,8.6,11.4l-3.8,3c-2-2.9-4-5.8-6-8.7c-2-2.9-3.9-5.9-5.9-8.8c-1-1.5-1.9-3-2.8-4.5c-0.9-1.5-1.9-3-2.8-4.5
		C63.7,423.5,61.9,420.5,60.1,417.3z"/>
</g>
<g>
	<path class="st3" d="M312.6,467.3c0,0-0.2-0.1-0.6-0.4c-0.4-0.3-0.9-0.6-1.7-1.1c-0.8-0.4-1.7-0.9-2.9-1.4
		c-1.2-0.4-2.6-0.9-4.2-1.2c-3.2-0.6-7.2-0.8-11.5,0.5c-4.3,1.3-8.4,4.2-13.2,7.4c-1.2,0.8-2.5,1.6-3.8,2.3
		c-0.7,0.4-1.4,0.7-2.1,1.1l-1,0.5l-1.2,0.4c-3,1.1-6.3,1.8-9.8,2c-3.4,0.2-7-0.2-10.5-1.2c-3.5-1-7-2.5-10-5.1
		c-0.8-0.7-1.5-1.4-2.1-2.2l-0.2-0.3l-0.1-0.2l-0.1-0.1c0,0.1-0.1-0.2-0.1-0.2l-0.4-0.6c-0.3-0.4-0.5-0.7-0.8-1.2
		c-0.6-1-1-1.9-1.3-2.9c-0.2-0.5-0.3-1-0.4-1.5l-0.3-1.5c-0.7-4.1-0.2-8.1,0.8-12c0.5-1.9,1.2-3.8,2-5.6l0.1-0.3l0-0.1l0.1-0.2
		l0.1-0.2l0.3-0.6l0.6-1.3l0.6-1.3c0.2-0.4,0.5-0.9,0.7-1.3l1.5-2.6l1.7-2.4c0.5-0.8,1.2-1.6,1.8-2.4c0.6-0.8,1.2-1.6,1.9-2.3
		c2.6-3,5.5-5.7,8.5-8.2c3.1-2.4,6.3-4.6,9.8-6.4c3.4-1.8,6.9-3.4,10.6-4.4c0.5-0.1,0.9-0.3,1.4-0.4l1.4-0.3
		c0.9-0.2,1.8-0.5,2.7-0.7c1.8-0.3,3.7-0.7,5.5-0.9c0.9-0.1,1.8-0.2,2.7-0.3c0.9-0.1,1.9-0.1,2.8-0.1c1.9,0,3.8,0.2,5.6,0.7
		c0.9,0.2,1.9,0.6,2.7,1c0.2,0.1,0.4,0.2,0.7,0.3l0.2,0.1c0,0,0.3,0.1,0.2,0.1l0.1,0l0.3,0.2l1.1,0.7c1.7,1.2,2.9,2.6,3.9,4.2
		c2,3.1,2.8,6.5,3.2,9.7c0.3,3.2,0.2,6.3-0.2,9.2c-0.9,5.8-2.3,10.7-2.9,15.2c-0.3,2.2-0.4,4.3-0.3,6.3c0.1,1.9,0.5,3.7,1,5.2
		c1.1,3,2,5.7,1.5,7.6c-0.2,0.9-0.7,1.5-1.1,1.7c-0.2,0.2-0.4,0.2-0.5,0.3c-0.1,0.1-0.2,0.1-0.2,0.1s0,0,0.1-0.1
		c0.1-0.1,0.3-0.1,0.4-0.3c0.4-0.3,0.8-0.9,0.9-1.7c0.1-0.9-0.1-1.9-0.5-3.1c-0.4-1.2-1.1-2.5-1.7-4c-0.6-1.6-1.2-3.4-1.5-5.4
		c-0.3-2-0.3-4.3-0.2-6.6c0.1-2.3,0.5-4.8,0.8-7.4c0.2-1.3,0.4-2.6,0.6-3.9c0.1-0.7,0.2-1.3,0.3-2c0.1-0.7,0.2-1.3,0.2-2
		c0.2-2.7,0.2-5.6-0.2-8.4c-0.2-1.4-0.6-2.8-1-4.2c-0.5-1.3-1.1-2.7-1.9-3.8c-0.8-1.1-1.9-2.2-2.9-2.9l-1.1-0.6l-0.3-0.2l-0.1,0
		c-0.1-0.1,0.1,0,0,0l-0.1-0.1c-0.2-0.1-0.3-0.2-0.5-0.2c-0.7-0.3-1.4-0.5-2.1-0.6c-2.9-0.6-6.2-0.5-9.6,0
		c-6.8,0.8-13.5,3.2-19.8,6.6c-3.1,1.7-6.1,3.7-9,6c-2.8,2.3-5.4,4.8-7.8,7.6c-0.6,0.7-1.1,1.4-1.7,2.1c-0.6,0.7-1.1,1.4-1.6,2.2
		l-1.5,2.2l-1.4,2.3c-0.2,0.4-0.5,0.7-0.7,1.2l-0.6,1.3l-0.6,1.3l-0.3,0.6l-0.1,0.2c0,0,0-0.1,0,0l0,0.1l-0.1,0.3
		c-0.7,1.6-1.3,3.3-1.8,4.9c-0.9,3.3-1.3,6.8-0.9,9.9l0.2,1.2c0.1,0.4,0.2,0.8,0.3,1.1c0.2,0.7,0.5,1.5,0.9,2.1
		c0.1,0.2,0.1,0.3,0.3,0.5l0.4,0.6l0.4,0.6l0.3,0.4c0.5,0.6,1,1.2,1.6,1.7c2.3,2.1,5.3,3.5,8.3,4.5c3,1,6.2,1.4,9.2,1.4
		c3.1,0,6-0.5,8.8-1.4l1-0.3l1.1-0.4c0.6-0.2,1.3-0.5,1.9-0.8c1.3-0.6,2.5-1.3,3.7-2c2.4-1.4,4.7-2.9,7.1-4.1
		c1.2-0.6,2.4-1.1,3.5-1.6c0.6-0.2,1.2-0.5,1.8-0.6l0.4-0.1l0.5-0.1c0.3-0.1,0.6-0.2,0.9-0.2c4.7-1.1,8.9-0.5,12.2,0.4
		c3.3,1,5.5,2.3,7,3.4c0.7,0.5,1.3,0.9,1.6,1.2C312.4,467.2,312.6,467.3,312.6,467.3z"/>
</g>
</svg>
