<?xml version="1.0" encoding="utf-8"?>
<!-- Generator: Adobe Illustrator 19.1.0, SVG Export Plug-In . SVG Version: 6.00 Build 0)  -->
<svg version="1.1" id="Layer_1" xmlns="http://www.w3.org/2000/svg" xmlns:xlink="http://www.w3.org/1999/xlink" x="0px" y="0px"
	 viewBox="0 0 600 600" style="enable-background:new 0 0 600 600;" xml:space="preserve">
<style type="text/css">
	.st0{fill:none;}
	.st1{fill:#FFDE17;}
	.st2{fill:#00A651;}
	.st3{fill:#27AAE1;}
	.st4{fill:#BE1E2D;}
</style>
<g>
	<path d="M84.5,66.7c0,0-1.2,0.7-3.5,1.9c-0.6,0.3-1.2,0.7-1.8,1.1c-0.7,0.4-1.4,0.9-2.2,1.4c-0.8,0.5-1.5,1.2-2.4,1.8
		c-0.4,0.3-0.8,0.7-1.3,1c-0.5,0.3-0.9,0.7-1.3,1.1c-0.9,0.8-1.8,1.7-2.7,2.6c-0.9,1-1.8,2-2.8,3.1c-0.5,0.5-0.9,1.1-1.4,1.7
		c-0.5,0.6-0.9,1.2-1.4,1.8c-0.5,0.6-0.9,1.3-1.3,2c-0.4,0.7-0.9,1.4-1.3,2.1c-0.5,0.7-0.8,1.4-1.3,2.2c-0.4,0.8-0.8,1.5-1.2,2.3
		c-0.8,1.6-1.5,3.3-2.2,5c-1.2,3.5-2.5,7.2-3.1,11.2c-1.5,8-1.1,16.9,1.7,25.7c2.8,8.7,8.3,17.2,16.3,22.9c4,2.9,8.6,5.2,13.4,7
		c1.3,0.4,2.5,0.9,3.8,1.3c1.2,0.3,2.5,0.7,3.7,1c1.3,0.3,2.5,0.6,3.8,0.9c1.3,0.2,2.6,0.4,3.9,0.6c10.4,1.4,21.4,0.4,31.3-3.4
		c1.2-0.5,2.5-1,3.7-1.5c1.2-0.6,2.4-1.2,3.5-1.8c1.1-0.7,2.3-1.3,3.4-2.1l1.6-1.1l0.8-0.6l0.4-0.3c0.1,0-0.1,0.1,0,0l0.1-0.1
		l0.2-0.2c1-0.9,2.2-1.8,3.1-2.7c0.9-0.9,1.8-1.8,2.7-2.7c0.8-1,1.7-2,2.5-3c0.7-1.1,1.5-2.1,2.3-3.2c5.6-8.7,8.6-19.1,8-28.9
		c-0.3-4.9-1.4-9.7-3.3-14l-0.3-0.8l-0.1-0.3l-0.2-0.4l-0.9-1.6c-0.3-0.5-0.6-1.1-0.9-1.6l-1-1.4l-0.9-1.4c-0.3-0.5-0.7-0.9-1.1-1.4
		c-0.7-0.9-1.4-1.8-2.2-2.6c-0.8-0.8-1.5-1.7-2.4-2.4c-0.8-0.8-1.7-1.5-2.5-2.3c-0.9-0.7-1.8-1.4-2.6-2c-0.9-0.7-1.8-1.3-2.7-1.9
		c-3.6-2.4-7.4-4.5-11.1-6.1c-3.7-1.7-7.4-3.1-11-4.3c-3.5-1.2-7-2.2-10.2-3c-6.5-1.7-12.2-2.8-17-3c-2.4-0.1-4.5,0-6.4,0.2
		c-1.8,0.3-3.4,0.6-4.6,1c-1.2,0.4-2.1,0.8-2.7,1.1c-0.6,0.3-0.9,0.4-0.9,0.4s0.3-0.2,0.9-0.5c0.6-0.4,1.5-0.8,2.7-1.3
		c1.2-0.5,2.7-1,4.6-1.4c1.9-0.4,4-0.6,6.5-0.6c4.9-0.1,10.8,0.8,17.4,2.2c6.6,1.4,14.1,3.3,21.9,6.5c3.9,1.6,7.9,3.6,11.8,5.9
		c3.9,2.4,7.7,5.3,11.1,8.9c0.9,0.8,1.7,1.8,2.5,2.8c0.4,0.5,0.8,0.9,1.2,1.5l1.1,1.6l1.1,1.6c0.3,0.5,0.6,1.1,0.9,1.6l0.9,1.6
		l0.2,0.4c0,0,0.1,0.2,0.1,0.2l0.1,0.1l0.1,0.2l0.4,0.9c2.3,4.7,3.6,10,4,15.5c0.8,10.9-2.2,22.2-8.4,31.8c-0.8,1.2-1.6,2.3-2.5,3.5
		c-0.9,1.1-1.8,2.2-2.7,3.3c-1,1.1-2.1,2.1-3.1,3.2c-1,1-2.1,1.8-3.2,2.7l-0.2,0.2l-0.1,0.1c0,0-0.2,0.1-0.2,0.1l-0.4,0.3l-0.9,0.6
		l-1.8,1.3c-1.2,0.8-2.5,1.5-3.7,2.3c-1.3,0.7-2.6,1.3-3.9,2c-1.3,0.6-2.7,1.1-4,1.7c-10.8,4.1-22.6,5-33.7,3.5
		c-1.4-0.2-2.8-0.5-4.2-0.7c-1.4-0.3-2.7-0.6-4.1-0.9c-1.4-0.4-2.7-0.8-4.1-1.2c-1.3-0.4-2.5-0.9-3.8-1.4c-2.7-1-5.1-2.2-7.5-3.5
		c-2.4-1.3-4.7-2.7-6.9-4.4c-1.1-0.8-2.1-1.6-3.2-2.6c-1-0.9-2-1.8-2.9-2.8c-1.8-1.9-3.5-4-4.9-6.2c-2.9-4.4-4.9-9-6.3-13.8
		c-0.3-1.2-0.7-2.4-0.9-3.6c-0.1-0.6-0.2-1.1-0.4-1.7c-0.1-0.6-0.2-1.2-0.3-1.8c-0.2-1.2-0.4-2.4-0.5-3.5c-0.1-1.2-0.1-2.3-0.2-3.5
		c-0.1-1.2,0-2.3,0-3.4c0-0.6,0-1.1,0.1-1.7c0-0.6,0-1.1,0.1-1.7c0.3-2.2,0.5-4.4,1-6.4c0.8-4.2,2.2-8,3.7-11.6
		c0.8-1.7,1.6-3.4,2.5-5c0.5-0.8,0.9-1.6,1.4-2.3c0.5-0.8,0.9-1.5,1.4-2.2c3.8-5.7,8.1-10,11.9-13c0.5-0.4,0.9-0.8,1.4-1.1
		c0.5-0.3,0.9-0.7,1.4-1c0.9-0.6,1.7-1.2,2.5-1.7c0.8-0.5,1.6-0.9,2.3-1.3c0.7-0.4,1.3-0.8,1.9-1C83.3,67.3,84.5,66.7,84.5,66.7z"/>
</g>
<g>
	<path d="M111.4,180c0,0,0.5,5.8,1.3,16c0.8,10.2,1.9,24.7,3.2,42.1c0.6,8.7,1.3,18.1,2,28.1c0.7,10,1.4,20.5,2.2,31.4
		c0.7,10.9,1.5,22.1,2.3,33.5c0.8,11.4,1.6,23,2.4,34.6c0.8,11.6,1.6,23.1,3.1,34.4c0.8,5.6,1.6,11.2,2.6,16.7
		c1,5.4,2.4,10.8,3,16.5c1.3,11.2,0.1,22-1.6,31.9c-0.4,2.5-0.9,4.9-1.4,7.3c-0.3,1.2-0.5,2.4-0.8,3.5c-0.3,1.2-0.6,2.3-0.9,3.5
		c-0.6,2.3-1.3,4.5-2,6.7c-0.8,2.2-1.4,4.3-2.2,6.4c-3,8.3-6.5,15.6-9.7,21.9c-3.2,6.3-6.3,11.7-8.8,16.2c-2.5,4.4-4.6,7.8-6,10.2
		c-1.4,2.3-2.2,3.6-2.2,3.6s2.6-5.2,7.3-14.2c2.3-4.5,5-10.1,8-16.5c2.9-6.4,6-13.8,8.7-22c0.7-2,1.3-4.2,2-6.3
		c0.6-2.2,1.2-4.4,1.7-6.6c0.2-1.1,0.5-2.2,0.8-3.4c0.2-1.2,0.5-2.4,0.7-3.6c0.4-2.3,0.8-4.8,1.2-7.2c1.5-9.8,2.3-20.2,0.9-30.8
		c-0.4-2.7-0.8-5.2-1.4-7.9c-0.6-2.6-1.3-5.4-1.8-8.2c-1.1-5.5-2.1-11.2-2.8-16.9c-1.6-11.4-2.5-23.1-3.3-34.7
		c-0.8-11.6-1.5-23.2-2.3-34.7c-0.7-11.4-1.3-22.7-1.9-33.6c-0.6-10.9-1-21.4-1.5-31.4c-0.5-10-0.8-19.4-1.1-28.2
		c-0.7-17.4-1.1-32-1.3-42.2C111.5,185.8,111.4,180,111.4,180z"/>
</g>
<g>
	<path d="M130.7,431.1c0,0,0.2,0.5,0.6,1.5c0.4,0.9,1,2.3,1.9,4c0.9,1.7,2.2,3.6,3.7,5.7c1.6,2.1,3.5,4.3,5.7,6.8
		c2.2,2.4,4.6,5,7.1,7.8c2.5,2.7,5.2,5.6,8,8.6c5.5,6,11.5,12.3,17.6,18.5c3,3.1,6.1,6.2,9.1,9.3c3,3,6,6,8.9,8.9
		c2.9,2.9,5.7,5.6,8.4,8.2c2.7,2.6,5.2,5.1,7.5,7.4c2.3,2.3,4.5,4.4,6.4,6.2c2,1.8,3.7,3.3,5.2,4.5c1.5,1.2,2.7,2.1,3.5,2.7
		c0.8,0.6,1.3,0.9,1.3,0.9s-0.5-0.2-1.4-0.7c-0.9-0.5-2.3-1.1-3.9-2.1c-3.3-1.9-7.9-5.1-12.9-9.3c-2.6-2.1-5.3-4.3-8.1-6.8
		c-2.9-2.4-5.9-5-8.9-7.8c-3-2.8-6.1-5.6-9.2-8.7c-3.1-3-6.2-6.1-9.2-9.2c-3-3.2-6-6.3-8.9-9.6c-2.9-3.2-5.7-6.4-8.3-9.5
		c-2.7-3.1-5.1-6.2-7.5-9.2c-2.4-2.9-4.5-5.8-6.5-8.4c-2-2.6-3.7-5.2-5-7.5c-1.4-2.3-2.4-4.5-3-6.3c-0.7-1.8-1.1-3.3-1.3-4.3
		C130.8,431.6,130.7,431.1,130.7,431.1z"/>
</g>
<g>
	<path d="M72.2,296.2l3.5-4.3l3.4-4.4l3.2-4.5l3.1-4.6l2.9-4.7l2.8-4.8l2.6-4.8l2.4-4.9l2.3-5l2.1-5.1l1.9-5.1l1.8-5.2l1.6-5.2
		l1.4-5.3l1.2-5.3l1.1-5.4l1.5-7.5l3.1,7c2.1,4.6,4.2,9.2,6.5,13.8c2.3,4.5,4.6,9.1,7,13.6l7.2,13.5c2.4,4.5,4.8,9,7.5,13.2
		c1.4,2.1,2.8,4,4.5,5.9c1.6,1.9,3.4,3.6,5.2,5.4c1.8,1.7,3.8,3.4,5.7,5l5.9,5c3.9,3.3,7.8,6.7,11.7,10c3.9,3.4,7.7,6.7,11.6,10.2
		l0.3,0.3l-0.4,0.1l-3.9,1l3.7-1.4l-0.1,0.4c-4.2-3-8.3-6-12.5-9c-4.1-3-8.3-6.1-12.4-9.2c-4.1-3.1-8.2-6.1-12.2-9.5
		c-2-1.7-3.9-3.5-5.7-5.5c-1.8-1.9-3.5-4-5-6.2c-3-4.3-5.6-8.9-8.1-13.3c-1.3-2.2-2.5-4.5-3.7-6.7l-3.7-6.8
		c-2.4-4.5-4.9-9.1-7.1-13.7c-2.3-4.6-4.5-9.3-6.5-14.1l4.6-0.5l-1.2,5.5l-1.4,5.5l-1.6,5.4l-1.8,5.3l-2,5.3l-2.2,5.2l-2.4,5.1
		l-2.6,5l-2.8,4.9l-3,4.8l-3.1,4.7l-3.3,4.5l-3.5,4.4l-3.6,4.2l-3.8,4.1L72.2,296.2z"/>
</g>
<g>
	<path d="M285.4,260.2c0,0-0.2,0.2-0.7,0.5c-0.4,0.3-1.1,0.8-1.9,1.5c-1.6,1.4-3.8,3.5-6.3,6.5c-2.4,3.1-4.9,7.1-6.9,12.1
		c-1.9,5-3.2,11.1-2.9,17.5c0.3,6.6,2.2,13.5,5.9,20c3.7,6.4,9.3,12.2,16.2,16.2c3.5,2,7.3,3.5,11.4,4.6c1,0.3,2,0.5,3.1,0.8
		c0.2,0.1,0.6,0.1,0.7,0.2l0.8,0.2l1.6,0.3c1.1,0.2,2.1,0.3,3.1,0.5c1.1,0.1,2.1,0.2,3.2,0.3c8.5,0.6,17.3-0.7,25-4.2
		c1-0.4,1.9-0.9,2.9-1.4c0.9-0.5,1.8-1.1,2.8-1.6c0.9-0.6,1.8-1.2,2.6-1.8l1.2-1l0.6-0.5l0.2-0.1c0.1-0.1,0,0,0,0l0.1-0.1l0.3-0.3
		l1.2-1.2l0.6-0.6l0.5-0.6c0.7-0.8,1.4-1.5,2-2.3l0.9-1.2c0.3-0.4,0.6-0.9,0.9-1.3l0.8-1.3l0.7-1.4c3.9-7.3,5.5-15.9,3.7-23.6
		c-0.3-0.9-0.5-1.9-0.8-2.8c-0.4-0.9-0.6-1.8-1.1-2.7c-0.4-0.8-0.8-1.7-1.3-2.5c-0.5-0.9-1-1.7-1.6-2.4c-2.2-3.1-5-5.7-7.9-8
		c-5.9-4.5-12.6-7.7-18.7-10.2c-6.2-2.4-12.1-4.1-17.4-5.1c-5.3-1-10.1-1.5-14-1.7c-2-0.1-3.7-0.1-5.2-0.1c-1.5,0-2.8,0-3.9,0.1
		c-2.1,0.1-3.2,0.2-3.2,0.2s1.1-0.2,3.2-0.5c2.1-0.2,5.2-0.6,9.1-0.7c4-0.1,8.8,0.1,14.3,0.8c5.5,0.7,11.6,2.1,18.1,4.3
		c3.2,1.1,6.6,2.5,9.9,4c3.3,1.6,6.7,3.5,10,5.8c3.2,2.3,6.4,5.1,9,8.6c0.7,0.9,1.3,1.8,1.8,2.7c0.6,1,1.1,2,1.6,2.9
		c0.5,1,0.9,2.1,1.3,3.1c0.4,1.1,0.6,2.2,1,3.2c1.1,4.4,1.2,9,0.5,13.6c-0.6,4.6-2.1,9.1-4.3,13.2l-0.8,1.6l-0.9,1.5
		c-0.3,0.5-0.6,1-1,1.5l-1.1,1.4c-0.7,1-1.5,1.9-2.3,2.8l-0.6,0.7l-0.6,0.6l-1.2,1.2l-0.3,0.3l-0.1,0.1c0,0-0.2,0.2-0.2,0.1
		l-0.2,0.1l-0.7,0.6l-1.4,1.1c-1,0.7-1.9,1.4-2.9,2.1c-1,0.6-2,1.2-3.1,1.8c-1.1,0.5-2.1,1.1-3.2,1.6c-8.7,3.8-18.3,5.1-27.4,4.4
		c-1.1-0.1-2.3-0.2-3.4-0.4c-1.1-0.2-2.3-0.3-3.4-0.5L304,345l-0.8-0.2c-0.4-0.1-0.6-0.1-0.9-0.2c-1.1-0.3-2.2-0.6-3.3-0.9
		c-4.3-1.3-8.5-3-12.3-5.3c-7.7-4.5-13.5-11.1-17.3-18.2c-3.8-7.1-5.5-14.7-5.5-21.7c0-7,1.7-13.3,4-18.4c2.3-5.1,5.2-9.1,7.9-12
		c2.7-3,5.1-4.9,6.9-6.1c0.9-0.6,1.6-1,2-1.3C285.2,260.4,285.4,260.2,285.4,260.2z"/>
</g>
<g>
	<path d="M320,347l-0.1,6.1l-0.2,6.2c-0.2,4.1-0.5,8.2-0.7,12.3l-1.9,24.5c-0.3,4.1-0.5,8.1-0.7,12.2c-0.1,2-0.2,4.1-0.2,6.1
		c0,2-0.1,4.1-0.1,6.1l0,3l0.1,3l0.1,3l0.2,3l0.2,3l0.3,3c0.1,1,0.2,2.1,0.3,3l0.4,3l0.4,3l0.5,2.9l0.5,2.9l0.7,2.9l0.7,2.9l0.8,2.9
		l0.8,2.9c0.3,1,0.6,1.9,0.9,2.9c0.6,1.9,1.2,3.8,1.9,5.7c0.7,1.9,1.3,3.8,2.1,5.7c1.5,3.8,3.2,7.4,4.9,11c1.8,3.6,3.7,7.2,5.8,10.7
		c1.1,1.7,2.1,3.5,3.2,5.2c1.1,1.7,2.2,3.4,3.4,5c1.2,1.6,2.4,3.3,3.6,4.9c1.3,1.6,2.5,3.2,3.8,4.8l4,4.6l4.1,4.5l-0.4,0.5L355,527
		l4.7,3.1l-0.4,0.5l-4.6-4.1c-1.5-1.4-3-2.9-4.4-4.3c-1.4-1.5-2.8-3-4.2-4.5c-1.4-1.5-2.7-3.2-4-4.7c-1.3-1.6-2.5-3.3-3.8-4.9
		c-1.3-1.6-2.4-3.4-3.6-5.1c-2.3-3.5-4.4-7-6.4-10.7c-1.1-1.8-1.9-3.7-2.8-5.5c-1-1.8-1.7-3.8-2.6-5.7c-0.9-1.9-1.6-3.8-2.3-5.8
		c-0.8-1.9-1.5-3.9-2.1-5.9c-0.3-1-0.7-2-1-3l-0.8-3l-0.8-3l-0.7-3l-0.7-3l-0.6-3.1l-0.6-3.1l-0.4-3l-0.4-3
		c-0.1-1.1-0.2-2.1-0.3-3.2l-0.3-3.1l-0.2-3.1l-0.2-3.1l-0.1-3.1c-0.1-2.1,0-4.1,0-6.2c0-2.1,0.1-4.1,0.2-6.2
		c0.1-2.1,0.2-4.1,0.4-6.2c0.3-4.1,0.7-8.2,1.2-12.3c0.5-4.1,1-8.2,1.6-12.2l1.7-12.2l1.8-12.1C318.9,355.1,319.5,351.1,320,347z"/>
</g>
<g>
	<path d="M320.6,471.1c0,0,0,1.2-0.1,3.1c-0.1,2-0.3,4.8-0.7,8.2c-0.4,3.4-1,7.3-1.8,11.5c-0.4,2.1-0.8,4.3-1.3,6.4
		c-0.5,2.2-1,4.4-1.6,6.6c-0.6,2.2-1.2,4.4-1.9,6.5c-0.6,2.1-1.3,4.2-2,6.3c-1.4,4-2.8,7.7-4.2,10.9c-0.7,1.6-1.3,3-1.9,4.3
		c-0.6,1.3-1.3,2.4-2.1,3.2c-0.8,0.8-1.7,1.1-2.2,1.1c-0.6,0-0.8-0.1-0.8-0.1c0,0,0.1,0,0.2,0c0.1,0,0.3-0.1,0.6-0.1
		c0.5-0.2,1-0.6,1.5-1.4c0.5-0.8,0.8-1.9,1.1-3.2c0.3-1.4,0.6-2.9,1-4.5c0.7-3.3,1.6-7.2,2.7-11.3c0.5-2,1-4.2,1.6-6.3
		c0.6-2.1,1.1-4.3,1.7-6.5c2.3-8.7,4.7-17.4,6.7-23.9c1-3.2,1.9-5.9,2.5-7.8C320.1,472.2,320.6,471.1,320.6,471.1z"/>
</g>
<g>
	<path d="M316.4,405.8c-0.5-1.1-0.7-2.3-0.7-3.5c0-1.3,0.3-2.5,0.6-3.7c0.4-1.2,0.9-2.3,1.5-3.4c0.6-1.1,1.3-2.1,2-3.1
		c0.7-1,1.5-1.9,2.3-2.8c0.8-0.9,1.5-1.8,2.3-2.6c1.5-1.7,3.1-3.4,4.7-5.1c1.6-1.7,3.2-3.3,4.9-4.9c1.6-1.6,3.3-3.2,5-4.8
		c1.7-1.6,3.4-3.1,5.2-4.6c1.8-1.5,3.6-2.9,5.5-4.3l1,1.1c-1.2,0.6-2.4,1.3-3.7,1.9c0.9-1.1,1.8-2.1,2.7-3.1l1,1.1
		c-1.4,1.9-2.8,3.8-4.2,5.6c-1.4,1.8-2.9,3.6-4.5,5.3c-1.5,1.7-3.1,3.5-4.6,5.2c-1.6,1.7-3.2,3.4-4.8,5c-1.6,1.6-3.3,3.3-5,4.8
		c-0.8,0.8-1.7,1.6-2.5,2.4c-0.8,0.8-1.7,1.5-2.5,2.3c-0.8,0.8-1.6,1.6-2.3,2.4c-0.7,0.8-1.4,1.7-2,2.6c-0.6,0.9-1.1,1.9-1.4,2.9
		C316.6,403.5,316.4,404.6,316.4,405.8z"/>
</g>
<g>
	<path d="M312.3,403.1c0,0,0-0.2-0.1-0.5c-0.1-0.3-0.2-0.7-0.4-1.3c-0.3-1.1-0.8-2.7-1.5-4.4c-0.7-1.7-1.6-3.6-2.8-5.4l-0.2-0.3
		l-0.1-0.1c0.1,0.2,0,0,0,0.1l0,0l0,0l0,0l-0.1-0.2c-0.2-0.2-0.4-0.5-0.6-0.7l-0.3-0.4l-0.3-0.3l-0.5-0.6c-0.3-0.4-0.8-0.8-1.2-1.2
		c-0.4-0.4-0.8-0.8-1.3-1.2c-0.9-0.8-1.8-1.5-2.8-2.2c-1-0.7-1.9-1.3-2.9-1.9c-1-0.6-2-1.2-2.9-1.7c-0.9-0.6-1.8-1.1-2.7-1.5
		c-1.7-1-3.1-1.8-4.1-2.5c-1-0.6-1.5-1-1.5-1s0.7,0,1.8,0.1c1.2,0.1,2.8,0.3,4.8,0.7c1,0.2,2,0.5,3.1,0.8c1.1,0.3,2.3,0.7,3.4,1.2
		c0.6,0.2,1.2,0.5,1.8,0.8c0.6,0.3,1.2,0.6,1.8,1c1.2,0.7,2.3,1.5,3.4,2.4c0.5,0.5,1,1,1.6,1.5c0.5,0.5,0.9,1.1,1.4,1.6l0.7,0.9
		l0.3,0.5l0.2,0.4c0.2,0.3,0.3,0.5,0.5,0.8l0.1,0.2l0.1,0.2l0.1,0.1l0.2,0.5c1.2,2.5,1.6,4.9,1.7,7c0.1,2.1-0.1,3.8-0.4,4.9
		C312.5,402.4,312.3,403.1,312.3,403.1z"/>
</g>
<g>
	<path d="M297.8,317.1c0.4,0.5,0.9,1,1.3,1.5c0.4,0.5,0.9,0.9,1.4,1.3c0.4,0.4,0.9,0.8,1.4,1.2c0.5,0.4,1,0.8,1.5,1.1
		c0.5,0.3,1,0.7,1.6,0.9l1.6,0.8l1.7,0.7c0.5,0.2,1.1,0.4,1.7,0.5c0.6,0.2,1.1,0.3,1.7,0.4c0.6,0.1,1.2,0.3,1.7,0.3
		c0.6,0.1,1.2,0.2,1.8,0.2c0.6,0,1.2,0,1.8,0.1c1.2-0.1,2.3-0.1,3.5-0.3c0.3,0,0.6-0.1,0.9-0.1l0.8-0.2c0.6-0.1,1.1-0.2,1.6-0.5
		c0.5-0.2,1.1-0.3,1.6-0.6l1.5-0.7l1.4-0.9l0.2-0.1l0.1-0.1l0,0l0,0c0,0,0.1-0.1-0.1,0l0,0l0.4-0.3l0.8-0.6c0.8-0.7,1.7-1.5,2.5-2.4
		c0.8-0.9,1.5-1.8,2.3-2.8c2.8-3.9,5-8.6,7.3-13.2l0.5-1.1l0.6,0.9c0.2,0.2,0.3,0.4,0.4,0.7c0.1,0.3,0.1,0.5,0.1,0.7
		c-0.1,0.5-0.2,0.9-0.5,1.2c-0.5,0.6-1.2,1.1-1.9,1.2c0.6-0.4,1-1,1.2-1.5c0.1-0.3,0.1-0.6,0.1-0.8c0-0.1-0.1-0.2-0.1-0.3
		c-0.1-0.1-0.1-0.1-0.2-0.2l1.2-0.3c-0.4,2.6-1,5.2-1.8,7.7c-0.8,2.5-1.8,5.1-3.2,7.4c-0.7,1.2-1.5,2.4-2.4,3.4
		c-0.9,1.1-1.9,2.1-3,3.1l-0.7,0.6l-0.4,0.3l-0.1,0.1l-0.1,0l-0.1,0.1l-0.2,0.2c-0.6,0.4-1.2,0.8-1.8,1.2l-2,1
		c-0.7,0.3-1.4,0.5-2,0.7c-0.7,0.3-1.4,0.4-2.1,0.5l-1.1,0.2c-0.4,0.1-0.7,0.1-1.1,0.1c-1.4,0.2-2.9,0.1-4.3,0.1
		c-0.7-0.1-1.4-0.2-2.1-0.3c-0.7-0.1-1.4-0.3-2.1-0.4c-0.7-0.1-1.4-0.4-2-0.6c-0.7-0.2-1.3-0.4-1.9-0.8c-0.6-0.3-1.3-0.6-1.9-0.9
		l-1.8-1.1c-1.1-0.8-2.2-1.7-3.1-2.7c-0.5-0.5-0.9-1-1.3-1.6l-0.6-0.8c-0.2-0.3-0.4-0.6-0.5-0.9c-0.3-0.6-0.7-1.2-0.9-1.8
		C298.3,318.4,298.1,317.7,297.8,317.1z"/>
</g>
<g>
	<polygon points="300,287 299.3,290.7 296.3,286.6 300,287 299.3,290.7 296.3,286.6 	"/>
</g>
<g>
	<line class="st0" x1="317" y1="287" x2="317" y2="287"/>
</g>
<g>
	<path d="M451,317.7c0,0-0.2,0-0.6,0c-0.2,0-0.4,0-0.7,0.1c-0.3,0-0.6,0.1-1,0.2c-1.5,0.4-3.4,1.5-5.2,3.6c-0.9,1.1-1.7,2.3-2.4,3.8
		c-0.3,0.8-0.7,1.5-1,2.4c-0.1,0.4-0.3,0.9-0.4,1.3c-0.1,0.4-0.2,0.9-0.4,1.4c-0.9,3.7-1.2,8.1-0.6,12.7c0.7,4.6,2.4,9.5,5.3,13.9
		l0.5,0.8l0.6,0.8l0.6,0.8l0.6,0.7c0.4,0.5,0.9,1,1.4,1.5c0.5,0.5,1,1,1.5,1.4c2.1,1.8,4.4,3.5,6.9,4.9c5,2.8,10.9,4.4,16.9,4.5
		c5.9,0.1,12-1.5,17.2-4.6c5.2-3,9.5-7.5,11.7-12.9l0.4-1l0.2-0.5l0.1-0.3l0-0.1c0,0,0,0.2,0,0.1l0-0.1c0.2-0.8,0.4-1.5,0.6-2.3
		c0.1-0.7,0.2-1.3,0.3-2c0.1-0.7,0.1-1.4,0.1-2.1c0.1-2.9-0.4-5.7-1.2-8.4c-0.8-2.7-2-5.3-3.5-7.6c-1.5-2.3-3.2-4.4-5.1-6.3
		c-1.9-1.9-4-3.3-6.1-4.6c-1.2-0.7-2.2-1.2-3.3-1.7c-1.1-0.4-2.2-0.9-3.3-1.3c-4.5-1.5-8.8-2-12.7-2.1c-3.9,0-7.3,0.4-10.1,0.9
		c-1.4,0.2-2.6,0.6-3.7,0.8c-1.1,0.3-2,0.5-2.7,0.8c-1.4,0.5-2.2,0.8-2.2,0.8s0.7-0.3,2.1-1c0.7-0.3,1.6-0.7,2.6-1.1
		c1-0.4,2.2-0.8,3.6-1.2c2.8-0.8,6.2-1.6,10.2-1.8c4-0.3,8.7-0.1,13.6,1.2c1.2,0.3,2.4,0.7,3.7,1.1c1.2,0.5,2.6,1,3.7,1.6
		c2.5,1.2,4.9,2.8,7.1,4.8c2.2,1.9,4.3,4.2,6,6.8c1.8,2.6,3.2,5.5,4.2,8.5c1,3.1,1.6,6.4,1.7,9.8c0,0.9,0,1.7-0.1,2.6
		c-0.1,0.9-0.2,1.8-0.4,2.7c-0.2,0.8-0.4,1.5-0.6,2.3l0,0.1l-0.1,0.2l0,0.1l-0.1,0.3l-0.2,0.6l-0.4,1.2c-2.6,6.5-7.7,11.9-13.7,15.4
		c-3,1.8-6.3,3.1-9.6,3.9c-0.8,0.3-1.7,0.4-2.5,0.6c-0.8,0.2-1.7,0.3-2.6,0.4l-1.3,0.2l-1.3,0.1c-0.9,0-1.8,0.1-2.6,0
		c-3.4,0-6.8-0.7-9.9-1.6c-3.2-1-6.2-2.3-9-3.9c-2.8-1.6-5.3-3.5-7.5-5.7c-0.6-0.5-1.1-1.1-1.6-1.7c-0.5-0.6-1-1.1-1.5-1.8l-0.7-0.9
		l-0.6-0.9l-0.6-0.9c-0.3-0.4-0.4-0.7-0.6-1c-3.1-5-4.6-10.5-5-15.6c-0.4-5.1,0.3-9.7,1.6-13.6c0.2-0.5,0.3-1,0.5-1.4
		c0.2-0.4,0.4-0.9,0.6-1.3c0.4-0.9,0.8-1.7,1.3-2.5c0.9-1.5,1.9-2.8,3-3.8c2.1-2.1,4.3-3,5.9-3.2c0.4-0.1,0.7-0.1,1-0.1
		c0.3,0,0.5,0,0.7,0C450.8,317.7,451,317.7,451,317.7z"/>
</g>
<g>
	<path d="M469.3,307.9c0,0-0.1-0.5-0.4-1.3c-0.1-0.4-0.1-1-0.2-1.7c0-0.3,0-0.7,0-1.1c0-0.4,0-0.8,0.1-1.2c0.2-1.7,1-3.8,2.5-5.8
		c1.4-2,3.5-4,6.1-5.6c1.3-0.8,2.7-1.5,4.3-2.1l0.6-0.2c0.1,0,0.2-0.1,0.3-0.1l0.3-0.1c0.4-0.1,0.8-0.2,1.1-0.4
		c0.8-0.2,1.6-0.5,2.4-0.7c1.7-0.5,3.4-0.8,5.2-1.1c1.8-0.3,3.7-0.3,5.7-0.2c2,0.2,4,0.6,6,1.3c2,0.8,3.8,1.9,5.4,3.3l0.6,0.5
		l0.3,0.3l0.3,0.3l1,1c0.3,0.4,0.6,0.7,1,1.1l1,1.3c0.7,0.8,1.2,1.7,1.8,2.6c0.6,0.8,1.1,1.7,1.5,2.6c1.9,3.6,3.3,7.4,4.3,11.2
		c1,3.8,1.7,7.5,2.3,11.1c0.6,3.6,1,7,1.5,10.3c0.3,1.6,0.5,3.2,0.8,4.7c0.2,1.5,0.5,3,0.8,4.4c0.6,2.8,1.2,5.3,1.9,7.5
		c0.7,2.2,1.5,4,2.4,5.4c0.2,0.4,0.4,0.7,0.6,1c0.2,0.3,0.4,0.6,0.6,0.9c0.4,0.5,0.7,1,1,1.3c0.6,0.7,0.9,1,0.9,1s-0.4-0.3-1.1-0.8
		c-0.4-0.3-0.8-0.7-1.3-1.1c-0.5-0.5-1-1-1.5-1.7c-1.1-1.3-2.3-3.1-3.3-5.3c-1.1-2.2-2-4.7-2.9-7.5c-0.9-2.8-1.7-5.8-2.4-9.1
		c-0.8-3.2-1.5-6.7-2.2-10.2c-0.7-3.5-1.5-7.1-2.6-10.6c-1-3.5-2.3-7-4-10.1c-0.4-0.8-0.8-1.6-1.3-2.3c-0.5-0.8-1-1.5-1.5-2.2
		l-0.8-1c-0.2-0.3-0.6-0.7-0.9-1.1l-1-1.1l-0.1-0.1l-0.1-0.1l0,0c0.1,0.1,0,0,0,0.1L506,295l-0.4-0.4c-1.2-1.1-2.6-2-4-2.6
		c-1.5-0.6-3-1-4.6-1.3c-1.6-0.2-3.2-0.2-4.9-0.1c-1.6,0.1-3.2,0.3-4.8,0.6c-0.8,0.1-1.5,0.3-2.3,0.5c-0.4,0.1-0.8,0.2-1.2,0.3
		l-0.5,0.1l-0.5,0.1c-1.4,0.4-2.7,0.9-3.9,1.5c-2.5,1.2-4.5,2.7-6,4.3c-1.5,1.6-2.5,3.3-3,4.8c-0.2,0.4-0.2,0.8-0.3,1.1
		c-0.1,0.4-0.2,0.7-0.2,1c0,0.6-0.1,1.2-0.1,1.6C469.2,307.5,469.3,307.9,469.3,307.9z"/>
</g>
<g>
	<path d="M317,288c0,0,0,0.2-0.1,0.5c0,0.3-0.1,0.6-0.1,0.9c-0.1,0.6-0.3,1.1-0.4,1.1l0,0l0,0c0,4.5,0-6.1,0-5l0,0l0,0l0,0l0,0
		c0,0,0,0,0,0c0,0,0,0,0.1,0.1c0,0,0.1,0.1,0.1,0.2c0.1,0.2,0.1,0.5,0.2,0.8c0.1,0.3,0.1,0.7,0.1,1C317,287.8,317,288,317,288
		s0,0.2-0.1,0.5c0,0.3-0.1,0.6-0.1,1c-0.1,0.3-0.1,0.6-0.2,0.8c0,0.1-0.1,0.2-0.1,0.2c0,0,0,0-0.1,0.1c0,0,0,0,0,0l0,0l0,0l0,0l0,0
		c0,1.1,0-9.5,0-5l0,0l0,0c0.2,0,0.3,0.4,0.4,1.1c0.1,0.3,0.1,0.7,0.1,0.9C317,287.8,317,288,317,288z"/>
</g>
<g>
	<path d="M456,333c0,0,0.2,0,0.5,0.1c0.3,0,0.6,0.1,0.9,0.1c0.6,0.1,1.1,0.3,1.1,0.4l0,0l0,0c4.5,0-6.1,0-5,0l0,0l0,0l0,0l0,0
		c0,0,0,0,0,0c0,0,0,0,0.1-0.1c0,0,0.1-0.1,0.2-0.1c0.2-0.1,0.5-0.1,0.8-0.2c0.3-0.1,0.7-0.1,1-0.1C455.8,333,456,333,456,333
		s0.2,0,0.5,0.1c0.3,0,0.6,0.1,1,0.1c0.3,0.1,0.6,0.1,0.8,0.2c0.1,0,0.2,0.1,0.2,0.1c0,0,0,0,0.1,0.1c0,0,0,0,0,0l0,0l0,0l0,0l0,0
		c1.1,0-9.5,0-5,0l0,0l0,0c0-0.2,0.4-0.3,1.1-0.4c0.3-0.1,0.7-0.1,0.9-0.1C455.8,333,456,333,456,333z"/>
</g>
<g>
	<path d="M471.1,334c0,0,0,0-0.1,0c-0.1,0-0.2-0.1-0.4-0.1c-0.1,0-0.1,0-0.2-0.1c-0.1-0.1-0.1-0.1-0.2-0.2c-0.1-0.1-0.1-0.2-0.1-0.4
		c0-0.1,0-0.2-0.1-0.4c0-0.3,0-0.5,0.2-0.8c0.1-0.3,0.3-0.5,0.5-0.7c0.4-0.4,0.9-0.6,1.4-0.6c0.5,0,1,0.2,1.4,0.6
		c0.2,0.2,0.4,0.4,0.5,0.7c0.1,0.3,0.2,0.5,0.2,0.8c0,0.3-0.1,0.5-0.2,0.7c-0.1,0.2-0.3,0.3-0.4,0.4c-0.1,0.1-0.3,0.1-0.4,0.1
		c-0.1,0-0.1,0-0.1,0s0,0-0.1,0c-0.1,0-0.2,0-0.4,0c-0.3,0-0.6,0.2-0.8,0.5c-0.2,0.3-0.1,0.7,0,1c0,0.1,0.1,0.2,0.2,0.3
		c0.1,0.1,0.1,0.1,0.2,0.1c0.1,0,0.1,0,0.2-0.1c0.1-0.1,0.1-0.2,0.2-0.3c0.1-0.2,0.1-0.6,0-1c-0.1-0.1-0.2-0.3-0.3-0.4
		c-0.1-0.1-0.1-0.1-0.2-0.1c-0.1,0-0.2,0-0.2,0c-0.1,0-0.3,0.1-0.4,0.1C471.1,334,471.1,334,471.1,334z"/>
</g>
<g>
	<path d="M473,354.3c0.4-0.1,0.7-0.2,1.1-0.3l1-0.4c0.3-0.2,0.6-0.3,0.9-0.5l0.9-0.5l0.8-0.6l0.7-0.6l0.7-0.6
		c0.2-0.2,0.4-0.5,0.6-0.7c0.2-0.2,0.4-0.5,0.6-0.7l0.5-0.7c0.1-0.3,0.3-0.5,0.4-0.8l0.4-0.8l0.3-0.8l0.2-0.8l0.2-0.8l0.1-0.8
		l1.4-13.9l3.5,13.5l0.4,1.5c0.1,0.5,0.2,1,0.2,1.5l0.1,1.5c0,0.5,0,1,0,1.5l-0.2,1.5l-0.3,1.5c-0.1,0.5-0.3,1-0.4,1.4l-0.6,1.4
		l-0.7,1.3l-0.8,1.2c-0.3,0.4-0.6,0.8-0.9,1.2c-0.3,0.4-0.7,0.7-1,1.1c-0.4,0.3-0.7,0.6-1.1,1c-0.4,0.3-0.8,0.6-1.2,0.8l-1.3,0.7
		c-0.4,0.2-0.9,0.4-1.3,0.5c0.3-0.4,0.5-0.8,0.8-1.1l0.7-1.1l0.6-1.1l0.6-1.1c0.2-0.4,0.3-0.8,0.5-1.1c0.1-0.4,0.3-0.8,0.4-1.1
		l0.4-1.2l0.3-1.2c0.1-0.4,0.2-0.8,0.2-1.2c0-0.4,0.1-0.8,0.2-1.2l0.1-1.2l0-1.2c0-0.4,0-0.8,0-1.1l-0.1-1.1
		c-0.1-0.4-0.1-0.7-0.2-1.1l-0.3-1.1l4.8-0.5l-0.2,1.3l-0.4,1.3l-0.5,1.2l-0.6,1.1l-0.7,1c-0.3,0.3-0.5,0.6-0.8,0.9l-0.9,0.8
		c-0.3,0.3-0.7,0.5-1,0.7c-0.4,0.2-0.7,0.4-1,0.6l-1.1,0.5c-0.4,0.1-0.8,0.3-1.1,0.4c-0.4,0.1-0.8,0.2-1.2,0.3
		c-0.4,0.1-0.8,0.1-1.2,0.1c-0.4,0-0.8,0-1.2,0c-0.4-0.1-0.8-0.1-1.2-0.2C473.7,354.5,473.3,354.4,473,354.3z"/>
</g>
<g>
	<path d="M477.4,378c0,0,0.2,2.4,0.6,6.5c0.2,2.1,0.4,4.6,0.6,7.4c0.3,2.9,0.6,6.1,0.9,9.6c0.4,3.5,0.8,7.3,1.2,11.3
		c0.5,4,0.9,8.2,1.4,12.6c0.5,4.4,1.1,8.9,1.7,13.5c0.6,4.6,1.2,9.2,1.9,13.9c0.6,4.7,1.3,9.3,2.1,13.8c0.8,4.5,1.7,8.9,2.9,13.1
		c0.6,2.1,1.2,4.1,1.8,6.1c0.3,1,0.7,2,1,2.9c0.4,1,0.7,2,1.1,2.8c1.5,3.6,3.1,7,4.9,10c1.8,3,3.6,5.6,5.3,7.9
		c1.7,2.2,3.4,4,4.9,5.5c1.5,1.4,2.7,2.5,3.5,3.2c0.9,0.7,1.3,1.1,1.3,1.1s-0.5-0.3-1.5-0.9c-0.5-0.3-1.1-0.6-1.7-1.1
		c-0.7-0.4-1.4-1-2.3-1.6c-1.7-1.3-3.6-2.9-5.7-5c-2.1-2.1-4.2-4.6-6.3-7.6c-2.1-3-4.1-6.3-5.9-10.1c-0.5-1-0.9-1.9-1.3-2.8
		c-0.4-1-0.8-2-1.2-3c-0.8-2-1.5-4.1-2.2-6.3c-1.3-4.3-2.5-8.8-3.4-13.4c-0.9-4.6-1.7-9.3-2.3-14c-0.6-4.7-1.2-9.4-1.7-14
		c-0.5-4.6-0.9-9.2-1.3-13.6c-0.4-4.4-0.6-8.7-0.8-12.8c-0.2-4.1-0.3-7.9-0.3-11.5c0-1.8,0-3.5,0-5.1c0-1.6,0-3.2,0.1-4.6
		c0.1-2.9,0.2-5.4,0.3-7.5c0.1-2.1,0.2-3.7,0.3-4.8C477.4,378.6,477.4,378,477.4,378z"/>
</g>
<g>
	<path d="M488.4,478.9c0,0,0.1,0.9,0.1,2.4c0,0.8,0,1.7,0,2.7c0,1.1-0.1,2.2-0.2,3.5c-0.1,1.3-0.3,2.7-0.5,4.2
		c-0.2,1.5-0.5,3-0.8,4.6c-0.3,1.6-0.7,3.2-1.1,4.9c-0.4,1.6-0.9,3.3-1.4,4.9c-0.6,1.6-1.1,3.3-1.7,4.8c-0.6,1.6-1.3,3.1-1.9,4.6
		c-0.7,1.5-1.4,2.9-2.1,4.2c-0.7,1.3-1.4,2.5-2.1,3.6c-1.3,2.2-2.6,4-3.5,5.2c-0.9,1.2-1.5,1.9-1.5,1.9s0.2-0.9,0.6-2.3
		c0.2-0.7,0.5-1.6,0.8-2.6c0.3-1,0.7-2.1,1-3.3c0.8-2.4,1.7-5.2,2.7-8.2c1-3,2-6.2,3.1-9.3c1-3.2,2.1-6.4,3-9.4c1-3,1.9-5.8,2.7-8.2
		c0.4-1.2,0.8-2.3,1.1-3.3c0.3-1,0.7-1.8,0.9-2.6C488,479.7,488.4,478.9,488.4,478.9z"/>
</g>
<g>
	<path d="M481.3,438.1c-0.3-1-0.5-2-0.8-3c-0.2-1-0.3-2.1-0.4-3.1c-0.1-1-0.1-2.1-0.1-3.1c0.1-1,0.1-2.1,0.2-3.1
		c0.1-1,0.3-2.1,0.5-3.1c0.2-1,0.4-2,0.7-3c0.3-1,0.6-2,0.9-3c0.4-1,0.7-2,1.1-2.9c0.4-0.9,0.8-1.9,1.2-2.8c0.4-0.9,0.9-1.8,1.4-2.8
		c0.5-0.9,1-1.8,1.5-2.7c0.5-0.9,1.1-1.7,1.6-2.6l1.7-2.5l1.8-2.5c1.2-1.6,2.5-3.2,3.8-4.8l7.3-8.7l-5.2,9.7c-0.5,1-1.1,2-1.6,3
		c-0.6,1-1.1,2-1.8,2.9c0.1-1.1,0.3-2.3,0.5-3.4c0.2-1.1,0.4-2.2,0.6-3.3l2.2,1.1c-0.8,1.8-1.7,3.6-2.6,5.4
		c-0.9,1.8-1.8,3.6-2.7,5.3l-2.6,5.3c-0.9,1.8-1.7,3.5-2.5,5.3c-0.4,0.9-0.8,1.8-1.2,2.7c-0.4,0.9-0.7,1.8-1.1,2.7
		c-0.4,0.9-0.6,1.8-1,2.7l-0.9,2.8l-0.8,2.8c-0.2,0.9-0.4,1.9-0.7,2.9c-0.2,1-0.3,1.9-0.6,2.9C481.6,436.1,481.4,437.1,481.3,438.1z
		"/>
</g>
<g>
	<path d="M480,430c0,0-0.3-0.4-0.9-1.3c-0.2-0.4-0.6-0.9-1-1.4c-0.3-0.5-0.8-1.1-1.2-1.7c-0.4-0.6-1-1.2-1.5-1.9
		c-0.6-0.6-1.1-1.3-1.8-2c-0.6-0.7-1.3-1.3-2-2c-0.3-0.3-0.7-0.6-1-1l-1.1-0.9c-0.7-0.6-1.5-1.2-2.2-1.7c-0.7-0.6-1.5-1.1-2.3-1.6
		c-0.4-0.2-0.8-0.5-1.1-0.7c-0.4-0.2-0.8-0.4-1.1-0.6c-0.4-0.2-0.7-0.4-1.1-0.6c-0.4-0.2-0.7-0.4-1-0.5c-0.7-0.3-1.4-0.6-1.8-0.9
		c-0.5-0.2-0.7-0.2-0.9-0.3c-0.2,0.1-0.2,0.5-0.1,0.6c0.1,0.2,0.3,0.1,0.3,0.1c0,0-0.1,0.2-0.4,0.2c-0.2,0-0.4-0.1-0.5-0.3
		c-0.2-0.2-0.3-0.5-0.2-0.9c0.2-0.9,1.3-1.3,2-1.3c0.8-0.1,1.5,0,2.4,0c0.8,0.1,1.8,0.2,2.7,0.4c0.5,0.1,1,0.2,1.5,0.4
		c0.5,0.2,1,0.3,1.5,0.5c0.5,0.2,1,0.4,1.5,0.7l0.7,0.4l0.7,0.4c1,0.5,1.9,1.3,2.8,2l1.3,1.1c0.4,0.4,0.8,0.8,1.2,1.2
		c0.4,0.4,0.7,0.9,1,1.3c0.3,0.4,0.7,0.9,0.9,1.3c0.6,0.9,1,1.8,1.4,2.7c0.4,0.9,0.7,1.8,0.9,2.6c0.2,0.8,0.4,1.6,0.4,2.3
		c0.1,0.7,0.1,1.3,0.1,1.8C480.1,429.4,480,430,480,430z"/>
</g>
<g>
	<path d="M85,105c0,0,0-0.2,0-0.5c0-0.3,0.1-0.6,0.1-0.9c0.1-0.6,0.2-1.1,0.3-1.1c0.1,0,0.2,0.4,0.3,1.1c0,0.3,0.1,0.7,0.1,1
		c0,0.3,0,0.5,0,0.5s0,0.2,0,0.5c0,0.3-0.1,0.6-0.1,1c-0.1,0.6-0.2,1.1-0.3,1.1c-0.1,0-0.2-0.4-0.3-1.1c0-0.3-0.1-0.7-0.1-0.9
		C85,105.2,85,105,85,105z"/>
</g>
<g>
	<path d="M112.9,100.9c0,0,0,0-0.1-0.1c-0.1-0.1-0.2-0.1-0.3-0.2c-0.2-0.2-0.5-0.4-0.7-0.7c-0.5-0.5-0.7-0.9-0.6-1.2
		c0.1-0.3,0.6-0.3,1.3-0.2c0.3,0.1,0.7,0.1,1,0.2c0.2,0,0.3,0.1,0.4,0.1c0.1,0,0.1,0,0.1,0s0,0,0.1,0.1c0.1,0.1,0.2,0.1,0.3,0.2
		c0.2,0.2,0.5,0.4,0.7,0.7c0.5,0.5,0.7,0.9,0.6,1.2c-0.1,0.3-0.6,0.3-1.3,0.2c-0.3-0.1-0.7-0.1-1-0.2c-0.2,0-0.3-0.1-0.4-0.1
		C112.9,101,112.9,100.9,112.9,100.9z"/>
</g>
<g>
	<path d="M83,126c0,0,0.1,0.2,0.4,0.5c0.2,0.4,0.6,0.9,1.1,1.5c0.5,0.6,1.1,1.3,1.9,2.1c0.4,0.4,0.8,0.7,1.3,1.1
		c0.5,0.4,0.9,0.8,1.5,1.1c0.5,0.4,1.1,0.8,1.7,1.1c0.3,0.2,0.6,0.4,0.9,0.5c0.3,0.2,0.6,0.3,1,0.5c1.3,0.6,2.7,1.2,4.2,1.6
		c0.7,0.2,1.5,0.4,2.3,0.6c0.8,0.1,1.6,0.3,2.4,0.4c1.6,0.2,3.2,0.3,4.9,0.1l0.7,0c0.2,0,0.4-0.1,0.6-0.1l1.1-0.2
		c0.8-0.2,1.6-0.3,2.4-0.6c0.8-0.2,1.5-0.5,2.3-0.7c0.7-0.3,1.5-0.6,2.2-0.9c1.4-0.7,2.7-1.5,4-2.3c1.2-0.8,2.4-1.7,3.4-2.5
		c1-0.8,1.9-1.7,2.7-2.4c0.4-0.4,0.7-0.8,1.1-1.1c0.3-0.4,0.6-0.7,0.9-1c0.6-0.6,1-1.1,1.2-1.4c0.3-0.3,0.5-0.5,0.5-0.5
		s-0.1,0.2-0.2,0.6c-0.2,0.4-0.3,1-0.7,1.8c-0.2,0.4-0.3,0.8-0.5,1.3c-0.2,0.4-0.5,0.9-0.7,1.4c-0.6,1-1.3,2.1-2.1,3.3
		c-0.4,0.6-0.9,1.1-1.4,1.7c-0.5,0.6-1.1,1.2-1.7,1.7c-1.2,1.1-2.6,2.3-4.2,3.2c-1.6,1-3.3,1.8-5.2,2.4c-0.9,0.3-1.9,0.6-2.9,0.8
		l-1.6,0.2c-0.3,0-0.5,0.1-0.8,0.1l-0.7,0c-2,0.2-4,0-5.9-0.3c-1.9-0.3-3.8-0.9-5.5-1.6c-1.7-0.7-3.3-1.6-4.7-2.6
		c-1.4-1-2.5-2.1-3.5-3.2c-0.5-0.5-0.9-1.1-1.3-1.6c-0.4-0.6-0.7-1.1-1-1.6c-0.6-1-1-2-1.2-2.8c-0.3-0.8-0.4-1.4-0.5-1.8
		C83,126.2,83,126,83,126z"/>
</g>
<g>
	<path class="st1" d="M476.6,67.4c0,0-0.3-0.1-0.8-0.3c-0.3-0.1-0.6-0.2-1-0.4c-0.4-0.1-0.8-0.2-1.3-0.4c-2-0.5-5.1-1.1-9-0.6
		c-3.9,0.4-8.5,1.8-13,4.7c-0.5,0.4-1.1,0.8-1.7,1.2c-0.5,0.4-1.1,0.9-1.6,1.3c-1.1,1-2.1,1.9-3.1,3.1c-2,2.2-3.8,4.8-5.4,7.7
		c-1.6,2.9-2.8,6.1-3.9,9.5c-0.5,1.7-0.9,3.5-1.3,5.2c-0.2,0.9-0.3,1.9-0.5,2.8c-0.1,0.9-0.2,1.8-0.4,2.7
		c-0.9,7.5-0.4,15.5,1.8,23.4c1.1,3.9,2.6,7.8,4.7,11.4l0.8,1.3l0.4,0.6l0.5,0.7c0.6,0.9,1.2,1.8,1.9,2.6l0.9,1.2l1,1.2
		c0.7,0.8,1.4,1.6,2.2,2.3c3,3,6.4,5.6,10.1,7.7c3.7,2.1,7.7,3.7,11.9,4.5c1,0.2,2.1,0.4,3.1,0.5c0.5,0.1,1.1,0.1,1.6,0.2l1.6,0.1
		l0.8,0l0.1,0c0.1,0-0.1,0,0,0l0.2,0l0.4,0l1.7-0.1l0.8,0c0.3,0,0.5-0.1,0.8-0.1l1.5-0.2c4.1-0.6,8.2-1.9,12-3.8
		c7.5-3.8,13.7-9.8,17.5-16.9c0.9-1.8,1.7-3.6,2.3-5.4l0.2-0.7c0-0.1,0,0,0,0l0-0.1l0.1-0.2l0.1-0.4l0.4-1.5c0.3-1,0.4-1.9,0.6-2.8
		c0.7-3.8,0.8-7.7,0.4-11.4c-0.7-7.4-3-14.3-6.2-20.1c-1.6-2.9-3.4-5.6-5.2-8c-1.8-2.4-3.7-4.6-5.6-6.6c-3.8-3.9-7.5-7-10.6-9.3
		c-3.2-2.3-5.7-4.1-7.5-5.2c-1.8-1.1-2.8-1.7-2.8-1.7s1,0.5,2.9,1.5c1.9,1,4.6,2.5,8,4.6c3.3,2.2,7.3,5,11.4,8.8
		c2,1.9,4.1,4,6.2,6.4c2,2.4,4,5.1,5.8,8.1c3.6,6,6.4,13.1,7.4,21.2c0.5,4,0.5,8.2-0.1,12.4c-0.2,1.1-0.4,2.2-0.6,3.2l-0.4,1.5
		l-0.1,0.4l0,0.2l0,0.1l0,0.2l-0.3,0.8c-0.7,2.1-1.5,4.2-2.5,6.2c-4.1,8-10.8,14.9-19.2,19.1c-4.2,2.1-8.7,3.7-13.5,4.4l-1.8,0.2
		c-0.3,0-0.6,0.1-0.9,0.1l-0.8,0l-1.7,0.1l-0.4,0l-0.2,0c0,0-0.3,0-0.2,0l-0.1,0l-0.9,0l-1.8-0.1c-0.6,0-1.2-0.1-1.8-0.2
		c-1.2-0.1-2.4-0.3-3.5-0.6c-4.7-1-9.2-2.8-13.3-5.1c-4.1-2.3-7.9-5.2-11.2-8.6c-0.8-0.8-1.6-1.7-2.4-2.6l-1.1-1.3
		c-0.4-0.5-0.7-0.9-1.1-1.4c-0.7-1-1.3-1.9-1.9-2.8l-0.4-0.7l-0.5-0.8l-0.8-1.5c-2.2-4-3.8-8.2-4.9-12.5c-2.2-8.5-2.4-17.1-1.3-25
		c0.2-1,0.3-2,0.5-3c0.2-0.9,0.4-1.9,0.6-2.8c0.5-2,1-3.7,1.6-5.5c1.2-3.5,2.7-6.9,4.5-9.9c1.8-3,3.8-5.7,6.1-7.9
		c1.1-1.1,2.4-2.2,3.5-3.1c0.6-0.5,1.2-0.9,1.8-1.3c0.6-0.4,1.2-0.8,1.8-1.1c4.9-2.8,9.9-3.9,13.9-4c4-0.2,7.1,0.7,9.1,1.4
		c0.5,0.2,0.9,0.4,1.3,0.5c0.4,0.2,0.7,0.3,0.9,0.4C476.3,67.3,476.6,67.4,476.6,67.4z"/>
</g>
<g>
	<path class="st1" d="M420,34c0,0,0.4,0.3,1,0.8c0.6,0.5,1.4,1.3,2.4,2.2c0.9,1,1.9,2.1,2.9,3.4c1,1.3,1.9,2.7,2.8,4.1
		c1.8,2.9,3.3,6,4.2,8.5c0.5,1.2,0.8,2.3,0.9,3.1c0.2,0.8,0.3,1.3,0.3,1.3s-0.4-0.2-1.1-0.7c-0.7-0.5-1.6-1.2-2.5-2.1
		c-1-0.9-2-2-3.1-3.3c-0.5-0.6-1-1.3-1.5-2c-0.5-0.7-1-1.4-1.4-2.2c-0.4-0.7-0.9-1.5-1.3-2.2c-0.4-0.7-0.8-1.5-1.1-2.3
		c-0.7-1.5-1.2-2.9-1.6-4.2c-0.4-1.3-0.6-2.4-0.7-3.2C420,34.5,420,34,420,34z"/>
</g>
<g>
	<path class="st1" d="M385.9,82.6c0,0,0.6-0.1,1.5-0.2c0.5,0,1.1-0.1,1.7-0.1c0.7,0,1.4-0.1,2.2-0.1c3.2-0.1,7.3,0,11.5,0.3
		c4.1,0.3,8.3,0.6,11.4,1.1c0.8,0.1,1.5,0.2,2.2,0.4c0.3,0.2,0.8,0,1.1-0.1c0.3-0.2,0.6-0.4,0.5-0.5c-0.1-0.2-0.3-0.2-0.2-0.2
		c0,0,0,0,0.1,0c0.1,0,0.2,0,0.3,0.1c0.2,0.1,0.3,0.4,0.3,0.6c0,0.3-0.1,0.5-0.2,0.8c-0.3,0.5-0.7,1.2-1.7,1.4
		c-0.6,0.2-1.4,0.4-2.2,0.6c-1.6,0.4-3.5,0.7-5.5,0.9c-1,0.1-2.1,0.2-3.1,0.2c-1.1,0-2.1,0-3.2-0.1c-1.1-0.1-2.2-0.2-3.2-0.3
		c-1.1-0.1-2.1-0.3-3.1-0.5c-2-0.4-3.8-1-5.4-1.5C387.8,83.9,385.9,82.6,385.9,82.6z"/>
</g>
<g>
	<path class="st1" d="M397,152c0,0,0.1-0.5,0.5-1.3c0.3-0.8,0.9-1.9,1.6-3.2c0.8-1.3,1.8-2.6,2.9-4c0.6-0.7,1.2-1.4,1.9-2
		c0.7-0.7,1.4-1.3,2.1-1.9c0.8-0.6,1.5-1.2,2.3-1.7c0.8-0.6,1.6-1,2.4-1.5c1.6-0.9,3.1-1.6,4.5-2.1c2.8-1,4.8-1.2,4.8-1.2
		s-0.3,0.4-0.9,1.1c-0.6,0.7-1.4,1.5-2.4,2.5c-0.5,0.5-1.1,1-1.6,1.6c-0.6,0.5-1.2,1.1-1.8,1.7c-0.6,0.6-1.3,1.2-2,1.7
		c-0.7,0.6-1.4,1.2-2.1,1.7c-0.7,0.6-1.4,1.1-2.1,1.7c-0.7,0.6-1.4,1.1-2.1,1.6c-1.4,1-2.7,2-3.9,2.8c-1.2,0.8-2.2,1.4-3,1.8
		C397.4,151.8,397,152,397,152z"/>
</g>
<g>
	<path class="st1" d="M471.3,26c0,0,0.2,0.4,0.6,1.1c0.3,0.7,0.7,1.7,1.1,2.9c0.4,1.2,0.8,2.6,1.1,4.1c0.3,1.5,0.6,3.1,0.7,4.7
		c0.3,3.2,0.4,6.5,0.1,9c-0.1,1.2-0.3,2.3-0.5,3.1c-0.2,0.7-0.3,1.2-0.3,1.2s-0.3-0.4-0.7-1c-0.4-0.7-0.9-1.6-1.4-2.8
		c-0.5-1.2-1-2.6-1.3-4.1c-0.2-0.8-0.4-1.5-0.5-2.3c-0.2-0.8-0.2-1.6-0.3-2.4c-0.1-0.8-0.2-1.6-0.2-2.5c0-0.8,0-1.6,0-2.4
		c0.1-1.6,0.2-3,0.4-4.3c0.2-1.2,0.5-2.3,0.8-3C471.1,26.5,471.3,26,471.3,26z"/>
</g>
<g>
	<path class="st1" d="M510.2,77.7c0,0,0,0,0.1,0c0.1,0,0.2,0.3,0.1,0.4c-0.1,0.2-0.2,0.4-0.6,0.5c-0.2,0.1-0.5,0-0.7-0.3
		c0,0,0,0-0.1-0.1c0-0.1-0.1-0.1-0.1-0.2c0-0.1-0.1-0.2-0.1-0.4c-0.1-1,0.6-1.8,1-2.4c0.5-0.7,1-1.5,1.7-2.4
		c1.3-1.7,2.9-3.6,4.8-5.5c1.9-1.9,4-3.8,6.3-5.5c2.3-1.7,4.6-3.3,6.9-4.7c2.3-1.3,4.6-2.4,6.5-3.2c2-0.8,3.7-1.4,4.9-1.7
		c1.2-0.3,1.9-0.5,1.9-0.5s-0.5,0.5-1.5,1.3c-0.5,0.4-1,0.9-1.7,1.5c-0.7,0.5-1.4,1.2-2.2,1.8c-0.8,0.7-1.7,1.4-2.6,2.1
		c-0.9,0.7-1.9,1.5-2.9,2.3c-2,1.6-4.2,3.3-6.4,4.9c-2.2,1.7-4.4,3.3-6.4,4.9c-2,1.6-4,3-5.7,4.2c-0.9,0.6-1.6,1.2-2.3,1.7
		c-0.3,0.2-0.6,0.4-0.9,0.6c-0.2,0.2-0.4,0.4-0.5,0.5c0,0,0,0.1,0,0.1c0,0,0,0,0,0c0,0,0,0.1,0,0.1c0,0-0.1,0-0.1,0.1
		c0.1,0.1,0.3,0,0.4-0.1C510.5,77.8,510.2,77.7,510.2,77.7z"/>
</g>
<g>
	<path class="st1" d="M528,106.1c0,0,0.5-0.1,1.5-0.1c0.9,0,2.2,0,3.8,0.1c1.5,0.1,3.3,0.4,5.1,0.8c0.9,0.2,1.9,0.4,2.8,0.7
		c1,0.3,1.9,0.6,2.9,0.9c0.9,0.4,1.9,0.7,2.8,1.1c0.9,0.4,1.8,0.8,2.7,1.2c1.7,0.9,3.2,1.8,4.5,2.6c1.3,0.9,2.3,1.7,3,2.3
		c0.7,0.6,1.1,1,1.1,1s-0.5,0-1.5-0.1c-0.9-0.1-2.2-0.2-3.7-0.5c-3-0.5-6.8-1.6-10.6-2.9c-1.9-0.7-3.7-1.4-5.4-2.2
		c-1.7-0.8-3.3-1.5-4.6-2.3c-1.3-0.7-2.4-1.4-3.2-1.9C528.4,106.4,528,106.1,528,106.1z"/>
</g>
<g>
	<path class="st1" d="M516.6,156.6c0,0,0.5,0.4,1.4,1.1c0.8,0.7,2,1.8,3.3,3.1c1.3,1.4,2.7,3,4.1,4.8c0.7,0.9,1.4,1.9,2.1,2.9
		c0.7,1,1.4,2,2,3.1c0.6,1,1.3,2.1,1.9,3.1c0.6,1,1.1,2.1,1.7,3.1c1,2.1,1.9,4,2.5,5.8c0.3,0.9,0.6,1.6,0.9,2.4
		c0.1,0.4,0.2,0.9,0.2,1.4c-0.1,0.5-0.2,0.9-0.6,1.2c-0.5,0.3-0.8,0.2-1.1,0.1c-0.2-0.1-0.4-0.3-0.5-0.5c-0.1-0.4,0.1-0.5,0.1-0.5
		c0,0-0.1,0.2,0.1,0.3c0.1,0.1,0.2,0.1,0.4,0.1c0.1,0,0.3-0.2,0.3-0.2c0-0.2-0.2-0.5-0.6-1c-0.5-0.5-1.1-1.2-1.6-1.9
		c-2.4-2.8-5.2-6.8-7.8-10.9c-2.6-4.1-4.9-8.4-6.4-11.8c-0.8-1.7-1.3-3.1-1.7-4.2C516.7,157.3,516.6,156.6,516.6,156.6z"/>
</g>
<g>
	<path class="st1" d="M473.4,176.2c1.3,2.5,2.1,5.1,2.7,7.7c0.6,2.6,1,5.3,1.2,7.9c0.2,2.7,0.3,5.3,0.2,8c-0.1,2.7-0.5,5.3-1.1,8
		l-1.5-0.2c0.5-0.7,1-1.3,1.5-2c0,0.8,0,1.7-0.1,2.5l-0.3,3.8l-1.2-4c-0.4-1.3-0.7-2.6-1-3.9c-0.3-1.3-0.5-2.6-0.7-3.9
		c-0.2-1.3-0.4-2.6-0.5-3.9c-0.1-1.3-0.2-2.6-0.3-3.9c-0.1-1.3-0.1-2.6-0.1-3.9c0-1.3,0-2.6,0.1-4c0.1-1.3,0.2-2.7,0.3-4
		c0.1-0.7,0.2-1.3,0.3-2C473.1,177.6,473.2,176.9,473.4,176.2z"/>
</g>
<g>
	<path class="st1" d="M444.2,168c-0.3,1.3-0.7,2.5-1.1,3.7c-0.5,1.2-1,2.3-1.5,3.4c-0.6,1.1-1.1,2.2-1.8,3.2c-0.6,1.1-1.3,2.1-2,3.1
		c-0.7,1-1.4,2-2.2,3c-0.8,1-1.5,1.9-2.4,2.8c-1.7,1.8-3.5,3.6-5.5,5.1l-0.7-0.7c0.4-0.1,0.9-0.2,1.3-0.3c-0.2,0.4-0.5,0.8-0.8,1.1
		l-1.4,1.8l0.7-2.4c0.7-2.5,1.8-4.8,2.9-6.9c0.6-1.1,1.2-2.2,1.8-3.2c0.6-1,1.3-2.1,2-3c0.7-1,1.5-2,2.2-2.9c0.8-1,1.6-1.9,2.4-2.8
		c0.9-0.9,1.8-1.8,2.7-2.6C442.1,169.5,443,168.7,444.2,168z"/>
</g>
<g>
	<path class="st2" d="M33.7,514.5c0.9,1.2,1.8,2.5,2.7,3.7c0.9,1.2,1.7,2.5,2.6,3.8c0.9,1.3,1.7,2.5,2.5,3.8
		c0.8,1.3,1.7,2.5,2.5,3.8c3.2,5.1,6.3,10.3,9.3,15.6c3,5.2,6,10.5,8.8,15.9c1.4,2.7,2.8,5.4,4.2,8.1l2,4.1c0.7,1.4,1.3,2.7,2,4.1
		l-1.7,0.9c-0.5-1.1-0.9-2.3-1.3-3.5c-0.4-1.2-0.8-2.3-1.2-3.5c0.7,1,1.5,2,2.1,3.1c0.7,1,1.4,2.1,2.1,3.1l-1.7,0.9
		c-0.9-1.2-1.8-2.4-2.7-3.7l-2.6-3.7c-1.7-2.5-3.4-5-5-7.6c-1.6-2.6-3.2-5.2-4.8-7.8c-1.5-2.6-3.1-5.3-4.5-7.9
		c-1.5-2.7-2.9-5.3-4.3-8.1c-1.4-2.7-2.7-5.4-4-8.2c-0.6-1.4-1.3-2.8-1.9-4.2c-0.6-1.4-1.2-2.8-1.8-4.2c-0.6-1.4-1.2-2.8-1.7-4.3
		C34.7,517.4,34.2,516,33.7,514.5z"/>
</g>
<g>
	<path class="st2" d="M102.7,507.4c0.3,1.7,0.6,3.5,0.9,5.2c0.3,1.7,0.5,3.4,0.8,5.2c0.3,1.7,0.5,3.4,0.7,5.2
		c0.3,1.7,0.5,3.4,0.8,5.1l3,20.5l1.6,10.2l1.6,10.2l1.7,10.3c0.5,3.4,1.1,6.9,1.6,10.3l-1.6-0.1c0.6-1,1.2-2,1.7-3
		c0.6-1,1.2-2,1.8-3c-0.3,1.1-0.6,2.2-1,3.4c-0.4,1.1-0.7,2.2-1.1,3.3l-0.7,2.3l-0.8-2.4l-1.7-5l-1.6-5l-1.4-5.1l-1.3-5.1
		c-0.8-3.4-1.5-6.8-2.2-10.3l-0.9-5.2l-0.8-5.2l-0.6-5.2l-0.5-5.2l-0.4-5.2l-0.2-5.2c0-1.7-0.1-3.5-0.1-5.2c0-1.8,0-3.5,0-5.2
		c0.1-1.8,0.1-3.5,0.2-5.3C102.3,510.9,102.5,509.2,102.7,507.4z"/>
</g>
<g>
	<path class="st2" d="M148.9,523.4c1,5.7,1.6,11.5,2,17.2c0.4,5.8,0.5,11.5,0.4,17.3c0,2.9-0.1,5.8-0.3,8.6
		c-0.1,2.9-0.3,5.8-0.6,8.6c-0.3,2.9-0.5,5.7-0.9,8.6c-0.4,2.9-0.8,5.7-1.3,8.6l-3-0.4l0.8-3.4l0.9-3.4c0.3-1.1,0.6-2.3,0.9-3.4
		c0.3-1.1,0.7-2.3,1-3.4c0,1.2,0,2.4,0,3.5c0,1.2-0.1,2.4-0.1,3.5l-0.2,3.5l-0.3,3.5l-3-0.4c0-2.9,0.1-5.7,0.2-8.6
		c0.1-2.9,0.2-5.7,0.3-8.6l0.3-8.6l0.2-4.3c0.1-1.4,0.1-2.9,0.2-4.3c0.1-1.4,0.1-2.9,0.2-4.3c0.1-1.4,0.1-2.9,0.2-4.3
		c0.1-1.4,0.1-2.9,0.2-4.3l0.3-4.3l0.3-4.3c0.1-1.4,0.2-2.9,0.3-4.3c0.1-1.4,0.2-2.9,0.4-4.3C148.6,526.3,148.8,524.9,148.9,523.4z"
		/>
</g>
<g>
	<path class="st2" d="M173.5,533c1.2,0.6,2.4,1.3,3.5,1.9c1.2,0.7,2.3,1.4,3.4,2c2.3,1.4,4.5,2.8,6.7,4.3c2.2,1.5,4.4,3,6.5,4.5
		c2.2,1.5,4.3,3.1,6.4,4.7c2.1,1.6,4.2,3.2,6.3,4.9c2.1,1.7,4.1,3.3,6.2,5c2,1.7,4,3.4,6,5.2c2,1.8,3.9,3.6,5.8,5.4l-1.7,1.1
		c-0.1-1.3-0.3-2.6-0.4-3.9c-0.1-1.3-0.2-2.6-0.3-3.9c0.5,1.2,1,2.4,1.5,3.6c0.5,1.2,0.9,2.4,1.3,3.6l1,2.8l-2.7-1.6
		c-2.3-1.4-4.5-2.8-6.7-4.3c-2.2-1.5-4.4-3-6.6-4.5c-2.2-1.5-4.3-3.1-6.4-4.7c-2.1-1.6-4.2-3.2-6.3-4.9c-2.1-1.7-4.1-3.3-6.2-5
		c-2-1.7-4-3.4-6-5.2c-2-1.8-3.9-3.6-5.8-5.4c-0.9-0.9-1.9-1.8-2.8-2.8C175.4,535,174.4,534,173.5,533z"/>
</g>
<g>
	<path class="st2" d="M246.5,518.6c-0.4,3.1-1,6.1-1.6,9.1c-0.3,1.5-0.7,3-1,4.5c-0.3,1.5-0.7,3-1.1,4.5c-0.7,3-1.6,6-2.4,8.9
		l-1.3,4.4l-1.4,4.4l-1.5,4.4l-1.5,4.3c-1.1,2.9-2.1,5.8-3.3,8.6c-1.2,2.9-2.3,5.7-3.6,8.5c-0.6,1.4-1.3,2.8-1.9,4.2
		c-0.7,1.4-1.3,2.8-2,4.2l-1.8-1.3c1.2-0.8,2.3-1.8,3.3-3c0.5-0.6,0.9-1.2,1.4-1.9c0.4-0.7,0.8-1.4,1.1-2.1
		c-0.2,1.6-0.7,3.2-1.4,4.7c-0.7,1.5-1.8,2.8-3,4l-2.8,2.8l1.1-4.1c0.4-1.5,0.9-2.9,1.3-4.4c0.4-1.5,0.9-2.9,1.3-4.4
		c0.9-2.9,1.8-5.8,2.8-8.8c1.9-5.8,3.9-11.6,5.9-17.4l3.1-8.6c1.1-2.9,2.1-5.7,3.2-8.6c0.5-1.4,1.1-2.9,1.7-4.3
		c0.6-1.4,1.1-2.9,1.7-4.3c0.6-1.4,1.2-2.8,1.8-4.3C245.2,521.4,245.8,520,246.5,518.6z"/>
</g>
<g>
	<path class="st2" d="M200.8,547.3c0,0,0,0.8-0.2,2.2c-0.1,0.7-0.2,1.5-0.4,2.5c-0.2,1-0.3,2-0.6,3.2c-0.5,2.3-1.2,5-2.1,7.9
		c-0.4,1.4-0.9,2.9-1.5,4.3c-0.5,1.5-1.1,2.9-1.7,4.4c-0.6,1.5-1.2,2.9-1.9,4.3c-0.6,1.4-1.3,2.8-2,4.1c-1.4,2.6-2.8,5-4.1,7
		c-2.6,4-4.7,6.5-4.7,6.5s0.2-0.8,0.5-2.2c0.3-1.4,0.9-3.3,1.6-5.5c0.7-2.3,1.6-4.9,2.6-7.6c1-2.8,2.1-5.7,3.3-8.5
		c0.6-1.4,1.2-2.9,1.8-4.3c0.6-1.4,1.2-2.8,1.8-4.1c1.2-2.7,2.4-5.1,3.5-7.3c1.1-2.1,2-3.8,2.7-5.1
		C200.3,548,200.8,547.3,200.8,547.3z"/>
</g>
<g>
	<path class="st2" d="M260.1,533.3c1.9,1.1,3.7,2.4,5.5,3.6c1.8,1.2,3.5,2.5,5.3,3.9c3.5,2.6,6.8,5.4,10.1,8.2
		c1.7,1.4,3.3,2.8,4.9,4.2c1.6,1.4,3.2,2.9,4.8,4.3c1.6,1.5,3.2,3,4.7,4.5c1.6,1.5,3.1,3,4.6,4.6l-2.5,1.5c-0.2-1.8-0.3-3.5-0.4-5.3
		c-0.1-0.9-0.1-1.8-0.1-2.7c0-0.9,0-1.8,0-2.7c0.4,0.8,0.7,1.7,1,2.5c0.3,0.8,0.6,1.7,0.9,2.5c0.6,1.7,1.2,3.4,1.7,5.1l1.2,4
		l-3.7-2.5c-3.6-2.5-7.1-5.1-10.5-7.8c-3.4-2.7-6.7-5.6-9.9-8.5c-3.2-3-6.3-6-9.3-9.2c-1.5-1.6-2.9-3.2-4.3-4.9
		C262.8,536.8,261.4,535.1,260.1,533.3z"/>
</g>
<g>
	<path class="st2" d="M303.2,521.4c0.2,1.4,0.4,2.8,0.6,4.3c0.1,1.4,0.2,2.8,0.3,4.3c0.1,1.4,0.1,2.9,0.1,4.3l0,4.3l-0.2,4.3
		l-0.3,4.3c-0.1,1.4-0.3,2.8-0.5,4.3c-0.2,1.4-0.4,2.8-0.6,4.2c-0.2,1.4-0.5,2.8-0.8,4.2c-0.3,1.4-0.6,2.8-0.9,4.2
		c-0.3,1.4-0.7,2.8-1,4.2c-0.4,1.4-0.8,2.7-1.2,4.1l-1.3,4.1c-0.5,1.3-1,2.7-1.5,4c-0.5,1.3-1.1,2.6-1.7,4c-0.6,1.3-1.2,2.6-1.8,3.9
		l-1,1.9l-0.2-2c-0.1-1.2-0.2-2.5-0.2-3.7c0.5,1.2,0.9,2.3,1.4,3.5l-1.1-0.1c0.2-1.4,0.5-2.8,0.8-4.2c0.2-1.4,0.5-2.8,0.8-4.2
		l1.6-8.3l1.6-8.2l1.5-8.2l1.4-8.3l1.3-8.3l0.7-4.2c0.2-1.4,0.4-2.8,0.7-4.2c0.2-1.4,0.4-2.8,0.7-4.2
		C302.6,524.2,302.9,522.8,303.2,521.4z"/>
</g>
<g>
	<path class="st2" d="M333.9,549.7c0,0,0.7,0.1,1.9,0.3c1.2,0.2,2.9,0.5,4.9,1c2,0.5,4.3,1.2,6.7,2c1.2,0.4,2.5,0.8,3.7,1.3
		c1.3,0.5,2.5,1,3.8,1.5c1.2,0.5,2.5,1.1,3.7,1.6c1.2,0.6,2.4,1.1,3.5,1.7c2.3,1.2,4.4,2.3,6.1,3.4c1.8,1.1,3.2,2.1,4.2,2.8
		c1,0.7,1.5,1.2,1.5,1.2s-0.7-0.1-1.9-0.3c-1.2-0.2-2.9-0.5-4.9-1c-2-0.5-4.3-1.2-6.7-2c-1.2-0.4-2.5-0.8-3.7-1.3
		c-1.3-0.5-2.5-1-3.8-1.5c-1.2-0.5-2.5-1.1-3.7-1.6c-1.2-0.6-2.4-1.1-3.5-1.7c-2.3-1.2-4.4-2.3-6.1-3.4c-1.8-1.1-3.2-2.1-4.2-2.8
		C334.4,550.1,333.9,549.7,333.9,549.7z"/>
</g>
<g>
	<path class="st2" d="M356.6,535.3c0,0,0,0.9-0.1,2.4c0,0.7-0.1,1.7-0.2,2.7c-0.1,1-0.2,2.2-0.4,3.5c-0.3,2.5-0.8,5.5-1.5,8.6
		c-0.4,1.5-0.7,3.1-1.2,4.8c-0.4,1.6-0.9,3.2-1.4,4.9c-0.5,1.6-1,3.2-1.6,4.8c-0.5,1.6-1.2,3.1-1.7,4.6c-1.2,2.9-2.4,5.6-3.6,7.9
		c-2.3,4.5-4.3,7.4-4.3,7.4s0.1-0.9,0.4-2.3c0.3-1.5,0.7-3.6,1.2-6c0.6-2.5,1.3-5.3,2.1-8.3c0.8-3,1.8-6.2,2.8-9.4
		c0.5-1.6,1-3.2,1.5-4.7c0.5-1.6,1-3.1,1.6-4.6c1-3,2.1-5.7,3-8.1c0.9-2.4,1.8-4.3,2.4-5.7C356.2,536.1,356.6,535.3,356.6,535.3z"/>
</g>
<g>
	<path class="st2" d="M311.3,559.8c0,0,1,0.2,2.6,0.7c1.7,0.4,4,1.1,6.8,1.9c1.4,0.4,2.9,0.9,4.5,1.4c1.6,0.5,3.2,1,4.9,1.6
		c1.7,0.5,3.5,1.1,5.3,1.7c1.8,0.6,3.6,1.2,5.4,1.8c1.8,0.6,3.6,1.2,5.4,1.8c1.8,0.6,3.5,1.2,5.2,1.8c1.7,0.6,3.3,1.2,4.9,1.7
		c1.6,0.6,3,1.1,4.4,1.6c2.7,1,5,1.9,6.6,2.5c1.6,0.6,2.5,1,2.5,1s-1,0-2.7-0.1c-0.9,0-1.9-0.1-3.1-0.2c-1.2-0.1-2.5-0.2-4-0.4
		c-2.9-0.4-6.3-1-9.8-1.8c-1.8-0.4-3.6-0.9-5.5-1.4c-1.9-0.5-3.7-1.1-5.6-1.7c-1.8-0.6-3.7-1.3-5.5-2c-1.8-0.7-3.5-1.4-5.2-2.1
		c-1.7-0.7-3.3-1.5-4.8-2.2c-1.5-0.7-2.9-1.5-4.2-2.2c-1.3-0.7-2.4-1.4-3.5-2c-1-0.6-1.9-1.2-2.6-1.7
		C312.1,560.4,311.3,559.8,311.3,559.8z"/>
</g>
<g>
	<path class="st2" d="M378.9,536.5c0,0,0.6,0.6,1.4,1.8c0.4,0.6,1,1.3,1.6,2.1c0.6,0.8,1.3,1.7,2,2.7c1.4,2,3,4.4,4.8,6.9
		c1.7,2.5,3.6,5.2,5.5,7.8c1.9,2.7,3.7,5.3,5.5,7.8c0.9,1.3,1.7,2.5,2.5,3.6c0.8,1.2,1.6,2.3,2.3,3.3c0.7,1,1.3,2,1.9,2.8
		c0.6,0.9,1,1.6,1.4,2.2c0.8,1.2,1.2,2,1.2,2s-0.7-0.4-1.9-1.3c-1.2-0.8-2.9-2.1-4.8-3.8c-1-0.8-1.9-1.8-3-2.8c-1-1-2.1-2.1-3.1-3.3
		c-1-1.2-2.1-2.4-3.1-3.7c-1-1.3-2-2.6-3-4c-0.9-1.4-1.9-2.8-2.7-4.2c-0.9-1.4-1.7-2.8-2.4-4.2c-0.7-1.4-1.4-2.7-2-4.1
		c-0.6-1.3-1.1-2.6-1.6-3.7c-0.5-1.2-0.8-2.3-1.1-3.2c-0.3-1-0.6-1.8-0.8-2.5C379.1,537.3,378.9,536.5,378.9,536.5z"/>
</g>
<g>
	<path class="st2" d="M417,538.4c0,0,2.9-0.4,7.2-0.1c2.1,0.1,4.6,0.4,7.2,0.8c1.3,0.2,2.7,0.5,4,0.8c1.4,0.3,2.7,0.7,4.1,1
		c1.4,0.4,2.7,0.8,4,1.2c1.3,0.4,2.6,0.9,3.8,1.4c2.5,1,4.7,2,6.6,3c3.8,2,6.1,3.8,6.1,3.8s-0.7,0-2-0.2c-1.2-0.2-3-0.4-5.1-0.8
		c-2.1-0.4-4.5-0.9-7-1.5c-2.5-0.6-5.2-1.3-7.9-2.1c-1.3-0.4-2.7-0.8-4-1.1c-1.3-0.4-2.6-0.8-3.8-1.2c-2.5-0.8-4.8-1.6-6.8-2.3
		c-2-0.7-3.6-1.4-4.8-1.9C417.6,538.8,417,538.4,417,538.4z"/>
</g>
<g>
	<path class="st2" d="M450,533.4c-0.4,1-0.8,2-1.3,2.9c-0.4,1-0.9,1.9-1.3,2.9c-0.4,1-0.9,1.9-1.3,2.8c-0.5,0.9-0.9,1.9-1.4,2.8
		c-0.4,0.9-0.9,1.9-1.4,2.8c-0.4,0.9-0.9,1.9-1.4,2.8l-2.8,5.6l-5.5,11.1c-0.4,0.9-0.9,1.9-1.4,2.8c-0.4,0.9-0.9,1.9-1.4,2.8
		c-0.9,1.9-1.9,3.7-2.8,5.6l-2.5-1c0.7-1.2,1.4-2.3,2.1-3.5c0.7-1.1,1.5-2.3,2.3-3.4c-0.2,1.4-0.6,2.7-0.9,4
		c-0.3,1.3-0.7,2.6-1.1,3.9l-2.5-1c0.5-2.1,1.1-4.1,1.7-6.1c0.7-2,1.4-4,2.1-6c0.8-2,1.6-3.9,2.5-5.8c0.9-1.9,1.9-3.8,2.9-5.7
		l1.6-2.8c0.6-0.9,1.1-1.8,1.7-2.7c1.1-1.8,2.3-3.5,3.6-5.3c1.3-1.7,2.6-3.4,4-5C447,536.4,448.4,534.9,450,533.4z"/>
</g>
<g>
	<path class="st2" d="M485.6,535.2c0,0,1,0.2,2.6,0.7c1.6,0.5,4,1.2,6.7,2.2c2.7,1,5.9,2.2,9.2,3.6c1.7,0.7,3.4,1.4,5.1,2.2
		c1.7,0.8,3.5,1.6,5.2,2.4c1.7,0.9,3.5,1.7,5.1,2.6c1.7,0.9,3.3,1.7,4.9,2.6c3.2,1.7,6.1,3.5,8.6,5c2.5,1.5,4.5,2.9,5.9,3.9
		c1.4,1,2.2,1.6,2.2,1.6s-1-0.2-2.6-0.7c-1.6-0.5-4-1.2-6.7-2.2c-2.7-1-5.9-2.2-9.2-3.6c-1.7-0.7-3.4-1.4-5.1-2.2
		c-1.7-0.8-3.5-1.6-5.2-2.4c-1.7-0.9-3.5-1.7-5.1-2.6c-1.7-0.9-3.3-1.7-4.9-2.6c-3.2-1.7-6.1-3.5-8.6-5c-2.5-1.5-4.5-2.9-5.9-3.9
		C486.4,535.8,485.6,535.2,485.6,535.2z"/>
</g>
<g>
	<path class="st2" d="M528.2,540.3c0,0,0.5,0.6,1.2,1.7c0.4,0.6,0.9,1.2,1.4,1.9c0.5,0.7,1.1,1.5,1.8,2.4c0.6,0.9,1.4,1.8,2.2,2.7
		c0.8,1,1.7,1.9,2.5,2.9c0.9,1,1.8,2,2.8,2.9c1,1,2,1.9,3,2.9c1.1,0.9,2.1,1.9,3.2,2.7c1.1,0.9,2.2,1.7,3.2,2.5
		c0.5,0.4,1.1,0.8,1.6,1.1c0.5,0.4,1,0.7,1.6,1.1c1,0.7,2,1.3,2.9,1.9c0.5,0.3,0.9,0.6,1.3,0.8c0.4,0.2,0.8,0.5,1.2,0.7
		c0.8,0.5,1.4,0.9,2,1.2c1.1,0.6,1.8,1,1.8,1s-0.8,0-2.1-0.1c-0.7,0-1.5-0.1-2.4-0.3c-0.5-0.1-0.9-0.2-1.5-0.3
		c-0.5-0.1-1-0.3-1.6-0.4c-0.6-0.2-1.1-0.3-1.7-0.5c-0.6-0.2-1.2-0.4-1.8-0.7c-1.2-0.5-2.5-1.1-3.8-1.8c-1.2-0.7-2.6-1.5-3.8-2.4
		c-1.3-0.8-2.4-1.9-3.6-2.9c-1.1-1.1-2.3-2.1-3.2-3.3c-1-1.1-1.9-2.3-2.8-3.5c-0.4-0.6-0.8-1.2-1.1-1.8c-0.4-0.6-0.7-1.2-1-1.8
		c-0.3-0.6-0.6-1.2-0.9-1.7c-0.3-0.6-0.5-1.1-0.7-1.7c-0.2-0.5-0.4-1-0.6-1.5c-0.1-0.5-0.3-1-0.4-1.4c-0.3-0.9-0.5-1.7-0.6-2.3
		C528.3,541.1,528.2,540.3,528.2,540.3z"/>
</g>
<g>
	<path class="st2" d="M572.3,534.1c0,0,0.4,0.2,1.2,0.5c0.3,0.2,0.8,0.4,1.3,0.6c0.5,0.2,1,0.4,1.5,0.7c0.5,0.3,1.2,0.5,1.8,0.7
		c0.6,0.3,1.3,0.5,2,0.8c0.7,0.2,1.4,0.5,2.1,0.7c0.7,0.2,1.4,0.4,2.2,0.7c0.7,0.2,1.5,0.4,2.2,0.5c0.7,0.2,1.4,0.3,2.2,0.5
		c0.7,0.1,1.4,0.3,2.1,0.4c0.7,0.1,1.3,0.2,1.9,0.3c0.6,0.1,1.2,0.2,1.7,0.2c0.5,0.1,1,0.1,1.4,0.2c0.8,0.1,1.2,0.2,1.2,0.2
		s-0.3,0.3-1,0.8c-0.3,0.2-0.7,0.5-1.2,0.8c-0.2,0.1-0.5,0.3-0.8,0.4c-0.3,0.1-0.6,0.2-0.9,0.4c-0.6,0.3-1.4,0.4-2.1,0.6
		c-0.8,0.2-1.6,0.2-2.5,0.3c-0.9,0-1.8,0-2.7-0.1c-0.9-0.1-1.8-0.3-2.7-0.5c-0.9-0.3-1.8-0.6-2.6-1c-0.8-0.3-1.6-0.8-2.4-1.3
		c-0.7-0.5-1.4-1-2-1.5c-0.6-0.5-1.1-1.1-1.5-1.6c-0.2-0.3-0.4-0.5-0.6-0.8c-0.2-0.3-0.3-0.5-0.5-0.8c-0.3-0.5-0.5-0.9-0.6-1.3
		C572.4,534.5,572.3,534.1,572.3,534.1z"/>
</g>
<g>
	<path class="st2" d="M585.8,531.3c0,0-0.4,1-1.2,2.8c-0.8,1.8-1.9,4.3-3.3,7.2c-0.7,1.5-1.5,3.1-2.3,4.8c-0.8,1.7-1.7,3.4-2.6,5.3
		c-0.9,1.8-1.9,3.7-2.8,5.6c-1,1.9-2,3.8-2.9,5.8c-1,1.9-2,3.9-3,5.8c-1,1.9-2,3.8-2.9,5.6c-1,1.8-1.9,3.5-2.8,5.2
		c-0.9,1.6-1.7,3.2-2.5,4.6c-1.6,2.9-2.9,5.3-3.9,6.9c-1,1.7-1.6,2.6-1.6,2.6s0.2-1.1,0.7-3c0.2-0.9,0.5-2.1,0.9-3.4
		c0.4-1.3,0.8-2.8,1.3-4.3c1-3.1,2.3-6.8,3.9-10.6c0.8-1.9,1.6-3.9,2.6-5.8c0.9-2,1.9-3.9,2.9-5.9c1-1.9,2-3.9,3.1-5.8
		c1-1.9,2.2-3.7,3.2-5.5c2.2-3.5,4.3-6.7,6.3-9.4c1-1.3,1.9-2.5,2.7-3.6c0.8-1.1,1.6-2,2.2-2.7C585.1,532.1,585.8,531.3,585.8,531.3
		z"/>
</g>
<g>
	<path class="st2" d="M515.8,562.4c0,0,0.3,2.3-0.1,5.8c-0.2,1.7-0.5,3.7-1,5.7c-0.3,1-0.5,2.1-0.9,3.1c-0.3,1.1-0.7,2.1-1.1,3.2
		c-0.4,1-0.8,2.1-1.3,3.1c-0.4,1-1,2-1.5,2.9c-1,1.9-2.1,3.5-3.1,4.9c-2,2.8-3.8,4.3-3.8,4.3s0.1-0.6,0.3-1.6c0.2-1,0.5-2.4,0.9-4
		c0.4-1.6,1-3.5,1.6-5.4c0.6-2,1.4-4,2.2-6c0.4-1,0.8-2,1.2-3c0.4-1,0.8-2,1.2-2.9c0.8-1.9,1.7-3.6,2.4-5.1c0.8-1.5,1.5-2.7,2-3.6
		C515.5,562.8,515.8,562.4,515.8,562.4z"/>
</g>
<g>
	<path class="st2" d="M471,566.5c0,0-0.2,0.5-0.6,1.2c-0.1,0.2-0.3,0.4-0.3,0.6c-0.1,0.2-0.2,0.5-0.3,0.7c-0.1,0.2-0.2,0.5-0.3,0.7
		c-0.1,0.3-0.2,0.6-0.3,0.9c-0.2,0.6-0.4,1.3-0.6,2c-0.2,0.7-0.4,1.5-0.6,2.2c-0.2,0.8-0.4,1.6-0.6,2.4c-0.2,0.8-0.5,1.7-0.7,2.6
		c-0.3,0.9-0.5,1.8-0.9,2.6c-0.3,0.9-0.7,1.7-1.1,2.6c-0.4,0.8-0.9,1.6-1.4,2.3c-0.5,0.7-1,1.3-1.6,1.9c-0.3,0.3-0.6,0.5-0.8,0.7
		c-0.3,0.2-0.6,0.4-0.8,0.5c-0.5,0.3-1,0.6-1.4,0.7c-0.8,0.3-1.3,0.4-1.3,0.4s0.3-0.5,0.7-1.1c0.2-0.3,0.4-0.8,0.7-1.3
		c0.1-0.2,0.2-0.5,0.4-0.7c0.1-0.3,0.2-0.6,0.3-0.9c0.3-0.6,0.4-1.2,0.7-1.9c0.2-0.7,0.4-1.4,0.6-2.2c0.2-0.8,0.4-1.6,0.6-2.4
		c0.2-0.8,0.5-1.7,0.7-2.6c0.3-0.9,0.5-1.8,0.9-2.6c0.3-0.9,0.7-1.7,1.1-2.5c0.4-0.8,0.9-1.6,1.4-2.3c0.5-0.7,1-1.4,1.6-1.9
		c0.3-0.3,0.5-0.5,0.8-0.7c0.3-0.2,0.6-0.4,0.8-0.6c0.3-0.2,0.5-0.3,0.7-0.5c0.2-0.1,0.5-0.2,0.6-0.3
		C470.5,566.6,471,566.5,471,566.5z"/>
</g>
<g>
	<path class="st2" d="M447.2,560.1c0,0,0,0.7-0.1,2c-0.1,0.6-0.1,1.4-0.3,2.2c-0.1,0.9-0.3,1.8-0.6,2.9c-0.2,1-0.6,2.2-1,3.3
		c-0.4,1.2-0.9,2.4-1.4,3.6c-0.5,1.2-1.1,2.5-1.8,3.7c-0.6,1.3-1.4,2.5-2.1,3.7c-0.8,1.2-1.6,2.4-2.5,3.5c-0.8,1.1-1.8,2.2-2.6,3.2
		c-0.9,1-1.8,1.9-2.7,2.7c-0.9,0.8-1.8,1.6-2.6,2.2c-0.8,0.7-1.6,1.2-2.4,1.7c-0.7,0.5-1.4,0.9-1.9,1.2c-1.1,0.6-1.7,0.9-1.7,0.9
		s0.4-0.6,1.1-1.7c0.3-0.5,0.8-1.1,1.2-1.8c0.5-0.7,1-1.5,1.6-2.3c1.2-1.7,2.5-3.6,4-5.7c0.7-1.1,1.4-2.1,2.2-3.2
		c0.7-1.1,1.5-2.2,2.2-3.4c0.7-1.1,1.4-2.3,2.1-3.4c0.7-1.1,1.4-2.2,2-3.3c1.3-2.2,2.5-4.2,3.6-6c0.5-0.9,1-1.7,1.5-2.4
		c0.4-0.7,0.8-1.4,1.2-1.9C446.8,560.7,447.2,560.1,447.2,560.1z"/>
</g>
<g>
	<path class="st2" d="M40.1,523.3c0,0-0.5,1-1.6,2.7c-1,1.7-2.5,4.1-4.3,7c-1.8,2.9-3.9,6.2-6.2,9.7c-2.3,3.5-4.8,7.3-7.2,11
		c-2.5,3.7-5,7.5-7.3,10.9c-1.2,1.7-2.3,3.4-3.4,5c-1.1,1.6-2.1,3.1-3.1,4.5c-1,1.4-1.9,2.6-2.7,3.8c-0.4,0.6-0.8,1.1-1.1,1.6
		c-0.4,0.5-0.7,1-1.1,1.4c-0.2,0.2-0.4,0.4-0.7,0.5c-0.3,0.1-0.6,0.1-0.8,0.1l0,0l-0.1,0l0,0l-0.1,0c0,0-0.1-0.1-0.2-0.1
		c-0.1-0.1-0.1-0.3-0.1-0.4c0-0.2,0.1-0.4,0.1-0.5c0.1-0.3,0.4-0.4,0.6-0.3c0.1,0.1,0.1,0.2,0.1,0.2c0,0,0-0.1-0.2-0.1
		c-0.1,0-0.2,0.1-0.3,0.4c0,0.1,0,0.2,0,0.3c0,0,0.1,0.1,0.1,0.1c0,0,0,0,0,0l0.1,0l0,0c-0.1,0,0,0,0,0l0,0c0.3,0,0.5-0.2,0.7-0.6
		c0.2-0.3,0.4-0.9,0.6-1.4c0.2-0.6,0.5-1.2,0.7-1.8c0.5-1.3,1.1-2.7,1.8-4.3c1.4-3.1,3.2-6.7,5.2-10.4c2-3.7,4.4-7.6,6.9-11.4
		c2.5-3.8,5.2-7.5,7.8-10.8c1.3-1.7,2.6-3.3,3.9-4.8c1.3-1.5,2.5-2.9,3.6-4.1c1.1-1.3,2.2-2.4,3.2-3.4c1-1,1.8-1.8,2.6-2.5
		C39.3,524.1,40.1,523.3,40.1,523.3z"/>
</g>
<g>
	<path class="st2" d="M14.5,520.1c0,0-0.1,0-0.2-0.2c-0.1-0.1-0.1-0.4,0.1-0.7c0.1-0.1,0.2-0.3,0.4-0.4c0.2-0.1,0.5-0.1,0.7,0
		c0.5,0.1,0.9,0.6,1.2,1.1c0.6,0.9,1.3,1.9,2.1,3.2c0.8,1.2,1.6,2.6,2.5,4.2c1.8,3.1,3.8,6.7,5.8,10.7c1,2,2,4.1,3,6.2
		c1,2.1,1.9,4.3,2.9,6.5c0.9,2.2,1.8,4.4,2.6,6.6c0.9,2.2,1.6,4.3,2.3,6.4c0.7,2.1,1.4,4.1,2,6.1c0.6,1.9,1.1,3.8,1.6,5.5
		c0.9,3.4,1.6,6.3,2,8.4c0.1,0.5,0.2,0.9,0.4,1.1c0.1,0.1,0.2,0.2,0.3,0.2c0,0,0.1,0,0.2-0.2c0.1-0.2,0-0.4-0.1-0.5
		c-0.1,0-0.2,0-0.2,0c0,0,0-0.1,0.2-0.1c0.2,0,0.3,0.3,0.3,0.6c0,0.2-0.1,0.4-0.4,0.5c-0.2,0.1-0.5,0-0.7-0.1
		c-0.5-0.3-0.7-0.8-1-1.3c-0.5-0.9-1.1-2-1.7-3.3c-0.6-1.3-1.4-2.8-2.1-4.4c-3.1-6.4-6.8-15-10.5-23.7c-3.6-8.7-7.1-17.4-9.6-24
		c-0.6-1.6-1.2-3.2-1.7-4.5c-0.5-1.3-0.9-2.6-1.2-3.5c-0.2-0.5-0.3-0.8-0.6-1c-0.2-0.2-0.5-0.1-0.7,0c-0.2,0.1-0.3,0.3-0.2,0.5
		C14.4,520.1,14.5,520.1,14.5,520.1z"/>
</g>
<g>
	<path class="st2" d="M75.9,523c0.5,1.4,0.9,2.8,1.2,4.3c0.4,1.4,0.7,2.9,1.1,4.3c0.4,1.4,0.7,2.9,1,4.3l1,4.3
		c0.6,2.9,1.2,5.7,1.8,8.6c0.6,2.9,1.1,5.8,1.6,8.6c0.3,1.4,0.5,2.9,0.7,4.3c0.2,1.4,0.5,2.9,0.7,4.3c0.5,2.9,0.9,5.8,1.2,8.7
		c0.4,2.9,0.7,5.8,1,8.7c0.2,1.5,0.3,2.9,0.4,4.4c0.1,1.5,0.3,2.9,0.3,4.4l-1.3,0.2c0.1-1.5,0.2-3,0.4-4.5c0.4,1.5,0.7,2.9,1,4.4
		l-1.3,0.2c-0.5-1.4-0.9-2.8-1.3-4.2c-0.4-1.4-0.8-2.8-1.2-4.3c-0.8-2.8-1.5-5.7-2.1-8.6c-1.3-5.7-2.4-11.5-3.3-17.3
		c-0.9-5.8-1.7-11.6-2.2-17.5c-0.2-2.9-0.4-5.9-0.6-8.8c0-1.5-0.1-2.9-0.1-4.4C75.8,526,75.8,524.5,75.9,523z"/>
</g>
<g>
	<path class="st2" d="M62.1,519c0,0,0.2,1.2,0.5,3.3c0.3,2.1,0.7,5,1,8.6c0.8,7.1,1.3,16.6,1.4,26.1c0.1,9.5-0.1,19-0.7,26.1
		c-0.2,3.6-0.6,6.5-0.8,8.6c-0.3,2.1-0.5,3.3-0.5,3.3s-0.2-1.2-0.5-3.3c-0.3-2.1-0.7-5-1.1-8.6c-0.8-7.1-1.3-16.6-1.4-26.1
		c-0.1-9.5,0.2-19,0.7-26.1c0.2-3.6,0.6-6.5,0.8-8.6C61.9,520.2,62.1,519,62.1,519z"/>
</g>
<g>
	<path class="st2" d="M120.2,525.9c1.2,1.4,2.3,2.8,3.4,4.2c1.1,1.4,2.2,2.8,3.2,4.3c1.1,1.4,2.1,2.9,3.2,4.3
		c1.1,1.4,2.1,2.9,3.1,4.4c4.1,5.8,8,11.8,11.8,17.8c3.8,6,7.5,12.1,11,18.3c1.8,3.1,3.5,6.2,5.2,9.4c1.7,3.1,3.3,6.3,4.9,9.5l1,2.2
		l-1.9-1.2c-1.6-1-3.3-2-4.9-3c1.9,0.5,3.7,1.2,5.5,1.8l-0.9,1c-2.2-2.8-4.3-5.7-6.4-8.6c-2.1-2.9-4.1-5.8-6.1-8.8
		c-4-5.9-7.8-11.9-11.5-18c-3.7-6.1-7.3-12.2-10.8-18.4c-0.9-1.6-1.7-3.1-2.5-4.7c-0.8-1.6-1.7-3.1-2.5-4.7
		c-0.8-1.6-1.6-3.2-2.4-4.8C121.7,529.2,120.9,527.5,120.2,525.9z"/>
</g>
<g>
	<path class="st2" d="M158.8,528.7c0,0-0.5,1.1-1.4,2.9c-0.5,0.9-1,2-1.6,3.3c-0.6,1.2-1.3,2.7-2,4.2c-0.7,1.5-1.5,3.2-2.3,5
		c-0.8,1.8-1.6,3.7-2.4,5.6c-1.7,3.9-3.4,8.1-5.2,12.3c-0.9,2.1-1.8,4.2-2.7,6.3c-0.9,2.1-1.8,4.1-2.8,6c-0.9,2-1.8,3.8-2.8,5.6
		c-0.9,1.8-1.8,3.4-2.7,4.9c-0.9,1.5-1.7,2.9-2.5,4.1c-0.7,1.2-1.4,2.2-2,3c-1.2,1.7-1.9,2.6-1.9,2.6s0.3-1.1,1-3
		c0.7-1.9,1.6-4.6,2.8-7.9c0.6-1.6,1.2-3.4,1.9-5.2c0.7-1.8,1.4-3.8,2.1-5.8c0.7-2,1.5-4.1,2.4-6.2c0.8-2.1,1.7-4.2,2.6-6.4
		c0.9-2.1,1.8-4.2,2.8-6.3c0.9-2.1,2-4.1,3-6c1-1.9,2-3.8,3.1-5.5c1-1.7,2.1-3.3,3.1-4.7c0.5-0.7,1-1.4,1.5-2c0.5-0.6,1-1.2,1.4-1.8
		c0.9-1.1,1.7-2.1,2.4-2.8C158,529.5,158.8,528.7,158.8,528.7z"/>
</g>
<g>
	<path class="st2" d="M165.2,535.9c-0.2-0.3-0.4-0.2-0.5,0c-0.1,0.2-0.2,0.4-0.2,0.6c0,0.2,0,0.4,0,0.5l0.2,0.7c0.3,1,0.6,2,0.9,2.9
		c0.3,1,0.6,1.9,0.9,2.9l0.8,2.9l1.6,5.8l1.5,5.8l1.5,5.8l1.4,5.8c0.5,1.9,0.9,3.9,1.4,5.9c0.4,2,0.9,3.9,1.3,5.9l-1.9-0.2
		c0.6-0.7,1.2-1.5,1.9-2.2c0.6-0.7,1.3-1.4,2-2.1c-0.3,0.9-0.6,1.8-1,2.7c-0.3,0.9-0.7,1.8-1.1,2.7l-0.8,1.9l-1.1-2.1
		c-1-1.8-1.9-3.6-2.7-5.5c-0.8-1.9-1.6-3.8-2.3-5.7c-0.7-1.9-1.3-3.9-1.9-5.8c-0.6-2-1.1-3.9-1.5-5.9c-0.9-4-1.5-8-1.9-12.1
		c-0.2-2-0.3-4.1-0.3-6.1c0-1,0-2,0-3.1l0-0.8c0-0.4,0.1-0.7,0.3-0.9c0.2-0.2,0.4-0.5,0.6-0.6c0.1-0.1,0.3-0.1,0.5-0.1
		C165.1,535.6,165.2,535.8,165.2,535.9z"/>
</g>
<g>
	<path class="st2" d="M292.6,535.8c-0.5,1.2-1.1,2.4-1.6,3.5l-1.7,3.5c-1.2,2.3-2.4,4.6-3.6,6.9l-3.8,6.7c-1.3,2.2-2.6,4.5-3.9,6.7
		l-3.9,6.7c-1.3,2.2-2.5,4.4-3.8,6.7c-1.2,2.2-2.4,4.5-3.6,6.7l-1.7,3.4l-1.6,3.4l-2.5,5.4l-2.1-5.6c-0.9-2.4-1.8-4.8-2.8-7.2
		c-1-2.4-2-4.7-3-7.1c-0.5-1.2-1-2.4-1.6-3.5c-0.6-1.2-1.1-2.3-1.7-3.5c-0.6-1.2-1.1-2.3-1.7-3.5c-0.6-1.2-1.1-2.3-1.7-3.4
		c-1.2-2.3-2.4-4.5-3.7-6.8c-0.6-1.1-1.3-2.3-1.9-3.4c-0.6-1.1-1.3-2.2-2-3.3c-0.6-1.1-1.3-2.2-2-3.3l-2.1-3.3l-2.1-3.3l-0.1-0.2
		l-0.1-0.2c-0.1-0.2-0.2-0.4-0.2-0.5c-0.1-0.3-0.1-0.7-0.1-1c0-0.3,0.1-0.7,0.2-1c0.2-0.3,0.6-0.4,0.9-0.2c-0.3-0.1-0.7,0-0.7,0.3
		c-0.1,0.3-0.1,0.6,0,0.9c0,0.3,0.1,0.6,0.3,0.9c0.1,0.1,0.1,0.3,0.2,0.4l0.2,0.2l0.2,0.2l2.6,2.9c0.9,1,1.7,2,2.5,3
		c0.8,1,1.7,2,2.5,3.1c1.6,2.1,3.1,4.2,4.6,6.4c0.8,1.1,1.5,2.2,2.2,3.3c0.7,1.1,1.4,2.2,2.1,3.3c1.4,2.2,2.7,4.5,4,6.8
		c1.3,2.3,2.5,4.7,3.6,7c0.6,1.2,1.1,2.4,1.7,3.6c0.6,1.2,1.1,2.4,1.6,3.6c1,2.4,2,4.9,2.9,7.3l-4.6-0.1l1.7-3.6
		c0.6-1.2,1.2-2.3,1.8-3.5c1.3-2.3,2.5-4.6,3.9-6.8c1.3-2.2,2.7-4.4,4.1-6.6c1.4-2.2,2.9-4.3,4.3-6.5c1.5-2.1,2.9-4.3,4.4-6.4
		l4.5-6.3L292.6,535.8z"/>
</g>
<g>
	<path class="st2" d="M321.1,526c0,0,0.2,1,0.4,2.7c0.1,0.9,0.3,1.9,0.4,3.1c0.2,1.2,0.3,2.6,0.5,4c0.3,2.9,0.7,6.4,1.1,10.1
		c0.4,3.7,0.8,7.6,1.2,11.5c0.4,3.9,0.9,7.8,1.3,11.5c0.4,3.7,0.8,7.1,1.1,10.1c0.3,3,0.5,5.5,0.6,7.2c0.1,1.8,0.2,2.8,0.2,2.8
		s-0.4-0.9-1.1-2.5c-0.3-0.8-0.8-1.8-1.2-3c-0.4-1.2-0.9-2.5-1.3-3.9c-0.5-1.4-0.9-3-1.4-4.7c-0.5-1.7-0.9-3.4-1.3-5.3
		c-0.4-1.8-0.8-3.8-1-5.7c-0.3-2-0.6-3.9-0.8-5.9c-0.2-2-0.4-4-0.5-6c-0.1-2-0.2-3.9-0.2-5.8c0-1.9,0-3.7,0.1-5.4
		c0.1-1.7,0.2-3.4,0.3-4.9c0.1-1.5,0.3-2.9,0.5-4.1c0.1-1.2,0.3-2.3,0.5-3.1C320.8,527,321.1,526,321.1,526z"/>
</g>
<g>
	<path class="st2" d="M384,554c0,0,0.2,0.6,0.4,1.7c0.3,1.1,0.6,2.7,0.8,4.5c0.3,1.9,0.5,4.1,0.7,6.4c0.2,2.3,0.3,4.8,0.4,7.3
		c0.1,5-0.1,9.9-0.5,13.7c-0.2,1.9-0.4,3.5-0.6,4.6c-0.2,1.1-0.4,1.8-0.4,1.8s-1-2.4-1.9-6.1c-0.4-1.9-0.8-4-1.1-6.4
		c-0.1-1.2-0.3-2.4-0.4-3.6c-0.1-1.2-0.1-2.5-0.2-3.8c0-1.3,0-2.5,0-3.8c0-1.2,0.1-2.5,0.2-3.6c0.2-2.4,0.5-4.6,0.8-6.4
		c0.3-1.9,0.7-3.4,1.1-4.5C383.8,554.6,384,554,384,554z"/>
</g>
<g>
	<path class="st2" d="M419,534c0,0,0,0.9-0.1,2.5c-0.1,1.6-0.3,3.8-0.5,6.4c-0.3,2.6-0.6,5.7-1,9c-0.2,1.6-0.4,3.3-0.7,5
		c-0.2,1.7-0.5,3.4-0.7,5.2c-0.3,1.7-0.5,3.5-0.8,5.2c-0.3,1.7-0.5,3.4-0.8,5c-0.3,1.6-0.5,3.2-0.8,4.7c-0.3,1.5-0.5,2.9-0.8,4.2
		c-0.5,2.6-1,4.8-1.3,6.3c-0.3,1.5-0.6,2.4-0.6,2.4s-0.2-0.9-0.4-2.5c-0.1-0.8-0.2-1.7-0.3-2.8c-0.1-1.1-0.2-2.3-0.3-3.7
		c-0.1-2.7-0.1-5.8,0-9.2c0.1-1.7,0.2-3.4,0.4-5.2c0.1-1.8,0.4-3.5,0.6-5.3c0.3-1.8,0.5-3.5,0.9-5.3c0.3-1.7,0.7-3.4,1.1-5.1
		c0.8-3.3,1.7-6.3,2.6-8.8c0.4-1.3,0.9-2.4,1.3-3.4c0.4-1,0.8-1.9,1.1-2.6C418.6,534.8,419,534,419,534z"/>
</g>
<g>
	<path class="st2" d="M478.8,543.1c0,0,0.4,0.7,1,2c0.6,1.3,1.5,3.2,2.4,5.5c0.9,2.3,1.8,5,2.7,7.9c0.4,1.5,0.9,3,1.3,4.5
		c0.4,1.6,0.8,3.1,1.1,4.7c0.3,1.6,0.7,3.2,1,4.8c0.3,1.6,0.5,3.1,0.8,4.7c0.4,3,0.7,5.9,0.9,8.3c0.2,2.5,0.2,4.5,0.1,6
		c0,1.5-0.1,2.3-0.1,2.3s-0.4-0.8-0.9-2.1c-0.5-1.3-1.2-3.3-2-5.6c-1.5-4.7-3.2-10.9-4.6-17.2c-0.7-3.2-1.3-6.3-1.8-9.3
		c-0.5-3-0.9-5.8-1.2-8.2c-0.3-2.4-0.5-4.5-0.5-5.9C478.8,543.9,478.8,543.1,478.8,543.1z"/>
</g>
<g>
	<path class="st2" d="M458.2,527c0,0,0.2,0.8,0.3,2.3c0.2,1.4,0.4,3.5,0.7,6c0.3,2.4,0.6,5.3,1,8.4c0.2,1.5,0.4,3.1,0.6,4.7
		c0.2,1.6,0.4,3.2,0.6,4.8c0.2,1.6,0.5,3.2,0.7,4.8c0.2,1.6,0.5,3.1,0.7,4.7c0.5,3,1,5.9,1.4,8.3c0.2,1.2,0.4,2.4,0.5,3.4
		c0.1,1,0.3,1.9,0.4,2.6c0.2,1.5,0.3,2.3,0.3,2.3s-0.5-0.7-1.2-2c-0.4-0.6-0.8-1.4-1.3-2.3c-0.5-0.9-1-2-1.5-3.1
		c-0.5-1.2-1-2.4-1.5-3.8c-0.5-1.4-0.9-2.8-1.4-4.4c-0.4-1.5-0.8-3.1-1.2-4.8c-0.4-1.6-0.6-3.3-0.9-5c-0.2-1.7-0.4-3.4-0.5-5
		c-0.1-1.7-0.2-3.3-0.2-4.9c0-1.6,0-3.1,0.2-4.6c0.1-1.5,0.2-2.8,0.4-4.1c0.2-1.3,0.4-2.4,0.6-3.4c0.2-1,0.4-1.9,0.6-2.6
		C457.9,527.8,458.2,527,458.2,527z"/>
</g>
<g>
	<path class="st2" d="M526.7,530.3c0,0-0.2,1.2-0.7,3.3c-0.2,1-0.5,2.3-0.9,3.8c-0.4,1.4-0.8,3.1-1.3,4.8c-0.5,1.8-1,3.7-1.6,5.7
		c-0.6,2-1.3,4.1-2,6.3c-0.7,2.2-1.5,4.4-2.3,6.7c-0.8,2.3-1.7,4.5-2.5,6.8c-0.9,2.3-1.8,4.5-2.7,6.8c-0.9,2.2-1.8,4.4-2.7,6.5
		c-0.9,2.1-1.8,4.1-2.7,6c-0.9,1.9-1.8,3.7-2.6,5.3c-0.8,1.6-1.6,3.1-2.3,4.4c-0.7,1.3-1.3,2.5-1.9,3.4c-1.1,1.9-1.7,2.9-1.7,2.9
		s0.3-1.2,0.8-3.3c0.5-2.1,1.3-5,2.4-8.5c2.1-7,5.3-16.2,8.7-25.3c1.7-4.5,3.5-9,5.3-13.3c0.9-2.1,1.8-4.1,2.6-6
		c0.8-1.9,1.7-3.7,2.4-5.4c1.5-3.3,2.9-6.1,3.9-8C526.1,531.3,526.7,530.3,526.7,530.3z"/>
</g>
<g>
	<path class="st2" d="M552.2,543.1c0,0,0,0.9-0.1,2.4c-0.1,1.5-0.2,3.6-0.3,6.2c-0.1,2.5-0.3,5.5-0.5,8.6c-0.1,1.6-0.2,3.2-0.2,4.8
		c-0.1,1.6-0.1,3.3-0.2,5c-0.1,1.7-0.1,3.3-0.2,5c0,1.6-0.1,3.3-0.1,4.8c-0.1,3.2-0.1,6.1-0.2,8.6c0,1.3-0.1,2.4-0.1,3.5
		c0,1-0.1,2-0.1,2.7c0,1.5-0.1,2.4-0.1,2.4s-0.3-0.8-0.9-2.2c-0.3-0.7-0.6-1.6-0.8-2.6c-0.3-1-0.6-2.2-0.9-3.4
		c-0.3-1.3-0.6-2.7-0.8-4.1c-0.3-1.5-0.4-3-0.6-4.6c-0.1-1.6-0.3-3.3-0.3-5c-0.1-1.7,0-3.4,0-5.2c0.1-1.7,0.2-3.5,0.4-5.2
		c0.2-1.7,0.4-3.4,0.7-5c0.3-1.6,0.6-3.1,1-4.6c0.4-1.4,0.7-2.8,1.1-4c0.4-1.2,0.8-2.4,1.2-3.4c0.4-1,0.7-1.8,1-2.5
		C551.8,543.8,552.2,543.1,552.2,543.1z"/>
</g>
<g>
	<path class="st2" d="M570,541c0,0,0.6,0.6,1.5,1.8c0.9,1.2,2.2,2.8,3.6,4.8c0.7,1,1.5,2.1,2.3,3.3c0.8,1.2,1.6,2.4,2.5,3.6
		c0.9,1.3,1.8,2.6,2.7,3.9c0.9,1.3,1.8,2.7,2.7,4.1c0.9,1.4,1.8,2.7,2.7,4.1c0.9,1.3,1.7,2.7,2.6,4c0.8,1.3,1.6,2.6,2.4,3.7
		c0.7,1.2,1.4,2.3,2.1,3.4c1.3,2.1,2.3,3.9,3,5.2c0.7,1.3,1.1,2.1,1.1,2.1s-2.8-2-6.4-5.5c-1.8-1.8-3.8-3.9-5.8-6.3
		c-1-1.2-2-2.5-3-3.8c-1-1.3-1.9-2.7-2.9-4.1c-0.9-1.4-1.8-2.8-2.6-4.2c-0.8-1.4-1.6-2.8-2.3-4.2c-1.4-2.8-2.7-5.4-3.6-7.8
		c-0.5-1.2-0.9-2.3-1.2-3.2c-0.3-1-0.6-1.8-0.8-2.5C570.1,541.9,570,541,570,541z"/>
</g>
<g>
	<path class="st3" d="M215.4,53.5c-1.6-1.2-3.3-2.4-5.1-3.3c-1.8-0.9-3.7-1.7-5.6-2.2c-1.9-0.6-3.9-1-5.9-1.2c-2-0.3-4-0.3-6-0.2
		c-2,0.2-3.9,0.4-5.9,0.9c-1.9,0.5-3.8,1.1-5.5,2c-1.7,0.8-3.4,1.9-4.5,3.3c-0.1,0.2-0.3,0.4-0.4,0.5l-0.4,0.6
		c-0.2,0.2-0.2,0.4-0.3,0.6c-0.1,0.2-0.2,0.4-0.2,0.6c-0.3,0.8-0.5,1.7-0.5,2.6c-0.1,1.8,0.3,3.7,1,5.4c0.7,1.7,1.7,3.4,2.9,4.9
		c0.1,0.2,0.3,0.4,0.4,0.5l0.5,0.5c0.4,0.4,0.7,0.7,1.1,1.1c0.7,0.6,1.4,1.2,2.2,1.8c1.5,1.2,3.2,2.1,5,2.9c1.8,0.8,3.6,1.3,5.5,1.7
		c1.9,0.4,3.8,0.6,5.7,0.6c1,0,1.9-0.1,2.8-0.1c0.5,0,0.9-0.1,1.4-0.2c0.5-0.1,0.9-0.1,1.4-0.3c1.9-0.4,3.6-1.1,5.3-1.9l4.1-1.9
		l-1.6,4.2c-2.3,6.1-4.5,12.2-5.3,18.4c-0.2,1.5-0.3,3.1-0.3,4.6c0,1.5,0.1,3.1,0.3,4.6c0,0.3,0.1,0.8,0.2,1.1
		c0.1,0.3,0.2,0.7,0.2,1.1c0.2,0.7,0.4,1.4,0.7,2.1c0.5,1.3,1.2,2.6,2.1,3.7c0.4,0.5,0.9,1,1.4,1.4l0.9,0.7c0.3,0.1,0.5,0.3,0.8,0.4
		c1.2,0.6,2.5,1,3.9,1.2c2.8,0.3,5.7-0.2,8.3-1.4l0.9-0.4l1.1-0.6c0.6-0.4,1.2-0.8,1.8-1.2c1.2-0.9,2.3-1.9,3.4-3
		c2.1-2.2,4-4.7,5.8-7.4l1.7-2.5l2.1,2.3c4.1,4.5,9.2,8.3,14.9,10.4c1.4,0.6,2.8,1,4.3,1.3c1.5,0.4,2.9,0.5,4.4,0.7
		c0.6,0,1.6,0.1,2.3,0.1l1.1,0l1.1-0.1c1.5-0.1,2.9-0.4,4.4-0.8c5.7-1.5,10.9-5.1,13.8-10.1c0.7-1.2,1.3-2.5,1.6-3.8
		c0.3-1.3,0.4-2.5,0.1-3.7l0-0.1c0.1,0.2,0,0,0,0.1l0,0l0,0l0-0.1l-0.1-0.3c-0.1-0.2-0.1-0.2-0.1-0.3c-0.1-0.2-0.2-0.5-0.4-0.7
		c-0.3-0.5-0.7-0.9-1.1-1.2c-0.8-0.7-1.8-1-2.6-0.9l-0.1-4.8c3.6,0.3,7.5-0.6,10.4-2.8c0.7-0.5,1.4-1.1,2-1.8l0.4-0.5l0.1-0.1
		l0.1-0.1l0,0c0.1-0.1-0.1,0.1-0.1,0.1l0,0l0,0l0.2-0.3c0.1-0.2,0.3-0.5,0.4-0.6l0.3-0.5c0.4-0.8,0.7-1.6,0.9-2.5
		c0.2-0.9,0.3-1.7,0.3-2.6c0-1.8-0.4-3.5-1.2-5c-0.2-0.4-0.4-0.7-0.7-1.1l-0.2-0.2l-0.1-0.1l0,0c0,0,0.2,0.2,0.1,0.1l0,0l0,0
		l-0.1-0.1l-0.6-0.6c-0.3-0.3-0.5-0.4-0.9-0.7c-0.3-0.2-0.7-0.4-1.1-0.6c-0.8-0.3-1.6-0.6-2.5-0.8c-0.9-0.1-1.7-0.2-2.6-0.1
		c-0.8,0.1-1.7,0.3-2.4,0.7c-0.7,0.4-1.4,0.8-1.9,1.4l-5.4,5.3l1.9-7.3c0.5-2,0.6-4,0.3-6c-0.3-2-1.1-4-2.1-5.8c-1-1.9-2.4-3.5-4-5
		c-0.8-0.8-1.6-1.4-2.5-2c-0.9-0.6-1.8-1.2-2.8-1.6c-1.9-1-4-1.6-6.1-1.9c-2.1-0.4-4.4-0.2-6.9-0.4c-2.5-0.2-4.9-1-7.2-2
		c-2.2-1-4.2-2.3-6.2-3.5c-2-1.2-3.9-2.4-5.9-3.2c-2-0.9-4.1-1.4-6.2-1.1c-0.3,0-0.5,0-0.8,0.1l-0.7,0.2c-0.2,0.1-0.5,0.1-0.7,0.2
		c-0.3,0.1-0.5,0.2-0.7,0.3c-1,0.5-2,1.1-3.1,1.6c-0.6,0.3-1.2,0.5-1.8,0.7c-0.6,0.2-1.3,0.2-2,0.2c-1.4-0.1-2.5-0.5-3.6-0.9
		c-1.1-0.4-2.1-0.8-3.2-1c-0.3,0-0.5-0.1-0.8-0.1c-0.1,0-0.3,0-0.3,0l-0.4,0.1c-0.3,0-0.5,0.1-0.7,0.2c-0.2,0.1-0.5,0.2-0.7,0.3
		c-1.8,1-3,3.1-3.3,5.3c-0.2,1.1-0.1,2.2,0.2,3.3c0.3,1.1,0.7,2.1,1.3,3.1c1.1,2,2.6,3.8,4,5.6l-0.2,0.1L217,50l-0.2,3.2l0,0.2
		l-0.1-0.2c-1.6-1.7-3.2-3.4-4.4-5.4c-1.2-2-2.2-4.3-1.9-6.8c0.2-2.4,1.4-4.9,3.6-6.3c0.3-0.2,0.6-0.3,0.9-0.4
		c0.3-0.1,0.7-0.2,1-0.3l0.4-0.1c0.2,0,0.3,0,0.5,0c0.3,0,0.6,0,1,0c1.3,0.1,2.4,0.5,3.5,0.9c1.1,0.4,2.2,0.7,3.1,0.7
		c1,0,1.9-0.3,2.9-0.8c1-0.5,1.9-1.2,3-1.7c0.3-0.1,0.6-0.3,0.8-0.4c0.3-0.1,0.6-0.2,0.9-0.3l0.9-0.3c0.3-0.1,0.6-0.1,0.9-0.2
		c2.6-0.4,5.1,0.1,7.4,1c2.3,0.9,4.3,2.1,6.4,3.2c2,1.1,4,2.3,6,3.1c2,0.8,4.1,1.5,6.2,1.5c2.2,0.1,4.5-0.1,7,0.2
		c0.6,0.1,1.3,0.1,1.9,0.3l1.8,0.4c1.2,0.4,2.4,0.8,3.5,1.3c1.2,0.5,2.2,1.2,3.3,1.8c1,0.7,2,1.4,2.9,2.3c1.9,1.7,3.5,3.6,4.8,5.7
		c1.3,2.2,2.3,4.5,2.7,7.1c0.4,2.5,0.4,5.2-0.2,7.8l-3.5-1.9c0.9-1,2-1.8,3.1-2.4c1.2-0.6,2.4-0.9,3.7-1.1c2.5-0.3,5.1,0,7.4,1.1
		c1.1,0.5,2.2,1.2,3.3,2.2l0.6,0.6l0.1,0.1l0.2,0.2l0.2,0.2l0.3,0.4c0.4,0.5,0.7,1,1.1,1.6c1.3,2.2,1.8,4.7,1.8,7.2
		c0,2.5-0.6,4.9-1.7,7.2l-0.5,0.9c-0.2,0.3-0.3,0.5-0.5,0.7l-0.2,0.3l-0.1,0.2l-0.1,0.1l-0.1,0.2c-0.2,0.2-0.4,0.5-0.6,0.7
		c-0.8,0.9-1.7,1.8-2.7,2.5c-3.9,2.9-8.8,4.2-13.6,3.8l-21.2-1.8l21-3c2.4-0.3,4.7,0.6,6.4,1.9c0.8,0.7,1.5,1.5,2.1,2.4
		c0.3,0.5,0.5,0.9,0.8,1.4c0.1,0.3,0.2,0.6,0.3,0.8l0.1,0.3l0,0.1l0.1,0.2l0,0.1c0.5,2,0.4,4.1,0,6c-0.4,1.9-1.2,3.6-2.1,5.2
		c-0.9,1.5-2,3-3.2,4.3c-1.2,1.3-2.6,2.5-4,3.5c-1.4,1.1-3,1.9-4.6,2.7c-1.6,0.7-3.3,1.4-5,1.8c-1.7,0.5-3.4,0.8-5.2,1
		c-0.4,0-0.9,0.1-1.3,0.1l-1.4,0c-1,0-1.6,0-2.6-0.1c-1.7-0.2-3.5-0.4-5.2-0.8c-1.7-0.4-3.4-0.9-5-1.6c-6.5-2.5-12.1-6.7-16.7-11.8
		l3.8-0.3c-1.9,2.8-3.9,5.5-6.4,8c-1.2,1.2-2.5,2.4-4,3.5c-0.7,0.5-1.5,1-2.3,1.5l-1.1,0.6l-1.3,0.6c-3.4,1.5-7.1,2.1-10.8,1.6
		c-1.9-0.3-3.7-0.8-5.4-1.8c-0.4-0.2-0.9-0.5-1.3-0.8l-1.1-0.8c-0.7-0.6-1.4-1.3-2-2.1c-1.2-1.5-2.1-3.2-2.7-4.9
		c-0.3-0.9-0.6-1.7-0.8-2.6c-0.1-0.4-0.2-0.9-0.3-1.3c-0.1-0.5-0.1-0.8-0.2-1.3c-0.2-1.7-0.3-3.5-0.3-5.2c0-1.7,0.2-3.5,0.5-5.2
		c1-6.8,3.5-13.1,5.9-19.2l2.5,2.3c-2,0.9-4,1.6-6.2,2c-0.5,0.1-1.1,0.2-1.6,0.3c-0.5,0.1-1.1,0.2-1.6,0.2c-1.1,0-2.1,0.2-3.2,0.1
		c-2.1,0-4.3-0.3-6.4-0.8c-2.1-0.5-4.1-1.2-6-2.1c-1.9-0.9-3.8-2-5.4-3.4c-0.9-0.6-1.6-1.4-2.4-2.2c-0.4-0.4-0.7-0.8-1-1.1l-0.5-0.6
		c-0.3-0.3-0.4-0.4-0.5-0.7c-1.3-1.7-2.4-3.6-3.1-5.7c-0.7-2-1.1-4.2-0.9-6.5c0.1-1.1,0.4-2.2,0.8-3.3c0.2-0.5,0.5-1.1,0.8-1.5
		l0.4-0.6c0.2-0.3,0.4-0.5,0.6-0.7c1.5-1.7,3.4-2.8,5.3-3.6c1.9-0.8,3.9-1.4,5.9-1.9c2-0.4,4.1-0.6,6.2-0.7
		C201.1,45.2,209.3,48.1,215.4,53.5z"/>
</g>
<g>
	<path class="st3" d="M365.7,182.1c-0.5-1.3-1-2.5-1.8-3.6c-0.3-0.6-0.8-1.1-1.2-1.6c-0.5-0.5-0.9-1-1.4-1.5c-0.9-0.9-2-1.7-3.1-2.4
		c-1.1-0.6-2.3-1.3-3.6-1.6c-0.6-0.2-1.3-0.3-1.9-0.5c-0.6-0.1-1.3-0.2-1.9-0.2l-1,0l-0.9,0.1c-0.3,0-0.6,0.1-0.9,0.1l-0.9,0.2
		l-1,0.3l-0.5,0.2l-0.4,0.2l-0.8,0.4l-0.8,0.5c-0.3,0.2-0.5,0.4-0.7,0.6l-0.7,0.6c-0.4,0.5-0.9,0.9-1.2,1.4c-0.8,1-1.3,2.1-1.8,3.2
		c-0.4,1.2-0.7,2.4-0.8,3.6c-0.1,1.2,0,2.4,0.4,3.5c0.1,0.6,0.4,1.1,0.6,1.6c0.1,0.3,0.3,0.5,0.5,0.7l0.2,0.4l0.1,0.1l0,0l0,0
		c-0.1-0.1,0,0,0,0l0,0l0.2,0.2c0.5,0.6,0.8,0.9,1.2,1.2c0.4,0.4,0.9,0.7,1.4,1c1,0.6,2.1,1.1,3.3,1.4c2.4,0.7,4.9,0.8,7.4,0.6
		l3.2-0.3l-1.3,3.1c-1.6,3.9-3.3,7.9-5,11.8c-0.8,2-1.6,3.8-1.8,5.4c-0.1,0.4-0.1,0.8,0,1.2c0,0.2,0,0.4,0.1,0.5
		c0,0.1,0,0.2,0.1,0.3l0,0.1l0,0.1l0,0l0,0l0,0c-0.1-0.3,0-0.1,0-0.1l0.3,0.7c0.1,0.2,0.1,0.2,0.2,0.3c0.2,0.2,0.4,0.5,0.6,0.8
		c1,1,2.6,1.6,4.3,1.7c0.8,0.1,1.7,0,2.4-0.2c0.2-0.1,0.4-0.1,0.6-0.2l0.5-0.2l0.7-0.3l0.5-0.3c1.5-0.9,2.9-2.2,4.1-3.6
		c1.2-1.5,2.4-3.2,3.5-4.9l2-3.2l2.1,3.2c1.6,2.5,3.3,4.8,5.1,6.7c0.5,0.5,0.9,0.9,1.4,1.3l0.4,0.3l0.1,0.1l0.2,0.2
		c0.3,0.2,0.5,0.4,0.8,0.5c1,0.7,2.2,1.2,3.4,1.5c1.2,0.3,2.3,0.4,3.4,0.2c0.3-0.1,0.5-0.1,0.8-0.2l0.2-0.1l0.1,0l0,0
		c0.1,0-0.1,0.1-0.1,0l0,0l0,0l0.1,0l0.5-0.2c0.2-0.1,0.3-0.1,0.6-0.3c0.2-0.1,0.4-0.3,0.6-0.5c0.8-0.7,1.5-1.6,1.8-2.5
		c0.2-0.5,0.2-0.9,0.3-1.4c0-0.4-0.1-0.9-0.2-1.3l-1.1-3.1l3.4-0.2c0.3,0,0.6,0,0.8,0l0.8-0.1c0.3-0.1,0.6-0.2,0.8-0.2l0.8-0.3
		l0.8-0.4l0.8-0.5l0.7-0.6l0.7-0.7l0.6-0.7l0.5-0.8l0.4-0.8l0.3-0.8l0.2-0.9l0.1-0.9l0-0.9l-0.1-0.9l-0.2-1
		c-0.1-0.2-0.2-0.5-0.3-0.7l-0.4-0.8l-0.5-0.8l-0.6-0.7l-0.7-0.6l-0.7-0.6l-0.8-0.5l-0.8-0.4l-0.9-0.4l-0.9-0.3l-0.9-0.2l-0.9-0.1
		l-0.9,0l-0.9,0.2l-0.9,0.3l-7.6,2.3l5.5-5.5c1.4-1.4,2.6-3,3.5-4.7c0.4-0.8,0.7-1.7,0.9-2.6c0.2-0.9,0.2-1.8,0.1-2.6l0-0.1l0,0l0,0
		c0-0.1,0,0.1,0,0.1l0,0l0,0l0-0.2l-0.1-0.4c0-0.2-0.1-0.2-0.1-0.3l-0.1-0.2c-0.1-0.3-0.3-0.7-0.6-1.1c-0.5-0.7-1.1-1.3-1.9-1.8
		c-0.7-0.5-1.5-0.7-2.3-0.8c-0.4,0-0.8,0-1.1,0.1l-0.5,0.2c-0.2,0.1-0.3,0.2-0.5,0.3l-0.1,0.1c0,0,0.1-0.1,0.1-0.1c0,0,0,0,0,0.1
		c0,0,0,0.1,0,0.1c0,0,0,0-0.1,0l-1.7,0.8c0-0.2,0.1-0.5,0.2-0.7l0-0.7c0-0.2,0-0.5-0.1-0.7c-0.1-0.2-0.1-0.5-0.2-0.7
		c-0.4-0.9-1.2-1.8-2.1-2.4c-0.9-0.6-2-1.1-3.1-1.3c-0.6-0.1-1.1-0.1-1.7-0.1c-0.6,0-1.1,0.2-1.6,0.4c-0.6,0.3-1.1,0.5-1.6,0.8
		c-0.5,0.3-0.9,0.7-1.4,1.2c-0.8,0.9-1.5,1.9-2,3c-0.5,1.1-0.9,2.3-1.2,3.5c-0.1,0.6-0.2,1.2-0.3,1.9c0,0.6-0.1,1.3,0,1.9l-0.3,0
		l0.9-2.7l-0.6,2.8l-0.2,0.8l-0.1-0.8c-0.1-0.6-0.1-1.3-0.1-1.9c0-0.6,0-1.3,0.1-1.9c0.1-1.3,0.4-2.6,0.9-3.8c0.5-1.2,1.1-2.4,2-3.5
		c0.4-0.5,0.9-1,1.5-1.4c0.5-0.4,1.2-0.8,1.7-1.1c0.7-0.3,1.4-0.5,2.1-0.7c0.7-0.1,1.4-0.1,2.1-0.1c1.4,0.1,2.8,0.6,4,1.4
		c1.2,0.8,2.3,1.8,3,3.1c0.2,0.3,0.3,0.7,0.5,1.1c0.1,0.4,0.2,0.8,0.3,1.2c0,0.4,0,0.8,0,1.2c-0.1,0.4-0.1,0.8-0.2,1.2l-0.3,1.3
		l-1.4-0.5c-0.5-0.2-0.9-0.5-1.2-0.9c-0.3-0.4-0.4-0.8-0.5-1.3c-0.1-0.4,0-0.9,0.1-1.3c0.2-0.5,0.5-0.9,0.9-1.2l-0.1,0.1
		c0.3-0.2,0.6-0.4,0.9-0.6c0.3-0.2,0.6-0.3,1-0.4c0.7-0.2,1.4-0.3,2.1-0.3c1.4,0,2.7,0.4,3.8,1c1.1,0.6,2.1,1.5,2.9,2.5
		c0.4,0.5,0.7,1.1,1,1.7l0.2,0.5c0.1,0.2,0.1,0.4,0.2,0.5l0.1,0.4l0.1,0.2l0,0l0,0.2l0,0.1c0.2,1.3,0.2,2.6,0,3.8
		c-0.2,1.2-0.6,2.4-1.1,3.5c-1,2.2-2.4,4.1-4,5.8l-2.1-3.1l1.3-0.5l1.4-0.3l1.4-0.1l1.4,0l1.4,0.2l1.3,0.3l1.3,0.5l1.2,0.6l1.2,0.7
		l1.1,0.8l1,0.9l0.9,1l0.8,1.1l0.7,1.2c0.2,0.5,0.4,1,0.6,1.5l0.3,1.3l0.2,1.4l0,1.4l-0.2,1.4l-0.3,1.4l-0.5,1.3l-0.6,1.2l-0.7,1.2
		l-0.8,1.1l-0.9,1l-1,0.9l-1.1,0.8l-1.2,0.7l-1.3,0.6l-1.4,0.4l-1.4,0.2l-1.5,0.1l2.3-3.3c0.4,1,0.6,2,0.6,3.1c0,1-0.2,2-0.5,3
		c-0.6,1.9-1.8,3.5-3.2,4.7c-0.4,0.3-0.7,0.6-1.2,0.9c-0.4,0.3-1,0.5-1.4,0.7l-0.5,0.2l-0.3,0.1l-0.2,0.1l-0.3,0.1
		c-0.5,0.1-0.9,0.2-1.4,0.3c-1.9,0.3-3.7,0.1-5.4-0.3c-1.7-0.4-3.3-1.2-4.8-2.1c-0.4-0.2-0.8-0.5-1.1-0.7l-0.2-0.2L375,221l-0.5-0.4
		c-0.6-0.5-1.3-1.1-1.8-1.7c-2.3-2.4-4-5-5.6-7.5l4.1-0.1c-1.2,1.8-2.4,3.7-3.9,5.5c-1.5,1.8-3.3,3.4-5.5,4.7l-0.9,0.5l-0.7,0.3
		c-0.7,0.3-1.3,0.5-2,0.6c-1.3,0.3-2.6,0.4-3.9,0.3c-1.3-0.1-2.6-0.4-3.8-0.9c-1.2-0.5-2.4-1.3-3.4-2.3c-0.5-0.5-0.9-1.1-1.3-1.7
		c-0.2-0.3-0.4-0.8-0.5-1.1l-0.3-0.8l-0.1-0.2l0,0l0-0.1l0-0.1l-0.1-0.3c0-0.2-0.1-0.3-0.1-0.5c-0.1-0.3-0.1-0.7-0.1-1
		c0-0.7,0-1.4,0.1-2c0.4-2.6,1.4-4.7,2.3-6.6c1.7-3.9,3.5-7.8,5.3-11.6l2,2.8c-2.9,0.1-5.9-0.1-8.8-1.1c-1.4-0.5-2.8-1.1-4.1-1.9
		c-0.6-0.4-1.3-0.9-1.8-1.4c-0.6-0.5-1.2-1.2-1.6-1.7l-0.2-0.2l0-0.1l-0.1-0.1l0,0l0,0l-0.1-0.1l-0.3-0.5c-0.2-0.3-0.4-0.7-0.6-1
		c-0.3-0.7-0.6-1.5-0.8-2.2c-0.4-1.5-0.4-3.1-0.3-4.6c0.1-1.5,0.6-3,1.2-4.3c0.6-1.3,1.4-2.6,2.4-3.8c0.4-0.6,1-1.1,1.5-1.6
		c0.3-0.2,0.6-0.5,0.9-0.7c0.3-0.2,0.6-0.5,0.9-0.6l1-0.6c0.3-0.2,0.7-0.3,1.1-0.5l0.5-0.2l0.5-0.1l1-0.3l0.1,0l0,0l0.1,0l0.1,0
		l0.3,0l0.5-0.1c0.4-0.1,0.7-0.1,1.1-0.1l1.1,0l1.1,0.1c0.7,0,1.4,0.2,2.1,0.4c0.7,0.2,1.4,0.4,2,0.7
		C360.4,172.1,364.4,176.8,365.7,182.1z"/>
</g>
<g>
	<path class="st4" d="M231,265c0.3,1.5,1,2.9,1.9,4l-0.5,0.1l0-6.2c0-2.1-0.1-4.1-0.2-6.2c-0.1-4.1-0.4-8.2-0.7-12.3
		c-0.3-4.1-0.8-8.2-1.3-12.2c-0.3-2-0.5-4.1-0.9-6c-0.4-1.9-0.8-3.8-1.6-5.5c-0.7-1.7-1.7-3.2-3-4.1c-1.3-1-2.7-1.5-4.5-1.5
		c-0.4,0-0.9,0-1.3,0c-0.2,0-0.4,0-0.7,0.1l-0.3,0l0,0l0,0c-0.1,0,0.2,0,0.1,0l-0.1,0l-0.2,0l-1.5,0.3c-0.3,0-0.5,0.1-0.7,0.2
		l-0.6,0.2c-0.8,0.2-1.6,0.7-2.4,1.1c-0.8,0.5-1.6,0.9-2.2,1.6c-0.7,0.5-1.4,1.2-2,1.8c-0.3,0.3-0.6,0.7-0.9,1l-0.4,0.5l-0.4,0.6
		c-1.1,1.5-1.9,3.2-2.5,4.9c-0.7,1.7-0.9,3.5-1,5.3c-0.1,1.8,0.2,3.6,0.7,5.3l1.2,4.4l-4.3-1.2c-1.6-0.4-3.4-0.5-5.4-0.2
		c-2,0.2-4,0.7-6,1.2l-6.2,1.7l-1.6,0.4c-0.4,0.1-0.9,0.3-1.3,0.4c-0.9,0.3-1.7,0.7-2.4,1.1c-0.7,0.4-1.3,1-1.7,1.6l-0.2,0.2l0,0.1
		c0-0.1-0.1,0.1,0.1-0.1l0,0l0,0l-0.1,0.2l-0.2,0.4l-0.1,0.2l0,0.1c0,0.1-0.1,0.2-0.2,0.4c0,0.2-0.1,0.4-0.1,0.5
		c-0.3,1.5,0,3.3,0.8,5c0.4,0.9,0.8,1.7,1.3,2.5c0.3,0.4,0.5,0.8,0.8,1.2l0.2,0.3l0.2,0.3l0.5,0.6c1.3,1.5,2.8,2.9,4.3,4.2
		c3.2,2.6,6.9,4.5,10.8,5.7c3.9,1.2,8.1,1.7,12.3,1.7c4.2,0,8.5-0.3,12.7-1c4.2-0.6,8.4-1.6,12.6-2.8c-3.9,1.7-8.1,3.1-12.3,4.2
		c-2.1,0.5-4.2,0.9-6.4,1.3c-2.2,0.3-4.3,0.6-6.5,0.8c-4.4,0.3-8.9,0.1-13.3-1c-4.4-1.1-8.6-3.1-12.2-5.7c-1.8-1.4-3.5-2.8-5.1-4.5
		l-0.5-0.6L175,261l-0.3-0.3c-0.4-0.5-0.7-0.9-1.1-1.4c-0.7-1-1.3-2-1.8-3.1c-1-2.2-1.7-4.8-1.2-7.6c0.1-0.3,0.2-0.7,0.2-1
		c0.1-0.3,0.3-0.7,0.4-1.1l0.1-0.3l0.1-0.2l0.2-0.4l0.1-0.2l0,0l0.1-0.2l0.1-0.1l0.3-0.4c0.8-1.2,1.9-2.1,2.9-2.8
		c1.1-0.7,2.2-1.3,3.4-1.7c0.6-0.2,1.1-0.4,1.7-0.5l1.6-0.4l6.2-1.7c2.1-0.6,4.3-1.1,6.6-1.4c2.3-0.3,4.8-0.4,7.4,0.4l-3.1,3.2
		c-0.6-2.3-1-4.6-0.9-7c0.2-2.3,0.6-4.6,1.4-6.8c0.8-2.1,1.8-4.2,3.2-6c1.3-1.8,2.9-3.5,4.8-4.9c0.9-0.7,1.9-1.3,2.9-1.9
		c0.5-0.3,1.1-0.5,1.6-0.7c0.5-0.3,1.1-0.5,1.7-0.6l0.9-0.3c0.3-0.1,0.6-0.2,0.8-0.2l1.5-0.3l0.2,0l0.1,0l0.2,0l0.1,0l0.4,0
		c0.3,0,0.6-0.1,0.9-0.1c0.6,0,1.2,0,1.8,0c1.2,0.1,2.4,0.3,3.6,0.7c1.2,0.4,2.3,1.1,3.3,1.9c2,1.6,3.2,3.8,4,6
		c0.8,2.1,1.2,4.3,1.5,6.4c0.3,2.1,0.4,4.2,0.6,6.3c0.3,4.1,0.5,8.3,0.6,12.5c0.1,4.2,0,8.3-0.2,12.5c-0.1,2.1-0.2,4.1-0.4,6.2
		c-0.2,2.1-0.4,4.1-0.6,6.2l-0.1,0.7l-0.4-0.6C231.7,268,231.2,266.5,231,265z"/>
</g>
<g>
	<path class="st4" d="M383.5,430.5l4.7-13.1c1.5-4.4,3.1-8.7,4.6-13.1c1.5-4.4,3.1-8.8,4.5-13.2c1.5-4.4,3-8.8,4.4-13.2l2.1-6.6
		c0.7-2.2,1.3-4.2,1.3-6.1c0-0.2,0-0.5,0-0.7l0-0.2l0,0c0,0,0,0.1,0,0l0-0.1l0-0.1l-0.1-0.4c-0.1-0.3-0.2-0.8-0.3-1.2
		c-0.3-0.8-0.7-1.6-1.3-2.1c-1.1-1.1-2.4-1.4-4-0.9c-0.8,0.3-1.6,0.7-2.4,1.3c-0.4,0.3-0.8,0.6-1.1,0.9c-0.2,0.1-0.4,0.4-0.5,0.5
		l-0.6,0.6c-1.4,1.5-2.6,3.3-3.6,5.1c-1,1.9-1.7,3.9-2.1,5.9c-0.4,2.1-0.6,4.2-0.5,6.2l1,19.9l-5.8-19c-0.5-1.7-1.5-3.3-2.9-4.6
		c-1.4-1.3-3.1-2.4-5-3.2c-1.9-0.8-3.8-1.4-5.8-1.6c-0.2,0-0.5-0.1-0.7-0.1l-0.4,0l-0.2,0l-0.1,0l0,0c0,0,0.2,0,0.1,0l0,0l-0.8,0
		l-0.4,0l-0.3,0l-0.7,0.1l-0.7,0.1c-0.5,0.1-1,0.2-1.4,0.3c-1.9,0.5-3.7,1.4-5.3,2.6c-1.6,1.2-3,2.7-4,4.4c-1,1.7-1.7,3.6-1.8,5.5
		c0,0.4,0,1,0,1.3c0,0.3,0,0.6,0.1,0.8l0.1,0.6c0.2,0.9,0.5,1.8,1,2.7c0.9,1.7,2.3,3.4,3.8,4.8c0.8,0.7,1.6,1.4,2.5,2
		c0.9,0.7,1.8,1.3,2.7,1.9c1.9,1.2,3.8,2.4,5.7,3.8c1.9,1.4,3.8,2.9,5.2,4.8c3.1,3.8,4.9,8.2,5.9,12.6c1.1,4.5,1.5,9,1.9,13.5
		c-0.9-4.5-1.8-8.9-3.2-13.2c-0.7-2.1-1.6-4.2-2.6-6.1c-1-1.9-2.3-3.7-3.8-5.2c-1.5-1.6-3.2-2.9-5.1-4.1c-1.9-1.2-3.8-2.2-5.8-3.4
		c-1-0.6-2-1.2-3-1.8c-1-0.7-2-1.4-2.9-2.2c-1.9-1.5-3.6-3.4-4.9-5.6c-0.6-1.1-1.2-2.3-1.5-3.6c-0.1-0.3-0.2-0.7-0.2-1.1
		c-0.1-0.4-0.1-0.6-0.1-0.9c-0.1-0.7-0.1-1.4-0.1-2c0.1-2.7,1-5.1,2.2-7.4c1.3-2.2,3-4.2,5-5.8c2-1.6,4.3-2.8,6.8-3.5
		c0.6-0.2,1.2-0.4,1.9-0.4c0.3-0.1,0.6-0.1,1-0.2l1-0.1l0.5,0l0.4,0l0.8,0l0.2,0l0.1,0l0.1,0l0.2,0l0.5,0c0.3,0,0.6,0,0.9,0.1
		c2.5,0.3,4.9,1,7.2,1.9c2.3,1,4.5,2.4,6.4,4.1c1.9,1.8,3.5,4.1,4.3,6.8l-4.9,0.9c-0.3-5.1,0.9-10.2,3.3-14.7
		c1.2-2.2,2.6-4.3,4.4-6.2c1.7-1.8,3.9-3.6,6.7-4.5c1.4-0.4,3.1-0.6,4.7-0.2c1.6,0.4,3,1.3,4.1,2.5c1,1.1,1.7,2.5,2.2,3.8
		c0.2,0.7,0.4,1.3,0.5,2.2l0,0.5l0,0.3l0,0.3c0,0.3,0,0.7,0,1c-0.1,2.7-0.9,5.2-1.7,7.4l-2.4,6.6c-1.6,4.4-3.3,8.7-5,13
		c-1.7,4.3-3.5,8.6-5.3,12.9l-2.8,6.4c-0.9,2.1-1.9,4.3-2.8,6.4l-2.9,6.3L383.5,430.5z"/>
</g>
<g>
	<path class="st4" d="M539.1,296.7c-1.4-4.2-2.8-8.4-4.1-12.7c-1.3-4.2-2.6-8.5-3.8-12.8c-1.3-4.3-2.4-8.6-3.6-12.8
		c-1.2-4.3-2.3-8.6-3.4-12.9c-0.5-2.2-1.1-4.3-1.5-6.6c-0.4-2.3-0.5-4.9,0.4-7.5c0.4-1.3,1.1-2.5,1.9-3.6c0.9-1.1,2-2,3.4-2.6
		c0.4-0.1,0.7-0.3,1.1-0.4l0.3-0.1l0.1,0l0.1,0l0.2,0l0.4-0.1c0.3,0,0.9-0.1,1.2-0.1c0.4,0,0.7,0,1.1,0.1c1.4,0.2,2.7,0.7,3.9,1.4
		c0.6,0.3,1.1,0.7,1.6,1c0.3,0.2,0.5,0.4,0.8,0.6l0.4,0.3l0.2,0.2l0.1,0.1l0.1,0.1c0.4,0.4,0.8,0.7,1.2,1.2c0.4,0.5,0.9,0.9,1.3,1.4
		c1.6,1.9,2.8,4,3.8,6.2c1,2.2,1.6,4.6,2,7c0.3,2.4,0.4,4.9,0,7.3l-4.8-0.7c0.9-6.2,3.7-12.1,7.8-16.8c2.1-2.3,4.4-4.4,7.1-6
		c2.6-1.7,5.4-3,8.4-4c0.7-0.3,1.5-0.5,2.2-0.7l1.1-0.3c0.2,0,0.4-0.1,0.6-0.1l0.5-0.1c1.6-0.3,3.2-0.5,5-0.3
		c0.9,0.1,1.8,0.3,2.6,0.5c0.4,0.2,0.9,0.3,1.3,0.5c0.2,0.1,0.4,0.2,0.6,0.3l0.1,0l0.1,0.1l0.1,0.1l0.2,0.1c1.7,1.2,2.7,2.6,3.6,4.2
		c0.8,1.5,1.3,3.2,1.5,4.8l0.1,0.5l0.1,0.6c0.1,0.4,0.1,0.9,0.1,1.3c0,0.8,0,1.6,0,2.4c-0.2,3.2-1.1,6.3-2.3,9.1
		c-1.3,2.8-3,5.4-4.9,7.8c-1.9,2.3-4,4.5-6.1,6.5c-2.1,2-4.3,4-6.4,5.9c-2.1,2-4.2,3.9-6.2,6c-4,4.1-7.9,8.3-11.6,12.8
		c-1.8,2.2-3.6,4.5-5.4,6.8c-0.8,1.2-1.8,2.3-2.5,3.5c-0.3,0.6-0.6,1.3-0.7,2c-0.1,0.7,0,1.4,0.4,2c-0.5-0.6-0.7-1.3-0.6-2.1
		c0.1-0.7,0.3-1.5,0.6-2.1c0.6-1.4,1.4-2.5,2.2-3.8c1.6-2.4,3.2-4.9,4.8-7.2c3.4-4.7,7-9.3,10.8-13.7c1.9-2.2,3.9-4.3,5.9-6.4
		l6.1-6.2c2-2,3.9-4.1,5.5-6.4c1.7-2.2,3-4.5,4.1-7.1c1-2.5,1.7-5.1,1.8-7.6c0-0.6,0-1.3,0-1.9c0-0.3-0.1-0.6-0.1-0.9l-0.1-0.4
		l-0.1-0.5c-0.2-1.3-0.6-2.4-1.2-3.4c-0.3-0.5-0.6-1-0.9-1.4c-0.3-0.4-0.8-0.8-1.1-1l-0.2-0.1l-0.1-0.1l0,0c0,0-0.1-0.1,0,0l0,0
		l-0.3-0.2c-0.2-0.1-0.5-0.2-0.7-0.3c-0.5-0.2-1-0.3-1.6-0.3c-1.1-0.1-2.4,0-3.6,0.3l-0.5,0.1c-0.1,0-0.3,0.1-0.5,0.1l-1,0.3
		c-0.7,0.1-1.3,0.4-1.9,0.6c-2.5,0.9-5,2-7.2,3.5c-2.2,1.5-4.3,3.2-6,5.2c-3.5,4-6,8.9-6.7,14.1l-4.8-0.7c0.6-3.9,0-8-1.5-11.7
		c-0.8-1.8-1.8-3.6-3-5.2c-0.3-0.4-0.6-0.7-0.9-1.1c-0.3-0.4-0.8-0.8-1.1-1.2c-0.3-0.2-0.7-0.6-1-0.9c-0.4-0.3-0.8-0.6-1.1-0.8
		c-0.8-0.5-1.6-0.8-2.3-0.9c-0.2,0-0.4-0.1-0.6-0.1c-0.2,0-0.2,0-0.5,0l-0.4,0.1l0,0c0.2,0,0,0,0.1,0l0,0l-0.1,0l-0.1,0
		c-0.2,0-0.3,0.1-0.5,0.2c-1.3,0.5-2.5,1.9-3.1,3.6c-0.6,1.6-0.7,3.6-0.4,5.6c0.3,2,0.8,4.2,1.2,6.4l2.8,13l2.8,13L539.1,296.7z"/>
</g>
</svg>
