<?xml version="1.0" encoding="utf-8"?>
<!-- Generator: Adobe Illustrator 19.1.0, SVG Export Plug-In . SVG Version: 6.00 Build 0)  -->
<svg version="1.1" id="Layer_1" xmlns="http://www.w3.org/2000/svg" xmlns:xlink="http://www.w3.org/1999/xlink" x="0px" y="0px"
	 viewBox="0 0 600 300" style="enable-background:new 0 0 600 300;" xml:space="preserve">
<style type="text/css">
	.st0{opacity:0.65;}
	.st1{fill:#BE1E2D;}
	.st2{fill:#00A651;}
	.st3{fill:#00AEEF;}
	.st4{fill:#FFDE17;}
</style>
<g class="st0">
	<path class="st1" d="M353.4,280.2c-0.2-4.7,0-9.5,0.7-14.3c0.7-4.7,1.9-9.4,3.4-13.9c1.5-4.5,3.4-9,5.5-13.3
		c2.1-4.3,4.5-8.5,7.1-12.5c2.5-4.1,5.4-8,8.3-11.8l8.8-11.2c2.9-3.7,5.7-7.6,8.1-11.5c0.3-0.5,0.6-1,0.9-1.5c0.3-0.5,0.6-1,0.9-1.5
		c0.6-1,1.1-2,1.6-3.1c1-2.1,2-4.2,2.7-6.4c1.6-4.3,2.5-8.8,2.7-13.4l0-1.7l-0.1-1.7l0-0.2c0,0,0,0.1,0,0l0-0.1l0-0.1l0-0.4
		l-0.1-0.9c0-0.6-0.2-1.1-0.3-1.6c-0.4-2.2-1-4.3-1.9-6.4c-1.7-4.1-4.4-7.8-7.8-10.5c-1.7-1.3-3.6-2.4-5.6-3.1
		c-0.5-0.2-1.2-0.4-1.7-0.5l-1.5-0.4l-1.6-0.3l-1.6-0.1c-4.4-0.2-8.8,0.6-13.1,2.1c-4.3,1.5-8.5,3.5-12.4,5.9
		c-3.9,2.4-7.5,5.2-10.4,8.5c-2.8,3.3-4.7,7.3-5.1,11.5l-4.9,0c-0.3-5.6-1.5-11.1-3.3-16.4c-1.8-5.3-4.3-10.4-7.4-15l-0.6-0.9
		l-0.1-0.2l0-0.1c0,0-0.1-0.1,0,0l-0.1-0.1l-0.3-0.4c-0.4-0.6-0.9-1.2-1.3-1.7c-0.8-1-1.8-2-2.7-3c-1.9-1.9-4.1-3.7-6.4-5.1
		c-4.6-3-9.8-4.9-15.2-5.4l-1.9-0.1l-2.2,0.1l-1.9,0.2l-2,0.4c-2.6,0.6-5.1,1.5-7.5,2.8c-4.7,2.6-8.6,6.5-10.7,11.4
		c-0.3,0.6-0.5,1.2-0.7,1.8l-0.1,0.2l0,0.1l0,0.1c0-0.2,0,0,0,0l-0.1,0.5l-0.3,1.1l-0.1,0.5l-0.1,0.5l-0.1,0.9
		c-0.1,0.6-0.1,1.3-0.2,2c-0.1,2.7,0.1,5.4,0.7,8c1.2,5.4,3.6,10.5,6.4,15.4c0.7,1.2,1.4,2.5,2.2,3.7c0.8,1.2,1.6,2.5,2.3,3.6
		c1.6,2.4,3.2,4.8,4.9,7.1c3.3,4.7,6.8,9.3,10.3,13.9c7.1,9.2,14.1,18.5,20.8,28c3.4,4.7,6.6,9.6,9.8,14.4c3.2,4.8,6.4,9.7,9.5,14.7
		c3.1,4.9,6.1,9.9,9.1,14.9c1.5,2.5,2.9,5,4.4,7.6l1.1,1.9c0.4,0.6,0.7,1.3,1.1,1.8c0.2,0.3,0.5,0.5,0.8,0.6c0.3,0.1,0.7,0.2,1,0
		c0.3-0.2,0.2-0.7,0-0.9c-0.1-0.2-0.2-0.3-0.4-0.4c-0.2-0.1-0.3,0.1-0.4,0.2c0-0.2,0.2-0.4,0.4-0.3c0.2,0.1,0.3,0.2,0.4,0.4
		c0.2,0.3,0.4,0.8,0,1.1c-0.3,0.2-0.7,0.2-1.1,0.1c-0.4-0.1-0.7-0.4-0.9-0.7c-0.5-0.5-0.9-1.2-1.3-1.8l-1.2-1.8l-4.7-7.3
		c-3.1-4.9-6.3-9.7-9.6-14.5c-3.3-4.8-6.6-9.6-9.9-14.3c-3.4-4.7-6.8-9.4-10.3-14c-3.5-4.7-7-9.2-10.6-13.8
		c-3.6-4.6-7.2-9.1-10.8-13.6c-3.6-4.6-7.2-9.2-10.7-13.9c-1.7-2.4-3.4-4.7-5.1-7.2c-0.8-1.2-1.6-2.4-2.4-3.6
		c-0.8-1.3-1.6-2.5-2.4-3.8c-3-5.1-5.7-10.6-7.1-16.5c-0.7-3-1.1-6.1-1-9.2c0.1-0.8,0.1-1.6,0.2-2.4l0.2-1.2l0.1-0.6l0.1-0.5
		l0.3-1.1l0.1-0.5l0-0.2l0-0.1l0-0.1l0.1-0.3c0.3-0.7,0.5-1.5,0.8-2.3c2.5-5.9,7.1-10.7,12.6-13.7c2.7-1.5,5.7-2.7,8.7-3.4l2.3-0.4
		l2.4-0.3l2.2-0.1l0.2,0l0.1,0l0.1,0l0.3,0l0.6,0l1.2,0.1c6.3,0.5,12.2,2.7,17.4,6.1c2.6,1.7,5,3.6,7.2,5.7c1.1,1.1,2.1,2.2,3.1,3.4
		c0.5,0.6,0.9,1.2,1.4,1.8l0.3,0.4l0.2,0.3l0.2,0.2l0.6,0.9c3.4,5,6.1,10.5,8,16.2c1.9,5.7,3.1,11.7,3.5,17.7l-4.9,0
		c0.2-2.7,0.9-5.3,2-7.7c1.1-2.4,2.6-4.6,4.2-6.5c3.3-3.9,7.4-6.9,11.6-9.5c4.2-2.5,8.7-4.6,13.4-6.2c4.7-1.5,9.8-2.5,14.9-2.2
		l1.9,0.2l1.9,0.3c0.7,0.2,1.3,0.3,2,0.5c0.6,0.2,1.1,0.4,1.7,0.6c2.5,1,4.8,2.3,6.8,3.9c4.1,3.2,7.1,7.6,8.9,12.3
		c0.9,2.4,1.6,4.8,2,7.3c0.1,0.6,0.2,1.3,0.3,1.9l0.1,0.9l0,0.4l0,0.3l0,0.2l0,1.9l0,1.9c-0.3,5-1.4,9.9-3.2,14.5
		c-1.7,4.6-4.1,8.9-6.7,13c-2.6,4.1-5.6,7.9-8.6,11.6l-9.1,11c-3,3.7-5.9,7.4-8.5,11.3c-2.7,3.9-5.2,7.9-7.4,12.1
		c-2.2,4.2-4.2,8.5-5.9,12.9c-0.9,2.2-1.5,4.5-2.2,6.7l-0.9,3.4c-0.3,1.1-0.5,2.3-0.7,3.5C353.9,270.7,353.4,275.4,353.4,280.2z"/>
</g>
<g class="st0">
	<path class="st2" d="M522.8,133.8l-0.3,4.7l-0.3-0.1c1.6-6,4.7-11.6,8.5-16.6c3.9-4.9,8.5-9.2,13.5-13c5-3.8,10.4-7,15.8-10
		c5.4-3.1,10.9-5.9,16.3-8.9c1.3-0.8,2.7-1.5,4-2.3l2-1.2c0.6-0.4,1.2-0.8,1.8-1.2c1.2-0.8,2.2-1.8,2.9-2.8c0.4-0.5,0.7-1,0.9-1.6
		c0-0.1,0.1-0.3,0.1-0.4l0.1-0.2l0-0.1l0-0.1l0,0c0,0,0-0.1,0,0c0-0.2,0.1-0.4,0.1-0.5c0-0.1,0-0.2,0-0.4c0.1-1.1-0.1-2.4-0.6-3.6
		c-0.1-0.3-0.2-0.6-0.4-0.9l-0.2-0.5l-0.2-0.4c-0.4-0.7-0.8-1.4-1.1-1.9c-1.5-2.3-3.5-4.4-5.8-6c-2.3-1.6-4.9-2.9-7.6-3.6
		c-0.7-0.2-1.4-0.3-2-0.4l-1-0.1l-1.2-0.1c-0.4,0-0.7,0-1,0c-0.3,0-0.7,0-1,0c-0.7,0-1.4,0.1-2.1,0.2c-2.8,0.4-5.5,1.3-8,2.6
		c-1.2,0.7-2.4,1.5-3.5,2.3c-1.1,0.9-2.1,1.9-3,2.9l-4,4.6l-0.4-6.1c-0.2-3.5-1.2-6.9-2.9-10.1c-1.7-3.1-4-6-6.7-8.5
		c-2.7-2.5-5.7-4.6-9-6.3c-3.1-1.6-6.7-2.5-10.4-3c-1.8-0.3-3.7-0.4-5.6-0.6c-1.9-0.1-3.7-0.1-5.6-0.1c-3.7,0.2-7.3,0.8-10.6,2.2
		c-3.2,1.4-6.2,3.6-8.2,6.3c-1,1.4-1.8,2.9-2.2,4.5l-0.2,0.6l0,0.1c0,0,0-0.2,0-0.1l0,0l0,0.2l-0.1,0.4l-0.1,0.7
		c0,0.2,0,0.4-0.1,0.6c0,0.4-0.1,0.8-0.1,1.2c0,0.4,0,0.9,0,1.3c0.3,3.4,1.7,6.8,3.7,9.9c1,1.5,2.2,3,3.4,4.3l1,1l1.1,1
		c0.7,0.6,1.4,1.2,2.1,1.9c2.9,2.4,6,4.7,9.1,7.2c3.1,2.4,6.1,5.1,8.7,8.2c2.6,3,4.8,6.4,6.5,10c1.7,3.6,3,7.4,3.8,11.2
		c1.6,7.8,1.3,15.6,1,23.4c-0.1-3.9-0.3-7.8-0.6-11.6c-0.3-3.9-0.9-7.7-1.9-11.4c-1-3.7-2.4-7.3-4.2-10.6c-1.8-3.3-4.1-6.4-6.6-9.2
		c-2.5-2.8-5.5-5.2-8.6-7.4c-3.1-2.3-6.4-4.4-9.5-6.9c-0.8-0.6-1.5-1.3-2.3-1.9l-1.1-1c-0.4-0.4-0.7-0.7-1.1-1.1
		c-1.4-1.4-2.8-3-4-4.7c-2.4-3.4-4.2-7.3-4.7-11.6c-0.1-0.5-0.1-1.1-0.1-1.6c0-0.5,0-1.1,0-1.7c0-0.3,0-0.6,0.1-0.8l0.1-0.7l0.1-0.4
		l0-0.2l0-0.2l0-0.1l0.2-0.8c0.6-2.1,1.6-4.1,2.8-5.9c2.5-3.6,6-6.2,9.9-8c3.9-1.7,8-2.5,12.1-2.7c2-0.1,4.1-0.1,6.1,0
		c2,0.1,4,0.3,6,0.6c4,0.6,8.1,1.5,11.9,3.5c3.7,1.9,7.1,4.2,10.1,7c1.5,1.4,2.9,2.9,4.2,4.5c1.3,1.7,2.5,3.4,3.4,5.3
		c2,3.7,3.2,7.9,3.4,12.2l-4.3-1.5c1.1-1.3,2.3-2.5,3.7-3.6c1.3-1.1,2.8-2,4.3-2.8c3-1.6,6.3-2.7,9.6-3.1c0.8-0.1,1.7-0.2,2.5-0.2
		c0.8,0,1.8,0,2.6,0.1l1.2,0.1l1.3,0.2c0.8,0.1,1.7,0.3,2.5,0.6c3.3,0.9,6.4,2.4,9.1,4.4c1.4,1,2.6,2.1,3.8,3.4
		c1.2,1.2,2.2,2.5,3.1,4c0.5,0.8,0.8,1.4,1.2,2.1l0.1,0.2l0.1,0.1l0.1,0.3l0.3,0.6c0.2,0.4,0.3,0.8,0.5,1.2c0.6,1.7,1,3.5,0.8,5.5
		c0,0.2-0.1,0.5-0.1,0.8c0,0.3-0.1,0.4-0.1,0.6l0,0.2l0,0.1l-0.1,0.2l-0.1,0.4c-0.1,0.2-0.2,0.5-0.3,0.7c-0.4,0.9-0.9,1.7-1.5,2.5
		c-1.2,1.5-2.5,2.6-3.9,3.5c-0.7,0.5-1.4,0.9-2.1,1.3l-2.1,1.2c-1.4,0.8-2.7,1.5-4.1,2.2c-5.5,2.9-11.1,5.6-16.6,8.4
		c-5.5,2.8-10.9,5.8-15.9,9.2c-5.1,3.4-9.8,7.4-13.8,12c-4,4.6-7.3,9.9-9.4,15.7l-0.3-0.1L522.8,133.8z"/>
</g>
<g class="st0">
	<path class="st3" d="M123.5,113.5c0-2-0.1-4,0-6.1c0.1-2,0.2-4.1,0.4-6.1c0.4-4,1-8.1,1.8-12.1c0.8-4,1.7-7.9,2.7-11.9
		c1-3.9,2.1-7.8,3.1-11.8c1-3.9,2.1-7.8,3-11.7c0.9-3.9,1.7-7.8,2.4-11.8c0.4-2,0.5-4,0.8-5.9c0.2-2,0.3-4,0.5-5.9
		c0.1-2,0.1-4,0.1-5.9l-0.1-1.5l-0.1-1.4c-0.1-1-0.2-1.9-0.4-2.8c-0.7-3.7-2.1-7.3-4.6-9.7c-1.2-1.2-2.7-2-4.3-2.4
		c-1.6-0.4-3.4-0.5-5.3-0.3c-1.9,0.2-3.8,0.5-5.8,0.9c-1.9,0.4-3.9,0.8-5.8,1.3c-3.8,1-7.6,2.1-11.2,3.7c-3.6,1.5-7,3.4-10.1,5.7
		l-1.1,0.9l-0.3,0.2l-0.1,0.1c0,0,0.1-0.1,0,0l0,0L89.1,19l-0.6,0.5c-0.4,0.3-0.8,0.7-1.1,1l-1,1c-1.3,1.3-2.6,2.8-3.6,4.3
		c-0.6,0.8-1,1.6-1.6,2.4c-0.4,0.8-0.9,1.6-1.3,2.5c-0.8,1.7-1.5,3.5-2,5.2c-0.5,1.8-0.8,3.6-0.9,5.5c-0.1,1.8,0.1,3.7,0.4,5.5
		l0.8,4.7l-4.3-2c-3.4-1.6-7-2.6-10.7-3l-2.8-0.2l-2.8,0.1c-0.5,0-0.9,0-1.4,0.1l-1.4,0.2l-1.4,0.2l-1.4,0.3l-1.4,0.3l-0.7,0.2
		l-0.7,0.2l-2.7,0.9c-1.8,0.7-3.5,1.4-5.2,2.3c-3.4,1.8-6.6,3.9-9.3,6.6c-2.8,2.6-5.3,5.5-7.1,8.8l-0.2,0.3l0,0.1l0,0
		c0,0-0.1,0.1,0,0L24.4,67L24,67.7c-0.2,0.4-0.5,0.9-0.6,1.3l-0.5,1.2l-0.5,1.3c-0.6,1.8-1.1,3.6-1.3,5.4c-0.5,3.7-0.2,7.5,1.1,10.8
		c0.7,1.6,1.6,3.2,2.8,4.5l0.9,0.9l0.1,0.1l0,0c0.1,0.1-0.1-0.1-0.1,0l0.1,0.1l0.3,0.2l0.6,0.5l0.6,0.5c0.2,0.1,0.4,0.2,0.5,0.3
		c0.4,0.2,0.7,0.4,1.1,0.7c1.6,0.8,3.3,1.4,5.2,1.8c1.8,0.4,3.7,0.5,5.7,0.6c3.9,0,7.8-0.4,11.8-0.9c2-0.2,4-0.5,6.1-0.7l3-0.2
		c1-0.1,2.1-0.1,3.1-0.1c1,0,2.1-0.1,3.1,0l3.1,0.1c2,0.2,4.1,0.3,6.1,0.6c4.1,0.5,8.1,1.3,12,2.4c4,1,7.8,2.4,11.5,4
		c3.8,1.6,7.3,3.5,10.8,5.5c3.5,2.1,6.7,4.5,9.9,7l-0.2,0l3.4-2.7l-3.2,2.9l-0.1,0.1l-0.1-0.1c-3.3-2.3-6.7-4.5-10.2-6.4
		c-3.6-1.8-7.2-3.6-10.9-4.9c-3.7-1.4-7.6-2.6-11.5-3.4l-1.5-0.3l-1.5-0.3c-1-0.2-2-0.4-2.9-0.5c-2-0.3-3.9-0.6-5.9-0.7
		C74,99,72,99,70,98.9l-3,0c-1,0-2,0-3,0.1c-1,0.1-1.9,0.1-2.9,0.2l-3,0.3c-1.9,0.2-3.9,0.5-5.9,0.8c-4,0.6-8.1,1.1-12.3,1.2
		c-2.1,0-4.2-0.1-6.4-0.5c-2.1-0.4-4.3-1-6.3-2c-0.5-0.3-1-0.6-1.5-0.9c-0.2-0.2-0.5-0.3-0.7-0.5l-0.6-0.5l-0.6-0.5l-0.3-0.2
		l-0.1-0.1c0,0-0.2-0.2-0.1-0.1l0,0l-0.2-0.1l-1.2-1.2c-1.5-1.7-2.8-3.6-3.7-5.7c-1.7-4.2-2.1-8.7-1.5-13c0.2-2.2,0.8-4.3,1.4-6.3
		l0.5-1.5l0.6-1.5c0.2-0.5,0.4-1,0.7-1.4l0.3-0.7l0.1-0.2l0.1-0.2l0.2-0.3c2.1-3.8,4.8-7.1,7.8-10c3-3,6.6-5.4,10.3-7.4
		c1.8-1,3.8-1.8,5.8-2.6l3-1l0.8-0.2l0.8-0.2l1.6-0.4l1.6-0.3l1.6-0.2l1.6-0.2c0.5-0.1,1.1-0.1,1.6-0.1l3.2-0.1l3.2,0.2
		C67.9,42,72.1,43.1,76,45l-3.6,2.7c-0.4-2.2-0.5-4.4-0.4-6.6c0.2-2.2,0.5-4.4,1.1-6.5c0.6-2.1,1.3-4.2,2.3-6.1c0.4-1,1-1.9,1.5-2.9
		c0.6-0.9,1.1-1.8,1.8-2.7c1.2-1.8,2.7-3.4,4.2-4.9l1.2-1.2c0.4-0.4,0.8-0.7,1.2-1l0.6-0.5l0.2-0.2l0.2-0.1l0.3-0.2l1.3-1
		c3.5-2.5,7.2-4.6,11.1-6.1c3.9-1.6,7.9-2.8,11.9-3.8c2-0.5,4-0.9,6.1-1.2c2-0.3,4.1-0.7,6.2-0.8c2.2-0.1,4.5-0.1,6.7,0.5
		c2.3,0.6,4.5,1.9,6.1,3.5c1.7,1.7,2.9,3.7,3.7,5.7c0.9,2.1,1.4,4.2,1.7,6.3c0.2,1.1,0.3,2.1,0.4,3.2l0.1,1.6l0,1.6
		c-0.1,2.1-0.1,4.1-0.2,6.2c-0.2,2-0.4,4.1-0.7,6.1l-0.5,3c-0.2,1-0.3,2-0.5,3c-0.8,4-1.8,8-2.8,11.9c-1.1,3.9-2.2,7.8-3.4,11.7
		c-1.2,3.9-2.4,7.7-3.6,11.6c-1.2,3.9-2.3,7.8-3.2,11.7c-1,3.9-1.8,7.9-2.4,11.8c-0.3,2-0.5,4-0.8,6
		C123.7,109.5,123.6,111.5,123.5,113.5z"/>
</g>
<g class="st0">
	<path class="st4" d="M198.8,262.3c-0.1,1.1-0.4,2.1-1.2,3L197,266l0.2-1l0.5-2c0.2-0.6,0.4-1.3,0.7-2c0.5-1.3,1.2-2.5,1.9-3.7
		c0.7-1.2,1.5-2.3,2.3-3.4c0.8-1.1,1.7-2.2,2.6-3.2c1.8-2.1,3.6-4.1,5.1-6.2c0.4-0.5,0.8-1.1,1.1-1.6l1.1-1.6l1-1.7
		c0.3-0.6,0.6-1.1,0.8-1.7c0.5-1.1,0.7-2.2,0.8-3.3c0-0.3,0-0.5,0-0.8l-0.1-0.9c-0.1-0.3-0.1-0.4-0.2-0.6c-0.1-0.2-0.2-0.5-0.3-0.7
		c-0.4-0.9-1.1-1.7-1.9-2.3c-0.8-0.6-1.8-1-2.7-1.1c-1-0.2-1.8,0-2.9,0.4c-1,0.3-2,0.9-2.9,1.6c-1.9,1.4-3.7,3.3-5.6,5.2l-3,3.2
		l-1.2-4.2c-0.8-2.8-2.6-5.6-4.7-7.9c-1.1-1.2-2.3-2.2-3.5-3.1c-1.3-0.9-2.6-1.6-3.9-1.9c-1.3-0.4-2.5-0.3-3.1,0.1
		c-0.6,0.3-1.2,1.6-1.7,3.2c-0.5,1.6-0.9,3.2-1.2,4.8c-0.3,1.6-0.4,3.2-0.4,4.8c0,1.6,0.2,3.2,0.5,4.7c0.4,1.6,1,3,1.8,4.3
		c0.8,1.4,1.8,2.7,2.9,4c1.1,1.3,2.3,2.5,3.5,3.8c2.4,2.5,4.7,5.3,6.8,8.1c2.1,2.9,3.9,5.9,5.5,9c-2.1-2.8-4.3-5.5-6.7-8
		c-1.2-1.3-2.4-2.5-3.6-3.7c-1.2-1.2-2.5-2.3-3.8-3.5c-1.3-1.2-2.6-2.3-3.9-3.6c-1.3-1.3-2.5-2.6-3.6-4.2c-1.1-1.5-2-3.3-2.5-5.1
		c-0.6-1.8-0.9-3.8-1-5.6c-0.1-1.9,0-3.8,0.3-5.6c0.2-1.8,0.7-3.7,1.1-5.4c0.2-0.9,0.5-1.8,1-2.8c0.4-1,1.2-2.1,2.3-3
		c1.1-0.8,2.5-1.2,3.7-1.3c0.6,0,1.2,0,1.7,0c0.3,0,0.6,0.1,0.9,0.1l0.3,0.1l0.4,0.1c2.1,0.5,3.9,1.5,5.5,2.5
		c1.6,1.1,3.1,2.3,4.4,3.7c1.3,1.4,2.5,2.9,3.5,4.6c1,1.7,1.8,3.5,2.4,5.4l-4.1-1c1.9-2,3.9-4,6.4-5.8c1.3-0.9,2.6-1.6,4.2-2.2
		l0.7-0.2c0.2-0.1,0.3-0.1,0.5-0.1l0.2-0.1l0.2,0l0.2,0l0.7-0.1c0.9-0.1,1.8,0,2.6,0.2c3.4,0.7,6.4,3,7.7,6.2
		c0.2,0.4,0.3,0.8,0.4,1.2c0.1,0.4,0.2,1,0.3,1.4l0,0.5l0,0.3l0,0.2l0,0.2c0,0.4,0,0.8-0.1,1.2c-0.2,1.6-0.7,3.1-1.3,4.5
		c-0.3,0.7-0.7,1.4-1.1,1.9l-1.2,1.8c-0.4,0.6-0.8,1.1-1.3,1.7c-0.5,0.5-0.9,1.1-1.4,1.6c-1.9,2.1-3.9,4-5.8,5.9
		c-1,0.9-1.9,1.9-2.8,2.9c-0.9,1-1.8,2-2.6,3c-0.8,1-1.6,2.1-2.2,3.3c-0.3,0.6-0.6,1.2-0.9,1.8l-0.8,1.9l-0.4-0.3
		C198,264.3,198.6,263.3,198.8,262.3z"/>
</g>
<g class="st0">
	<path d="M59.1,226.2c0.1,0,0.1-0.1,0.2-0.1c0.1,0,0.2,0.1,0.2,0.2c0,0.2,0,0.3-0.1,0.5c-0.1,0.1-0.2,0.3-0.4,0.4
		c-0.2,0.1-0.5,0-0.7-0.1c-0.6-0.5-0.7-1.2-1-1.6l-2.2-2.3c-0.8-0.8-1.5-1.6-2.3-2.5c-0.8-0.8-1.5-1.7-2.2-2.5
		c-3-3.4-5.7-6.9-8.4-10.5c-2.7-3.6-5.3-7.3-7.7-11c-1.2-1.9-2.4-3.8-3.6-5.7c-1.2-1.9-2.3-3.9-3.3-5.9l-2.6-5l3.9,3.7
		c0.7,0.6,1.3,1.3,1.9,1.9c0.6,0.6,1.3,1.3,1.9,2c-0.8-0.4-1.7-0.7-2.5-1.1c-0.8-0.4-1.6-0.8-2.4-1.2L29,184c1.6,1.6,3.1,3.3,4.6,5
		c1.5,1.7,2.9,3.4,4.4,5.2c2.8,3.5,5.5,7.1,8.1,10.7c2.6,3.7,5.1,7.4,7.4,11.2c0.6,1,1.2,1.9,1.7,2.9c0.6,1,1.1,2,1.7,3l0.8,1.5
		l0.4,0.8l0.2,0.4c0.1,0.2,0.1,0.4,0.2,0.5c0.1,0.7,0,1.2,0.3,1.5c0,0.1,0,0.1,0.1,0.1c0.1,0,0.2,0,0.3-0.1
		C59.2,226.5,59.5,226.1,59.1,226.2z"/>
</g>
<g class="st0">
	<path d="M58.2,200.5c0.2,0.3,0.5,0.6,0.7,0.9c0.3,0.3,0.5,0.5,0.7,0.8l0.8,0.8c0.3,0.2,0.6,0.5,0.8,0.7l0.8,0.6l0.9,0.6
		c0.3,0.2,0.6,0.3,0.9,0.5l0.9,0.4l0.9,0.4l1,0.3l1,0.2l1,0.1l1,0.1l0.9,0l0.9-0.1l0.9-0.1l-1.3,0.6c0.2-0.2,0.3-0.5,0.5-0.7
		c0.1-0.2,0.3-0.5,0.4-0.7l0.3-0.8l0.2-0.8l0.1-0.9c0-0.3,0-0.6,0.1-0.9l0-0.9l-0.1-0.9c-0.1-0.3-0.1-0.6-0.2-0.9l-0.3-0.9l-0.4-0.8
		c-0.2-0.2-0.3-0.5-0.4-0.8l-0.5-0.7c-0.2-0.2-0.4-0.4-0.6-0.6c-0.2-0.2-0.4-0.3-0.7-0.5l-0.4-0.2l-0.2-0.1l-0.1-0.1l0,0l0,0l0,0
		l0,0c0.1,0-0.2-0.1,0.2,0.1l-1.1-0.4c-0.2,0-0.5-0.1-0.7-0.2c-0.3,0-0.6-0.1-0.9-0.1l-0.9,0l-0.9,0.1l-1,0.2l-0.9,0.3l-0.9,0.4
		c-0.3,0.2-0.6,0.3-0.9,0.5l-0.9,0.6L59,197l-0.8,0.8c-0.2,0.3-0.4,0.6-0.7,0.9l-0.6,0.9c-0.1,0.3-0.3,0.7-0.5,1l-0.4,1.1
		c-0.1-0.4-0.1-0.8-0.2-1.2c0-0.4,0-0.8,0-1.2l0.2-1.2c0.1-0.4,0.3-0.8,0.4-1.2l0.6-1.2l0.7-1.1l0.9-1c0.3-0.3,0.6-0.6,1-0.9L61,192
		c0.4-0.2,0.8-0.4,1.2-0.7l1.3-0.5c0.4-0.1,0.9-0.3,1.4-0.4l1.4-0.2c0.5,0,1,0,1.5,0c0.5,0.1,1.1,0.2,1.6,0.3l1.1,0.3l0.2,0.1l0,0
		l0.1,0L71,191l0.3,0.2l0.7,0.3c0.4,0.3,0.8,0.5,1.3,0.8c0.4,0.3,0.7,0.7,1.1,1c0.3,0.4,0.6,0.7,1,1.1c0.3,0.4,0.5,0.8,0.8,1.2
		l0.6,1.3l0.5,1.4c0.1,0.5,0.2,0.9,0.3,1.4l0.2,1.4l0,1.4c0,0.5-0.1,1-0.1,1.4c-0.1,0.5-0.2,1-0.3,1.4c-0.2,0.5-0.3,0.9-0.5,1.4
		l-0.7,1.3c-0.3,0.4-0.6,0.8-0.9,1.2c-0.3,0.4-0.7,0.7-1,1.1l-0.6,0.6l-0.7,0l-1.3,0l-1.3-0.1l-1.3-0.2l-1.2-0.3l-1.2-0.4l-1.2-0.5
		l-1.1-0.6l-1-0.7l-1-0.8c-0.3-0.3-0.6-0.6-0.9-0.8l-0.8-0.9l-0.7-1c-0.2-0.3-0.4-0.7-0.6-1l-0.5-1.1c-0.1-0.4-0.3-0.7-0.4-1.1
		C58.4,201.2,58.3,200.9,58.2,200.5z"/>
</g>
<g class="st0">
	<path d="M68.4,174c1,0.4,1.9,0.8,2.8,1.2c0.9,0.4,1.9,0.9,2.8,1.3c1.8,0.9,3.6,1.8,5.4,2.8c1.8,1,3.5,2,5.3,3
		c1.7,1,3.5,2.1,5.2,3.2l-3.4,3.3c-0.8-1.2-1.7-2.5-2.5-3.8c-0.8-1.3-1.6-2.5-2.4-3.8c-1.6-2.6-3.1-5.1-4.6-7.8
		c-1.5-2.6-2.9-5.3-4.2-8c-0.7-1.4-1.3-2.7-1.9-4.1c-0.6-1.4-1.2-2.8-1.7-4.2c1.1,1.1,2.1,2.2,3.1,3.4c1,1.2,2,2.3,2.9,3.5
		c1.9,2.4,3.7,4.8,5.5,7.2c1.8,2.4,3.4,4.9,5.1,7.4c0.8,1.3,1.6,2.5,2.4,3.8c0.8,1.3,1.6,2.6,2.4,3.8l5.9,9.9l-9.3-6.6
		c-1.7-1.2-3.3-2.4-4.9-3.6c-1.6-1.2-3.2-2.5-4.8-3.8c-1.6-1.3-3.1-2.6-4.7-4c-0.8-0.7-1.5-1.4-2.3-2.1
		C69.9,175.5,69.2,174.8,68.4,174z"/>
</g>
<g class="st0">
	<path d="M90.5,160.9c0,0,0.9-0.5,2.6-1.4c0.8-0.4,1.9-0.9,2.9-1.6c1.1-0.6,2.2-1.5,3.1-2.5c0.4-0.5,0.7-1,0.8-1.5
		c0-0.2,0-0.5,0-0.7l0-0.2l0-0.1c0.1,0.3,0,0.1,0,0.1l0,0l0,0l0-0.1c-0.1-0.2-0.2-0.5-0.2-0.4c0,0,0,0,0,0c0,0-0.1-0.1-0.1-0.1
		c-0.1-0.1-0.2-0.1-0.2-0.2c-0.1-0.1-0.2-0.1-0.3-0.2c-0.1,0-0.2-0.1-0.4-0.1c-0.5-0.1-1.2-0.2-1.8-0.1c-0.6,0.1-1.1,0.4-1.4,0.8
		l-0.1,0.1c0.2-0.2,0,0,0.1-0.1l0,0l0,0l-0.1,0.1l-0.2,0.3l-0.2,0.3c-0.1,0.3-0.3,0.6-0.4,0.9c-0.4,1.4-0.3,3.1,0.3,4.8
		c0.1,0.2,0.1,0.4,0.2,0.6l0.3,0.6c0.2,0.5,0.4,1,0.6,1.3c0.4,0.7,0.9,1.4,1.5,2.1c1.1,1.4,2.5,2.6,4,3.5c1.5,0.9,3.1,1.7,4.7,2.1
		c0.4,0.2,0.8,0.2,1.2,0.3c0.4,0.1,0.8,0.2,1.2,0.2c0.4,0.1,0.8,0.1,1.2,0.2c0.4,0,0.8,0,1.1,0.1c0.7,0.1,1.4,0,2.1,0
		c0.7-0.1,1.3-0.2,1.9-0.3c0.6-0.2,1.1-0.3,1.7-0.5c0.6-0.2,1.2-0.3,1.8-0.3c0.3,0,0.6,0.1,0.8,0.3c0.1,0,0.2,0.2,0.3,0.3
		c0.1,0.1,0.1,0.2,0.2,0.3c0.2,0.4,0.1,0.8,0,1.1c-0.1,0.3-0.3,0.4-0.5,0.4c-0.1,0-0.2,0-0.2,0c0,0,0.4-0.1,0.4-0.5
		c0-0.2-0.1-0.5-0.3-0.7c-0.2-0.2-0.4-0.2-0.8-0.2c-0.3,0.1-0.7,0.3-1.2,0.6c-0.5,0.3-1.1,0.6-1.7,0.9c-0.6,0.3-1.3,0.6-2.1,0.9
		c-0.4,0.1-0.8,0.2-1.2,0.3c-0.4,0.1-0.8,0.2-1.3,0.3c-1.7,0.3-3.6,0.3-5.6,0c-2-0.3-4.1-1-6.1-2c-2-1-3.9-2.4-5.5-4.2
		c-0.8-0.9-1.5-1.8-2.2-3c-0.4-0.6-0.6-1.1-0.8-1.5l-0.2-0.4l-0.1-0.2l0-0.1l-0.1-0.2c-0.1-0.3-0.2-0.6-0.3-0.9
		c-0.7-2.4-1-5.1-0.1-7.8c0.2-0.7,0.5-1.3,0.9-1.9c0.2-0.3,0.5-0.7,0.7-1l0.3-0.3l0.2-0.2l0.2-0.2c1.2-1.1,2.6-1.6,4-1.8
		c1.4-0.1,2.7,0.1,4,0.6c0.3,0.1,0.6,0.3,0.9,0.5c0.3,0.2,0.6,0.4,0.8,0.7c0.3,0.3,0.5,0.5,0.7,0.8c0.1,0.2,0.2,0.3,0.3,0.5
		c0.1,0.2,0.2,0.4,0.3,0.6c0.2,0.5,0.2,0.6,0.2,0.9l0.1,0.3l0,0.2l0,0.5c0,0.7-0.1,1.3-0.3,1.9c-0.5,1.2-1.2,2-1.9,2.6
		c-1.5,1.2-3,1.7-4.3,2.1c-1.3,0.4-2.4,0.5-3.4,0.7C91.5,160.8,90.5,160.9,90.5,160.9z"/>
</g>
<g class="st0">
	<path d="M502.3,165.3c0,0-0.2,0.2-0.7,0.5c-0.2,0.1-0.5,0.3-0.8,0.6c-0.3,0.3-0.6,0.5-1,0.9c-0.7,0.7-1.4,1.6-2.1,2.7
		c-0.7,1.1-1.2,2.5-1.6,4c-0.3,1.5-0.4,3.2-0.2,4.9c0.1,0.8,0.4,1.7,0.7,2.4c0.2,0.4,0.4,0.8,0.6,1.1c-0.1-0.2,0,0-0.1-0.1l0,0l0,0
		l0.1,0.1l0.1,0.2l0.2,0.3c0.1,0.2,0.3,0.5,0.4,0.6c0.3,0.3,0.5,0.6,0.8,0.9l0.5,0.5l0.5,0.4c0.7,0.5,1.6,1,2.4,1.3
		c1.7,0.7,3.7,1.1,5.5,0.9c1.9-0.1,3.6-0.7,5.1-1.8c0.7-0.5,1.3-1.1,1.5-1.6c0.1-0.3,0.2-0.4,0.3-0.8c0-0.2,0-0.6,0-0.9
		c-0.1-0.4-0.2-0.8-0.3-1.2l-0.2-0.6l-0.3-0.7c-0.2-0.5-0.4-0.9-0.6-1.3c-0.2-0.4-0.4-0.8-0.6-1.2c-0.9-1.6-1.9-3.1-2.9-4.3
		c-1-1.3-2.1-2.4-3.1-3.3c-1-0.9-1.9-1.7-2.7-2.3c-0.8-0.6-1.5-1.1-1.9-1.3c-0.5-0.3-0.7-0.5-0.7-0.5s0.3,0.1,0.8,0.2
		c0.5,0.1,1.3,0.3,2.3,0.7c1,0.4,2.1,0.9,3.4,1.6c1.3,0.7,2.7,1.6,4,2.8c1.4,1.2,2.8,2.6,4,4.3c0.3,0.4,0.6,0.9,0.9,1.3
		c0.3,0.5,0.6,1,0.9,1.4l0.4,0.7c0.2,0.3,0.3,0.5,0.4,0.8c0.3,0.6,0.5,1.2,0.7,1.9c0.2,0.7,0.3,1.4,0.2,2.3c0,0.7-0.3,1.7-0.6,2.4
		c-0.7,1.5-1.7,2.5-2.9,3.4c-2.1,1.7-4.9,2.6-7.6,2.8c-2.7,0.2-5.4-0.4-7.8-1.5c-1.2-0.6-2.3-1.3-3.3-2.1l-0.7-0.6l-0.7-0.7
		c-0.5-0.4-0.9-1.1-1.3-1.6c-0.2-0.3-0.3-0.5-0.4-0.7l-0.5-0.8c-0.2-0.6-0.5-1.2-0.7-1.7c-0.3-1.2-0.6-2.4-0.6-3.5
		c-0.1-2.3,0.4-4.4,1.2-6.1c0.7-1.8,1.8-3.2,2.8-4.3c1.1-1.1,2.1-1.9,3.1-2.3c0.4-0.3,0.9-0.4,1.3-0.6c0.4-0.2,0.7-0.2,1-0.3
		C502,165.4,502.3,165.3,502.3,165.3z"/>
</g>
<g class="st0">
	<path d="M511.4,213.9c0.1,0,0.2,0,0.3,0.1c0,0.1,0,0.2,0,0.3c-0.1,0.2-0.2,0.4-0.5,0.5c-0.1,0-0.3,0-0.4-0.1
		c-0.1,0-0.1-0.1-0.1-0.1c0,0-0.1-0.1-0.1-0.2c-0.1-0.2-0.2-0.5-0.1-0.7c0-0.5,0.2-0.9,0.4-1.2l0.5-1c0.6-1.4,1.3-2.7,2-4
		c0.7-1.3,1.4-2.7,2.1-4c0.7-1.3,1.4-2.6,2.1-3.9c2.9-5.2,5.9-10.3,9.1-15.4l0.7-1.1l1.3-0.1c1.1,0,2.2,0,3.3,0.1
		c1.1,0.2,2.3,0.4,3.5,1c1.1,0.5,2.2,1.3,3.1,2.2c0.9,1,1.5,2.1,1.9,3.2c0.2,0.6,0.4,1.1,0.5,1.7l0.1,0.4l0,0.2l0,0.1l0,0.1l0,0.2
		l0.1,0.7c0,0.2,0,0.5,0.1,0.9c0,0.3,0,0.7,0,0.9c0,0.6-0.1,1.2-0.2,1.7c-0.2,1.1-0.5,2.2-1,3.3c-0.4,1-1,2-1.7,2.9
		c-0.7,0.9-1.5,1.7-2.4,2.4c-0.9,0.7-1.9,1.3-2.9,1.7c-0.3,0.1-0.5,0.2-0.8,0.3l-0.5,0.2l-0.4,0.1c-0.2,0.1-0.5,0.1-0.7,0.2
		l-0.9,0.1c-1.1,0.1-2.2,0.1-3.3-0.1c-1.1-0.1-2.1-0.5-3-0.9c-1-0.4-1.9-0.9-2.7-1.5c-0.8-0.6-1.5-1.4-2.2-2.1
		c-0.6-0.8-1.1-1.7-1.4-2.6c0.6,0.7,1.3,1.4,2,2c0.7,0.6,1.5,1.1,2.4,1.4c1.6,0.8,3.4,1.1,5.1,1.1c0.8,0,1.7-0.1,2.5-0.3l0.5-0.2
		c0.2-0.1,0.4-0.2,0.7-0.3l0.3-0.1c0,0,0.1,0-0.1,0l0,0l0,0l0,0l0.1,0l0.1-0.1l0.5-0.3c0.7-0.4,1.3-0.9,1.9-1.5
		c0.6-0.6,1.1-1.2,1.5-1.9c0.8-1.3,1.4-2.9,1.5-4.4c0.1-0.4,0.1-0.8,0.1-1.1c0-0.2,0-0.3,0-0.5c0-0.2,0-0.3-0.1-0.6l-0.1-0.7l0,0
		c0,0,0-0.1,0,0.1l0,0l0,0l0-0.1l0-0.1l-0.1-0.3c-0.1-0.4-0.2-0.7-0.4-1.1c-0.6-1.3-1.4-2.2-2.6-2.7c-0.6-0.3-1.3-0.5-2.1-0.6
		c-0.8-0.1-1.6-0.1-2.4-0.1l2-1.1c-3.3,5-6.7,9.9-10.2,14.7c-0.9,1.2-1.8,2.4-2.7,3.6c-0.9,1.2-1.8,2.4-2.7,3.6
		c-0.9,1.2-1.8,2.4-2.8,3.5l-0.7,0.9c-0.2,0.3-0.4,0.5-0.5,0.8c-0.1,0.1-0.1,0.3,0,0.4c0,0,0,0,0,0.1c0,0,0,0.1,0,0.1
		c0,0,0,0.1,0.1,0.1c0.1,0,0.3-0.1,0.4-0.2C511.6,214.1,511.7,213.9,511.4,213.9z"/>
</g>
<g class="st0">
	<path d="M546.3,211.1c0,0,0.3,0.2,0.8,0.5c0.5,0.4,1.2,0.9,2.1,1.4c0.9,0.6,2.2,1.2,3.4,1.4c0.2,0,0.4,0.1,0.6,0.1
		c0.2,0,0.3,0,0.5,0c0.3,0,0.7,0,1.1-0.1c0.7-0.1,1.4-0.4,1.9-0.9c0.5-0.4,0.8-0.9,0.9-1.6c0.1-0.7,0-1.4-0.3-2.3l-0.1-0.2
		c0,0,0-0.1-0.1-0.1c0-0.1-0.1-0.1-0.1-0.2c-0.1-0.1-0.2-0.3-0.3-0.5c-0.1-0.2-0.2-0.3-0.4-0.5c-0.1-0.2-0.3-0.3-0.4-0.5
		c-0.6-0.6-1.4-1.1-2.2-1.4c-0.9-0.3-1.8-0.6-2.7-0.6l-0.7,0l-0.7,0.1l-0.7,0.1l-0.3,0.1l-0.2,0.1l-0.1,0l0,0c-0.1,0,0.1-0.1,0.1,0
		l0,0l-0.8,0.4c-0.2,0.1-0.3,0.2-0.5,0.3c-0.4,0.3-0.8,0.6-1.1,0.9c-0.7,0.7-1.3,1.5-1.8,2.4c-1,1.8-1.5,4-1.4,5.9
		c0.1,2.2,0.7,4.2,1.6,6.1c0.9,1.9,2.2,3.6,3.6,5.1l0.5,0.5l0.6,0.6c0.4,0.3,0.7,0.7,1.1,1c0.7,0.7,1.5,1.3,2.2,1.8
		c2.9,2.2,5.7,3.9,7.6,5.1c0.5,0.3,0.8,0.6,1.2,0.6c0.2,0,0.3,0,0.4-0.1c0.1,0,0.1-0.2,0.2-0.3c0-0.3-0.1-0.5-0.2-0.5
		c-0.1-0.1-0.2,0-0.2,0c0,0,0.1-0.1,0.2-0.1c0.2,0,0.4,0.2,0.5,0.6c0,0.2,0,0.4-0.2,0.6c-0.2,0.2-0.4,0.3-0.7,0.3
		c-0.5,0.1-1.1-0.1-1.6-0.3c-1.1-0.4-2.4-0.8-3.8-1.4c-1.5-0.6-3.1-1.3-4.9-2.3c-0.9-0.5-1.8-1-2.7-1.6c-0.5-0.3-0.9-0.6-1.4-1
		l-0.6-0.5l-0.7-0.6c-1.8-1.5-3.5-3.4-4.8-5.7c-0.7-1.1-1.3-2.4-1.7-3.7c-0.2-0.7-0.4-1.3-0.6-2c-0.1-0.3-0.1-0.8-0.2-1.1
		c-0.1-0.4-0.1-0.6-0.1-1c-0.2-3.1,0.4-6.1,1.9-8.7c0.8-1.3,1.7-2.6,2.9-3.6c0.3-0.3,0.6-0.5,0.9-0.7c0.3-0.2,0.7-0.4,1-0.7
		c0.4-0.2,0.8-0.4,1.1-0.6l0.9-0.4l0,0c0,0,0.2-0.1,0.1-0.1l0.1,0l0.1,0l0.3-0.1l0.6-0.2c0.4-0.1,0.8-0.1,1.2-0.2
		c0.4,0,0.8,0,1.2-0.1c0.4,0,0.8,0,1.2,0.1c1.5,0.1,3,0.6,4.3,1.3c2.6,1.3,4.7,3.6,5.4,6.5c0.3,1.2,0.3,2.7-0.1,4
		c-0.4,1.4-1.5,2.5-2.6,3.1c-2.2,1.2-4.5,0.9-6,0.3c-1.7-0.7-2.7-1.7-3.6-2.5c-0.8-0.8-1.4-1.5-1.7-2
		C546.5,211.4,546.3,211.1,546.3,211.1z"/>
</g>
<g class="st0">
	<path d="M210.5,35.7c-0.2-0.1-0.1-0.5,0-0.6c0.2-0.2,0.4-0.3,0.7-0.2c0.5,0.2,0.7,0.7,0.9,1.2l0.7,2.6l1.4,5.2
		c0.9,3.5,1.8,6.9,2.6,10.4c0.8,3.5,1.7,6.9,2.5,10.4c0.8,3.5,1.6,7,2.3,10.4l3.5,16.7l-7.6-15.3l-1-2.1l-0.9-2.2l-0.7-2.2l-0.6-2.3
		l-0.4-2.3l-0.3-2.3l-0.1-2.4l0-2.4l0.2-2.4l0.3-2.3l0.5-2.3l0.6-2.3l0.8-2.2l0.9-2.2l1-2.1l1.2-2.1l8.8-15.2l-4.3,17
		c-0.7,2.9-2.1,5.2-3.3,7.3c-1.2,2.1-2.3,4.1-2.6,6c-0.1,0.2-0.1,0.5-0.1,0.7c0,0.2,0,0.5,0,0.7l0,0.3l0,0c0,0,0,0.1,0-0.1l0,0l0,0
		l0,0.1l0,0.2c0,0.4,0.1,0.4,0.1,0.7c0.2,0.9,0.7,1.8,1.2,2.7c0.6,0.9,1.3,1.8,2.1,2.6c0.8,0.9,1.6,1.7,2.5,2.5
		c1.7,1.7,3.5,3.3,5.4,4.9c1.8,1.6,3.7,3.1,5.7,4.6c1.9,1.5,3.9,2.9,5.9,4.3c1,0.7,2,1.4,3.1,2l3.1,1.9l0.4,0.2l-0.3,0.2
		c-1,0.8-2.3,0.9-3.3,0.3c1.1,0.3,2.2,0,2.9-0.8l0.1,0.5c-4.6-1.8-9-4.1-13.3-6.7c-2.1-1.3-4.2-2.7-6.2-4.1c-2-1.4-4-3-5.9-4.6
		c-0.9-0.8-1.9-1.6-2.8-2.5c-0.9-0.9-1.9-1.9-2.7-3c-0.8-1.1-1.5-2.4-2-3.9c-0.1-0.4-0.2-0.9-0.3-1.1l0-0.2l0-0.1l0-0.1l0-0.1
		l-0.1-0.6c-0.1-0.8,0-1.5,0-2.3c0.2-1.5,0.6-2.9,1.2-4.1c0.5-1.3,1.1-2.4,1.7-3.5C217,45,218,43,218.5,41l4.5,1.9l-1,1.8l-0.9,1.8
		l-0.8,1.9l-0.7,1.9l-0.5,2l-0.4,2l-0.3,2l-0.2,2.1l0,2.1l0.1,2.1l0.2,2l0.3,2l0.5,2l0.6,2l0.7,1.9l0.8,1.9l-4.1,1.4
		c-0.6-3.5-1.1-7-1.7-10.6c-0.6-3.5-1.1-7.1-1.6-10.6c-0.5-3.5-1-7.1-1.4-10.6l-0.6-5.3l-0.3-2.7c-0.1-0.4-0.2-0.8-0.5-1
		c-0.1-0.1-0.4,0-0.5,0.1C210.5,35.3,210.4,35.5,210.5,35.7z"/>
</g>
<g class="st0">
	<path d="M245.4,58.8c0,0,0.3,0.2,0.7,0.5c0.4,0.3,1,0.8,1.5,1.4c0.6,0.6,1.1,1.3,1.6,2.1c0.2,0.4,0.5,0.8,0.7,1.3
		c0.2,0.4,0.4,0.9,0.6,1.4c0.1,0.5,0.3,1,0.4,1.4c0.1,0.5,0.2,1,0.2,1.4c0.1,0.9,0.1,1.9,0,2.7c-0.1,0.8-0.2,1.5-0.4,2
		c-0.1,0.5-0.3,0.8-0.3,0.8s-0.3-0.2-0.7-0.5c-0.4-0.3-0.9-0.8-1.4-1.4c-0.5-0.6-1-1.3-1.5-2.2c-0.2-0.4-0.4-0.8-0.6-1.3
		c-0.2-0.4-0.4-0.9-0.5-1.4c-0.3-0.9-0.5-1.9-0.7-2.8c-0.1-0.9-0.2-1.8-0.1-2.6c0-0.8,0.2-1.5,0.3-2
		C245.3,59.1,245.4,58.8,245.4,58.8z"/>
</g>
<g class="st0">
	<path d="M241.7,46.8c0,0,0.1-0.2,0.2-0.4c0.1-0.1,0.2-0.3,0.3-0.4c0.1-0.1,0.3-0.2,0.5-0.3c0.3-0.2,0.7-0.2,1.1-0.1
		c0.3,0.1,0.6,0.4,0.7,0.7c0.1,0.3,0.1,0.7,0,1c-0.1,0.3-0.4,0.6-0.8,0.7c-0.4,0.1-0.7,0.2-1,0.1c-0.1,0-0.3-0.1-0.4-0.1
		c-0.1,0-0.1,0-0.1,0s0,0-0.1-0.1c-0.1,0-0.2-0.1-0.3-0.2c-0.3-0.1-0.6-0.2-0.9-0.2c-0.3,0-0.6,0.1-0.8,0.3
		c-0.2,0.2-0.2,0.3-0.2,0.5c0.1,0.1,0.2,0.2,0.5,0.2c0.2,0,0.5-0.1,0.7-0.4c0.1-0.1,0.2-0.2,0.3-0.4c0.1-0.1,0.2-0.3,0.2-0.4
		C241.6,46.9,241.7,46.8,241.7,46.8z"/>
</g>
<g class="st0">
	<path d="M254.7,59.3c0.5,0.3,0.9,0.7,1.4,1.1c0.4,0.4,0.8,0.8,1.2,1.3c0.4,0.5,0.7,1,1.1,1.5c0.3,0.5,0.6,1.1,0.9,1.6
		c0.3,0.6,0.5,1.2,0.7,1.8c0.2,0.6,0.3,1.2,0.4,1.8c0.1,0.6,0.2,1.3,0.2,1.9c0,0.6,0,1.3-0.1,1.9l-1.2,13.6l-2.6-13.7
		c-0.3-1.8-0.6-3.6-0.7-5.5c-0.1-0.9-0.1-1.9-0.1-2.8c0-1,0-1.8,0.1-2.9c0.1-0.6,0.2-1.2,0.5-1.9c0.2-0.3,0.4-0.7,0.6-1
		c0.1-0.1,0.1-0.2,0.2-0.2l0.1-0.1l0.1-0.1l0.1-0.1c0.1-0.1,0.1-0.1,0.4-0.3c1.5-1.2,3-1.3,4.2-1.3c0.3,0,0.6,0.1,1,0.1l0.2,0l0.2,0
		l0.1,0l0.3,0.1c0.1,0,0.2,0,0.4,0.1l0.5,0.2c0.3,0.1,0.6,0.2,0.9,0.4c1,0.5,2,1.2,2.8,1.9c1.6,1.5,2.7,3.3,3.4,5.2
		c0.2,0.5,0.3,0.9,0.5,1.4l0.2,0.7l0.1,0.7c0.2,1,0.3,1.9,0.4,2.8c0.2,1.8,0.2,3.6,0.3,5.4c0,0.9,0.1,1.8,0.1,2.6
		c0,0.5,0,0.9,0.2,1.1c0,0.1,0.1,0.1,0.2,0.1c0,0,0.1,0,0.2,0c0.1-0.1,0.3-0.3,0.2-0.4c0.1,0,0.2,0.2,0.2,0.3c0,0.1-0.1,0.3-0.2,0.4
		c-0.1,0.1-0.2,0.2-0.4,0.2c-0.1,0-0.3-0.1-0.4-0.1c-0.5-0.4-0.7-0.9-0.9-1.3c-0.4-0.8-0.7-1.7-1-2.6c-0.6-1.7-1.1-3.5-1.6-5.1
		c-0.3-0.8-0.5-1.6-0.8-2.3l-0.2-0.6l-0.2-0.5c-0.2-0.4-0.3-0.7-0.5-1c-0.8-1.3-1.7-2.6-2.8-3.4c-0.5-0.4-1.1-0.8-1.7-1
		c-0.4-0.2-1.2-0.4-1.7-0.4c-0.5,0-0.9,0.2-0.8,0.1c0.1-0.1,0,0-0.1,0.1l0,0l0,0c0.2-0.2,0,0,0.1-0.1l0,0l0,0c0,0,0,0,0,0
		c0,0,0,0-0.1,0.1c-0.1,0.1-0.1,0.3-0.2,0.6c-0.1,0.6-0.2,1.5-0.2,2.4c-0.1,0.8-0.1,1.7-0.1,2.5c-0.1,1.7-0.1,3.4,0,5.1l-3.8-0.1
		c0.1-0.5,0.2-1,0.3-1.5c0.1-0.5,0.1-1,0.2-1.5c0-0.5,0-1,0-1.6c0-0.5-0.1-1-0.2-1.6c-0.1-0.5-0.2-1.1-0.3-1.6
		c-0.1-0.5-0.3-1-0.5-1.6c-0.2-0.5-0.4-1-0.7-1.5l-0.4-0.8C255,59.8,254.9,59.5,254.7,59.3z"/>
</g>
<g class="st0">
	<path d="M292.9,61.5c0,0,0-0.1-0.1-0.2c-0.1-0.1-0.2-0.2-0.4-0.4c-0.4-0.3-1.1-0.6-1.9-0.6c-0.9,0-1.9,0.2-2.8,0.9
		c-0.9,0.7-1.7,1.8-2.4,3.1c-0.4,0.7-0.8,1.4-1.1,2.2c-0.4,0.8-0.7,1.5-1,2.3c-0.3,0.8-0.5,1.6-0.6,2.4c0,0.2,0,0.4,0,0.6
		c0,0,0,0.5,0,0.6c0,0.3,0.1,0.7,0.2,1c0.2,0.7,0.5,1.4,0.9,1.9c0.2,0.2,0.4,0.4,0.6,0.6c0.1,0.1,0.2,0.1,0.3,0.2l0,0l0,0
		c0.1,0.1-0.2-0.1-0.1-0.1l0,0l0.2,0.1l0.4,0.1c0.2,0,0.1,0,0.2,0c0.1,0,0.3,0,0.4,0c0.3,0,0.6-0.1,0.9-0.2c0.6-0.2,1.3-0.6,1.9-1.2
		c0.6-0.5,1.1-1.2,1.6-1.9c0.2-0.4,0.3-0.6,0.6-1.2c0.1-0.4,0.3-0.8,0.4-1.2c0.5-1.8,0.8-3.7,0.9-5.6c0.1-1,0.1-1.9,0.1-2.9
		c0-1,0-1.9,0-2.8c0-1.8-0.1-3.6-0.1-5.2c-0.1-3.2-0.4-5.9-0.6-7.8c-0.2-1.9-0.3-3-0.3-3s0.1,0.2,0.4,0.7c0.2,0.5,0.6,1.2,0.9,2.1
		c0.7,1.8,1.7,4.4,2.5,7.7c0.4,1.6,0.7,3.4,1,5.3c0.1,0.9,0.3,2,0.4,2.9c0.1,1,0.2,2.1,0.2,3.1c0.1,2.2-0.1,4.5-0.7,6.9
		c-0.2,0.6-0.3,1.2-0.6,1.8c-0.2,0.4-0.5,1.2-0.8,1.7c-0.7,1.2-1.5,2.2-2.5,3.2c-1,0.9-2.2,1.7-3.7,2.2c-0.7,0.2-1.5,0.4-2.3,0.4
		c-0.4,0-0.8,0-1.2-0.1c-0.4-0.1-1-0.2-1.3-0.3l-0.4-0.1l-0.2-0.1l0,0c0,0-0.3-0.1-0.2-0.1l-0.1,0l-0.1-0.1c-0.4-0.2-0.7-0.4-1-0.6
		c-0.6-0.5-1.1-1.1-1.6-1.7c-0.8-1.2-1.3-2.5-1.5-3.9c-0.1-0.7-0.1-1.2-0.1-2c0-0.4,0-0.4,0.1-0.9c0-0.3,0.1-0.6,0.2-0.9
		c0.3-1.1,0.7-2.2,1.2-3.1c0.5-0.9,1-1.7,1.6-2.5c0.6-0.8,1.1-1.4,1.6-2.1c1.1-1.3,2.4-2.5,3.9-3.1c0.7-0.3,1.5-0.5,2.1-0.5
		c0.7,0,1.3,0.1,1.8,0.3c1,0.3,1.6,1,1.9,1.4C292.9,61.3,292.9,61.5,292.9,61.5z"/>
</g>
<g class="st0">
	<path d="M299.2,58.1c0.9,1.3,1.7,2.7,2.4,4.1c0.7,1.4,1.4,2.9,1.9,4.4c1.2,3,2,6.1,2.7,9.2l-4.2-0.2c0.2-1.5,0.2-3.2,0.1-5
		c0-0.9,0-1.9,0-3l0-0.4l0-0.4l0-0.3l0.1-0.4c0.1-0.6,0.2-1.1,0.4-1.7c0.3-1.1,0.8-2.2,1.5-3.2c0.7-1,1.7-2,2.9-2.6
		c0.3-0.2,0.6-0.3,1-0.4l0.2-0.1l0.1,0l0.2-0.1l0.1,0l0.3-0.1c0.2-0.1,0.8-0.1,1.1-0.2c0.3,0,0.7,0,1,0c1.4,0.1,2.6,0.6,3.6,1.2
		c1,0.6,1.9,1.4,2.7,2.3c0.4,0.5,0.7,0.9,1,1.4l0.1,0.2l0.1,0.2l0.2,0.3c0.1,0.3,0.3,0.6,0.3,0.8c0.8,2,1,4,1.2,5.9
		c0.2,1.9,0.2,3.7,0.5,5.5c0.2,0.9,0.3,1.7,0.6,2.6c0.3,0.8,0.7,1.7,1.2,2.5c-0.8-0.5-1.5-1.2-2.1-2c-0.6-0.8-1.1-1.6-1.5-2.5
		c-0.4-0.9-0.7-1.8-1-2.7c-0.3-0.9-0.5-1.8-0.8-2.7c-0.5-1.8-1-3.4-1.8-4.8c-0.1-0.2-0.2-0.3-0.3-0.5l-0.2-0.3l-0.1-0.1
		c0,0,0,0-0.1-0.1c-0.2-0.3-0.4-0.5-0.7-0.8c-0.5-0.5-1.1-0.9-1.6-1.2c-0.6-0.3-1.2-0.4-1.7-0.4c-0.1,0-0.2,0-0.4,0
		c-0.1,0-0.1,0-0.1,0c0,0,0,0-0.2,0l-0.3,0.1l-0.1,0l0,0c0.3-0.1,0.1,0,0.1,0l0,0l0,0l-0.1,0c-0.1,0-0.2,0.1-0.3,0.2
		c-0.8,0.4-1.6,1.6-2,2.9c-0.1,0.3-0.2,0.7-0.3,1l0,0.2l0,0.3l0,0.3l0,0.3c-0.1,0.8-0.1,1.7-0.1,2.6c-0.1,1.8-0.1,3.9-0.7,6
		L303,87.9l-1-11.5l-0.2-2.3l-0.2-2.3c-0.2-1.5-0.4-3-0.6-4.6c-0.2-1.5-0.5-3.1-0.8-4.6c-0.1-0.8-0.3-1.5-0.4-2.3
		c-0.1-0.4-0.1-0.8-0.2-1.2C299.3,58.9,299.3,58.5,299.2,58.1z"/>
</g>
<g class="st0">
	<path d="M327.6,70.8c1.2-0.4,2.3-0.8,3.3-1.4c1-0.6,1.9-1.3,2.7-2.1c0.8-0.8,1.4-1.7,1.9-2.6c0.3-0.8,0.6-1.8,0.6-2.6
		c0-0.4-0.1-0.8-0.2-1c-0.1-0.2-0.3-0.3-0.4-0.4l-0.1,0l0,0c0.1,0-0.1-0.1,0.1,0.1l0,0l-0.1,0l-0.1,0c-0.1,0-0.2-0.1-0.2-0.1
		c0,0,0,0,0,0c0,0-0.1,0-0.2,0c-0.2,0-0.5,0.1-0.8,0.3c-0.7,0.3-1.4,0.9-2,1.6c-0.7,0.8-1.3,1.6-1.8,2.6c-0.5,0.9-0.9,1.9-1.3,2.9
		c-0.2,0.5-0.3,1-0.4,1.5c-0.1,0.5-0.2,1-0.2,1.3c0,0.2,0,0.2,0,0.3c0,0.1,0.1,0.2,0.3,0.3c0.1,0.1,0.1,0.1,0.2,0.2l0.1,0.1l0.1,0
		l0,0l0,0c0,0,0.1,0-0.1,0l0,0l0.8,0.5c0.3,0.2,0.5,0.2,0.7,0.3c0.2,0.1,0.4,0.2,0.7,0.3c0.2,0.1,0.5,0.2,0.7,0.3
		c1,0.4,2.1,0.6,3.2,0.8c1.1,0.2,2.2,0.2,3.3,0.1c1.1-0.1,2.3-0.2,3.4-0.5c1.1-0.3,2.3-0.7,3.4-1.3l0.1,0.5
		c-0.4-0.2-0.9-0.5-1.3-0.7c0.5,0,1,0.1,1.5,0.2l0.5,0.1l-0.4,0.5c-0.9,0.9-1.9,1.8-3,2.4c-1.1,0.7-2.3,1.2-3.6,1.6
		c-1.3,0.4-2.6,0.6-4,0.7c-1.4,0.1-2.7,0-4.1-0.3c-0.7-0.1-1.3-0.3-2-0.6c-0.3-0.1-0.7-0.3-1-0.4l-0.8-0.4l-0.3-0.2l-0.3-0.1
		c-0.2-0.1-0.3-0.2-0.5-0.3c-0.4-0.2-0.7-0.5-1.1-0.9c-0.8-0.8-1.3-2.1-1.3-3.1c-0.1-1,0.1-1.7,0.2-2.4c0.1-0.7,0.3-1.4,0.5-2.1
		c0.4-1.3,0.9-2.7,1.7-3.9c0.7-1.2,1.5-2.4,2.5-3.4c1-1.1,2.3-2.1,3.9-2.7c0.8-0.3,1.7-0.5,2.7-0.5c0.5,0,1,0.1,1.6,0.3
		c0.2,0.1,0.3,0.1,0.4,0.2l0.2,0.1l0.3,0.2L338,57c0.8,0.6,1.5,1.6,1.8,2.5c0.3,0.9,0.3,1.8,0.2,2.6c-0.1,0.8-0.3,1.6-0.6,2.3
		c-0.3,0.7-0.7,1.3-1.2,2c-0.9,1.1-2,2-3.1,2.7c-1.2,0.7-2.4,1.2-3.7,1.5C330.2,70.9,328.9,70.9,327.6,70.8z"/>
</g>
<g class="st0">
	<path d="M361.4,56.2c0.6-0.3,0.8-0.8,0.6-1.3c-0.1-0.5-0.4-0.9-0.7-1.1c-0.2-0.1-0.4-0.2-0.5-0.2c-0.3-0.1-0.5,0-0.7,0
		c-0.4,0.1-0.9,0.2-1.3,0.4c-0.4,0.2-0.9,0.5-1.3,0.8l-0.6,0.5l-0.6,0.5c-0.8,0.7-1.5,1.5-2.2,2.4c-0.3,0.4-0.6,0.9-0.9,1.3
		c-0.3,0.4-0.6,0.9-0.7,1.3c-0.2,0.4-0.3,0.8-0.3,1c0,0.2,0.1,0.3,0.1,0.3l0,0l0,0c-0.2-0.3,0-0.1-0.1-0.1l0,0l0.1,0.1l0.1,0.2
		c0.1,0.1,0,0,0,0c0,0,0,0,0-0.1c0,0,0.1,0,0.2,0.1c0.2,0.1,0.5,0.2,0.9,0.2c0.8,0.1,1.9,0,3-0.2l0.9-0.1c0.4,0,0.7,0,1-0.1
		c0.7,0,1.4,0,2.1,0.1c1.4,0.2,3,0.6,4.4,1.6l0.1,0.1l0.1,0l0.2,0.1l0,0l0.2,0.1c0.1,0.1,0.2,0.2,0.4,0.3c0.4,0.4,0.7,0.8,1,1.1
		c0.5,0.7,0.8,1.6,1,2.4c0.4,1.7,0.1,3.4-0.5,4.8c-0.7,1.5-1.8,2.7-3.2,3.5c-0.1,0.1-0.2,0.1-0.4,0.2l-0.6,0.2
		c-0.4,0.2-0.7,0.2-1.1,0.3c-0.7,0.2-1.4,0.3-2.1,0.3c-1.4,0-2.7-0.3-4-0.8c-1.2-0.5-2.4-1.2-3.3-2.1l-0.7-0.7l0.7-0.3
		c1.1-0.5,2.3-0.6,3.4-0.4c-1.1,0.2-2,0.7-2.8,1.4l0-1c1,0.5,2.1,0.8,3.1,0.9c1.1,0.1,2.1,0.1,3.1-0.1c0.5-0.1,0.9-0.3,1.4-0.5
		c0.2-0.1,0.4-0.2,0.6-0.3l0.2-0.1c0.1,0,0.2-0.2,0.3-0.2c0.6-0.5,1-1.2,1.3-1.9c0.2-0.7,0.2-1.5,0-2.1c-0.1-0.3-0.2-0.6-0.4-0.8
		c-0.1-0.1-0.2-0.1-0.2-0.2c0,0-0.2-0.2-0.3-0.3l-0.2-0.1l0,0l0,0c-0.1-0.1,0.2,0.1,0.1,0.1l0,0l-0.1,0c-0.6-0.3-1.4-0.6-2.3-0.7
		c-0.5,0-0.9-0.1-1.4,0l-0.7,0l-0.8,0.1c-1.2,0.1-2.5,0.2-4.1,0c-0.8-0.1-1.6-0.3-2.5-0.7c-0.4-0.2-0.9-0.5-1.3-0.9
		c-0.1-0.1-0.2-0.2-0.4-0.4c-0.1-0.1-0.3-0.3-0.3-0.3l-0.1-0.2l-0.1-0.1l-0.1-0.2l0,0l0-0.1c-0.5-1-0.6-2.3-0.4-3.2
		c0.2-0.9,0.5-1.7,0.9-2.3c0.4-0.7,0.8-1.2,1.2-1.7c0.4-0.5,0.9-1,1.4-1.4c1-0.9,2-1.7,3.1-2.4c0.3-0.2,0.6-0.3,0.8-0.5l0.4-0.2
		l0.5-0.2c0.6-0.3,1.3-0.5,2-0.7c0.7-0.1,1.4-0.2,2.2-0.1c0.3,0.1,0.8,0.2,1,0.3c0.4,0.2,0.7,0.5,1,0.8c0.5,0.6,0.7,1.4,0.5,2.1
		C362.7,55.6,362.1,56.2,361.4,56.2z"/>
</g>
<g class="st0">
	<path d="M377.6,56.1c-1-0.4-1.9-0.5-2.9-0.5c-0.9,0-1.8,0.2-2.6,0.6c-0.7,0.4-1.3,0.8-1.6,1.4c-0.2,0.5-0.3,1.1-0.2,1.6
		c0.1,0.6,0.4,1,0.8,1.3c0.2,0.1,0.4,0.2,0.6,0.2l0.1,0l0,0l0,0c-0.2,0,0,0-0.1,0l0,0l0.1,0c0.1,0,0.3,0.1,0.3,0l0.2,0
		c0.1,0,0.2,0,0.2,0c0.7,0,1.6-0.1,2.7-0.2c0.6,0,1.2-0.1,1.9,0c0.1,0,0.2,0,0.4,0.1l0.6,0.1c0.4,0.1,0.7,0.2,1,0.3
		c1.3,0.5,2.4,1.2,3.4,2.1c1,0.9,1.7,1.9,2.3,3.1c0.3,0.6,0.5,1.2,0.7,1.8l0.1,0.4l0.1,0.5c0.1,0.3,0.1,0.6,0.1,1
		c0.1,1.3,0,2.6-0.4,3.8c-0.4,1.2-1.1,2.4-2,3.3c-0.5,0.5-0.9,0.8-1.6,1.2c-0.6,0.3-1.1,0.5-1.7,0.7c-1.2,0.3-2.4,0.4-3.5,0.1
		c-1.1-0.2-2.2-0.8-3-1.6l-0.6-0.6l0.7,0c0.5,0,1,0,1.5,0c-0.4,0.2-0.8,0.5-1.3,0.7l0.1-0.6c0.9,0.4,1.8,0.4,2.7,0.3
		c0.9-0.1,1.7-0.4,2.4-0.8c0.3-0.2,0.7-0.5,0.9-0.7c0.2-0.2,0.5-0.6,0.7-0.8c0.4-0.6,0.6-1.3,0.7-2c0.1-0.7,0.1-1.5-0.1-2.2
		c0-0.2-0.1-0.4-0.1-0.5l-0.1-0.2l-0.1-0.3c-0.1-0.3-0.3-0.6-0.5-0.9c-0.4-0.6-0.9-1.2-1.4-1.7c-0.5-0.5-1.1-0.8-1.7-1.1
		c-0.1,0-0.3-0.1-0.4-0.1c-0.1,0-0.1,0-0.2,0c-0.1,0-0.2,0-0.3-0.1c-0.3,0-0.7-0.1-1.1-0.1c-0.9,0-1.9,0.1-3.3,0
		c-0.2,0-0.3,0-0.5-0.1c-0.2,0-0.4-0.1-0.6-0.1c-0.2-0.1-0.4-0.1-0.5-0.1l-0.1,0l-0.1,0l0,0l-0.1,0L370,65c-0.7-0.3-1.4-0.8-2-1.4
		c-1.1-1.2-1.6-2.7-1.6-4.1c0-1.5,0.5-2.9,1.6-4c1-1,2.3-1.5,3.5-1.6c1.2-0.1,2.4,0,3.4,0.4C376,54.7,376.9,55.3,377.6,56.1z"/>
</g>
<g class="st0">
	<path d="M209.6,30.8c1.5,3,2.6,6,3.5,9.1c0.9,3.1,1.5,6.3,2,9.4c0.5,3.2,0.8,6.4,0.8,9.6c0.1,3.2-0.1,6.5-0.5,9.7l-1.3,0.1
		c0.1-0.8,0.3-1.6,0.5-2.5c0.3,0.8,0.6,1.6,0.8,2.4l-1.3,0.1c-0.5-1.6-1-3.1-1.3-4.7c-0.4-1.6-0.7-3.1-1.1-4.7
		c-0.3-1.6-0.6-3.1-0.8-4.7c-0.3-1.6-0.5-3.1-0.7-4.7c-0.2-1.6-0.4-3.1-0.5-4.7c-0.1-1.6-0.2-3.2-0.3-4.8c-0.1-1.6-0.1-3.2-0.1-4.8
		C209.3,34.1,209.4,32.5,209.6,30.8z"/>
</g>
<g class="st0">
	<path d="M495.3,124c0,0-0.2,0.8-0.6,2.1c-0.2,0.7-0.4,1.5-0.8,2.4c-0.3,0.9-0.7,1.9-1.1,3c-0.9,2.2-2,4.7-3.3,7.3
		c-0.7,1.3-1.4,2.6-2.2,3.9c-0.8,1.3-1.6,2.6-2.4,4c-0.9,1.3-1.7,2.6-2.6,3.8c-0.9,1.3-1.8,2.4-2.7,3.6c-1.8,2.3-3.6,4.4-5.2,6
		c-3.2,3.4-5.8,5.3-5.8,5.3s0.3-0.7,0.9-2c0.6-1.2,1.5-3,2.6-5c1.1-2,2.4-4.4,3.9-6.8c1.5-2.5,3.1-5.1,4.7-7.6
		c0.8-1.3,1.7-2.6,2.5-3.8c0.8-1.3,1.7-2.5,2.5-3.7c1.6-2.4,3.2-4.5,4.6-6.4c1.4-1.8,2.6-3.4,3.5-4.4
		C494.7,124.5,495.3,124,495.3,124z"/>
</g>
<g class="st0">
	<path d="M482.1,146.2c0,0,0.2,0,0.5-0.1c0.3,0,0.8-0.1,1.4-0.2c1.2-0.1,3.1,0,5.2,0.8c1.1,0.4,2.1,0.9,3.3,1.7
		c0.6,0.4,1.1,0.9,1.6,1.6c0.1,0.1,0.1,0.1,0.2,0.3c0,0.1,0.1,0.1,0.2,0.2c0.1,0.2,0.2,0.4,0.3,0.6c0.2,0.4,0.4,0.8,0.5,1.2
		c0.1,0.4,0.3,0.8,0.3,1.2c0,0.2,0.1,0.4,0.1,0.7c0,0.2,0,0.3,0.1,0.5c0.1,1,0,1.7-0.1,2.5c-0.2,1.6-0.8,3.1-1.5,4.5
		c-0.7,1.3-1.4,2.6-2.2,3.7c-0.8,1.2-1.6,2.3-2.5,3.3c-0.9,1-1.8,1.9-2.7,2.7c-0.9,0.8-1.7,1.5-2.5,2.1c-1.5,1.3-2.6,2.4-3.3,3.3
		c-0.7,0.9-1.1,1.6-1.1,1.6s0-0.2,0-0.5c0-0.3,0-0.8,0.2-1.4c0.1-0.6,0.3-1.4,0.6-2.2c0.3-0.8,0.8-1.7,1.4-2.6
		c0.6-0.9,1.2-1.8,1.9-2.8c0.7-0.9,1.3-1.9,2-2.9c0.7-1,1.3-2.1,1.9-3.2c0.6-1.1,1.3-2.2,1.8-3.3c0.5-1.1,0.9-2.2,1.2-3.2
		c0.1-0.3,0.1-0.5,0.1-0.7c0-0.3,0.1-0.5,0.1-0.7c0-0.1,0-0.3,0-0.5c0,0,0-0.2,0-0.3c0-0.2,0-0.4-0.1-0.7c-0.2-0.9-0.5-1.5-1.1-2.2
		c-0.6-0.7-1.4-1.4-2.1-2c-1.5-1.1-3-1.9-4-2.4c-0.5-0.2-1-0.4-1.3-0.5C482.3,146.3,482.1,146.2,482.1,146.2z"/>
</g>
</svg>
