<svg width="48" height="48" viewBox="0 0 48 48" fill="none" xmlns="http://www.w3.org/2000/svg">
<path d="M0 15.8571V2.57143C0 1.14643 1.14643 0 2.57143 0H15.8571C16.5643 0 17.1429 0.578571 17.1429 1.28571V5.57143C17.1429 6.27857 16.5643 6.85714 15.8571 6.85714H6.85714V15.8571C6.85714 16.5643 6.27857 17.1429 5.57143 17.1429H1.28571C0.578571 17.1429 0 16.5643 0 15.8571ZM30.8571 1.28571V5.57143C30.8571 6.27857 31.4357 6.85714 32.1429 6.85714H41.1429V15.8571C41.1429 16.5643 41.7214 17.1429 42.4286 17.1429H46.7143C47.4214 17.1429 48 16.5643 48 15.8571V2.57143C48 1.14643 46.8536 0 45.4286 0H32.1429C31.4357 0 30.8571 0.578571 30.8571 1.28571ZM46.7143 30.8571H42.4286C41.7214 30.8571 41.1429 31.4357 41.1429 32.1429V41.1429H32.1429C31.4357 41.1429 30.8571 41.7214 30.8571 42.4286V46.7143C30.8571 47.4214 31.4357 48 32.1429 48H45.4286C46.8536 48 48 46.8536 48 45.4286V32.1429C48 31.4357 47.4214 30.8571 46.7143 30.8571ZM17.1429 46.7143V42.4286C17.1429 41.7214 16.5643 41.1429 15.8571 41.1429H6.85714V32.1429C6.85714 31.4357 6.27857 30.8571 5.57143 30.8571H1.28571C0.578571 30.8571 0 31.4357 0 32.1429V45.4286C0 46.8536 1.14643 48 2.57143 48H15.8571C16.5643 48 17.1429 47.4214 17.1429 46.7143Z" fill="white"/>
</svg>
