<svg xmlns="http://www.w3.org/2000/svg" viewBox="0 0 25.096 35.966"><path d="M15.647 0C10.6 0 6.723 1.694 4.013 5.08 1.338 8.467 0 12.82 0 18.136c0 4.978 1.22 9.194 3.658 12.65 2.438 3.453 6.35 5.18 11.734 5.18 1.423 0 3.066-.203 4.928-.61 1.863-.405 3.455-.947 4.776-1.625l-2.49-4.875c-1.05.44-2.218.812-3.505 1.117-1.252.305-2.607.457-4.063.457-2.947 0-5.046-1.22-6.3-3.66-1.252-2.437-1.88-5.333-1.88-8.685 0-3.895.746-6.96 2.237-9.195 1.49-2.235 3.606-3.353 6.35-3.353 1.354 0 2.505.12 3.454.356.948.203 2.235.56 3.86 1.067l2.033-4.725C23.3 1.422 21.66.847 19.864.508 18.068.168 16.663 0 15.647 0zm.782 9.258c-2.524 0-4.463.846-5.817 2.54-1.338 1.693-2.007 3.87-2.007 6.528 0 2.49.61 4.597 1.83 6.324 1.218 1.727 3.174 2.59 5.866 2.59.712 0 1.533-.1 2.464-.304.932-.203 1.727-.474 2.388-.813l-1.245-2.438c-.526.22-1.11.407-1.753.56a8.716 8.716 0 0 1-2.032.227c-1.474 0-2.524-.61-3.15-1.828-.627-1.22-.94-2.667-.94-4.344 0-1.947.373-3.48 1.118-4.597.745-1.118 1.803-1.676 3.175-1.676.677 0 1.253.06 1.727.177.474.102 1.118.28 1.93.534L21 10.376a8.294 8.294 0 0 0-2.462-.864c-.898-.17-1.6-.254-2.11-.254zm1.17 8.035a.943.943 0 0 0-.674.267.897.897 0 0 0-.267.66c0 .263.088.483.266.66.186.178.41.268.673.268.26 0 .478-.09.647-.268a.893.893 0 0 0 .267-.66.9.9 0 0 0-.267-.66.857.857 0 0 0-.648-.267z" fill="#fff"/></svg>