<?xml version="1.0" encoding="utf-8"?>
<!-- Generator: Adobe Illustrator 19.1.0, SVG Export Plug-In . SVG Version: 6.00 Build 0)  -->
<svg version="1.1" id="Layer_1" xmlns="http://www.w3.org/2000/svg" xmlns:xlink="http://www.w3.org/1999/xlink" x="0px" y="0px"
	 viewBox="132 -151.4 464 502.4" style="enable-background:new 132 -151.4 464 502.4;" xml:space="preserve">
<style type="text/css">
	.st0{enable-background:new    ;}
	.st1{fill:#00AEEF;}
	.st2{fill:#A7A9AC;}
	.st3{fill:none;}
</style>
<g class="st0">
	<path class="st1" d="M210.3,863c0-29.4,5.2-58.7,15.5-87.8c10.3-29.2,25.4-55.2,45.1-78.2c19.7-23,44.1-41.7,73-56.2
		c28.9-14.5,61.8-21.7,98.5-21.7c43.6,0,80.8,9.9,111.6,29.6c30.8,19.8,53.7,45.5,68.9,77.2l-38.6,23.4
		c-7.8-16.1-17.2-29.6-28.2-40.7c-11-11-23-20-35.8-26.9c-12.9-6.9-26.2-11.8-40-14.8c-13.8-3-27.3-4.5-40.7-4.5
		c-29.4,0-55.4,6-77.9,17.9c-22.5,11.9-41.5,27.6-56.8,46.9c-15.4,19.3-27,41-34.8,65.1c-7.8,24.1-11.7,48.6-11.7,73.4
		c0,27.1,4.7,53.1,14.1,77.9c9.4,24.8,22.3,46.7,38.6,65.8c16.3,19.1,35.6,34.2,57.9,45.5c22.3,11.3,46.5,16.9,72.7,16.9
		c13.8,0,27.9-1.7,42.4-5.2c14.5-3.4,28.5-9,42-16.5c13.5-7.6,26.1-17,37.6-28.2c11.5-11.3,21.1-24.9,28.9-41l40,20.7
		c-7.8,18.4-18.8,34.6-33.1,48.6c-14.2,14-30.1,25.8-47.5,35.5c-17.5,9.6-35.9,17-55.5,22c-19.5,5-38.7,7.6-57.5,7.6
		c-33.5,0-64.3-7.3-92.3-22c-28-14.7-52.1-33.9-72.3-57.5c-20.2-23.7-35.9-50.5-47.2-80.6C215.9,924.9,210.3,894.2,210.3,863z"/>
</g>
<g class="st0">
	<path class="st2" d="M319.6,862.6c0-14.7,2.6-29.3,7.8-43.9c5.2-14.6,12.7-27.6,22.6-39.1c9.9-11.5,22-20.8,36.5-28.1
		c14.5-7.2,30.9-10.9,49.3-10.9c21.8,0,40.4,4.9,55.8,14.8c15.4,9.9,26.9,22.7,34.5,38.6l-19.3,11.7c-3.9-8-8.6-14.8-14.1-20.3
		c-5.5-5.5-11.5-10-17.9-13.4c-6.4-3.4-13.1-5.9-20-7.4c-6.9-1.5-13.7-2.2-20.3-2.2c-14.7,0-27.7,3-38.9,9
		c-11.3,6-20.7,13.8-28.4,23.4c-7.7,9.6-13.5,20.5-17.4,32.6c-3.9,12.1-5.9,24.3-5.9,36.7c0,13.6,2.4,26.5,7.1,38.9
		c4.7,12.4,11.1,23.4,19.3,32.9c8.1,9.5,17.8,17.1,28.9,22.7c11.1,5.6,23.3,8.4,36.3,8.4c6.9,0,14-0.9,21.2-2.6s14.2-4.5,21-8.3
		c6.8-3.8,13-8.5,18.8-14.1c5.7-5.6,10.6-12.5,14.5-20.5l20,10.3c-3.9,9.2-9.4,17.3-16.5,24.3c-7.1,7-15,12.9-23.8,17.7
		c-8.7,4.8-18,8.5-27.7,11c-9.8,2.5-19.4,3.8-28.8,3.8c-16.8,0-32.2-3.7-46.2-11c-14-7.3-26.1-16.9-36.2-28.8
		c-10.1-11.8-18-25.3-23.6-40.3C322.4,893.5,319.6,878.2,319.6,862.6z"/>
</g>
<rect id="_x3C_Slice_x3E_" x="207" y="616.6" class="st3" width="464" height="476.5"/>
</svg>
