<?xml version="1.0" encoding="utf-8"?>
<!-- Generator: Adobe Illustrator 19.1.0, SVG Export Plug-In . SVG Version: 6.00 Build 0)  -->
<svg version="1.1" id="Layer_1" xmlns="http://www.w3.org/2000/svg" xmlns:xlink="http://www.w3.org/1999/xlink" x="0px" y="0px"
	 viewBox="0 701 600 600" style="enable-background:new 0 701 600 600;" xml:space="preserve">
<style type="text/css">
	.st0{enable-background:new    ;}
	.st1{fill:#00AEEF;}
	.st2{fill:#A7A9AC;}
	.st3{fill:none;}
</style>
<g class="st0">
	<path class="st1" d="M163.8,1006.8c0-19.3,3.4-38.4,10.2-57.6c6.8-19.1,16.6-36.2,29.6-51.2c12.9-15,28.9-27.3,47.9-36.8
		S291.9,847,316,847c28.6,0,53,6.5,73.1,19.4c20.2,12.9,35.2,29.8,45.1,50.6L409,932.3c-5.1-10.5-11.3-19.4-18.5-26.6
		S375.4,892.6,367,888c-8.4-4.5-17.2-7.7-26.2-9.7c-9-2-17.9-2.9-26.6-2.9c-19.3,0-36.3,3.9-51,11.7c-14.8,7.8-27.2,18.1-37.2,30.7
		c-10.1,12.6-17.7,26.9-22.8,42.7c-5.1,15.8-7.7,31.8-7.7,48.1c0,17.8,3.1,34.8,9.3,51c6.2,16.3,14.6,30.6,25.3,43.1
		c10.7,12.5,23.3,22.4,37.9,29.8c14.6,7.4,30.5,11.1,47.6,11.1c9,0,18.3-1.1,27.8-3.4s18.7-5.9,27.5-10.8c8.9-5,17.1-11.1,24.6-18.5
		c7.5-7.4,13.8-16.3,19-26.9l26.2,13.5c-5.1,12-12.3,22.7-21.7,31.8c-9.3,9.2-19.7,16.9-31.2,23.2c-11.4,6.3-23.6,11.1-36.3,14.4
		c-12.8,3.3-25.4,5-37.7,5c-22,0-42.1-4.8-60.5-14.4c-18.4-9.6-34.2-22.2-47.4-37.7c-13.2-15.5-23.6-33.1-30.9-52.8
		C167.5,1047.3,163.8,1027.2,163.8,1006.8z"/>
</g>
<g class="st0">
	<path class="st2" d="M235.4,1006.5c0-9.6,1.7-19.2,5.1-28.8c3.4-9.6,8.3-18.1,14.8-25.6c6.5-7.5,14.4-13.7,23.9-18.4
		s20.2-7.1,32.3-7.1c14.3,0,26.5,3.2,36.6,9.7c10.1,6.5,17.6,14.9,22.6,25.3l-12.6,7.7c-2.6-5.3-5.6-9.7-9.3-13.3
		c-3.6-3.6-7.5-6.5-11.7-8.8c-4.2-2.3-8.6-3.9-13.1-4.9c-4.5-1-9-1.5-13.3-1.5c-9.6,0-18.1,2-25.5,5.9c-7.4,3.9-13.6,9-18.6,15.3
		c-5,6.3-8.8,13.4-11.4,21.3c-2.6,7.9-3.8,15.9-3.8,24c0,8.9,1.5,17.4,4.6,25.5c3.1,8.1,7.3,15.3,12.6,21.6
		c5.3,6.2,11.7,11.2,19,14.9c7.3,3.7,15.2,5.5,23.8,5.5c4.5,0,9.1-0.6,13.9-1.7s9.3-2.9,13.8-5.4c4.4-2.5,8.5-5.6,12.3-9.3
		c3.8-3.7,6.9-8.2,9.5-13.4l13.1,6.8c-2.6,6-6.2,11.3-10.8,15.9c-4.7,4.6-9.9,8.5-15.6,11.6c-5.7,3.2-11.8,5.6-18.2,7.2
		c-6.4,1.7-12.7,2.5-18.8,2.5c-11,0-21.1-2.4-30.2-7.2c-9.2-4.8-17.1-11.1-23.7-18.8c-6.6-7.7-11.8-16.6-15.5-26.4
		C237.3,1026.8,235.4,1016.8,235.4,1006.5z"/>
</g>
<rect id="_x3C_Slice_x3E_" x="75" y="768" class="st3" width="464" height="476.5"/>
</svg>
