<svg width="134" height="36" viewBox="0 0 134 36" fill="none" xmlns="http://www.w3.org/2000/svg">
<path d="M44.224 13.448C43.8613 13.3093 43.52 13.1973 43.2 13.112C42.88 13.0267 42.448 12.984 41.904 12.984C40.8373 12.9947 39.9893 13.4267 39.36 14.28C38.7413 15.1333 38.432 16.2427 38.432 17.608C38.432 18.8453 38.6933 19.912 39.216 20.808C39.7493 21.6933 40.5973 22.136 41.76 22.136C42.304 22.136 42.7627 22.088 43.136 21.992C43.52 21.896 43.8613 21.7787 44.16 21.64L44.64 22.6C44.3093 22.7707 43.8667 22.9147 43.312 23.032C42.768 23.16 42.272 23.224 41.824 23.224C40.1493 23.224 38.944 22.6693 38.208 21.56C37.472 20.44 37.104 19.128 37.104 17.624C37.104 16.0133 37.5093 14.6587 38.32 13.56C39.1413 12.4507 40.336 11.896 41.904 11.896C42.2347 11.896 42.6827 11.944 43.248 12.04C43.824 12.136 44.2827 12.296 44.624 12.52L44.224 13.448Z" fill="white"/>
<path d="M47.5465 20.792C47.5465 21.1227 47.6585 21.4373 47.8825 21.736C48.1172 22.0347 48.4905 22.184 49.0025 22.184C49.4505 22.184 49.8612 22.072 50.2345 21.848C50.6078 21.624 50.9278 21.3573 51.1945 21.048V19.272H49.1465C48.6238 19.272 48.2238 19.4267 47.9465 19.736C47.6798 20.0347 47.5465 20.3867 47.5465 20.792ZM46.8745 15.72C47.1732 15.5173 47.5945 15.352 48.1385 15.224C48.6825 15.096 49.1145 15.032 49.4345 15.032C50.3305 15.032 51.0558 15.2773 51.6105 15.768C52.1758 16.248 52.4585 16.8773 52.4585 17.656V23H51.6905L51.3545 22.216C51.0878 22.4613 50.7412 22.6853 50.3145 22.888C49.8878 23.0907 49.4612 23.192 49.0345 23.192C48.1385 23.192 47.4718 22.968 47.0345 22.52C46.5972 22.0613 46.3785 21.4853 46.3785 20.792C46.3785 20.024 46.6345 19.4427 47.1465 19.048C47.6692 18.6427 48.3465 18.44 49.1785 18.44H51.1785C51.1785 17.8 51.0772 17.256 50.8745 16.808C50.6718 16.36 50.2078 16.136 49.4825 16.136C48.9598 16.136 48.5278 16.1947 48.1865 16.312C47.8452 16.4293 47.5305 16.552 47.2425 16.68C47.1892 16.52 47.1305 16.36 47.0665 16.2C47.0025 16.04 46.9385 15.88 46.8745 15.72Z" fill="white"/>
<path d="M58.393 22.968C58.2757 23.0213 58.105 23.08 57.881 23.144C57.6677 23.208 57.4437 23.24 57.209 23.24C56.5477 23.24 56.0143 23.048 55.609 22.664C55.2143 22.28 55.017 21.72 55.017 20.984V16.328H53.913L53.897 15.368H55.017V13.4L56.297 13.032V15.368H57.705L58.121 16.328H56.297V20.808C56.297 21.2027 56.3823 21.528 56.553 21.784C56.7237 22.0293 57.0063 22.152 57.401 22.152C57.5183 22.152 57.6463 22.136 57.785 22.104C57.9237 22.0613 58.0303 22.024 58.105 21.992L58.393 22.968Z" fill="white"/>
<path d="M70.6894 14.088C70.22 13.9493 69.836 13.8427 69.5374 13.768C69.2387 13.6827 68.8547 13.64 68.3854 13.64C67.5214 13.64 66.8547 13.992 66.3854 14.696C65.916 15.4 65.6814 16.3653 65.6814 17.592C65.6814 18.648 65.8787 19.56 66.2734 20.328C66.668 21.096 67.3294 21.48 68.2574 21.48C68.716 21.48 69.1427 21.432 69.5374 21.336C69.9427 21.24 70.3107 21.1227 70.6414 20.984L71.4254 22.52C71.0094 22.7333 70.508 22.904 69.9214 23.032C69.3347 23.16 68.8174 23.224 68.3694 23.224C66.6734 23.224 65.4414 22.68 64.6734 21.592C63.9054 20.504 63.5214 19.176 63.5214 17.608C63.5214 15.9333 63.9427 14.5627 64.7854 13.496C65.6387 12.4293 66.86 11.896 68.4494 11.896C68.7694 11.896 69.212 11.9493 69.7774 12.056C70.3427 12.1627 70.86 12.344 71.3294 12.6L70.6894 14.088Z" fill="white"/>
<path d="M74.6378 20.68C74.6378 20.904 74.7284 21.1067 74.9098 21.288C75.0911 21.4587 75.3311 21.544 75.6298 21.544C75.9178 21.544 76.2058 21.48 76.4938 21.352C76.7924 21.224 77.0751 21.032 77.3418 20.776V19.592H75.7738C75.4111 19.592 75.1284 19.704 74.9258 19.928C74.7338 20.152 74.6378 20.4027 74.6378 20.68ZM75.6618 23.192C74.7124 23.192 74.0084 22.9627 73.5498 22.504C73.0911 22.0347 72.8618 21.4267 72.8618 20.68C72.8618 19.88 73.1338 19.2667 73.6778 18.84C74.2218 18.4133 74.9311 18.2 75.8058 18.2H77.3258C77.3151 17.8053 77.1978 17.5013 76.9738 17.288C76.7604 17.064 76.4618 16.952 76.0778 16.952C75.7151 16.952 75.3204 17.0053 74.8938 17.112C74.4671 17.208 74.1098 17.3253 73.8218 17.464L73.2618 15.736C73.5604 15.5333 74.0138 15.368 74.6218 15.24C75.2404 15.1013 75.7151 15.032 76.0458 15.032C76.9738 15.032 77.7684 15.304 78.4298 15.848C79.0911 16.3813 79.4218 17.064 79.4218 17.896V23H78.3498L77.8378 22.344C77.5498 22.568 77.2084 22.7653 76.8138 22.936C76.4298 23.1067 76.0458 23.192 75.6618 23.192Z" fill="white"/>
<path d="M84.8878 21.416C85.6024 21.416 86.1038 21.16 86.3918 20.648C86.6798 20.1253 86.8238 19.5973 86.8238 19.064C86.8238 18.456 86.6958 17.912 86.4398 17.432C86.1838 16.952 85.6664 16.712 84.8878 16.712C84.6638 16.712 84.4291 16.7547 84.1838 16.84C83.9491 16.9147 83.7251 17.0213 83.5118 17.16V20.968C83.7251 21.096 83.9491 21.2027 84.1838 21.288C84.4291 21.3733 84.6638 21.416 84.8878 21.416ZM81.4478 15.24H82.5038L82.9518 15.816C83.3038 15.5493 83.7144 15.336 84.1838 15.176C84.6531 15.016 85.0691 14.936 85.4318 14.936C86.5731 14.936 87.4478 15.3307 88.0558 16.12C88.6638 16.9093 88.9678 17.8907 88.9678 19.064C88.9678 20.2373 88.6531 21.2187 88.0238 22.008C87.4051 22.7973 86.5411 23.192 85.4318 23.192C85.1544 23.192 84.8398 23.144 84.4878 23.048C84.1464 22.952 83.8211 22.8187 83.5118 22.648V26.344L81.4478 26.504V15.24Z" fill="white"/>
<path d="M94.1846 21.416C94.8993 21.416 95.4006 21.16 95.6886 20.648C95.9766 20.1253 96.1206 19.5973 96.1206 19.064C96.1206 18.456 95.9926 17.912 95.7366 17.432C95.4806 16.952 94.9633 16.712 94.1846 16.712C93.9606 16.712 93.726 16.7547 93.4806 16.84C93.246 16.9147 93.022 17.0213 92.8086 17.16V20.968C93.022 21.096 93.246 21.2027 93.4806 21.288C93.726 21.3733 93.9606 21.416 94.1846 21.416ZM90.7446 15.24H91.8006L92.2486 15.816C92.6006 15.5493 93.0113 15.336 93.4806 15.176C93.95 15.016 94.366 14.936 94.7286 14.936C95.87 14.936 96.7446 15.3307 97.3526 16.12C97.9606 16.9093 98.2646 17.8907 98.2646 19.064C98.2646 20.2373 97.95 21.2187 97.3206 22.008C96.702 22.7973 95.838 23.192 94.7286 23.192C94.4513 23.192 94.1366 23.144 93.7846 23.048C93.4433 22.952 93.118 22.8187 92.8086 22.648V26.344L90.7446 26.504V15.24Z" fill="white"/>
<path d="M103.946 23.192C102.602 23.192 101.54 22.824 100.762 22.088C99.9935 21.352 99.6095 20.3653 99.6095 19.128C99.6095 17.8907 99.9562 16.8987 100.65 16.152C101.354 15.4053 102.308 15.032 103.514 15.032C104.73 15.032 105.62 15.4373 106.186 16.248C106.762 17.048 107.049 17.9973 107.049 19.096V19.736H101.818C101.914 20.248 102.148 20.6587 102.521 20.968C102.895 21.2667 103.385 21.416 103.993 21.416C104.345 21.416 104.66 21.3733 104.938 21.288C105.225 21.192 105.556 21.0587 105.93 20.888L106.538 22.392C106.175 22.6693 105.732 22.872 105.21 23C104.698 23.128 104.276 23.192 103.946 23.192ZM105.081 18.344C104.975 17.8213 104.783 17.4373 104.506 17.192C104.228 16.936 103.881 16.808 103.465 16.808C103.039 16.808 102.682 16.9413 102.394 17.208C102.106 17.464 101.919 17.8427 101.834 18.344H105.081Z" fill="white"/>
<path d="M110.824 11.704V23H108.76V11.88L110.824 11.704Z" fill="white"/>
<path d="M115.074 11.704V23H113.01V11.88L115.074 11.704Z" fill="white"/>
<path d="M118.7 20.68C118.7 20.904 118.791 21.1067 118.972 21.288C119.154 21.4587 119.394 21.544 119.692 21.544C119.98 21.544 120.268 21.48 120.556 21.352C120.855 21.224 121.138 21.032 121.404 20.776V19.592H119.836C119.474 19.592 119.191 19.704 118.988 19.928C118.796 20.152 118.7 20.4027 118.7 20.68ZM119.724 23.192C118.775 23.192 118.071 22.9627 117.612 22.504C117.154 22.0347 116.924 21.4267 116.924 20.68C116.924 19.88 117.196 19.2667 117.74 18.84C118.284 18.4133 118.994 18.2 119.868 18.2H121.388C121.378 17.8053 121.26 17.5013 121.036 17.288C120.823 17.064 120.524 16.952 120.14 16.952C119.778 16.952 119.383 17.0053 118.956 17.112C118.53 17.208 118.172 17.3253 117.884 17.464L117.324 15.736C117.623 15.5333 118.076 15.368 118.684 15.24C119.303 15.1013 119.778 15.032 120.108 15.032C121.036 15.032 121.831 15.304 122.492 15.848C123.154 16.3813 123.484 17.064 123.484 17.896V23H122.412L121.9 22.344C121.612 22.568 121.271 22.7653 120.876 22.936C120.492 23.1067 120.108 23.192 119.724 23.192Z" fill="white"/>
<path d="M129.654 15.24L130.07 16.904C129.718 16.904 129.308 17.0053 128.838 17.208C128.38 17.4107 127.926 17.7093 127.478 18.104V23H125.398V15.24H126.486L127.174 16.376C127.494 16.0987 127.884 15.8427 128.342 15.608C128.801 15.3627 129.238 15.24 129.654 15.24Z" fill="white"/>
<path d="M132.173 11.8C132.503 11.8 132.781 11.912 133.005 12.136C133.239 12.36 133.357 12.6373 133.357 12.968C133.357 13.2987 133.239 13.576 133.005 13.8C132.781 14.024 132.503 14.136 132.173 14.136C131.853 14.136 131.581 14.024 131.357 13.8C131.133 13.576 131.021 13.2987 131.021 12.968C131.021 12.6373 131.133 12.36 131.357 12.136C131.581 11.912 131.853 11.8 132.173 11.8ZM133.213 15.24V23H131.133V15.24H133.213Z" fill="white"/>
<g clip-path="url(#clip0_325_2)">
<path d="M15.647 0C10.6 0 6.723 1.694 4.013 5.08C1.338 8.467 0 12.82 0 18.136C0 23.114 1.22 27.33 3.658 30.786C6.096 34.239 10.008 35.966 15.392 35.966C16.815 35.966 18.458 35.763 20.32 35.356C22.183 34.951 23.775 34.409 25.096 33.731L22.606 28.856C21.556 29.296 20.388 29.668 19.101 29.973C17.849 30.278 16.494 30.43 15.038 30.43C12.091 30.43 9.992 29.21 8.738 26.77C7.486 24.333 6.858 21.437 6.858 18.085C6.858 14.19 7.604 11.125 9.095 8.89C10.585 6.655 12.701 5.537 15.445 5.537C16.799 5.537 17.95 5.657 18.899 5.893C19.847 6.096 21.134 6.453 22.759 6.96L24.792 2.235C23.3 1.422 21.66 0.847 19.864 0.508C18.068 0.168 16.663 0 15.647 0ZM16.429 9.258C13.905 9.258 11.966 10.104 10.612 11.798C9.274 13.491 8.605 15.668 8.605 18.326C8.605 20.816 9.215 22.923 10.435 24.65C11.653 26.377 13.609 27.24 16.301 27.24C17.013 27.24 17.834 27.14 18.765 26.936C19.697 26.733 20.492 26.462 21.153 26.123L19.908 23.685C19.382 23.905 18.798 24.092 18.155 24.245C17.4889 24.4001 16.8069 24.4763 16.123 24.472C14.649 24.472 13.599 23.862 12.973 22.644C12.346 21.424 12.033 19.977 12.033 18.3C12.033 16.353 12.406 14.82 13.151 13.703C13.896 12.585 14.954 12.027 16.326 12.027C17.003 12.027 17.579 12.087 18.053 12.204C18.527 12.306 19.171 12.484 19.983 12.738L21 10.376C20.2301 9.95991 19.3991 9.6683 18.538 9.512C17.64 9.342 16.938 9.258 16.428 9.258H16.429ZM17.599 17.293C17.4746 17.2908 17.351 17.3133 17.2353 17.3591C17.1196 17.405 17.0142 17.4732 16.925 17.56C16.8378 17.646 16.7691 17.7489 16.7232 17.8624C16.6773 17.9759 16.6551 18.0976 16.658 18.22C16.658 18.483 16.746 18.703 16.924 18.88C17.11 19.058 17.334 19.148 17.597 19.148C17.857 19.148 18.075 19.058 18.244 18.88C18.3314 18.7942 18.4002 18.6913 18.4461 18.5778C18.4921 18.4642 18.5141 18.3424 18.511 18.22C18.5137 18.0976 18.4914 17.976 18.4455 17.8625C18.3996 17.749 18.3311 17.6461 18.244 17.56C18.1609 17.4723 18.0602 17.4032 17.9485 17.3572C17.8369 17.3112 17.7167 17.2893 17.596 17.293H17.599Z" fill="white"/>
</g>
<defs>
<clipPath id="clip0_325_2">
<rect width="25.096" height="35.966" fill="white"/>
</clipPath>
</defs>
</svg>
