<?xml version="1.0" encoding="utf-8"?>
<!-- Generator: Adobe Illustrator 19.1.0, SVG Export Plug-In . SVG Version: 6.00 Build 0)  -->
<svg version="1.1" id="Layer_1" xmlns="http://www.w3.org/2000/svg" xmlns:xlink="http://www.w3.org/1999/xlink" x="0px" y="0px"
	 viewBox="0 0 176 200" style="enable-background:new 0 0 176 200;" xml:space="preserve">
<style type="text/css">
	.st0{enable-background:new    ;}
	.st1{fill:#00AEEF;}
	.st2{fill:#A7A9AC;}
	.st3{fill:none;}
</style>
<g class="st0">
	<path class="st1" d="M6.1,98.1c0-11.5,2-22.9,6.1-34.3c4-11.4,9.9-21.6,17.6-30.6c7.7-9,17.2-16.3,28.5-21.9
		c11.3-5.7,24.1-8.5,38.5-8.5c17.1,0,31.6,3.9,43.6,11.6c12,7.7,21,17.8,26.9,30.2l-15.1,9.2c-3.1-6.3-6.7-11.6-11-15.9
		c-4.3-4.3-9-7.8-14-10.5c-5-2.7-10.2-4.6-15.6-5.8c-5.4-1.2-10.7-1.8-15.9-1.8c-11.5,0-21.6,2.3-30.4,7
		c-8.8,4.7-16.2,10.8-22.2,18.3c-6,7.5-10.5,16-13.6,25.4c-3.1,9.4-4.6,19-4.6,28.7c0,10.6,1.8,20.7,5.5,30.4
		c3.7,9.7,8.7,18.3,15.1,25.7c6.4,7.5,13.9,13.4,22.6,17.8c8.7,4.4,18.2,6.6,28.4,6.6c5.4,0,10.9-0.7,16.6-2
		c5.7-1.3,11.1-3.5,16.4-6.5c5.3-3,10.2-6.6,14.7-11c4.5-4.4,8.3-9.7,11.3-16l15.6,8.1c-3.1,7.2-7.4,13.5-12.9,19
		c-5.6,5.5-11.8,10.1-18.6,13.9c-6.8,3.8-14,6.6-21.7,8.6c-7.6,2-15.1,3-22.5,3c-13.1,0-25.1-2.9-36.1-8.6
		c-11-5.7-20.4-13.2-28.3-22.5c-7.9-9.2-14-19.7-18.4-31.5C8.3,122.3,6.1,110.3,6.1,98.1z"/>
</g>
<g class="st0">
	<path class="st2" d="M48.8,98c0-5.7,1-11.5,3-17.2c2-5.7,5-10.8,8.8-15.3c3.9-4.5,8.6-8.1,14.3-11c5.7-2.8,12.1-4.2,19.3-4.2
		c8.5,0,15.8,1.9,21.8,5.8c6,3.9,10.5,8.9,13.5,15.1l-7.5,4.6c-1.5-3.1-3.4-5.8-5.5-7.9c-2.2-2.2-4.5-3.9-7-5.2
		c-2.5-1.3-5.1-2.3-7.8-2.9c-2.7-0.6-5.3-0.9-7.9-0.9c-5.7,0-10.8,1.2-15.2,3.5c-4.4,2.3-8.1,5.4-11.1,9.2c-3,3.8-5.3,8-6.8,12.7
		c-1.5,4.7-2.3,9.5-2.3,14.3c0,5.3,0.9,10.4,2.8,15.2c1.8,4.8,4.4,9.1,7.5,12.9c3.2,3.7,7,6.7,11.3,8.9c4.4,2.2,9.1,3.3,14.2,3.3
		c2.7,0,5.5-0.3,8.3-1c2.8-0.7,5.6-1.8,8.2-3.2c2.6-1.5,5.1-3.3,7.3-5.5c2.2-2.2,4.1-4.9,5.7-8l7.8,4c-1.5,3.6-3.7,6.8-6.5,9.5
		c-2.8,2.7-5.9,5-9.3,6.9c-3.4,1.9-7,3.3-10.8,4.3c-3.8,1-7.6,1.5-11.2,1.5c-6.6,0-12.6-1.4-18-4.3c-5.5-2.9-10.2-6.6-14.1-11.2
		c-4-4.6-7-9.9-9.2-15.8C49.9,110.1,48.8,104.1,48.8,98z"/>
</g>
<rect id="_x3C_Slice_x3E_" x="0.2" class="st3" width="175" height="199"/>
</svg>
