<svg xmlns="http://www.w3.org/2000/svg" viewBox="0 0 210 297" height="297mm" width="210mm"><path d="M35.93 53.967c-5.047 0-8.925 1.693-11.634 5.08-2.676 3.387-4.014 7.74-4.014 13.056 0 4.978 1.22 9.194 3.658 12.648 2.44 3.456 6.35 5.183 11.735 5.183 1.422 0 3.065-.203 4.928-.61 1.862-.406 3.454-.948 4.775-1.625l-2.49-4.877c-1.05.442-2.217.814-3.504 1.12-1.253.303-2.608.456-4.065.456-2.947 0-5.046-1.22-6.3-3.658-1.253-2.438-1.88-5.334-1.88-8.687 0-3.893.746-6.958 2.236-9.193 1.49-2.236 3.607-3.353 6.35-3.353 1.355 0 2.506.118 3.454.355.948.203 2.236.56 3.86 1.067l2.033-4.725c-1.49-.813-3.133-1.39-4.928-1.727-1.795-.34-3.2-.508-4.216-.508zm.782 9.258c-2.523 0-4.462.846-5.817 2.54-1.337 1.693-2.006 3.87-2.006 6.528 0 2.49.608 4.597 1.828 6.324 1.22 1.727 3.174 2.59 5.867 2.59.71 0 1.532-.1 2.464-.304.93-.203 1.726-.474 2.386-.813l-1.244-2.438c-.525.22-1.11.406-1.753.56-.628.15-1.305.227-2.033.227-1.473 0-2.523-.61-3.15-1.83-.626-1.22-.94-2.667-.94-4.343 0-1.947.373-3.48 1.118-4.597.745-1.118 1.804-1.677 3.175-1.677.678 0 1.254.06 1.728.178.474.103 1.117.28 1.93.534l1.016-2.362c-.745-.406-1.566-.694-2.464-.863-.897-.17-1.6-.255-2.108-.255zm1.17 8.035c-.263 0-.487.09-.673.267-.18.178-.268.397-.268.66 0 .262.09.482.267.66.185.178.41.267.67.267.264 0 .48-.09.65-.267.177-.178.266-.398.266-.66 0-.263-.09-.482-.267-.66-.17-.178-.386-.267-.65-.267z" style="line-height:1.25;-inkscape-font-specification:'Palanquin Dark'" font-size="40" font-family="Palanquin Dark" letter-spacing="0" word-spacing="0"/></svg>