<svg xmlns="http://www.w3.org/2000/svg" style="isolation:isolate" width="260" height="260"><defs><clipPath id="a"><path d="M0 0h260v260H0z"/></clipPath></defs><g clip-path="url(#a)"><path d="M153.117 0c-36.484 0-64.517 12.238-84.1 36.723C49.672 61.207 40 92.674 40 131.102c0 35.986 8.819 66.462 26.443 91.431C84.082 247.516 112.346 260 151.274 260c10.279 0 22.156-1.467 35.623-4.41 13.461-2.935 24.969-6.853 34.518-11.746l-18-35.256c-7.59 3.196-16.026 5.885-25.33 8.097-9.057 2.19-18.852 3.296-29.385 3.296-21.303 0-36.477-8.819-45.542-26.443-9.057-17.624-13.59-38.559-13.59-62.797 0-28.142 5.393-50.298 16.164-66.455 10.771-16.164 26.074-24.238 45.903-24.238 9.795 0 18.116.853 24.969 2.566 6.853 1.468 16.163 4.048 27.903 7.713l14.696-34.156c-10.771-5.877-22.648-10.048-35.624-12.484C170.604 1.229 160.447.014 153.103.014l.014-.014zm5.653 66.925c-18.238 0-32.255 6.115-42.05 18.361-9.665 12.238-14.501 27.976-14.501 47.19 0 18 4.395 33.231 13.214 45.715 8.819 12.484 22.944 18.723 42.412 18.723 5.132 0 11.074-.723 17.812-2.198 6.722-1.467 12.477-3.426 17.248-5.877l-8.993-17.624c-3.795 1.591-8.024 2.935-12.672 4.048-4.54 1.085-9.434 1.641-14.697 1.641-10.648 0-18.238-4.409-22.77-13.228-4.526-8.82-6.795-19.28-6.795-31.395 0-14.075 2.696-25.157 8.081-33.231 5.386-8.082 13.041-12.123 22.952-12.123 4.901 0 9.065.434 12.491 1.287 3.427.744 8.075 2.024 13.952 3.86l7.345-17.075c-5.386-2.935-11.321-5.017-17.812-6.238-6.485-1.229-11.566-1.844-15.239-1.844l.022.008zm8.458 58.083c-1.901 0-3.521.651-4.865 1.931-1.301 1.286-1.938 2.869-1.938 4.771 0 1.894.651 3.484 1.93 4.771 1.338 1.286 2.964 1.93 4.844 1.93 1.908 0 3.47-.651 4.699-1.93 1.279-1.287 1.922-2.877 1.922-4.771 0-1.902-.65-3.485-1.93-4.771-1.229-1.287-2.79-1.931-4.698-1.931h.036z" fill="#1F3A93"/></g></svg>