<?xml version="1.0" encoding="utf-8"?>
<!-- Generator: Adobe Illustrator 19.1.0, SVG Export Plug-In . SVG Version: 6.00 Build 0)  -->
<svg version="1.1" id="Layer_1" xmlns="http://www.w3.org/2000/svg" xmlns:xlink="http://www.w3.org/1999/xlink" x="0px" y="0px"
	 viewBox="0 0 600 600" style="enable-background:new 0 0 600 600;" xml:space="preserve">
<style type="text/css">
	.st0{fill:#BE1E2D;}
	.st1{fill:#1C75BC;}
	.st2{fill:#00A651;}
	.st3{fill:#FFDE17;}
</style>
<g>
	<path d="M313.8,522c-0.3-7.2,0.1-14.5,1.2-21.7c0.3-1.8,0.5-3.6,1-5.4l1.2-5.3l1.5-5.2c0.5-1.8,1.1-3.5,1.7-5.2
		c2.4-6.9,5.2-13.6,8.5-20.1c3.3-6.5,6.9-12.8,10.9-18.9c3.9-6.1,8.2-12,12.6-17.8l13.5-17c4.4-5.7,8.7-11.5,12.5-17.5
		c0.5-0.8,0.9-1.5,1.4-2.3c0.5-0.8,0.9-1.6,1.4-2.3c0.9-1.5,1.7-3.1,2.5-4.7c1.6-3.2,3-6.4,4.2-9.8c2.4-6.7,4-13.6,4.2-20.6l0-2.6
		l-0.1-2.6l0-0.3l0-0.3l-0.1-0.7l-0.1-1.4c-0.1-0.9-0.3-1.7-0.4-2.6c-0.6-3.4-1.6-6.8-2.9-9.9c-2.7-6.4-6.8-12.2-12.1-16.4
		c-2.7-2.1-5.7-3.8-8.8-4.9c-0.8-0.3-1.7-0.6-2.5-0.8l-2.4-0.6l-2.5-0.4l-2.6-0.2c-6.8-0.4-13.8,1-20.4,3.2c-6.7,2.3-13,5.4-19.1,9
		c-6,3.7-11.7,8-16.1,13.2c-4.4,5.2-7.5,11.5-8,18.2l-4.9,0c-0.5-8.6-2.3-17.1-5-25.3c-2.8-8.2-6.6-16-11.4-23.1l-0.9-1.3l-0.2-0.3
		l-0.1-0.1c0,0-0.1-0.1,0,0l-0.1-0.2l-0.5-0.7c-0.7-0.9-1.3-1.8-2-2.6c-1.3-1.6-2.8-3.2-4.3-4.7c-3-3-6.3-5.7-9.9-8
		c-7.1-4.6-15.3-7.7-23.6-8.3l-3-0.2l-3.3,0.1l-3,0.3l-3.1,0.6c-4.1,0.9-8,2.4-11.7,4.4c-7.3,4-13.5,10.3-16.8,17.9
		c-0.2,0.5-0.4,0.9-0.6,1.4l-0.5,1.5l-0.2,0.6l-0.2,0.8l-0.4,1.6l-0.2,0.8l-0.1,0.7l-0.2,1.5c-0.2,1-0.2,2.1-0.3,3.1
		c-0.2,4.2,0.2,8.4,1.2,12.6c1.9,8.3,5.6,16.2,10,23.8c1.1,1.9,2.2,3.8,3.4,5.6c1.2,1.9,2.4,3.7,3.6,5.5c2.4,3.7,4.9,7.3,7.5,10.9
		c5.1,7.2,10.4,14.2,15.8,21.2c5.4,7,10.8,14,16.1,21.1c5.3,7.1,10.6,14.2,15.7,21.4c5.2,7.2,10.2,14.5,15.1,21.8
		c4.9,7.3,9.8,14.8,14.5,22.2c4.7,7.5,9.4,15,13.9,22.6c2.3,3.8,4.5,7.6,6.7,11.4l1.7,2.9c0.6,0.9,1,2,1.8,2.8
		c0.4,0.4,0.8,0.8,1.3,1c0.5,0.2,1.1,0.2,1.5-0.1c0.2-0.1,0.3-0.4,0.3-0.7c0-0.3-0.1-0.5-0.3-0.8c-0.1-0.2-0.3-0.5-0.6-0.6
		c-0.3-0.1-0.5,0.1-0.6,0.4c0.1-0.1,0.1-0.3,0.2-0.4c0.1-0.1,0.3-0.1,0.4-0.1c0.3,0.1,0.5,0.3,0.6,0.6c0.1,0.2,0.3,0.5,0.3,0.8
		c0,0.3,0,0.6-0.3,0.8c-0.5,0.3-1.1,0.3-1.6,0.1c-0.5-0.2-1-0.6-1.4-1c-0.8-0.8-1.3-1.8-1.9-2.8l-1.7-2.8c-2.3-3.8-4.7-7.5-7.1-11.2
		c-4.7-7.5-9.5-14.9-14.5-22.2c-4.9-7.3-9.9-14.6-15-21.8c-5.1-7.2-10.3-14.4-15.5-21.5c-5.2-7.1-10.6-14.1-16-21.1
		c-5.4-7-10.9-13.9-16.4-20.8c-5.5-6.9-10.9-13.9-16.2-21.1c-2.6-3.6-5.2-7.2-7.7-10.9c-1.3-1.8-2.5-3.7-3.7-5.5
		c-1.2-1.9-2.4-3.8-3.5-5.7c-4.6-7.7-8.5-15.9-10.6-24.9c-1.1-4.5-1.6-9.1-1.4-13.7c0.1-1.2,0.1-2.3,0.3-3.5l0.3-1.8l0.1-0.9
		l0.2-0.8l0.4-1.6l0.2-0.8l0.1-0.2l0-0.1l0.1-0.2l0.1-0.4l0.6-1.7c0.2-0.6,0.4-1.1,0.6-1.6c3.7-8.7,10.6-15.7,18.7-20.3
		c4.1-2.3,8.4-4,13-5l3.4-0.6l3.6-0.4l3.3-0.1l0.2,0l0.1,0l0.2,0l0.4,0l0.9,0l1.7,0.1c9.3,0.7,18.2,4.1,25.9,9
		c3.9,2.5,7.5,5.4,10.7,8.6c1.6,1.6,3.2,3.3,4.7,5.1c0.8,0.9,1.4,1.8,2.1,2.6l0.5,0.7l0.1,0.2l0.2,0.2l0.2,0.4l1,1.4
		c5.1,7.5,9.1,15.7,12,24.3c2.9,8.6,4.7,17.5,5.2,26.6l-4.9,0c0.3-3.9,1.4-7.8,3-11.3c1.6-3.5,3.8-6.8,6.2-9.7
		c4.9-5.8,11-10.3,17.3-14.2l2.4-1.4c0.8-0.5,1.6-0.9,2.4-1.3c1.7-0.9,3.3-1.7,5-2.5c3.4-1.6,6.8-3,10.3-4.2
		c7.1-2.3,14.6-3.8,22.2-3.3c1,0.1,1.9,0.2,2.9,0.3l2.8,0.5c1,0.2,1.9,0.5,2.9,0.7c0.9,0.3,1.7,0.6,2.6,0.9c3.7,1.4,7,3.3,10,5.7
		c6,4.8,10.5,11.2,13.3,18.2c1.4,3.5,2.4,7.1,3,10.9c0.1,0.9,0.3,1.9,0.4,2.8l0.1,1.4l0.1,0.7l0,0.4l0,0.4l0.1,2.8l-0.1,2.8
		c-0.4,7.5-2.1,14.8-4.7,21.7c-2.6,6.9-6.1,13.5-10.1,19.6c-4,6.2-8.4,12-12.9,17.6l-13.7,16.8c-4.5,5.7-8.9,11.4-12.9,17.4
		c-4,6-7.8,12.1-11.2,18.5c-3.4,6.4-6.3,12.9-8.8,19.7c-0.6,1.7-1.3,3.4-1.8,5.1l-1.6,5.2l-1.3,5.2c-0.4,1.7-0.7,3.5-1.1,5.3
		C314.4,507.6,313.7,514.8,313.8,522z"/>
</g>
<g>
	<path class="st0" d="M243.3,343.1l1.7,6.9l1.8,6.8l1.9,6.8l1,3.4c0.3,1.1,0.7,2.2,1,3.4c0.7,2.2,1.4,4.5,2.1,6.7l2.3,6.6
		c0.8,2.2,1.6,4.4,2.4,6.6c0.8,2.2,1.7,4.3,2.6,6.5l-4.7,0.9c-0.1-2.7,0-5.5,0-8.2c0.1-2.7,0.2-5.5,0.4-8.2l0.2-2l0.2-2.1
		c0.1-0.6,0.2-1.5,0.3-2.2c0.1-0.7,0.3-1.5,0.6-2.2c0.2-0.7,0.5-1.5,0.9-2.2c0.4-0.7,0.8-1.5,1.4-2.2c0.6-0.7,1.3-1.3,2.2-1.8
		c0.9-0.5,1.8-0.8,2.8-0.9l0.9-0.1l0.6,0.5l1.3,1c0.4,0.3,0.8,0.7,1.2,1.1c0.4,0.4,0.7,0.8,1.1,1.2c0.4,0.4,0.7,0.8,0.9,1.3
		c0.3,0.4,0.6,0.9,0.8,1.3c0.2,0.5,0.5,0.9,0.7,1.4c0.4,0.9,0.8,1.9,1.1,2.8c0.3,1,0.6,1.9,0.8,2.9c0.2,1,0.4,1.9,0.5,2.9
		c0.3,1.9,0.4,3.9,0.5,5.8c0.1,3.8,0.1,7.5,0,11.3c0,1.9-0.1,3.8-0.1,5.6c0,1.9-0.1,3.8-0.2,5.6c-0.3-1.9-0.5-3.7-0.8-5.6
		c-0.2-1.9-0.5-3.7-0.7-5.6l-0.6-5.6c-0.2-1.9-0.4-3.7-0.6-5.5c-0.2-1.8-0.6-3.6-1-5.4c-0.2-0.9-0.4-1.7-0.7-2.6
		c-0.2-0.9-0.5-1.7-0.9-2.5c-0.3-0.8-0.7-1.6-1.1-2.3c-0.2-0.4-0.4-0.7-0.6-1.1c-0.2-0.4-0.5-0.7-0.7-1c-0.2-0.3-0.5-0.7-0.8-0.9
		c-0.3-0.3-0.5-0.6-0.8-0.9c-0.3-0.3-0.6-0.5-0.9-0.8l-1-0.7l1.5,0.4c-0.4,0.1-0.7,0.2-1,0.4c-0.3,0.2-0.6,0.5-0.9,0.8
		c-0.3,0.3-0.5,0.8-0.7,1.3c-0.2,0.5-0.4,1-0.6,1.6c-0.2,0.6-0.3,1.1-0.4,1.7c-0.1,0.6-0.2,1.1-0.2,1.8l-0.3,4
		c-0.2,2.7-0.3,5.3-0.4,8c-0.1,2.7-0.1,5.3-0.1,8l-0.1,13.2l-4.7-12.3c-0.8-2.2-1.7-4.5-2.4-6.7c-0.8-2.3-1.5-4.5-2.2-6.8l-1-3.4
		l-0.9-3.4c-0.6-2.3-1.2-4.6-1.7-6.9c-0.5-2.3-1-4.6-1.4-7l-0.6-3.5l-0.5-3.5l-0.5-3.5c-0.1-1.2-0.3-2.4-0.4-3.5
		C243.6,347.8,243.4,345.5,243.3,343.1z"/>
</g>
<g>
	<path class="st0" d="M286.9,373c0,0-0.1,0-0.2-0.1c-0.1-0.1-0.3-0.2-0.6-0.3c-0.5-0.2-1.3-0.2-2.2,0.3c-0.9,0.4-1.5,1.3-1.8,2.6
		c-0.3,1.3-0.3,2.9-0.3,4.7c0,1.8,0,3.8,0.1,5.7c0.1,2,0.5,4,1.2,5.8c0.1,0.2,0.2,0.5,0.3,0.7l0.3,0.6l0.4,0.8
		c0.1,0.2,0.2,0.3,0.4,0.5c0.5,0.7,1.2,1.4,2,2c1.5,1.1,3.4,1.8,5,1.6c0.2,0,0.4-0.1,0.6-0.1l0.6-0.2c0.2-0.1,0.3-0.2,0.5-0.2
		c0,0-0.2,0.1-0.1,0.1l0,0l0,0l0.1-0.1l0.2-0.1c0.1-0.1,0.3-0.2,0.3-0.2c0.2-0.2,0.5-0.4,0.8-0.8c0.3-0.3,0.5-0.7,0.8-1.1
		c0.9-1.6,1.4-3.7,1.7-5.8c0.2-2.1,0.4-4.3,0.2-6.2c-0.1-1.9-0.5-3.7-1.2-5.1c-0.1-0.2-0.2-0.3-0.2-0.5c-0.1-0.2-0.2-0.4-0.3-0.6
		c-0.2-0.3-0.4-0.6-0.6-0.9c-0.5-0.6-1-1.1-1.5-1.5c-1.1-0.8-2.2-1.4-3.1-1.7c-1-0.3-1.8-0.3-2.4-0.2c-0.6,0.1-0.9,0.1-0.9,0.1
		s0.1,0,0.2-0.1c0.1-0.1,0.3-0.2,0.6-0.3c0.5-0.2,1.4-0.5,2.6-0.5c1.1,0,2.6,0.3,4,1c0.7,0.4,1.5,0.9,2.2,1.5
		c0.4,0.3,0.7,0.7,1.1,1.1c0.1,0.2,0.3,0.3,0.4,0.5c0.2,0.3,0.3,0.4,0.5,0.7c1.2,1.7,2,3.8,2.4,6.1c0.4,2.3,0.5,4.6,0.5,7
		c0,1.2-0.2,2.5-0.5,3.8c-0.3,1.3-0.7,2.6-1.4,4c-0.4,0.6-0.8,1.3-1.3,1.9c-0.5,0.6-1.1,1.1-1.8,1.7c-0.2,0.2-0.3,0.2-0.4,0.3
		l-0.5,0.3c-0.4,0.2-0.7,0.4-1.1,0.5c-0.4,0.1-0.8,0.3-1.2,0.4c-0.4,0.1-0.8,0.2-1.2,0.2c-3.3,0.3-6.3-1-8.5-2.8
		c-1.1-0.9-2.1-2-2.9-3.2c-0.2-0.3-0.4-0.7-0.6-1l-0.4-0.8l-0.1-0.1l0,0l0-0.1l0-0.1l-0.1-0.2l-0.2-0.5c-0.1-0.3-0.2-0.6-0.3-0.9
		c-0.7-2.5-0.9-5-0.7-7.2c0.1-2.2,0.5-4.2,0.8-6.1c0.3-1.8,0.6-3.6,1.4-5.1c0.4-0.8,0.9-1.4,1.5-1.9c0.6-0.5,1.3-0.8,1.8-0.9
		c1.2-0.3,2.2,0.1,2.6,0.4C286.7,372.7,286.9,373,286.9,373z"/>
</g>
<g>
	<path class="st0" d="M304.1,374l0.6,6.3l0.7,6.2l0.8,6.2c0.3,2.1,0.6,4.1,1,6.2l0.5,3.1l0.6,3.1l0.6,3.1l0.6,3c0.4,2,0.9,4,1.4,6.1
		c0.5,2,1,4,1.5,6l-4.7,1.1l-1.8-8l-1.7-8c-1.1-5.3-2.2-10.7-3.3-16.1l-0.9-4.7l4.3,2.2c0.7,0.3,1.4,0.7,2.1,0.8l0.6,0.1l0.6,0.1
		c0.4,0.1,0.8,0.1,1.2,0.1c0.4,0,0.8,0,1.2-0.1c0.4-0.1,0.8-0.1,1.2-0.2c0.8-0.2,1.6-0.4,2.3-0.8c0.8-0.3,1.4-0.8,2.1-1.3
		c0.6-0.5,1.2-1.1,1.7-1.7l0.4-0.5c0.1-0.2,0.2-0.3,0.3-0.5l0.1-0.3l0.1-0.1l0,0c-0.1,0.2,0,0,0,0.1l0,0l0,0l0-0.1l0.3-0.7
		c0-0.1,0.1-0.2,0.1-0.3l0.1-0.3l0.2-0.5c0.1-0.4,0.2-0.8,0.2-1.2c0.1-0.8,0.1-1.7-0.1-2.5c-0.1-0.9-0.3-1.7-0.6-2.5
		c-0.2-0.4-0.3-0.8-0.5-1.2c-0.2-0.4-0.4-0.8-0.7-1.1c-0.2-0.4-0.5-0.7-0.8-1.1c-0.3-0.4-0.6-0.7-0.9-1c-0.3-0.3-0.7-0.6-1-0.9
		c-0.4-0.3-0.7-0.5-1.1-0.7c-0.4-0.2-0.8-0.4-1.2-0.6c-0.4-0.1-0.8-0.2-1.3-0.3c-0.9-0.1-1.8,0-2.7,0.3c-0.9,0.3-1.5,1.1-1.6,2.1
		c-0.1-1,0.5-2,1.4-2.6c0.9-0.6,1.9-0.8,2.9-0.9c0.5,0,1.1,0,1.6,0.1c0.5,0.1,1,0.3,1.5,0.4c1,0.4,1.9,0.9,2.7,1.5
		c0.4,0.3,0.8,0.6,1.2,1c0.4,0.3,0.7,0.7,1.1,1.1c0.7,0.8,1.3,1.7,1.8,2.6c0.5,1,0.9,2,1.1,3c0.3,1,0.4,2.1,0.4,3.2
		c0,0.6-0.1,1.1-0.1,1.7l-0.2,0.9l-0.1,0.4c0,0.1-0.1,0.2-0.1,0.4l-0.2,0.7l0,0.1l0,0l-0.1,0.1l-0.1,0.2l-0.2,0.4
		c-0.1,0.3-0.2,0.5-0.4,0.8l-0.4,0.7c-0.6,1-1.4,1.8-2.2,2.6c-0.8,0.7-1.7,1.4-2.7,2c-1,0.6-2,1-3.1,1.3c-0.5,0.2-1.1,0.3-1.6,0.4
		c-0.6,0.1-1.1,0.2-1.7,0.2c-0.6,0-1.1,0-1.7,0l-0.9-0.1l-0.9-0.2c-1.2-0.2-2.3-0.7-3.3-1.2l3.4-2.5c1.2,5.3,2.4,10.6,3.6,16l1.7,8
		l1.6,8l-4.7,1.1c-0.5-2.1-0.9-4.1-1.4-6.2c-0.4-2.1-0.8-4.2-1.1-6.3c-0.3-2.1-0.6-4.2-0.8-6.3c-0.2-2.1-0.5-4.2-0.6-6.3
		c-0.1-2.1-0.3-4.2-0.4-6.3l-0.1-3.2l0-3.2l0-3.2l0.1-3.2C303.7,378.2,303.9,376.1,304.1,374z"/>
</g>
<g>
	<path class="st0" d="M328.1,378.9c0,0,1,0.1,2.9,0.2c0.9,0.1,2,0.1,3.2,0c1.2-0.1,2.5-0.4,3.6-1c1.2-0.6,2.2-1.6,2.6-2.7l0.1-0.2
		l0-0.1l0,0l0,0c-0.1,0.3,0,0.1-0.1,0.1l0-0.2l0.2-0.7c0-0.1,0-0.2,0-0.3c0-0.1,0-0.3-0.1-0.4c-0.1-0.5-0.4-1.1-0.8-1.6
		c-0.8-1.1-2.2-1.9-3.6-2.2c-0.7-0.1-1.3-0.1-1.9,0l-0.4,0.1l-0.2,0l-0.1,0c-0.1,0.1-0.3,0.1-0.4,0.2l-0.5,0.2l-0.5,0.3
		c-1.3,0.8-2.5,2.1-3.5,3.6c-0.9,1.5-1.7,3.1-2.1,4.8c-0.4,1.6-0.6,3.2-0.3,4.6c0.1,0.7,0.4,1.3,0.7,1.8c0,0.1,0.5,0.7,0.6,0.8
		c0.2,0.2,0.4,0.4,0.7,0.6c1,0.7,2.3,1.1,3.5,1.3c1.2,0.2,2.3,0.3,3.2,0.3c0.9,0,1.6,0,2.1,0c0.5,0,0.8,0,0.8,0s-0.2,0.1-0.7,0.3
		c-0.5,0.2-1.2,0.4-2.1,0.7c-0.9,0.2-2,0.5-3.4,0.6c-1.3,0.1-3,0-4.8-0.7c-0.4-0.2-0.9-0.4-1.3-0.8l-0.3-0.2l-0.2-0.2l-0.2-0.2
		l-0.1-0.1l0,0l0,0l-0.1-0.1l-0.1-0.1c-0.7-0.8-1.3-1.7-1.7-2.8c-0.8-2.1-0.8-4.4-0.5-6.6c0.4-2.2,1.1-4.4,2.3-6.4
		c1.2-2,2.8-4,5-5.3l0.9-0.5l0.9-0.4c0.3-0.1,0.7-0.2,1-0.4l0.3-0.1l0.2,0l0.4-0.1c1.4-0.3,2.9-0.2,4.2,0.1c1.3,0.3,2.5,1,3.5,1.7
		c1,0.8,1.9,1.7,2.6,2.8c0.7,1.1,1.1,2.4,1.2,3.7c0,0.3,0,0.6,0,1c-0.1,0.4-0.1,0.7-0.2,1.1l-0.2,0.6l-0.1,0.2l-0.1,0.2l0,0l0,0.1
		l-0.1,0.1l-0.2,0.4c-1.2,2.1-3.2,3.2-4.9,3.7c-1.8,0.5-3.4,0.4-4.8,0.2c-1.3-0.2-2.4-0.6-3.3-1c-0.9-0.3-1.5-0.7-2-0.9
		C328.3,379,328.1,378.9,328.1,378.9z"/>
</g>
<g>
	<path d="M433,275l-0.6,7.2l-0.3-0.1c1.3-4.6,3.1-9,5.4-13.1c2.3-4.2,4.9-8.1,7.9-11.8c5.9-7.4,13-13.9,20.6-19.6
		c3.8-2.8,7.8-5.4,11.8-7.9c4-2.5,8.1-4.9,12.3-7.1c8.3-4.6,16.7-8.9,24.9-13.5c2.1-1.1,4.1-2.3,6.1-3.5c1-0.6,2-1.2,3-1.8
		c1-0.6,1.9-1.2,2.8-1.9c1.8-1.3,3.5-2.8,4.7-4.4c0.6-0.8,1.1-1.7,1.5-2.6c0.1-0.2,0.2-0.5,0.2-0.7l0.1-0.3l0.1-0.2l0-0.1l0,0
		c0,0,0-0.1,0,0c0.1-0.3,0.1-0.6,0.2-0.8c0-0.2,0.1-0.4,0.1-0.7c0.2-1.9-0.2-4-1-6c-0.2-0.5-0.4-1-0.6-1.5l-0.3-0.7l-0.3-0.7
		c-0.6-1-1.1-2.1-1.7-2.9c-1.2-1.8-2.6-3.6-4.1-5.2c-1.5-1.6-3.2-3.1-5-4.4c-3.6-2.6-7.7-4.5-11.9-5.7c-0.5-0.2-1.1-0.3-1.6-0.4
		c-0.5-0.1-1.1-0.2-1.6-0.3l-1.6-0.2l-1.8-0.1c-0.6-0.1-1.1,0-1.6,0c-0.5,0-1.1,0-1.6,0c-0.6,0-1.1,0-1.7,0.1l-1.6,0.2
		c-2.2,0.3-4.4,0.8-6.5,1.5c-2.1,0.7-4.1,1.6-6.1,2.6c-1.9,1.1-3.8,2.3-5.5,3.7c-1.7,1.4-3.3,2.9-4.7,4.6l-4,4.7l-0.4-6.1
		c-0.3-5.5-1.8-11-4.5-15.9c-1.3-2.5-2.9-4.8-4.6-7c-0.9-1.1-1.8-2.2-2.8-3.2c-0.5-0.5-1-1-1.5-1.5l-1.5-1.5
		c-4.1-3.9-8.9-7.1-14-9.7c-5-2.5-10.5-3.9-16.2-4.7c-2.8-0.4-5.7-0.7-8.6-0.8c-2.9-0.2-5.8-0.2-8.6-0.1c-5.7,0.3-11.3,1.3-16.5,3.5
		c-0.7,0.3-1.3,0.6-1.9,0.9c-0.6,0.3-1.2,0.7-1.8,1c-1.2,0.7-2.3,1.5-3.4,2.3c-2.2,1.7-4.2,3.6-5.7,5.9c-1.6,2.2-2.9,4.6-3.6,7.2
		l-0.3,1l0,0.1c0,0,0-0.1,0,0l0,0.1l0,0.3l-0.1,0.5l-0.2,1.1c-0.1,0.4-0.1,0.7-0.1,1c-0.1,0.6-0.1,1.3-0.1,2c0,0.7,0,1.4,0.1,2
		c0.5,5.5,2.7,10.8,5.9,15.5c1.6,2.4,3.4,4.6,5.4,6.6c0.5,0.5,1,1,1.5,1.5l1.6,1.5c1.1,1,2.1,1.9,3.3,2.8c4.5,3.7,9.3,7.2,14,10.8
		c4.7,3.7,9.3,7.6,13.2,12.2c7.9,9.1,13.3,20.3,15.8,31.9c1.3,5.9,1.8,11.8,2.1,17.7c0.2,5.9,0.1,11.8-0.1,17.8
		c-0.1-5.9-0.3-11.8-0.7-17.7c-0.4-5.9-1.2-11.8-2.6-17.4c-1.4-5.7-3.6-11.2-6.3-16.3c-2.7-5.1-6.2-9.9-10.1-14.2
		c-3.9-4.3-8.4-8-13.1-11.5c-4.7-3.5-9.6-6.8-14.3-10.6c-1.2-0.9-2.3-1.9-3.5-2.9l-1.7-1.5c-0.6-0.5-1.1-1.1-1.7-1.6
		c-2.2-2.2-4.1-4.5-5.9-7c-3.5-5-6.2-10.9-6.8-17.2c-0.1-0.8-0.1-1.6-0.1-2.4c0-0.8,0-1.6,0.1-2.5c0-0.4,0-0.9,0.1-1.2l0.2-1.1
		l0.1-0.5l0-0.3l0-0.2l0-0.1l0.3-1.2c0.8-3.1,2.3-6,4.1-8.6c1.8-2.6,4.1-4.9,6.5-6.8c1.2-1,2.5-1.9,3.9-2.7c0.7-0.4,1.3-0.8,2.1-1.2
		c0.7-0.4,1.5-0.7,2.1-1c5.7-2.5,11.9-3.7,18-4c3.1-0.2,6.1-0.1,9.1,0c3,0.2,6,0.4,9,0.8c6,0.8,12.1,2.3,17.7,5.1
		c5.5,2.8,10.6,6.2,15.1,10.4l1.7,1.6c0.5,0.5,1.1,1.1,1.6,1.7c1.1,1.1,2,2.3,3,3.5c1.9,2.5,3.7,5,5.1,7.8c3,5.5,4.7,11.7,5.1,18
		l-4.3-1.5c1.6-1.9,3.4-3.7,5.4-5.3c2-1.6,4.1-2.9,6.3-4.1c2.2-1.2,4.5-2.1,6.9-2.9c2.4-0.8,4.8-1.3,7.3-1.6l1.9-0.2
		c0.6,0,1.3-0.1,1.9-0.1c0.6,0,1.3,0,1.9,0c0.6,0,1.3,0,1.9,0.1l1.8,0.2l1.9,0.3c0.6,0.1,1.2,0.2,1.8,0.4c0.6,0.1,1.2,0.3,1.8,0.4
		c4.8,1.3,9.4,3.6,13.4,6.5c2,1.5,3.9,3.1,5.6,5c1.7,1.8,3.2,3.8,4.6,5.9c0.7,1.1,1.3,2.1,1.8,3.2l0.1,0.2l0.1,0.1l0.1,0.2l0.2,0.4
		l0.4,0.9c0.2,0.6,0.5,1.2,0.7,1.8c0.8,2.4,1.4,5.1,1.1,7.9c0,0.3-0.1,0.7-0.1,1.1c-0.1,0.4-0.1,0.6-0.2,0.9l-0.3,1.1
		c-0.1,0.3-0.2,0.6-0.4,1c-0.5,1.3-1.3,2.4-2.1,3.5c-1.6,2.1-3.6,3.7-5.7,5.1c-1,0.7-2,1.4-3.1,2c-1,0.6-2.1,1.2-3.1,1.8
		c-2.1,1.2-4.1,2.3-6.2,3.4c-8.4,4.5-16.8,8.6-25.2,13c-8.3,4.3-16.5,8.9-24.2,14.3c-7.7,5.3-14.9,11.4-21,18.5
		c-6.1,7.1-11,15.2-14,24.2l-0.3-0.1L433,275z"/>
</g>
<g>
	<path class="st1" d="M426.4,167c0,0,0.1-0.2-0.1-0.4c-0.1-0.1-0.2-0.1-0.4-0.1c-0.1,0-0.1,0-0.2,0.1c0,0,0,0,0,0.1
		c-0.1,0.1,0,0.1-0.1,0.1c-0.1,0.3,0,0.9,0,1.7c0,0.8,0,1.7,0.1,2.7c0,1.9,0,4.2,0,6.6c0,0.6,0,1.2,0,1.8c0,0.6,0,1.2,0,1.9
		c0,1.3-0.1,2.5-0.1,3.8c-0.1,1.3-0.1,2.6-0.2,3.8c0,1.3-0.1,2.5-0.2,3.7c-0.1,1.2-0.1,2.4-0.2,3.5c-0.1,1.1-0.2,2.2-0.2,3.1
		c-0.1,1-0.2,1.9-0.2,2.7c-0.1,0.8-0.2,1.5-0.2,2.1c-0.1,1.2-0.3,1.8-0.3,1.8s-1.2-2.5-2.1-6.4c-0.5-2-0.9-4.3-1.1-6.8
		c-0.2-2.5-0.3-5.2-0.2-7.8c0.1-2.7,0.4-5.3,0.8-7.8c0.4-2.5,1-4.7,1.6-6.7c0.3-1,0.6-1.8,0.9-2.6c0.3-0.7,0.5-1.6,1.3-2.1
		c0.1-0.1,0.2-0.1,0.3-0.1c0.1,0,0.2-0.1,0.3-0.1c0.2,0,0.4,0.1,0.5,0.1c0.3,0.2,0.4,0.4,0.5,0.6C426.7,166.7,426.6,166.9,426.4,167
		C426.5,167,426.4,167,426.4,167z"/>
</g>
<g>
	<path class="st1" d="M438.9,191c0,0,0.1,0.2,0.2,0.5c0.1,0.3,0.3,0.8,0.3,1.5c0.1,0.6,0.1,1.4,0.1,2.3c0,0.9-0.1,1.9-0.1,2.9
		c0,1-0.1,2,0.2,2.9c0.2,0.9,0.6,1.9,1.1,2.4c0.3,0.3,0.5,0.4,0.7,0.5c0.1,0,0.1,0,0.2,0.1l0,0l0,0l0,0c0.1,0-0.2-0.1-0.2,0l0,0
		l0.2,0l0.2,0c0,0,0,0,0,0c0,0,0,0,0,0l0.1,0c0.5-0.1,1.2-0.4,1.8-1.2c0.3-0.3,0.6-0.8,0.9-1.2c0.1-0.2,0.2-0.4,0.3-0.7l0.1-0.2l0,0
		l0,0c0-0.1,0,0.1,0,0l0,0l0-0.1c0-0.2,0.1-0.4,0.2-0.5c0.1-0.4,0.3-1,0.3-1.5c0.1-0.5,0.1-1,0.1-1.6c0-1-0.2-2-0.5-2.8
		c-0.2-0.4-0.4-0.8-0.6-1.2c-0.2-0.3-0.5-0.7-0.8-1c-1.2-1.2-2.8-1.8-3.9-1.9c-0.6-0.1-1,0-1.4,0c-0.3,0-0.5,0.1-0.5,0.1
		s0.1-0.1,0.4-0.3c0.3-0.2,0.7-0.5,1.3-0.7c0.6-0.2,1.5-0.4,2.4-0.4c1,0,2.1,0.3,3.2,0.8c0.6,0.3,1.1,0.6,1.7,1.1
		c0.5,0.4,1,1,1.4,1.6c0.8,1.2,1.4,2.7,1.7,4.3c0.1,0.8,0.2,1.6,0.1,2.4c0,0.8-0.1,1.6-0.4,2.5l-0.1,0.5l0,0.1l-0.1,0.2l-0.1,0.3
		c-0.1,0.4-0.3,0.8-0.5,1.2c-0.4,0.8-0.9,1.5-1.5,2.2c-0.6,0.7-1.4,1.3-2.2,1.8c-0.9,0.5-1.9,0.8-3,0.9c-0.1,0-0.3,0-0.4,0l-0.5,0
		l-0.5-0.1l-0.2-0.1l-0.2-0.1l0,0c0,0-0.3-0.1-0.2-0.1l0,0l-0.1,0l-0.2-0.1c-0.3-0.1-0.5-0.2-0.7-0.4c-0.9-0.5-1.7-1.3-2.2-2.1
		c-1-1.6-1.2-3.2-1.2-4.6c0-1.5,0.4-2.7,0.7-3.8c0.8-2.1,1.5-3.5,1.9-4.7c0.2-0.6,0.3-1,0.4-1.4C438.9,191.2,438.9,191,438.9,191z"
		/>
</g>
<g>
	<path class="st1" d="M457.2,194.9c0.2,1.5,0.3,3,0.4,4.4c0.1,0.7,0.1,1.5,0.2,2.2l0.2,2.2l0.5,8.8l-2.8-0.4
		c1.2-3.3,2.6-6.6,4.5-9.6c0.9-1.5,1.9-3,3-4.4c0.5-0.7,1.1-1.4,1.6-2.1c0.6-0.7,1.1-1.3,1.8-2l1.3-1.4l-0.2,1.8
		c-0.2,1.5-0.3,3-0.6,4.6c-0.3-1.5-0.5-3-0.7-4.6l1.2,0.4l-1.3,2.2l-1.3,2.2c-0.8,1.5-1.6,3-2.4,4.5c-0.8,1.5-1.5,3.1-2.2,4.6
		c-0.7,1.5-1.3,3.1-2,4.7l-2.7,6.9l-0.1-7.3c0-1.5,0-3,0-4.5c0-1.5,0.2-3,0.3-4.4c0.2-1.5,0.3-3,0.5-4.4
		C456.6,197.9,456.9,196.4,457.2,194.9z"/>
</g>
<g>
	<path class="st1" d="M469,206.9c0,0,0.2,0.1,0.6,0.2c0.2,0.1,0.4,0.1,0.7,0.2c0.1,0,0.3,0.1,0.4,0.1c0.2,0,0.3,0,0.5,0
		c0.7,0.1,1.6,0,2.5-0.3c0.9-0.3,1.9-0.8,2.8-1.5c0.9-0.7,1.7-1.8,2.1-2.9c0.2-0.6,0.3-1.2,0.3-1.8c0-0.6-0.2-1.2-0.4-1.6
		c-0.1-0.2-0.3-0.4-0.4-0.5c-0.2-0.1-0.3-0.2-0.6-0.2c-0.2,0-0.8,0.1-1.3,0.5c-0.5,0.3-1.1,0.9-1.6,1.4c-0.3,0.3-0.5,0.6-0.8,0.9
		c-0.3,0.3-0.5,0.6-0.8,0.9c-1,1.3-2,2.6-2.6,4c-0.6,1.4-0.9,2.7-0.6,4l0.1,0.5c0.1,0.1,0.1,0.3,0.2,0.4l0,0.1l0,0.1l0,0l0,0
		c0,0,0.1,0.1,0-0.1l0.2,0.3l0.3,0.5c0.2,0.3,0.3,0.4,0.5,0.6c0.2,0.2,0.4,0.4,0.7,0.6c1,0.7,2.3,1,3.5,1.1c2.4,0.2,4.6-0.1,6-0.3
		c1.5-0.3,2.3-0.5,2.3-0.5s-0.2,0.1-0.6,0.3c-0.4,0.2-0.9,0.5-1.6,0.7c-0.7,0.3-1.6,0.6-2.6,0.9c-1,0.3-2.3,0.5-3.6,0.6
		c-1.4,0-3-0.1-4.5-0.9c-0.4-0.2-0.8-0.5-1.1-0.7c-0.4-0.3-0.7-0.7-1-1l-0.3-0.5l-0.2-0.2l-0.1-0.1l0,0l0,0l0-0.1l-0.1-0.2
		c-0.1-0.2-0.2-0.4-0.3-0.7l-0.2-0.7c-0.5-1.9-0.2-4,0.5-5.7c0.7-1.7,1.8-3.3,2.9-4.7c0.3-0.4,0.6-0.7,0.9-1c0.3-0.3,0.6-0.6,0.9-1
		c0.7-0.7,1.4-1.3,2.3-1.9c0.9-0.5,2-1,3.5-0.7c0.5,0.1,1.2,0.4,1.7,0.8c0.5,0.4,0.8,0.9,1.1,1.4c0.5,1,0.6,2,0.6,3
		c-0.1,0.9-0.3,1.8-0.7,2.6c-0.8,1.6-2,2.7-3.2,3.4c-1.2,0.8-2.5,1.1-3.6,1.3c-1.1,0.2-2.1,0-2.9-0.2c-0.2-0.1-0.4-0.1-0.5-0.2
		c-0.2-0.1-0.3-0.1-0.5-0.2c-0.3-0.1-0.5-0.2-0.7-0.4C469.2,207.1,469,206.9,469,206.9z"/>
</g>
<g>
	<path d="M222.6,238c0-3.1,0-6.2,0.1-9.2l0.3-4.6c0.1-1.5,0.2-3.1,0.4-4.6l0.6-4.6c0.2-1.5,0.4-3.1,0.7-4.6l0.8-4.6l0.4-2.3l0.5-2.3
		c1.3-6,2.7-12,4.3-18c1.5-6,3.2-11.9,4.8-17.8c1.6-5.9,3.2-11.9,4.7-17.8c1.5-6,2.7-11.9,3.8-18c0.3-1.5,0.5-3,0.7-4.5l0.6-4.5
		c0.2-1.5,0.3-3,0.4-4.5l0.4-4.5c0.1-3,0.1-6.1,0.2-9.1l-0.1-2.3l-0.2-2.2c-0.1-1.5-0.3-3-0.6-4.4c-1.1-5.8-3.2-11.5-7.2-15.3
		c-0.5-0.5-1-0.9-1.6-1.3c-0.6-0.4-1.1-0.8-1.7-1.1c-0.6-0.3-1.2-0.7-1.8-0.9l-0.5-0.2l-0.5-0.1c-0.3-0.1-0.6-0.2-0.9-0.3
		c-2.7-0.7-5.5-0.8-8.5-0.5c-2.9,0.2-5.9,0.8-8.9,1.3c-3,0.6-5.9,1.2-8.9,1.9c-2.9,0.7-5.9,1.5-8.7,2.5c-2.9,0.9-5.7,2-8.5,3.2
		c-5.5,2.3-10.8,5.3-15.6,8.8l-1.8,1.4l-0.4,0.3l-0.2,0.2c0,0,0.1-0.1,0,0l-0.1,0l-0.1,0.1l-0.9,0.8c-0.6,0.5-1.2,1-1.7,1.5
		l-1.6,1.5c-2,2.1-4,4.3-5.7,6.7c-0.4,0.6-0.9,1.2-1.2,1.8l-1.2,1.9c-0.7,1.3-1.5,2.5-2.1,3.9c-1.3,2.6-2.3,5.4-3.1,8.2l-0.5,2.1
		l-0.4,2.1c-0.2,0.7-0.2,1.4-0.3,2.2c-0.1,0.7-0.2,1.4-0.2,2.2c-0.2,2.9,0.1,5.8,0.6,8.6l0.8,4.8l-4.3-2.1
		c-5.2-2.5-10.9-4.2-16.8-4.7c-2.9-0.3-5.9-0.4-8.8-0.2c-2.9,0.2-5.9,0.5-8.7,1.2c-2.9,0.6-5.7,1.4-8.5,2.4c-2.8,1-5.5,2.2-8.1,3.6
		c-5.2,2.8-10.1,6.2-14.4,10.2c-2.2,2-4.2,4.2-6,6.5c-1.8,2.3-3.5,4.7-5,7.3l-0.3,0.5l-0.1,0.2c0.1-0.1,0,0,0,0l0,0.1l-0.1,0.1
		l-0.5,1c-0.3,0.7-0.7,1.4-1,2l-0.8,2l-0.7,2.1c-0.9,2.8-1.7,5.6-2,8.5c-0.8,5.8-0.3,11.7,1.8,17c1.1,2.6,2.6,5,4.4,7.2l1.5,1.5
		l0.2,0.2l0,0c0,0,0.1,0.1,0,0l0.1,0.1l0.5,0.4l0.9,0.7l0.9,0.7c0.3,0.2,0.6,0.4,0.9,0.5c0.6,0.3,1.1,0.7,1.8,1
		c2.5,1.3,5.3,2.2,8.1,2.8c2.9,0.5,5.8,0.8,8.8,0.8c6,0,12-0.7,18.1-1.4c3.1-0.4,6.1-0.8,9.2-1l4.6-0.4c1.5-0.1,3.1-0.1,4.7-0.2
		l2.3-0.1c0.8,0,1.6,0,2.3,0c1.5,0,3.1,0,4.6,0.1c3.1,0.2,6.2,0.4,9.3,0.8c3.1,0.3,6.1,0.9,9.2,1.4c1.5,0.3,3,0.7,4.5,1l2.3,0.5
		l2.2,0.6c6,1.5,11.8,3.6,17.5,5.9l4.2,1.8l4.2,2c0.7,0.3,1.4,0.7,2.1,1l2,1.1c1.3,0.8,2.7,1.5,4,2.3c5.3,3.1,10.3,6.7,15.1,10.5
		l-0.2,0l5.1-4.1l-5,4.3l-0.1,0.1l-0.1-0.1c-5-3.6-10.1-6.9-15.4-9.9c-1.3-0.8-2.7-1.4-4.1-2.1l-2-1c-0.7-0.3-1.4-0.6-2.1-1
		l-4.2-1.9l-4.3-1.7c-5.7-2.1-11.5-4-17.5-5.3l-2.2-0.5l-2.2-0.4c-1.5-0.3-3-0.6-4.5-0.8c-3-0.4-6-0.9-9-1.1c-3-0.4-6.1-0.4-9.1-0.6
		c-1.5,0-3,0-4.5,0c-0.8,0-1.5,0-2.3,0l-2.3,0.1c-1.5,0.1-3,0.1-4.5,0.3l-4.6,0.5c-3,0.3-6,0.8-9,1.2c-6.1,0.9-12.2,1.7-18.5,1.8
		c-3.2,0-6.3-0.2-9.5-0.7c-3.2-0.6-6.3-1.5-9.3-3c-0.7-0.4-1.5-0.8-2.2-1.3c-0.4-0.2-0.8-0.4-1.1-0.7l-0.9-0.7l-0.9-0.7l-0.5-0.3
		l-0.1-0.1c-0.2-0.2-0.1-0.1-0.1-0.1l-0.1-0.1l-0.2-0.2l-1.8-1.7c-2.2-2.5-4-5.3-5.3-8.3c-2.5-6.1-3-12.8-2.2-19.2
		c0.3-3.2,1.1-6.3,2.1-9.4l0.8-2.3l1-2.3c0.3-0.8,0.7-1.4,1-2.1l0.5-1l0.2-0.3L67,164l0.3-0.5c1.5-2.8,3.4-5.4,5.3-7.9
		c2-2.5,4.1-4.9,6.4-7c4.6-4.4,9.8-8.1,15.4-11.1c2.8-1.5,5.7-2.8,8.7-3.9c3-1.1,6-2,9.2-2.7c3.1-0.7,6.3-1.1,9.5-1.3
		c3.2-0.2,6.4-0.2,9.6,0.2c6.4,0.6,12.7,2.4,18.5,5.2l-3.6,2.7c-0.5-3.2-0.8-6.5-0.6-9.8c0-0.8,0.1-1.6,0.2-2.4
		c0.1-0.8,0.2-1.6,0.3-2.4l0.4-2.4l0.6-2.4c0.9-3.1,2-6.2,3.4-9c0.7-1.5,1.5-2.8,2.3-4.2l1.3-2c0.4-0.7,0.9-1.3,1.4-2
		c1.8-2.6,4-5,6.2-7.3l1.8-1.7c0.6-0.6,1.2-1,1.8-1.5l0.9-0.8l0.3-0.2l0.2-0.2l0.5-0.4l1.9-1.5c2.6-1.9,5.3-3.6,8-5.1
		c2.8-1.5,5.6-2.9,8.6-4.1c2.9-1.2,5.9-2.3,8.9-3.2c3-1,6-1.8,9.1-2.5c3-0.7,6.1-1.3,9.2-1.9c3-0.5,6.2-1.1,9.4-1.3
		c3.2-0.2,6.6-0.1,9.9,0.8c3.3,0.9,6.4,2.7,8.8,5.1c2.4,2.4,4.2,5.3,5.5,8.3c1.3,3,2.1,6.2,2.6,9.3c0.3,1.6,0.4,3.2,0.6,4.7l0.1,2.4
		l0,2.3c-0.1,3.1-0.1,6.3-0.3,9.4l-0.4,4.7c-0.2,1.5-0.2,3.1-0.5,4.6l-0.7,4.6c-0.2,1.5-0.5,3.1-0.8,4.6c-1.2,6.1-2.6,12.1-4.2,18.1
		c-0.8,3-1.6,6-2.5,8.9c-0.9,3-1.7,5.9-2.6,8.9c-1.8,5.9-3.6,11.8-5.3,17.7c-1.7,5.9-3.4,11.8-4.8,17.8l-0.6,2.2l-0.5,2.3l-0.9,4.5
		c-0.3,1.5-0.6,3-0.8,4.5l-0.7,4.5c-0.3,1.5-0.4,3-0.6,4.6l-0.5,4.6C222.8,231.9,222.7,234.9,222.6,238z"/>
</g>
<g>
	<path class="st2" d="M135.9,188l0.6,0.4l0.6,0.5c0.4,0.3,0.7,0.7,1.1,1.1c0.7,0.8,1.2,1.6,1.8,2.4c0.6,0.8,1.2,1.5,1.8,2.1
		c0.3,0.3,0.7,0.5,1,0.6l0.5,0.2c0.2,0,0.4,0.1,0.5,0.1l2.9,0.7l-2.6,1.7c-2,1.3-4.1,2.6-6.4,3.6c-2.2,1.1-4.5,1.9-6.9,2.7l-1.8,0.5
		l-0.8-1.9c-0.9-2.1-1.7-4.3-2.3-6.6c-0.7-2.2-1.2-4.5-1.6-6.8l4.8-1.2c0.8,2.4,1.6,4.8,2.4,7.3c0.8,2.4,1.6,4.9,2.3,7.3l1.6,5.1
		l-4.8-2.2c-2.1-0.9-4.1-2-6.2-3c-2-1.1-4-2.2-5.9-3.5c-1-0.6-1.9-1.2-2.9-1.9c-0.9-0.7-1.9-1.3-2.8-2c-0.9-0.7-1.8-1.4-2.7-2.1
		c-0.9-0.7-1.8-1.5-2.6-2.2l-1.5-1.3l1.9,0c1.2,0,2.3,0.4,3.2,1.1c0.4,0.3,0.8,0.8,1.1,1.2c0.3,0.5,0.5,0.9,0.6,1.5
		c-0.2-0.5-0.6-0.8-0.9-1.2c-0.4-0.3-0.8-0.6-1.2-0.8c-0.8-0.4-1.8-0.5-2.6-0.3l0.4-1.4l2.9,1.6l3,1.6c1,0.5,2,1,3,1.5l3,1.5l3,1.4
		l3,1.4l3,1.3c1,0.4,2,0.8,3.1,1.2l-3.2,2.9c-0.9-2.4-1.7-4.8-2.5-7.2c-0.8-2.4-1.6-4.8-2.4-7.3l4.8-1.2c0.3,2.1,0.8,4.3,1.3,6.4
		c0.5,2.1,1.1,4.2,1.8,6.3l-2.5-1.3c2.2-0.5,4.4-1.1,6.6-1.8c2.2-0.7,4.3-1.6,6.4-2.6l0.3,2.4c-0.3-0.1-0.6-0.2-0.9-0.3
		c-0.3-0.2-0.5-0.3-0.8-0.5c-0.5-0.4-0.9-0.8-1.3-1.2c-0.7-0.9-1.2-1.8-1.6-2.7c-0.4-0.9-0.8-1.8-1.2-2.7c-0.2-0.4-0.5-0.9-0.7-1.3
		C136.6,188.8,136.3,188.4,135.9,188z"/>
</g>
<g>
	<path d="M127.3,175.8c0,0-0.2,0-0.5-0.1c-0.3,0-0.6-0.1-0.9-0.2c-0.6-0.1-1.1-0.3-1.1-0.5l0,0l0,0c-4.5,0,6.1,0,5,0l0,0l0,0l0,0
		l0,0c0,0,0,0,0,0c0,0,0,0-0.1,0.1c0,0-0.1,0.1-0.2,0.1c-0.2,0.1-0.5,0.2-0.8,0.2c-0.3,0.1-0.7,0.1-1,0.2
		C127.5,175.7,127.3,175.8,127.3,175.8s-0.2,0-0.5-0.1c-0.3,0-0.6-0.1-1-0.2c-0.3-0.1-0.6-0.1-0.8-0.2c-0.1,0-0.2-0.1-0.2-0.1
		c0,0,0,0-0.1-0.1c0,0,0,0,0,0l0,0l0,0l0,0l0,0c-1.1,0,9.5,0,5,0l0,0l0,0c0,0.2-0.4,0.3-1.1,0.5c-0.3,0.1-0.7,0.1-0.9,0.2
		C127.5,175.7,127.3,175.8,127.3,175.8z"/>
</g>
<g>
	<path class="st2" d="M141.3,183.8c1.1,0.3,2.1,0.6,3.1,0.9l3.1,1c2,0.7,4,1.4,6,2.1l-2.3,3.3c-1.6-1.4-3-2.9-4.2-4.7
		c-1.2-1.7-2.2-3.6-2.9-5.6l-1-2.6l2.6-0.6l1.5-0.4l1.5-0.2l1.5-0.1l1.5,0l1.5,0.1l1.5,0.3c0.5,0.1,1,0.2,1.5,0.4l1.4,0.5l1.4,0.6
		c0.4,0.2,0.9,0.5,1.3,0.7c0.4,0.3,0.8,0.5,1.3,0.8c0.4,0.3,0.8,0.6,1.2,0.9c0.4,0.3,0.7,0.7,1.1,1c0.3,0.4,0.7,0.7,1,1.1l0.9,1.2
		c0.2,0.4,0.5,0.8,0.7,1.2c-0.4-0.2-0.8-0.5-1.2-0.7l-1.2-0.7c-0.4-0.2-0.8-0.4-1.2-0.6l-1.2-0.5l-1.2-0.4c-0.4-0.1-0.8-0.2-1.2-0.4
		c-0.4-0.1-0.8-0.2-1.2-0.3l-1.2-0.2l-1.2-0.2c-0.4,0-0.8-0.1-1.2-0.1l-1.2,0c-0.4,0-0.8,0-1.2,0l-1.2,0.1l-1.2,0.2
		c-0.4,0.1-0.8,0.2-1.2,0.2l-1.1,0.3l1.6-3.3c0.3,0.8,0.7,1.6,1,2.4c0.4,0.8,0.8,1.6,1.2,2.3c0.5,0.8,0.9,1.5,1.4,2.2
		c0.3,0.4,0.5,0.7,0.8,1.1l0.8,1.1l6.4,8.2l-8.8-4.8c-1.9-1.1-3.8-2.2-5.5-3.5c-0.9-0.6-1.7-1.3-2.6-2
		C142.9,185.4,142.1,184.6,141.3,183.8z"/>
</g>
<g>
	<path class="st2" d="M177.1,173.7c-1.1-0.5-2.3-1-3.4-1.5c-1.1-0.5-2.2-1.1-3.3-1.7c-1.1-0.6-2.2-1.2-3.2-1.9
		c-1-0.7-2.1-1.4-3.1-2.1c-1-0.7-2-1.4-3-2.2c-1-0.8-2-1.6-2.9-2.4c-1.9-1.6-3.7-3.3-5.5-5.1l-6.1-6.2l8,3.5l2.2,1l2.1,1.2l2,1.4
		l1.9,1.5l1.8,1.7l1.6,1.8l1.5,1.9l1.3,2.1l1.1,2.2l1,2.2l0.8,2.3l0.6,2.4l0.4,2.4l0.2,2.5l0,2.5l-0.2,2.5l-0.3,2.6l-2.6-0.5
		c-0.4-0.1-0.8-0.2-1.2-0.3c-0.4-0.1-0.8-0.3-1.1-0.4c-0.4-0.2-0.7-0.4-1.1-0.6c-0.3-0.2-0.7-0.5-1-0.7c-1.2-1-2.1-2.3-2.8-3.6
		c-0.7-1.3-1-2.7-1.2-4.2c-0.1-0.7-0.1-1.5-0.1-2.2c0-0.4,0.1-0.7,0.1-1.1l0.1-0.6l0.1-0.3l0-0.1l0.1-0.2l0.3-0.9
		c0.1-0.4,0.3-0.7,0.4-1.1c0.3-0.6,0.6-1.3,0.9-1.9c0.7-1.2,1.5-2.3,2.4-3.2c1.7-2,3.7-3.6,5.7-5l-0.4,0.4l3.9-4.5l1.3-1.5l1.6,1.1
		c2,1.4,4.1,2.7,6.1,4.1l6.1,4.1l-2.3,2.7c-0.4-0.5-0.8-1-1.2-1.6c-0.3-0.5-0.7-1.1-1-1.7c-0.3-0.6-0.5-1.2-0.7-1.8
		c-0.2-0.6-0.4-1.2-0.5-1.8c-0.1-0.6-0.3-1.2-0.3-1.9c-0.1-0.6-0.1-1.3-0.1-1.9c0-0.6,0-1.3,0.1-1.9c0.1-0.6,0.2-1.2,0.3-1.9l0.2-1
		l0.8,0l1.2,0l1.2,0l1.2,0.1l1.2,0.2l1.2,0.3l1.2,0.3l1.1,0.4l1.1,0.5l1.1,0.6l1,0.6l1,0.7l0.9,0.7l0.9,0.8l0.8,0.8l0.7,0.9l0.7,0.9
		l-0.8-0.8l-0.9-0.7l-0.9-0.7l-0.9-0.6l-1-0.6l-1-0.5l-1-0.4l-1-0.4l-1.1-0.3l-1.1-0.3l-1.1-0.2l-1.1-0.1l-1.1-0.1l-1.1,0l-1.1,0.1
		l-1.1,0.2l1.1-1c-0.1,0.5-0.1,1-0.1,1.6c0,0.5,0,1.1,0.1,1.6c0.1,0.5,0.1,1,0.3,1.5c0.1,0.5,0.3,1,0.4,1.5c0.2,0.5,0.4,1,0.6,1.4
		c0.2,0.5,0.5,0.9,0.7,1.4c0.3,0.4,0.6,0.9,0.9,1.3c0.3,0.4,0.6,0.8,1,1.2l8.7,9.3l-11-6.5l-6.3-3.7c-2.1-1.2-4.2-2.5-6.3-3.8
		l2.9-0.4l-3.8,4.6l-0.1,0.2l-0.3,0.2c-1.8,1.4-3.4,2.8-4.8,4.4c-0.7,0.8-1.3,1.6-1.7,2.5c-0.2,0.4-0.4,0.9-0.6,1.3l-0.2,0.6
		l-0.2,0.8l-0.1,0.6l-0.1,0.6c0,0.4,0,0.9,0,1.3c0.1,0.9,0.4,1.8,0.8,2.6c0.2,0.4,0.4,0.8,0.7,1.1c0.3,0.3,0.5,0.6,0.8,0.9
		c0.1,0.1,0.3,0.2,0.5,0.3l0.5,0.3c0.2,0.1,0.3,0.1,0.5,0.2c0.2,0,0.3,0.1,0.5,0.1l-2.8,2.1l0.2-2l0.1-2l-0.1-2.1l-0.3-2l-0.5-2
		l-0.6-2l-0.8-1.9l-0.9-1.9l-1-1.8l-1.2-1.7l-1.3-1.6l-1.4-1.5l-1.6-1.4l-1.7-1.3l-1.8-1.1l-1.9-1l1.9-2.7c0.8,0.9,1.6,1.8,2.4,2.7
		c0.8,0.9,1.6,1.8,2.5,2.6c0.8,0.9,1.7,1.7,2.6,2.5c0.9,0.8,1.8,1.7,2.7,2.5c0.9,0.8,1.9,1.6,2.8,2.3c1,0.8,1.9,1.5,2.9,2.3
		c1,0.7,2,1.4,3,2.1C175,172.4,176.1,173,177.1,173.7z"/>
</g>
<g>
	<path class="st2" d="M198.2,148.7c0,0,0.2,0.1,0.7,0.2c0.4,0.1,1,0.2,1.8,0.1c0.8,0,1.7-0.2,2.6-0.6c0.9-0.4,1.8-1.1,2.5-1.9
		c0.3-0.4,0.6-0.9,0.7-1.4c0-0.1,0.1-0.2,0.1-0.4l0-0.2l0-0.1l0,0c0,0.3,0,0.1,0,0.1l0,0l0-0.1l0-0.6c0-0.2-0.1-0.2-0.1-0.3
		c-0.1-0.3-0.3-0.9-0.7-1.3c-0.4-0.4-0.8-0.8-1.3-1.1c-0.5-0.3-1-0.4-1.5-0.4c-0.5,0-0.8,0.1-1.1,0.3c-0.6,0.4-1.2,1.5-1.2,2.8
		c0,0.3,0,0.7,0,1l0,0.1l0,0.1l0,0c0,0.1,0-0.1,0-0.1l0,0l0.1,0.3c0,0.2,0.1,0.5,0.1,0.6l0.1,0.4l0.2,0.5c0.1,0.3,0.3,0.7,0.4,1
		c0.7,1.3,1.6,2.4,2.7,3.2c1.1,0.9,2.4,1.4,3.6,1.7l0.6,0.1l0.4,0.1c0.3,0.1,0.6,0,0.9,0.1c0.6,0,1.3-0.1,1.9-0.2
		c1.2-0.2,2.3-0.6,3.2-1.1c0.9-0.5,1.7-1,2.3-1.6c0.6-0.5,1-1,1.3-1.3c0.3-0.3,0.4-0.5,0.4-0.5s-0.1,0.2-0.2,0.7
		c-0.1,0.4-0.3,1.1-0.8,1.8c-0.4,0.7-1,1.6-1.9,2.5c-0.9,0.9-2,1.7-3.5,2.3c-0.7,0.3-1.5,0.6-2.4,0.7c-0.4,0.1-0.8,0.2-1.4,0.2
		c-0.2,0-0.5,0-0.7,0l-0.6,0c-1-0.1-1.9-0.2-2.9-0.5c-1-0.3-1.9-0.7-2.8-1.3c-0.9-0.5-1.7-1.2-2.5-2c-0.8-0.8-1.4-1.6-2-2.6
		c-0.3-0.5-0.5-1-0.8-1.5l-0.3-0.8c-0.1-0.3-0.2-0.6-0.3-0.9c-0.1-0.3-0.1-0.5-0.2-0.8l-0.1-0.3l0-0.3l0-0.2
		c-0.1-0.6-0.1-1.2-0.1-1.8c0.1-1.2,0.3-2.4,0.9-3.6c0.6-1.2,1.5-2.3,2.7-3c1.3-0.8,2.8-1,4.1-0.8c1.3,0.2,2.5,0.7,3.4,1.4
		c1.9,1.4,3.2,3.3,3.3,5.7c0,0.3,0,0.7,0,0.9l-0.1,0.6l-0.1,0.3l-0.1,0.2l-0.1,0.4c-0.1,0.2-0.2,0.5-0.3,0.7
		c-0.4,0.9-1.1,1.6-1.7,2.2c-1.3,1.1-2.8,1.6-4,1.8c-1.3,0.2-2.4,0-3.2-0.2c-0.8-0.2-1.4-0.6-1.8-0.9
		C198.4,148.9,198.2,148.7,198.2,148.7z"/>
</g>
<g>
	<path class="st2" d="M216.1,127.4c-0.2,0.1-0.3,0.1-0.5,0.2l-0.4,0.2c-0.3,0.2-0.6,0.4-0.8,0.6c-0.2,0.2-0.5,0.4-0.6,0.7
		c-0.2,0.2-0.4,0.5-0.5,0.7c-0.1,0.2-0.3,0.5-0.4,0.7c-0.1,0.3-0.2,0.5-0.2,0.7c0,0.2-0.1,0.5-0.1,0.7c0,0.2,0,0.4,0.1,0.6l-1.1-1.8
		c0.3,0.1,0.6,0.1,1,0.1c0.3,0,0.7,0,1,0c0.7-0.1,1.6-0.3,2.4-0.5l1.4-0.4c0.2-0.1,0.5-0.1,0.7-0.2l0.8-0.2c0.6-0.1,1.1-0.2,1.7-0.3
		c0.6-0.1,1.2-0.1,1.8-0.1c1.2,0,2.6,0.3,3.9,0.9c0.3,0.2,0.6,0.4,0.9,0.6c0.1,0.1,0.3,0.2,0.4,0.3l0.3,0.3l0.1,0.2l0.3,0.4
		c0.1,0.2,0.3,0.4,0.4,0.6c0.2,0.4,0.3,0.7,0.4,1.1c0.2,0.7,0.1,1.4,0,2.1c-0.1,0.7-0.4,1.3-0.7,1.8c-0.4,0.5-0.9,1-1.5,1.2
		c-0.6,0.2-1.3,0.2-1.7-0.1c0.5-0.1,0.9-0.4,1.1-0.8c0.2-0.3,0.3-0.7,0.3-1.1c0-0.8-0.2-1.6-0.6-2c-0.1-0.1-0.2-0.2-0.3-0.3
		c0,0,0,0-0.1,0l-0.2-0.2l-0.2-0.1l0,0l0,0c0,0,0.2,0.2,0.1,0.1l0,0l0,0l-0.1,0l-0.2-0.1c-0.1,0-0.3-0.1-0.4-0.1
		c-0.6-0.1-1.3-0.1-2,0c-0.4,0.1-0.8,0.1-1.2,0.2l-1.3,0.3l-1.4,0.4c-0.5,0.1-1,0.3-1.6,0.4c-1.1,0.2-2.3,0.4-3.5,0.3
		c-0.6,0-1.3-0.2-1.9-0.3c-0.7-0.2-1.3-0.5-1.9-0.9l-1.3-0.8l0.2-1.1l0.1-0.7l0.2-0.7c0.2-0.4,0.4-0.9,0.6-1.2
		c0.3-0.4,0.5-0.7,0.9-1c0.3-0.3,0.7-0.6,1-0.8c0.4-0.2,0.7-0.4,1.1-0.6c0.4-0.1,0.8-0.2,1.2-0.3c0.4,0,0.8-0.1,1.2,0
		C215.5,127.2,215.8,127.2,216.1,127.4z"/>
</g>
<g>
	<path class="st2" d="M231.4,113.1c-0.2,0.2-0.5,0.4-0.7,0.6c-0.2,0.2-0.4,0.4-0.6,0.6c-0.4,0.4-0.7,0.9-1.1,1.3l-0.4,0.7
		c-0.1,0.2-0.3,0.5-0.4,0.7l-0.3,0.7l-0.3,0.7c-0.1,0.2-0.1,0.5-0.2,0.7l-0.2,0.7l-0.1,0.7l-0.1,0.7l0,0.7l0.1,0.7
		c0,0.2,0.1,0.4,0.1,0.7l0.2,0.6l-2.9-1.8c1.2-0.3,2.4-0.6,3.6-0.8c1.2-0.2,2.5-0.3,3.7-0.4c1.2-0.1,2.5-0.1,3.7,0
		c1.2,0.1,2.5,0.2,3.7,0.5l1.6,0.3l0.1,1.2c0.1,0.5,0,1,0,1.5c0,0.2-0.1,0.5-0.1,0.7l-0.2,0.7c-0.2,0.5-0.4,0.9-0.6,1.3
		c-0.3,0.4-0.5,0.8-0.8,1.1c-0.3,0.3-0.6,0.6-1,0.9c-0.4,0.2-0.7,0.5-1.1,0.6c-0.4,0.2-0.8,0.3-1.2,0.3c-0.4,0-0.8,0.1-1.2,0
		l0.5-0.3l0.4-0.4c0.3-0.2,0.5-0.5,0.7-0.8c0.2-0.3,0.4-0.6,0.5-0.8c0.1-0.3,0.3-0.6,0.4-0.9c0.1-0.3,0.2-0.6,0.2-0.9
		c0-0.3,0.1-0.6,0.1-0.9c0-0.3,0-0.5-0.1-0.8l-0.1-0.4c0-0.1-0.1-0.2-0.1-0.3l1.7,1.5c-1.1,0.1-2.3,0.1-3.4,0.2
		c-1.1,0.1-2.2,0.2-3.3,0.3l-1.7,0.2l-1.7,0.2l-1.7,0.3l-1.7,0.3l-2.6,0.5l-0.3-2.3l-0.1-1.1l0-1.1l0.1-1.1l0.2-1.1l0.3-1
		c0.1-0.3,0.3-0.7,0.4-1l0.5-0.9c0.2-0.3,0.4-0.6,0.6-0.9l0.7-0.8l0.7-0.7c0.3-0.2,0.5-0.4,0.8-0.6l0.8-0.5l0.9-0.4l0.9-0.3
		c0.3-0.1,0.6-0.2,0.9-0.2C230.8,113.1,231.1,113.1,231.4,113.1z"/>
</g>
<g>
	<path class="st3" d="M315.9,263.6c-0.1,1.6-0.8,3.2-1.9,4.4l-0.7,0.7l0.3-0.9c0.3-1,0.5-2,0.8-3c0.4-1,0.7-2,1.1-2.9
		c0.5-0.9,0.9-1.9,1.4-2.8c0.5-0.9,1-1.9,1.6-2.7c1.1-1.8,2.3-3.5,3.6-5.1c1.3-1.7,2.6-3.3,4-4.8c2.7-3.1,5.5-6.2,8-9.4
		c0.6-0.8,1.2-1.6,1.8-2.4l1.7-2.5l1.5-2.6c0.5-0.9,0.9-1.7,1.3-2.6c0.7-1.8,1.2-3.6,1.3-5.4c0-0.4,0-0.9,0-1.3l0-0.2
		c0,0,0-0.1,0,0.1l0,0l0,0l0-0.1l0-0.4l-0.1-0.8c-0.1-0.4-0.2-0.8-0.3-1.1c-0.2-0.4-0.3-0.8-0.5-1.2c-0.7-1.5-1.8-2.9-3.2-3.9
		c-1.4-1-3-1.7-4.7-2c-1.7-0.3-3.2-0.1-5,0.5c-1.6,0.6-3.3,1.5-4.8,2.6c-3.1,2.2-5.9,5.1-8.7,8.1l-3,3.2l-1.2-4.2
		c-0.6-2.3-1.7-4.5-3-6.6c-1.3-2.1-2.8-4.1-4.5-5.9c-1.7-1.8-3.6-3.5-5.6-4.8c-2-1.4-4.2-2.5-6.4-3.1c-2.2-0.6-4.4-0.5-5.7,0.4
		c-1.3,0.8-2.2,3.1-3,5.6c-0.8,2.5-1.4,4.9-1.8,7.5c-0.4,2.5-0.7,5-0.6,7.5c0,2.5,0.3,5,1,7.4c0.7,2.4,1.6,4.7,3,6.8
		c1.3,2.1,2.9,4.2,4.6,6.1c1.7,1.9,3.6,3.8,5.4,5.7c3.8,3.8,7.3,7.9,10.5,12.1c3.2,4.3,6.1,8.8,8.7,13.4c-3.1-4.3-6.3-8.5-9.9-12.5
		c-1.8-2-3.5-3.9-5.4-5.8c-1.9-1.9-3.8-3.6-5.8-5.4c-2-1.8-4-3.6-5.9-5.5c-1.9-1.9-3.7-4-5.3-6.4c-1.6-2.3-2.8-4.9-3.7-7.6
		c-0.9-2.7-1.3-5.5-1.4-8.3c-0.2-2.8,0.1-5.6,0.5-8.3c0.4-2.7,1-5.5,1.8-8.1c0.4-1.3,0.8-2.7,1.4-4.1c0.3-0.7,0.7-1.4,1.2-2.1
		c0.1-0.2,0.3-0.4,0.4-0.5l0.2-0.2c0.1-0.2,0.2-0.2,0.3-0.3c0.3-0.3,0.7-0.6,1-0.9c1.5-1.1,3.3-1.6,5-1.7c0.8-0.1,1.6,0,2.4,0.1
		c0.4,0,0.8,0.1,1.2,0.2l0.5,0.1l0.6,0.2c2.9,0.8,5.6,2.1,7.9,3.7c2.4,1.6,4.5,3.5,6.5,5.5c2,2,3.7,4.3,5.2,6.7
		c1.5,2.4,2.7,5.1,3.5,7.9l-4.1-1c2.9-3,5.8-6.1,9.5-8.7c1.8-1.3,3.8-2.4,6.1-3.1l0.9-0.3c0.3-0.1,0.5-0.1,0.8-0.2l0.4-0.1l0.3-0.1
		l0.2,0l0.9-0.1c0.6-0.1,1.2,0,1.9,0c0.6,0.1,1.2,0.1,1.8,0.2c2.4,0.5,4.7,1.5,6.5,3c1.9,1.5,3.4,3.5,4.4,5.7
		c0.2,0.6,0.4,1.1,0.6,1.7c0.1,0.6,0.3,1.3,0.4,1.9l0.1,0.8l0,0.4l0,0.3l0,0.2c0,0.6,0,1.2-0.1,1.8c-0.2,2.3-1,4.5-1.9,6.5
		c-0.5,1-1,2-1.5,2.9l-1.8,2.7c-0.6,0.9-1.3,1.7-1.9,2.6c-0.7,0.8-1.3,1.6-2,2.4c-2.8,3.2-5.7,6.1-8.6,9c-1.4,1.5-2.9,2.9-4.2,4.5
		c-1.4,1.5-2.7,3.1-3.9,4.7c-0.6,0.8-1.2,1.7-1.7,2.5c-0.6,0.8-1,1.7-1.6,2.6c-0.5,0.9-0.9,1.8-1.3,2.8l-1.1,2.9l-0.4-0.3
		C314.8,266.6,315.6,265.1,315.9,263.6z"/>
</g>
</svg>
